<?xml version="1.0" encoding="utf-8"?>
<svg xmlns="http://www.w3.org/2000/svg" fill="none" height="100%" overflow="visible" preserveAspectRatio="none" style="display: block;" viewBox="0 0 81.8001 81.8001" width="100%">
<g id="Frame 314" opacity="0.7">
<rect fill="var(--fill-0, white)" height="81.8001" rx="40.9001" width="81.8001"/>
<g id="Group">
<path d="M35.5886 39.4509L44.6632 42.4141L52.558 45.8985L54.7667 46.4816C55.3292 47.0166 55.919 47.5586 56.5569 48.1073C57.2565 48.7108 57.9081 49.2596 58.4089 49.6574C58.9645 50.0964 59.7876 50.9195 60.206 51.4407C60.8302 52.2226 61.324 53.0525 61.5367 53.6905C61.9139 54.8429 61.7287 56.0089 61.0016 57.0859C60.0688 58.4576 58.2099 59.8568 56.0425 60.8103C54.9381 61.2974 53.0793 61.9215 51.6801 62.2712C49.3549 62.8612 44.8553 63.4991 42.3792 63.5952C41.8786 63.6157 41.2063 63.6157 41.179 63.5952C41.124 63.5608 40.7399 62.8269 40.294 61.9147C38.7713 58.8075 37.6738 55.8923 37.0771 53.4025C36.7205 51.8936 36.4393 49.8838 36.2542 47.5038C36.206 46.8384 36.1855 44.6092 36.2267 43.8546C36.2885 42.62 36.3982 41.6187 36.5696 40.6378C36.597 40.4937 36.604 40.3634 36.5902 40.3565C36.5628 40.336 36.4805 40.3085 35.3625 39.9861L35.5887 39.4511V39.451H35.5886V39.4509ZM37.66 40.6651C37.5777 40.6651 37.3583 42.7708 37.3035 44.1015C37.2897 44.3827 37.2966 44.5679 37.3103 44.5679C37.3651 44.5679 38.4695 43.9164 39.2582 43.4225C39.9441 42.9904 41.2473 42.1261 41.4531 41.9615C41.5218 41.9135 41.515 41.9067 40.9524 41.7146C39.9991 41.3921 37.7355 40.6651 37.66 40.6651ZM42.2831 42.1878C42.2213 42.1878 42.0637 42.2769 41.6864 42.5102C40.2735 43.395 38.3528 44.4651 37.5298 44.8218C37.276 44.9315 37.2487 44.8903 37.8316 45.2882C39.0799 46.1387 40.637 46.9755 42.5439 47.8192C42.8799 47.9701 43.1611 48.0866 43.1679 48.0866C43.1816 48.0866 43.1406 47.9152 43.0858 47.7094C42.6262 46.0014 42.3655 44.2729 42.3517 42.8874C42.3449 42.2014 42.3449 42.2014 42.2831 42.181C42.2969 42.1878 42.2901 42.1878 42.2831 42.1878ZM43.2365 42.5513C43.1955 42.5924 43.2228 44.1289 43.2777 44.5473C43.4012 45.5488 43.5932 46.4816 43.9087 47.5311C43.9841 47.7847 44.0528 47.9975 44.0664 48.0112C44.094 48.0454 45.0337 47.1263 45.3423 46.7696C45.8774 46.1523 46.2957 45.535 46.6043 44.9314C46.7621 44.6227 47.009 44.0192 46.9885 43.9986C46.8787 43.9231 43.2639 42.5239 43.2365 42.5513ZM47.7224 44.3141C47.7156 44.3141 47.7088 44.3141 47.7018 44.3209C47.6881 44.3346 47.64 44.4444 47.5989 44.5679C47.3795 45.1646 46.8857 46.0426 46.4603 46.605C45.9939 47.2224 45.3834 47.8808 44.8759 48.3129C44.7112 48.4501 44.5604 48.5804 44.5399 48.601C44.4986 48.6422 44.4849 48.6353 45.603 49.0606C46.8993 49.5544 48.3123 50.0483 49.9311 50.5695C50.3178 50.6942 50.7041 50.82 51.0901 50.9468C51.152 50.9674 51.1313 50.9331 50.953 50.6519C50.1505 49.3967 48.9296 46.9343 48.2437 45.192C48.1271 44.8902 48.0105 44.5885 47.9899 44.5199C47.9624 44.4238 47.9282 44.3895 47.839 44.3415C47.791 44.3279 47.743 44.3141 47.7224 44.3141ZM49.0941 44.8834C49.0736 44.8972 49.4234 45.631 49.7664 46.3032C50.4318 47.5996 51.1588 48.8755 52.1328 50.4256C52.2974 50.6931 52.4551 50.94 52.4757 50.9675C52.51 51.0155 52.5238 51.0017 52.6335 50.7891C52.8667 50.3296 53.0588 49.7396 53.1617 49.1977C53.2646 48.6627 53.244 47.7299 53.1273 47.1538C53.0382 46.7286 53.045 46.7354 52.8393 46.6325C51.9613 46.1867 49.1216 44.856 49.0941 44.8834ZM37.2622 45.3636V45.6517C37.2622 47.1812 37.4268 49.2801 37.667 50.8098C37.7081 51.0772 37.7426 51.2966 37.7493 51.3036C37.7493 51.3036 37.9482 51.2488 38.1814 51.1801C39.2102 50.8577 40.3283 50.3844 41.3366 49.8289C42.002 49.4654 42.9691 48.8685 42.9416 48.8411C42.9349 48.8343 42.6467 48.6834 42.3107 48.505C40.9661 47.8054 39.6767 47.0509 38.5587 46.3033C38.1402 46.022 37.5093 45.5694 37.372 45.4459L37.2622 45.3636ZM54.2729 47.3938C54.2454 47.3938 54.2523 47.4486 54.2934 47.6956C54.3209 47.874 54.3552 48.2032 54.3688 48.4295C54.4238 49.4309 54.2591 50.1718 53.7652 51.1869C53.628 51.4681 53.5182 51.7013 53.5252 51.7081C53.5732 51.7493 58.1139 53.0801 59.5407 53.471C59.9659 53.5875 60.3362 53.6905 60.3638 53.6972C60.4117 53.711 60.4186 53.7042 60.398 53.5875C60.2403 52.5793 59.4721 51.2623 58.4021 50.1511C57.6887 49.4103 57.1194 48.9782 56.1454 48.4226C55.4458 48.0248 54.3689 47.4281 54.2866 47.4006C54.2865 47.3938 54.2797 47.3938 54.2729 47.3938ZM43.5726 49.3075C43.5658 49.3006 43.4012 49.3899 43.2023 49.5064C41.7344 50.357 39.6904 51.1458 37.9483 51.5504L37.7904 51.5848L38.01 51.7081C38.9222 52.2157 41.9196 53.4641 44.9856 54.6096C45.4315 54.7741 45.8704 54.9388 45.9529 54.9731C46.0352 55.0073 46.1106 55.028 46.1106 55.0211C46.1106 55.0142 45.9871 54.7741 45.8294 54.4792C44.9721 52.8742 44.1077 50.9194 43.6688 49.5613C43.6138 49.431 43.5796 49.3144 43.5726 49.3075ZM44.6632 49.6642C44.6563 49.6712 44.7112 49.8151 44.7798 49.9797C45.3765 51.427 46.1586 53.0047 47.16 54.7743C47.4137 55.227 47.6264 55.5906 47.6333 55.5906C47.6401 55.5906 47.8459 55.467 48.0928 55.3161C49.547 54.4244 50.8365 53.327 51.6801 52.2638L51.8036 52.1129L51.1795 51.9414C48.9434 51.331 47.0435 50.6726 45.1572 49.8632C44.8896 49.7534 44.67 49.6642 44.6632 49.6642ZM37.8864 52.0306C37.8796 52.1884 38.2294 53.6014 38.5175 54.6233C38.7576 55.4807 38.9634 56.1529 39.3406 57.3394C39.5052 57.8609 39.6491 58.2929 39.6561 58.2929C39.6629 58.2929 39.7041 58.286 39.7452 58.2724C41.7824 57.9019 43.6069 57.3875 45.3217 56.7016C45.8019 56.5095 46.4878 56.2008 46.5289 56.1666C46.5426 56.1527 46.131 55.9608 45.6097 55.7344C42.4889 54.3695 39.2514 52.8193 38.1402 52.154C38.01 52.0717 37.907 52.0306 37.8864 52.0306ZM53.532 52.5656C53.5183 52.5793 54.3894 53.8346 55.6104 55.5425C56.0356 56.1392 56.5295 56.8388 56.7146 57.0994C56.8998 57.3601 57.181 57.7717 57.3388 58.0186L57.627 58.4645L57.9357 58.2038C58.2992 57.9019 58.9302 57.2572 59.2114 56.9005C59.8014 56.1667 60.1991 55.3916 60.3569 54.6852C60.4323 54.3559 60.4323 54.1912 60.3638 54.1707C60.261 54.1433 58.4296 53.7111 56.7147 53.3132C55.7613 53.0938 54.657 52.8332 54.2592 52.7372C53.8613 52.641 53.5389 52.5656 53.532 52.5656ZM52.6541 52.9017L52.4347 53.1486C51.4469 54.253 50.4386 55.0693 49.2177 55.7825C48.9981 55.9061 48.8336 56.0157 48.8473 56.0227C48.8952 56.057 53.0863 57.5453 55.0274 58.2175C56.1179 58.6016 57.0165 58.9102 57.0233 58.9102C57.0301 58.9102 57.0919 58.8691 57.1606 58.8211L57.284 58.7319L57.0851 58.4439C56.4404 57.511 55.6309 56.489 53.8681 54.3627L52.6541 52.9017ZM47.1805 56.8182C47.1737 56.8114 46.8719 56.9211 46.5015 57.0584C45.6097 57.3944 44.9034 57.607 43.9567 57.8471C42.7907 58.1421 41.1034 58.4302 40.1087 58.5125C39.9578 58.5261 39.8755 58.5399 39.903 58.5605C39.9511 58.588 40.9593 58.9241 41.7001 59.1573C42.8799 59.5276 46.4809 60.5907 49.4166 61.4345C49.9584 61.5922 50.4249 61.7226 50.4523 61.7294C50.5208 61.7431 50.7473 61.6813 50.7473 61.6539C50.7473 61.6403 50.5827 61.4276 50.3837 61.1944C49.3961 60.0146 48.4151 58.6977 47.5989 57.4493C47.3726 57.1063 47.1805 56.8251 47.1805 56.8182ZM48.3878 56.8526C48.3809 56.8594 48.8679 57.6413 49.7183 58.9857C50.0819 59.555 50.4866 60.1997 50.6307 60.4261C50.7679 60.6456 50.9736 60.9886 51.0902 61.1806L51.2891 61.5305L51.392 61.503C51.639 61.4344 53.3743 60.8239 53.8339 60.6387C54.4032 60.4124 54.9931 60.1381 55.4321 59.9049C55.9808 59.6099 56.6666 59.1708 56.6118 59.1572C56.5981 59.1504 55.6584 58.8965 54.5267 58.5879C51.5224 57.7716 49.8557 57.2984 48.765 56.9554C48.566 56.8937 48.3946 56.8456 48.3878 56.8526ZM39.8482 58.8553H39.8413C39.8139 58.924 40.925 62.0106 41.3298 62.9845C41.4189 63.204 41.4531 63.259 41.5012 63.252C41.6178 63.2453 43.2296 63.0189 44.2106 62.8748C45.9184 62.6142 48.7856 62.1134 49.5057 61.9488L49.6703 61.9146L48.6485 61.6812C46.4535 61.1874 45.3972 60.9199 44.3272 60.5907C42.9759 60.1791 41.6383 59.6647 40.2872 59.0337C40.0745 58.9376 39.8962 58.8622 39.8482 58.8553Z" fill="url(#paint0_linear_0_7581)" id="Vector"/>
<path d="M44.9547 18.2953C45.1056 18.2749 47.5407 19.1528 49.1114 19.7906C51.2309 20.655 52.877 21.4781 53.8922 22.1913C54.2693 22.4589 54.7427 22.9322 54.8181 23.1173C54.8455 23.1859 54.8593 23.2682 54.8593 23.3505L53.9401 24.2216L51.7521 24.9213L46.546 25.8541L40.5924 26.8762L40.5306 26.3617C40.5511 26.3617 40.5649 26.3549 40.5853 26.3549L41.3675 26.2314L41.5251 25.9502C42.3345 24.5235 43.2262 22.7538 43.7475 21.5603C44.1521 20.6343 44.5362 19.5644 44.7489 18.7961C44.8655 18.3297 44.8792 18.3023 44.9546 18.2955V18.2953H44.9547V18.2953ZM45.0646 18.6453H45.0575C45.0508 18.652 45.0233 18.8442 44.9959 19.0704C44.8794 20.0308 44.6666 20.9567 44.3305 21.9581C44.0768 22.7127 44.0768 22.6716 44.3717 22.5823C45.0713 22.3903 48.2059 21.8485 50.4762 21.5329C50.8398 21.4849 51.1485 21.4369 51.1485 21.4301C51.1759 21.4027 49.5092 20.5315 48.7753 20.1886C47.8356 19.7564 45.2566 18.6795 45.0646 18.6453ZM51.6767 21.7181L51.4091 21.8072C49.9551 22.3011 46.2993 23.0008 44.2826 23.1654C44.0563 23.186 43.8641 23.2066 43.8574 23.2066C43.8506 23.2134 44.0425 23.3163 44.2895 23.4329C45.2634 23.9199 46.3335 24.5166 47.0743 24.9762C47.2937 25.1133 47.4927 25.2231 47.5201 25.2231C47.5475 25.2231 47.6915 25.1957 47.8424 25.1751L48.1168 25.1339L48.8026 24.4617C50.0098 23.2888 50.9564 22.3834 51.3199 22.0404L51.6767 21.7181ZM51.951 21.9307L50.9839 23.1379C50.4558 23.8033 49.9208 24.4549 49.804 24.5988C49.6876 24.743 49.5915 24.8596 49.5983 24.8665C49.6258 24.887 50.9975 24.6195 51.7246 24.4549C52.4723 24.2834 52.7809 24.2011 53.2405 24.0571L53.6178 23.9336V23.8375C53.6109 23.3779 53.0278 22.6921 52.0402 21.9925L51.951 21.9307ZM43.7338 23.5769C43.7063 23.5769 43.6721 23.6386 43.5898 23.8238C43.3566 24.3382 42.6294 25.7238 42.4513 25.9913C42.3962 26.0805 42.3004 26.0874 43.2674 25.9296C45.5926 25.5523 46.3403 25.4289 46.3403 25.4152C46.3403 25.4084 46.2717 25.3603 46.1825 25.3123C45.4623 24.9145 44.7353 24.4069 44.0905 23.865C43.9327 23.7347 43.7886 23.6112 43.7613 23.5906C43.7545 23.5769 43.7407 23.5701 43.7338 23.5769Z" fill="url(#paint1_linear_0_7581)" id="Vector_2"/>
<path d="M54.7668 23.0227C54.7668 23.0227 54.9176 23.2629 54.7736 23.6195C54.6844 23.839 54.4238 24.1064 54.1289 24.3808C54.1289 24.3808 51.0766 27.3577 50.7062 27.783C49.0189 29.7309 48.2849 31.6515 48.2163 34.2991C48.1752 36.0002 48.4976 37.4955 49.3001 39.2308C50.7268 42.3449 53.738 45.7813 58.3816 49.595L57.7024 49.3686C57.2635 49.0393 56.6667 48.6896 55.2675 47.9214C52.0369 46.1516 48.4016 44.526 43.9431 42.8524C37.5231 40.438 26.9669 37.612 20.9584 36.6929L20.3341 36.5969L20.4302 36.4459C20.9788 35.5954 21.3562 35.0673 21.809 34.5049C23.1258 32.8724 24.7239 31.5486 26.6788 30.4511C29.3676 28.9491 32.8453 27.7762 37.2487 26.905C38.0786 26.7403 39.9032 26.4249 41.3847 26.1985C44.5262 25.7116 46.5565 25.3755 48.7925 24.9914C49.595 24.8541 50.7954 24.6484 51.5911 24.477C52.0026 24.3877 52.7913 24.2025 53.4087 23.9899C53.9025 23.7978 54.6159 23.6057 54.7668 23.0227ZM52.9971 24.7375C52.9903 24.7308 52.8806 24.7718 52.7364 24.8198C52.4758 24.9089 52.1397 25.0118 51.7418 25.1216C51.4408 25.2045 51.139 25.2845 50.8364 25.3617C50.4249 25.4645 50.082 25.5606 50.0752 25.5606C50.027 25.6086 49.3343 27.8239 49.101 28.6745C49.012 28.997 48.9433 29.2713 48.9501 29.2713C48.9572 29.2782 49.0325 29.1615 49.1217 29.0038C49.9242 27.5908 51.1931 26.1573 52.661 25.0049C52.853 24.8678 52.9971 24.7444 52.9971 24.7375ZM49.6224 25.6704C49.5881 25.6704 49.4372 25.691 49.2521 25.7321C48.086 25.9927 45.9939 26.3905 44.6565 26.6169C44.4301 26.6512 44.2517 26.6924 44.2517 26.7061C44.2517 26.7198 44.3341 26.7678 44.437 26.8227C44.6633 26.9393 45.5756 27.4811 45.8773 27.6869C46.6388 28.1945 47.3246 28.7432 47.8185 29.237C48.0174 29.436 48.1889 29.6006 48.1889 29.6006C48.1889 29.6006 48.23 29.484 48.2644 29.3399C48.5112 28.3865 49.0257 26.9735 49.4921 25.9789C49.5676 25.8212 49.6294 25.6772 49.6294 25.6635C49.6294 25.6772 49.6294 25.6704 49.6224 25.6704ZM43.6825 26.8021C43.6413 26.8158 43.5727 27.049 43.4356 27.5634C43.1817 28.558 43.0651 29.6692 43.1063 30.7049C43.1201 30.993 43.1337 31.2605 43.1475 31.2949L43.168 31.3634L43.5247 31.2468C44.2586 31.0136 45.4521 30.6637 46.474 30.3757C47.0572 30.2179 47.5303 30.0739 47.5303 30.0602C47.5303 30.019 46.6797 29.1685 46.3163 28.8461C45.6236 28.2356 43.7442 26.7815 43.6825 26.8021ZM43.2092 26.8706C43.1886 26.8502 40.3695 27.337 39.0868 27.584C38.1333 27.7692 36.7479 28.0573 36.6656 28.0916C36.6244 28.1053 36.7685 28.1876 37.2281 28.3934C39.0388 29.2097 40.3833 29.9435 41.7207 30.8352C42.0705 31.0685 42.3655 31.2605 42.3723 31.2605C42.3792 31.2605 42.386 31.0616 42.386 30.8215C42.386 29.5183 42.6467 28.2014 43.1269 27.0902C43.1749 26.9804 43.2161 26.8776 43.2092 26.8706ZM35.918 28.3111C35.8974 28.3317 35.9866 28.8873 36.0689 29.2165C36.3158 30.2385 36.9811 31.7545 37.7972 33.1811C37.9414 33.4349 38.0717 33.6407 38.0855 33.6475C38.0991 33.6543 38.2843 33.5514 38.497 33.4279C39.2926 32.9615 40.198 32.5226 41.1858 32.111C41.46 31.9944 41.7002 31.8983 41.707 31.8847C41.7551 31.8435 39.5464 30.3825 38.3804 29.6829C37.4544 29.1205 35.9454 28.2836 35.918 28.3111ZM35.3967 28.3934C35.335 28.3934 34.0866 28.7364 33.4351 28.9284C31.8231 29.4086 29.9712 30.0876 28.764 30.6363L28.2634 30.8628L28.6131 30.945C31.5624 31.624 34.0866 32.406 36.5216 33.3937C36.7205 33.476 36.8989 33.5446 36.9125 33.5446C36.9263 33.5446 36.8577 33.3869 36.7685 33.1948C36.0345 31.6378 35.5613 30.0122 35.4448 28.6266C35.4378 28.4962 35.4174 28.3934 35.3967 28.3934ZM47.8253 31.2468C47.8048 31.2262 46.8513 31.4526 46.3369 31.5965C45.555 31.8161 43.8951 32.3716 43.8951 32.4128C43.8951 32.4196 44.0803 32.5774 44.2997 32.7695C45.1982 33.5172 46.0626 34.3059 47.0983 35.3073C47.407 35.6024 47.6676 35.8424 47.6812 35.8424C47.695 35.8424 47.7018 35.8012 47.695 35.7463C47.5373 34.594 47.5715 33.1124 47.791 31.6103C47.8117 31.4182 47.8322 31.2536 47.8253 31.2468ZM27.7899 31.2674C27.7763 31.2811 28.2289 31.9944 28.517 32.3991C28.9285 32.9889 29.5323 33.771 30.8972 35.4858C31.6173 36.3911 32.4268 37.4132 32.6942 37.7561C32.9687 38.099 33.1949 38.387 33.2019 38.387C33.2087 38.387 33.2977 38.2637 33.3938 38.1128C34.1621 36.9604 35.0813 35.9521 36.1718 35.0467C36.3776 34.8752 36.6038 34.69 36.6793 34.6351C36.7548 34.5803 36.8166 34.5254 36.8166 34.5186C36.8166 34.4981 35.6506 33.9972 34.7656 33.6406C33.2155 33.0095 31.1031 32.2551 29.5185 31.768C28.6885 31.5074 27.8037 31.2536 27.7899 31.2674ZM27.2618 31.4045C27.2344 31.3977 27.0697 31.48 26.8708 31.5965C25.204 32.5499 23.5717 33.7778 22.282 35.0399C21.9186 35.3966 21.02 36.3294 21.0338 36.3363C21.0338 36.3363 21.3493 36.3637 21.7196 36.3911C24.6073 36.6106 28.3043 37.221 31.8574 38.0784C32.0974 38.1332 32.31 38.1812 32.3238 38.1812C32.3374 38.1812 32.07 37.9138 31.7338 37.5914C29.6487 35.5817 28.6952 34.3128 27.5704 32.0492C27.4127 31.7132 27.2755 31.4251 27.2618 31.4045C27.2686 31.4045 27.2686 31.4045 27.2618 31.4045ZM42.537 32.9685C42.4409 32.989 41.5493 33.4075 40.8771 33.7435C40.2598 34.0521 39.3337 34.546 39.2858 34.5871C39.2789 34.594 39.6082 34.7654 40.0127 34.9644C41.3023 35.6091 42.4066 36.2195 43.559 36.9192C43.8882 37.1181 44.1626 37.2828 44.1694 37.2828C44.1969 37.2828 44.19 37.2553 44.0048 36.9192C43.3875 35.7944 42.8937 34.45 42.6124 33.1399C42.585 33.037 42.5575 32.9685 42.537 32.9685ZM43.4287 33.133C43.4081 33.1537 43.6413 33.9973 43.7853 34.4568C44.0666 35.328 44.5399 36.4185 44.9993 37.2416C45.1092 37.4336 45.2738 37.7148 45.363 37.8726L45.5344 38.1469L45.9185 37.7766C46.3643 37.3445 46.7279 37.077 47.1942 36.8369C47.3796 36.7409 47.5235 36.6585 47.5235 36.6449C47.5235 36.59 46.3506 35.5269 45.4521 34.7586C44.8074 34.203 43.4493 33.1125 43.4287 33.133ZM37.9756 35.376L37.6395 35.5954C36.8714 36.0962 35.9661 36.7615 35.2732 37.3445C34.8823 37.6668 34.1278 38.346 33.9768 38.5106L33.8946 38.5998L34.4501 38.7575C37.5916 39.6285 40.0197 40.4036 42.8525 41.4463C43.168 41.5628 43.4356 41.6589 43.4562 41.6589C43.4972 41.6589 43.5316 41.6931 42.825 41.0415C41.0142 39.3749 39.4093 37.5365 38.2157 35.7463L37.9756 35.376ZM39.4092 35.7327C39.3955 35.7463 40.3352 37.0701 40.8977 37.8178C41.5699 38.7095 42.7634 40.2047 43.5865 41.1786C43.9293 41.5834 44.2242 41.9195 44.238 41.9264C44.2586 41.9332 44.2655 41.8303 44.2655 41.6726C44.2655 40.8425 44.4781 39.9577 44.8485 39.2033C45.0063 38.8878 45.0337 38.8123 44.9993 38.7781C44.869 38.6614 42.8731 37.5228 41.611 36.8438C40.7605 36.3911 39.43 35.7189 39.4092 35.7327ZM48.0792 37.859C48.0586 37.859 47.9008 37.9412 47.7224 38.0373C47.2835 38.2774 46.8925 38.5448 46.5427 38.833C46.529 38.8467 46.7073 38.9908 46.9405 39.1621C47.5921 39.6285 48.5798 40.3762 49.1559 40.8358C49.7596 41.316 49.7801 41.3297 49.7116 41.2268C49.2588 40.534 49.0326 40.143 48.7924 39.6424C48.5798 39.1966 48.3672 38.6684 48.2163 38.2088C48.1615 38.0099 48.0928 37.859 48.0792 37.859ZM45.7676 39.6697C45.7334 39.663 45.6921 39.7246 45.507 39.999C45.116 40.5819 44.8142 41.364 44.7387 41.995L44.7251 42.1322L45.6646 42.4958C47.3452 43.1473 48.8953 43.7922 49.9449 44.2722C50.2397 44.4094 50.7542 44.6563 51.0902 44.821C51.4264 44.9924 51.7007 45.1228 51.7007 45.1159C51.7007 45.1091 51.4881 44.9513 51.2275 44.7592C49.1765 43.2709 47.4001 41.6383 46.0694 40.0059C45.9253 39.8344 45.795 39.6766 45.7814 39.6698L45.7676 39.6697ZM46.8307 39.9304C46.8033 39.9578 47.5852 40.8426 48.1202 41.3845C49.444 42.7358 50.7541 43.7922 52.3798 44.821C52.5855 44.9513 52.7707 45.0679 52.7913 45.0817C52.8394 45.1091 52.7776 45.0405 52.0643 44.2654C51.6115 43.7784 51.2686 43.3668 50.8776 42.8593C50.617 42.5233 50.569 42.4752 50.1916 42.2076C49.1834 41.4805 46.8582 39.9029 46.8307 39.9304Z" fill="url(#paint2_radial_0_7581)" id="Vector_3"/>
</g>
</g>
<defs>
<linearGradient gradientUnits="userSpaceOnUse" id="paint0_linear_0_7581" x1="54.9" x2="51.6187" y1="59.1282" y2="57.1893">
<stop stop-color="#909CA9"/>
<stop offset="1" stop-color="#EDEDEE"/>
</linearGradient>
<linearGradient gradientUnits="userSpaceOnUse" id="paint1_linear_0_7581" x1="54.8352" x2="52.1949" y1="22.5723" y2="22.5723">
<stop stop-color="#939FAB"/>
<stop offset="1" stop-color="#DCDEE1"/>
</linearGradient>
<radialGradient cx="0" cy="0" gradientTransform="matrix(3.36628 -0.505653 1.02267 6.73257 41.509 34.6829)" gradientUnits="userSpaceOnUse" id="paint2_radial_0_7581" r="1">
<stop stop-color="#EE352C"/>
<stop offset="1" stop-color="#A91D22"/>
</radialGradient>
</defs>
</svg>