<?xml version="1.0" encoding="utf-8"?>
<svg xmlns="http://www.w3.org/2000/svg" fill="none" height="100%" overflow="visible" preserveAspectRatio="none" style="display: block;" viewBox="0 0 99 105" width="100%">
<g id="Group 1171275346">
<path d="M61.5485 36.0151C61.609 36.0116 61.6696 36.0068 61.7302 36.0042C62.3674 35.9771 63.0072 36.0756 63.4715 36.5495C63.8717 36.958 63.9993 37.5114 64 38.0648C64.0029 40.9558 61.8167 43.2159 59.255 44.2217C55.728 45.6066 51.242 45.3859 47.483 45.7118C38.2303 46.514 16.9495 48.4088 10.4414 54.9585C9.50766 55.8981 8.80104 57.0891 8.82627 58.4444C8.86985 60.7718 10.924 62.7185 12.6589 64.0203C17.7248 67.8215 24.9899 69.924 31.1892 70.8233C38.2855 71.8529 58.0528 71.2162 62.8132 76.0262C63.361 76.5797 63.6804 77.2796 63.6517 78.0643C63.5624 80.5123 60.6861 81.7452 58.7212 82.4605C49.9825 85.6425 40.1714 85.4927 30.9909 85.5415C27.5149 85.56 23.9077 85.4891 20.4602 85.9472C16.6988 86.4471 12.5265 87.7016 9.35693 89.8216C6.33992 91.8396 4.01118 95.0103 3.58144 98.66C3.46659 99.6355 3.58341 101.059 3.26065 101.965C3.13909 102.307 2.79667 102.6 2.53765 102.846C-0.974961 104.025 0.0254124 98.1131 0.517571 96.5217C4.55527 83.4663 18.8059 82.0837 30.3014 82.2498C38.7747 82.3724 52.8922 82.2301 60.0827 78.0386C52.7954 74.2934 38.0471 75.2178 29.9562 74.0228C22.9064 72.9816 4.05476 67.0372 5.41311 57.9204C7.3072 45.2078 35.0591 43.881 45.2929 42.508C49.8383 41.8981 54.2738 42.4197 58.6044 40.8888C60.9373 40.0177 59.8029 37.5454 61.5485 36.0151Z" fill="var(--fill-0, white)" id="Vector"/>
<path d="M76.6848 33.0152C76.9933 32.9943 77.3585 32.9807 77.657 33.0763C78.6679 33.4001 79.7154 35.0861 80.242 35.9537C81.5242 38.0657 82.5808 40.6424 81.9565 43.1572C78.9618 55.2235 45.4853 51.687 36.5474 57.2233C44.1143 61.9936 56.6787 59.5141 65.0114 60.31C70.4972 60.834 75.9403 62.7096 80.773 65.3301C85.0501 67.6491 90.1212 70.5878 91.5672 75.6257C92.376 78.4433 92.0284 80.652 90.7152 83.208C87.7051 89.4887 77.7423 94.5843 71.0568 95.1299C58.6543 96.142 46.0174 96.7447 34.6064 102.619C33.3132 103.285 32.1171 104.575 30.7228 105C26.3105 103.666 31.5707 100.359 33.2338 99.516C41.7367 95.2078 51.377 93.3956 60.7676 92.4291C64.6372 92.0702 68.8934 92.2735 72.6392 91.3292C86.7111 87.7823 97.1679 76.7527 78.5874 68.0381C70.7075 64.3425 65.4394 63.0776 56.4554 63.571C51.5662 63.8396 45.9624 63.8757 41.2128 62.6652C38.4054 61.9497 33.0041 60.5223 32.9482 56.8976C33.1956 54.2854 37.0099 52.9939 39.0003 52.5057C50.4089 49.6545 63.4884 50.5424 74.4561 46.0822C81.1896 43.3438 78.765 39.6343 75.826 35.4244C75.1724 34.4885 75.9184 33.6317 76.6848 33.0152Z" fill="var(--fill-0, white)" id="Vector_2"/>
<path d="M70.1478 0.00596277C73.238 -0.160106 72.4636 3.23671 72.4353 5.42612L88.8916 5.39862C91.6092 5.39596 94.415 5.34189 97.1315 5.43567C99.5855 5.52039 99.2857 7.40957 98.1462 8.96727C96.5129 11.1998 94.8496 13.4424 93.185 15.6714C94.522 17.4812 100.155 23.8543 98.5252 25.5987C97.4954 26.2318 91.4801 25.9749 89.8521 25.9649L72.4281 25.9808C72.4239 27.9459 72.9083 38.5223 71.9663 39.4552C71.6072 39.8106 71.0757 40.0236 70.5716 39.998C70.142 39.9764 69.7619 39.7522 69.49 39.4244C69.1869 39.0589 69.0922 38.5942 69.0674 38.1311C68.927 35.5153 69.0495 32.8293 69.0495 30.2071L69.0517 14.6687L69.0536 5.87458C69.0523 4.44599 69.0183 2.86199 69.0977 1.43542C69.1366 0.736579 69.6238 0.380231 70.1478 0.00596277Z" fill="var(--fill-0, white)" id="Vector_3"/>
<path d="M73.0048 8.09028C79.9929 7.96031 88.0207 7.97148 95 8.11955C93.789 9.88407 92.5297 11.6391 91.2362 13.3377C89.36 15.8013 91.3998 17.8353 92.8771 19.9038L94.9736 23.0001L73 22.9925L73.0048 8.09028Z" fill="var(--fill-0, #E5642D)" id="Vector_4"/>
<path d="M2.49192 24.1571C4.7723 24.0072 13.1514 23.795 14.9693 24.4419C15.5802 24.6593 16.1468 24.9836 16.4157 25.6046C17.0821 27.1429 17.2399 37.7468 16.5656 39.2728C16.1495 40.2146 15.3395 40.5835 14.4387 40.9092C10.8095 40.9519 5.1149 41.2165 1.7133 40.5816C-0.858351 40.1015 0.152232 28.0607 0.425801 25.8798C0.520179 25.1275 1.84083 24.435 2.49192 24.1571Z" fill="var(--fill-0, white)" id="Vector_5"/>
<path d="M3 27.0182C6.6398 26.9781 10.354 27.0171 14 27.0171L13.9995 37.9951L3.01357 38.0001L3 27.0182Z" fill="var(--fill-0, #E5642D)" id="Vector_6"/>
<path d="M10.7519 28.0644C15.6766 27.2678 11.168 34.1086 9.851 35.5126C8.24787 37.2215 8.00466 37.6448 6.34002 35.7874C5.29769 34.6247 3.13636 32.4564 4.36971 30.5347C5.75035 29.4515 6.96249 30.8557 7.86111 31.9765C8.70672 30.7362 9.76716 29.0717 10.7519 28.0644Z" fill="var(--fill-0, white)" id="Vector_7"/>
<path d="M2.83004 2.17048C5.23151 2.01965 13.1346 1.76249 15.0589 2.4869C15.6581 2.71241 16.2253 3.06065 16.4688 3.68062C17.071 5.21402 17.2379 15.9041 16.5644 17.2713C16.0925 18.2289 15.3745 18.5521 14.4214 18.8621C11.9235 18.8784 3.2684 19.3685 1.45688 18.3977C0.908735 18.1038 0.644474 17.5039 0.45761 16.9374C-0.114155 15.2034 -0.232401 5.01696 0.582079 3.60468C1.08826 2.72678 1.90242 2.3947 2.83004 2.17048Z" fill="var(--fill-0, white)" id="Vector_8"/>
<path d="M3 5.04203C6.57317 4.95851 10.4014 5.02579 13.9943 5.02442L14 15.9927L3.01305 16.0001L3 5.04203Z" fill="var(--fill-0, #E5642D)" id="Vector_9"/>
<path d="M10.8628 6.01271C15.6184 5.6978 11.1366 11.3729 9.85591 12.6485C8.15613 14.3416 7.77689 14.501 6.15887 12.8028C5.08641 11.6922 3.33969 10.1119 4.25794 8.34797C5.53401 7.176 6.97835 8.59573 7.86798 9.532C8.78328 8.33217 9.73702 6.96884 10.8628 6.01271Z" fill="var(--fill-0, white)" id="Vector_10"/>
<path d="M22.15 27.0487L34.6989 27.024C36.5607 27.0208 38.6918 26.939 40.523 27.0975C42.2784 27.2493 42.5519 29.0022 40.895 29.8813C38.8496 30.1218 33.9903 29.9134 31.656 29.9683C28.6384 29.9017 25.5099 30.0967 22.5094 29.8838C20.5146 29.7424 20.6041 28.0005 22.15 27.0487Z" fill="var(--fill-0, white)" id="Vector_11"/>
<path d="M22.5246 4.03954L35.838 4.01905C37.0771 4.01556 41.7307 3.91968 42.7096 4.19491C43.1675 4.32349 43.5511 4.65711 43.762 5.11007C44.4301 6.52428 43.5904 7.33129 42.4994 7.85949C39.7619 7.91463 23.8277 8.23863 22.1143 7.66316C21.6722 7.51472 21.3494 7.1897 21.1596 6.74158C20.9365 6.21496 20.9478 5.60894 21.1902 5.09222C21.4834 4.45486 21.9379 4.27097 22.5246 4.03954Z" fill="var(--fill-0, white)" id="Vector_12"/>
<path d="M22.827 35.0754C25.3919 35.0735 39.88 34.8166 41.0712 35.263C41.4961 35.4222 41.8342 35.8078 41.9529 36.1888C42.0624 36.5395 41.9735 36.9054 41.7635 37.2152C41.4736 37.643 40.9979 37.7755 40.4806 37.9151C38.173 37.9146 22.9 38.2217 21.843 37.6716C21.4335 37.4583 21.1091 37.1224 21.0216 36.7068C20.938 36.3084 21.1043 35.919 21.3945 35.6118C21.7774 35.2064 22.2631 35.1373 22.827 35.0754Z" fill="var(--fill-0, white)" id="Vector_13"/>
<path d="M22.0107 13.0825C22.1144 13.0753 22.2182 13.0692 22.322 13.0643C27.4844 12.8669 32.9157 13.2033 38.0977 13.0389C39.5644 12.9924 42.5063 12.8001 41.925 14.8813C41.785 15.3826 41.4816 15.5837 41.0589 15.895C40.7703 15.9375 40.4777 15.9725 40.1848 15.9742C36.2852 16.0029 32.3847 15.9936 28.485 15.9987C27.465 16.0002 26.4443 16.0014 25.4249 15.9973C24.4272 15.9931 23.433 16.0244 22.4389 15.9454C22.0262 15.9125 21.6366 15.6961 21.3545 15.4315C21.0732 15.1676 20.9608 14.8003 21.012 14.4423C21.1131 13.7471 21.4687 13.5029 22.0107 13.0825Z" fill="var(--fill-0, white)" id="Vector_14"/>
</g>
</svg>