<?xml version="1.0" encoding="utf-8"?>
<svg xmlns="http://www.w3.org/2000/svg" fill="none" height="100%" overflow="visible" preserveAspectRatio="none" style="display: block;" viewBox="0 0 4.41181 2.57171" width="100%">
<path d="M0.641857 0.37486C0.453995 0.442001 0.291483 0.565571 0.17658 0.728659C0.061676 0.891746 0 1.08638 0 1.28588C0 1.48538 0.061676 1.67996 0.17658 1.84305C0.291483 2.00614 0.453995 2.12976 0.641857 2.1969C1.1264 2.4433 1.66231 2.57171 2.2059 2.57171C2.7495 2.57171 3.28541 2.4433 3.76995 2.1969C3.95782 2.12976 4.12033 2.00614 4.23523 1.84305C4.35013 1.67996 4.41181 1.48538 4.41181 1.28588C4.41181 1.08638 4.35013 0.891746 4.23523 0.728659C4.12033 0.565571 3.95782 0.442001 3.76995 0.37486C3.28541 0.128464 2.7495 0 2.2059 0C1.66231 0 1.1264 0.128464 0.641857 0.37486Z" fill="var(--fill-0, #37474F)" id="Vector"/>
</svg>