<?xml version="1.0" encoding="utf-8"?>
<svg xmlns="http://www.w3.org/2000/svg" fill="none" height="100%" overflow="visible" preserveAspectRatio="none" style="display: block;" viewBox="0 0 81.8001 81.8001" width="100%">
<g id="Frame 314" opacity="0.7">
<rect fill="var(--fill-0, white)" height="81.8001" rx="40.9001" width="81.8001"/>
<g id="Python 1">
<path d="M41.4821 20.1164C43.3622 20.1244 45.1569 20.2674 46.7368 20.5176C51.3903 21.2531 52.2347 22.7927 52.2347 25.6324V29.3821H41.2386V30.632H56.3618C59.5574 30.632 62.3557 32.3504 63.2312 35.6208C64.2412 39.3681 64.2857 41.7069 63.2312 45.62C62.4497 48.533 60.5829 50.608 57.3869 50.608H53.6058V46.1128C53.6058 42.8652 50.4659 40.0008 46.7364 40.0008H35.7527C32.6952 40.0008 30.2549 37.748 30.2549 35.0012V25.6328C30.2549 22.966 32.7692 20.9631 35.7527 20.518C37.6427 20.2367 39.6025 20.1088 41.4821 20.1164ZM47.4288 23.1322C46.2933 23.1322 45.3653 23.9757 45.3653 25.0132C45.3653 26.0463 46.2928 26.8819 47.4288 26.8819C48.5688 26.8819 49.492 26.0463 49.492 25.0132C49.4924 23.9757 48.5688 23.1322 47.4288 23.1322Z" fill="url(#paint0_linear_0_4518)" id="Vector"/>
<path d="M28.8838 30.632V35.0012C28.8838 38.3879 32.0936 41.2388 35.7532 41.2388H46.7368C49.7454 41.2388 52.2346 43.5429 52.2346 46.2388V55.608C52.2346 58.274 49.6438 59.8426 46.7368 60.6072C43.2563 61.5224 39.9182 61.6882 35.7532 60.6072C32.9851 59.8896 30.2554 58.4465 30.2554 55.608V51.8579H41.2385V50.6076H24.7566C21.5611 50.6076 20.3694 48.6134 19.2579 45.6196C18.1099 42.5377 18.1593 39.5737 19.2579 35.6204C20.0479 32.7736 21.5562 30.6316 24.7566 30.6316L28.8838 30.632ZM35.0616 54.3577C33.9212 54.3577 32.998 55.1932 32.998 56.2272C32.998 57.2639 33.9216 58.1074 35.0616 58.1074C36.1972 58.1074 37.1247 57.2639 37.1247 56.2272C37.1247 55.1932 36.1972 54.3577 35.0616 54.3577Z" fill="url(#paint1_linear_0_4518)" id="Vector_2"/>
<path d="M26.378 62.8883C26.378 64.2999 32.9758 65.4446 41.1139 65.4446C49.2524 65.4446 55.8501 64.2999 55.8501 62.8883C55.8501 61.4762 49.2528 60.3315 41.1139 60.3315C32.9758 60.3315 26.378 61.4758 26.378 62.8883Z" fill="url(#paint2_radial_0_4518)" id="Vector_3" opacity="0.444"/>
</g>
</g>
<defs>
<linearGradient gradientUnits="userSpaceOnUse" id="paint0_linear_0_4518" x1="65.1078" x2="42.1534" y1="21.2888" y2="43.1672">
<stop stop-color="#5A9FD4"/>
<stop offset="1" stop-color="#306998"/>
</linearGradient>
<linearGradient gradientUnits="userSpaceOnUse" id="paint1_linear_0_4518" x1="30.2033" x2="38.0094" y1="52.6705" y2="40.4358">
<stop stop-color="#FFD43B"/>
<stop offset="1" stop-color="#FFE873"/>
</linearGradient>
<radialGradient cx="0" cy="0" gradientTransform="translate(41.1734 62.8151) rotate(-90) scale(2.5573 12.564)" gradientUnits="userSpaceOnUse" id="paint2_radial_0_4518" r="1">
<stop stop-color="#B8B8B8" stop-opacity="0.498"/>
<stop offset="1" stop-color="#7F7F7F" stop-opacity="0"/>
</radialGradient>
</defs>
</svg>