<?xml version="1.0" encoding="utf-8"?>
<svg xmlns="http://www.w3.org/2000/svg" fill="none" height="100%" overflow="visible" preserveAspectRatio="none" style="display: block;" viewBox="0 0 22 22" width="100%">
<g id="ion:cloud">
<path d="M17.0156 18.5625H5.84375C4.27797 18.5625 2.82047 18.0224 1.7398 17.041C0.617891 16.0222 0 14.6094 0 13.0625C0 11.4907 0.575352 10.1355 1.66375 9.14289C2.44191 8.43262 3.47789 7.92902 4.63633 7.68754C4.74311 7.66544 4.8431 7.61827 4.92804 7.54991C5.01299 7.48154 5.08046 7.39396 5.12488 7.29437C5.53733 6.36591 6.15513 5.54316 6.93172 4.88813C8.06781 3.9398 9.47461 3.4375 11 3.4375C12.7159 3.43003 14.3671 4.09123 15.6037 5.28086C16.6663 6.30395 17.3869 7.65617 17.7169 9.23398C17.7434 9.36337 17.8066 9.48239 17.8989 9.5768C17.9913 9.67121 18.1089 9.73702 18.2377 9.76637C20.1953 10.2016 22 11.62 22 14.0937C22 15.5285 21.4741 16.7054 20.4785 17.4982C19.6036 18.1943 18.4065 18.5625 17.0156 18.5625Z" fill="var(--fill-0, white)" id="Vector"/>
</g>
</svg>