<?xml version="1.0" encoding="utf-8"?>
<svg xmlns="http://www.w3.org/2000/svg" fill="none" height="100%" overflow="visible" preserveAspectRatio="none" style="display: block;" viewBox="0 0 129.809 64.656" width="100%">
<g id="Frame 2147256931">
<g id="solar:code-outline">
<path d="M66.8175 3.67746C66.9827 3.72162 67.1237 3.8296 67.2093 3.97766C67.2949 4.12572 67.3183 4.30174 67.2742 4.467L63.8571 17.2217C63.8128 17.3871 63.7045 17.5281 63.5562 17.6137C63.4079 17.6992 63.2317 17.7224 63.0663 17.678C62.9009 17.6336 62.7599 17.5254 62.6744 17.3771C62.5888 17.2288 62.5657 17.0526 62.61 16.8872L66.0279 4.13243C66.0499 4.05059 66.0877 3.97388 66.1393 3.90668C66.1909 3.83948 66.2553 3.7831 66.3287 3.74077C66.4021 3.69844 66.4831 3.67099 66.5671 3.65997C66.6511 3.64896 66.7365 3.65461 66.8183 3.6766M68.7638 6.30237C68.8782 6.17523 69.0384 6.09873 69.2092 6.0897C69.38 6.08067 69.5474 6.13984 69.6746 6.25421L71.1685 7.59935C71.8024 8.16871 72.327 8.64175 72.6883 9.07006C73.0667 9.52159 73.3367 10.0058 73.3367 10.6044C73.3367 11.2022 73.0675 11.6864 72.6883 12.137C72.327 12.5662 71.8024 13.0393 71.1685 13.6086L69.6746 14.9538C69.5474 15.0683 69.38 15.1276 69.2091 15.1186C69.0382 15.1097 68.8779 15.0332 68.7634 14.906C68.6488 14.7789 68.5895 14.6114 68.5985 14.4405C68.6075 14.2696 68.6839 14.1093 68.8111 13.9948L70.2706 12.6815C70.9483 12.0717 71.405 11.658 71.7009 11.3071C71.9847 10.9691 72.0467 10.7721 72.0467 10.6036C72.0467 10.435 71.9847 10.2389 71.7009 9.90088C71.405 9.54912 70.9483 9.13542 70.2706 8.5265L68.8111 7.21318C68.748 7.15652 68.6967 7.08798 68.6602 7.01147C68.6236 6.93497 68.6025 6.85201 68.598 6.76733C68.5935 6.68266 68.6058 6.59793 68.6341 6.518C68.6624 6.43807 68.7062 6.36451 68.7629 6.30151M61.074 7.21318C61.2011 7.09867 61.2776 6.93834 61.2865 6.76745C61.2955 6.59656 61.2362 6.42911 61.1217 6.30194C61.0072 6.17478 60.8468 6.0983 60.676 6.08935C60.5051 6.0804 60.3376 6.1397 60.2105 6.25421L58.7165 7.59935C58.0827 8.16871 57.558 8.64175 57.1968 9.07006C56.8184 9.52159 56.5483 10.0058 56.5483 10.6044C56.5483 11.2022 56.8175 11.6864 57.1968 12.137C57.558 12.5662 58.0827 13.0393 58.7165 13.6086L60.2105 14.9538C60.3376 15.0683 60.5051 15.1276 60.676 15.1186C60.8468 15.1097 61.0072 15.0332 61.1217 14.906C61.2362 14.7789 61.2955 14.6114 61.2865 14.4405C61.2776 14.2696 61.2011 14.1093 61.074 13.9948L59.6144 12.6815C58.9367 12.0717 58.48 11.658 58.1841 11.3071C57.9003 10.9691 57.8384 10.7721 57.8384 10.6036C57.8384 10.435 57.9003 10.2389 58.1841 9.90088C58.48 9.54912 58.9367 9.13542 59.6144 8.5265L61.074 7.21318Z" fill="var(--fill-0, white)" id="Vector"/>
</g>
<g clip-path="url(#clip0_0_4847)" id="eos-icons:big-data-outlined">
<path d="M27.8926 21.8586C27.7684 21.8981 27.647 21.9458 27.5291 22.0012C26.9138 21.3162 26.1008 20.8394 25.2027 20.6367C24.3045 20.4341 23.3655 20.5155 22.5157 20.8699C21.6659 21.2242 20.9472 21.834 20.4591 22.6147C19.9709 23.3954 19.7375 24.3085 19.7911 25.2277C19.5732 25.3959 19.3755 25.5888 19.202 25.8026C18.7309 26.3661 18.4465 27.062 18.3881 27.7942C18.3296 28.5263 18.5 29.2585 18.8757 29.8896C19.2514 30.5207 19.8138 31.0196 20.4853 31.3172C21.1568 31.6148 21.9041 31.6966 22.624 31.5511L21.9557 30.4284C21.5405 30.4355 21.1309 30.3327 20.7682 30.1306C20.4056 29.9285 20.1027 29.6341 19.8903 29.2774C19.678 28.9206 19.5636 28.5141 19.5588 28.0989C19.554 27.6837 19.659 27.2747 19.8631 26.9131C20.0213 26.6254 20.2389 26.3747 20.5015 26.1777L21.0132 25.7972L20.9799 25.1617C20.9391 24.4877 21.1091 23.8177 21.4663 23.2446C21.8235 22.6716 22.3501 22.2239 22.9732 21.9637C23.5963 21.7035 24.285 21.6436 24.9436 21.7925C25.6022 21.9413 26.1983 22.2914 26.6489 22.7942L27.2566 23.4673L28.0693 23.0594C28.2117 22.9898 28.3628 22.9396 28.5185 22.91C28.8766 22.8353 29.2491 22.8742 29.5841 23.0214C29.919 23.1686 30.1996 23.4166 30.3867 23.731C30.5739 24.0453 30.6582 24.4103 30.6279 24.7749C30.5976 25.1394 30.4543 25.4855 30.2178 25.7646L30.8498 26.8262C31.356 26.3697 31.6884 25.7519 31.7903 25.0778C31.8922 24.4038 31.7573 23.7153 31.4086 23.1296C31.0599 22.5438 30.519 22.0971 29.8779 21.8653C29.2368 21.6336 28.5353 21.6312 27.8926 21.8586Z" fill="var(--fill-0, white)" fill-opacity="0.5" id="Vector_2"/>
<path d="M25.289 26.7568C23.3441 27.9145 22.4625 28.9623 22.8898 29.68L25.5176 34.0944C25.9448 34.8121 27.7472 34.2622 29.231 33.3789C30.7149 32.4955 32.0575 31.1733 31.6303 30.4556L29.0025 26.0412C28.5752 25.3235 27.2339 25.599 25.289 26.7568ZM25.5922 27.2662C26.9732 26.4441 28.339 26.1899 28.6113 26.6473C28.8836 27.1048 27.9834 28.1422 26.6029 28.964C25.2225 29.7857 23.8813 30.0825 23.609 29.6251C23.3367 29.1676 24.2118 28.0879 25.5922 27.2662ZM25.4939 32.7915L25.1473 32.2092C26.1331 32.0612 27.0768 31.7077 27.9171 31.1717C28.789 30.6885 29.5496 30.0275 30.1496 29.2315L30.5071 29.832C29.8864 30.6065 29.1175 31.2494 28.2455 31.7233C27.4071 32.256 26.4722 32.619 25.4939 32.7915Z" fill="var(--fill-0, white)" fill-opacity="0.5" id="Vector_3"/>
</g>
<g clip-path="url(#clip1_0_4847)" id="mingcute:mic-ai-fill">
<g id="Group">
<g id="Vector_4">
</g>
<path d="M9.51097 56.1885C9.56217 56.167 9.61709 56.1559 9.6726 56.1557C9.72811 56.1555 9.78311 56.1663 9.83445 56.1874C9.8858 56.2085 9.93248 56.2395 9.97182 56.2786C10.0112 56.3178 10.0424 56.3643 10.0637 56.4155C10.3473 57.0987 10.3988 57.856 10.2104 58.5712C10.0221 59.2865 9.60426 59.9201 9.02106 60.375L9.25038 60.7603C9.30765 60.8565 9.32436 60.9715 9.29683 61.08C9.2693 61.1885 9.19978 61.2817 9.10358 61.339C9.00737 61.3962 8.89235 61.4129 8.78383 61.3854C8.67531 61.3579 8.58216 61.2884 8.52489 61.1921L8.29557 60.8069C7.61768 61.1026 6.86153 61.1677 6.14309 60.9922C5.42465 60.8168 4.78359 60.4106 4.31823 59.8358C4.24788 59.7487 4.215 59.6372 4.22685 59.5258C4.2387 59.4145 4.29429 59.3124 4.3814 59.242C4.46851 59.1717 4.58001 59.1388 4.69135 59.1506C4.8027 59.1625 4.90478 59.2181 4.97514 59.3052C5.35843 59.7784 5.89935 60.0977 6.49883 60.2046C7.09832 60.3115 7.71627 60.199 8.23953 59.8875C8.76278 59.576 9.15633 59.0864 9.34811 58.5085C9.53989 57.9305 9.51707 57.3028 9.28382 56.7403C9.2625 56.6891 9.25148 56.6342 9.25138 56.5788C9.25127 56.5233 9.2621 56.4684 9.28322 56.4171C9.30435 56.3659 9.33537 56.3193 9.37451 56.28C9.41365 56.2407 9.45978 56.2098 9.51097 56.1885ZM4.78484 54.0841C5.08193 53.9072 5.40487 53.8118 5.72762 53.7911C5.63218 54.0043 5.59757 54.2398 5.62765 54.4715C5.65772 54.7032 5.75129 54.922 5.89801 55.1038C6.04473 55.2856 6.23889 55.4233 6.45899 55.5017C6.6791 55.58 6.91658 55.5959 7.14517 55.5476L7.31036 55.5132C7.37339 55.4998 7.43863 55.5011 7.50108 55.5169C7.56353 55.5327 7.62154 55.5626 7.67066 55.6043L7.79908 55.7135C7.96872 55.8582 8.16865 55.9514 8.37702 55.9919L8.75793 56.6318C9.04428 57.1129 9.12781 57.6879 8.99015 58.2306C8.8525 58.7732 8.50492 59.2389 8.02389 59.5252C7.54286 59.8116 6.96778 59.8951 6.42516 59.7575C5.88255 59.6198 5.41684 59.2722 5.13049 58.7912L4.0508 56.9775C3.76445 56.4964 3.68092 55.9214 3.81858 55.3787C3.95624 54.8361 4.30381 54.3704 4.78484 54.0841ZM7.10811 52.2098C7.17598 52.1694 7.25381 52.1488 7.33277 52.1504C7.41173 52.1521 7.48865 52.1758 7.55478 52.219L7.59746 52.2511L7.72624 52.3601C7.86286 52.4764 8.02261 52.5623 8.19493 52.6122C8.36725 52.662 8.54819 52.6747 8.72579 52.6494L8.80801 52.6349L8.97298 52.6C9.05468 52.5828 9.13965 52.5901 9.21716 52.6212C9.29467 52.6522 9.36124 52.7055 9.40844 52.7744C9.45565 52.8433 9.48137 52.9246 9.48235 53.0081C9.48334 53.0916 9.45954 53.1735 9.41398 53.2434L9.38154 53.2863L9.27249 53.4151C9.15623 53.5517 9.07032 53.7115 9.02044 53.8838C8.97057 54.0561 8.95787 54.2371 8.98319 54.4147L8.99775 54.4969L9.03258 54.6619C9.04978 54.7436 9.04237 54.8285 9.01129 54.906C8.98021 54.9835 8.92685 55.05 8.85796 55.0972C8.78906 55.1444 8.70773 55.17 8.62425 55.171C8.54077 55.1719 8.45888 55.1481 8.38894 55.1025L8.34626 55.0704L8.21748 54.9614C8.08087 54.8451 7.92111 54.7592 7.74879 54.7093C7.57648 54.6594 7.39553 54.6467 7.21793 54.6721L7.13571 54.6866L6.97074 54.7215C6.88905 54.7387 6.80407 54.7314 6.72656 54.7003C6.64905 54.6693 6.58248 54.616 6.53528 54.5471C6.48807 54.4782 6.46235 54.3969 6.46137 54.3134C6.46039 54.2299 6.48418 54.148 6.52975 54.078L6.56219 54.0351L6.67123 53.9064C6.78749 53.7697 6.87341 53.61 6.92328 53.4377C6.97316 53.2654 6.98585 53.0844 6.96053 52.9068L6.94598 52.8246L6.91115 52.6596C6.89296 52.5735 6.90217 52.4838 6.93749 52.4031C6.97281 52.3224 7.03247 52.2548 7.10811 52.2098Z" fill="var(--fill-0, white)" fill-opacity="0.23" id="Vector_5"/>
</g>
</g>
<g clip-path="url(#clip2_0_4847)" id="mingcute:file-ai-line">
<g id="Group_2">
<g id="Vector_6">
</g>
<path d="M124.448 53.7412C124.255 53.6267 124.025 53.5933 123.808 53.6484L121.254 54.2964C121.037 54.3514 120.85 54.4904 120.736 54.6828L118.234 58.8855C118.12 59.078 118.086 59.308 118.141 59.525C118.196 59.7421 118.335 59.9284 118.528 60.0429L122.881 62.6342C123.073 62.7487 123.303 62.7821 123.52 62.727C123.737 62.672 123.923 62.5329 124.038 62.3405L125.765 59.4386C125.823 59.3424 125.839 59.2274 125.812 59.1188C125.784 59.0103 125.715 58.9172 125.619 58.8599C125.522 58.8026 125.407 58.7859 125.299 58.8135C125.19 58.841 125.097 58.9105 125.04 59.0067L123.312 61.9087L118.96 59.3174L121.119 55.69L122.751 56.6617C122.896 56.7476 123.068 56.7727 123.231 56.7314C123.394 56.6901 123.533 56.5858 123.619 56.4415L124.591 54.8091L124.954 55.0251C125.05 55.0823 125.165 55.099 125.273 55.0715C125.382 55.044 125.475 54.9745 125.532 54.8783C125.59 54.7821 125.606 54.667 125.579 54.5585C125.551 54.45 125.482 54.3569 125.386 54.2996L124.448 53.7412ZM127.778 55.2325C127.702 55.1874 127.614 55.1672 127.527 55.1746C127.439 55.182 127.356 55.2167 127.289 55.2738L127.16 55.3828C126.861 55.6369 126.462 55.7385 126.078 55.6573L125.913 55.6227C125.827 55.6046 125.737 55.6139 125.657 55.6493C125.576 55.6847 125.509 55.7443 125.464 55.8199C125.419 55.8956 125.398 55.9833 125.406 56.071C125.413 56.1587 125.448 56.2419 125.505 56.309L125.614 56.4378C125.868 56.7364 125.969 57.136 125.888 57.5199L125.854 57.6846C125.835 57.7707 125.845 57.8603 125.88 57.9409C125.916 58.0215 125.975 58.089 126.051 58.134C126.126 58.179 126.214 58.1993 126.302 58.1919C126.39 58.1846 126.473 58.1501 126.54 58.0931L126.669 57.9841C126.816 57.8587 126.99 57.7687 127.178 57.7211C127.365 57.6735 127.561 57.6696 127.751 57.7095L127.915 57.7441C128.002 57.7622 128.091 57.7529 128.172 57.7176C128.252 57.6822 128.32 57.6225 128.365 57.5469C128.41 57.4713 128.43 57.3835 128.423 57.2958C128.415 57.2081 128.381 57.1249 128.324 57.0578L128.215 56.9291C127.961 56.6304 127.859 56.2309 127.94 55.8469L127.984 55.616C127.988 55.5394 127.971 55.4632 127.934 55.3956C127.898 55.328 127.844 55.2716 127.778 55.2325ZM123.002 55.8282L121.701 55.0539L123.776 54.5274L123.002 55.8282ZM127.088 56.3918C127.109 56.5509 127.149 56.707 127.206 56.857C127.046 56.8783 126.891 56.9175 126.741 56.9747C126.719 56.8154 126.68 56.6605 126.623 56.51C126.782 56.4884 126.938 56.4487 127.088 56.3918Z" fill="var(--fill-0, white)" fill-opacity="0.23" id="Vector_7"/>
</g>
</g>
<g clip-path="url(#clip3_0_4847)" id="si:ai-search-line">
<path d="M97.7168 29.121L100.967 28.2964M101.768 24.6336C101.125 25.7144 100.937 27.0065 101.246 28.2256C101.555 29.4448 102.336 30.4912 103.417 31.1346C104.498 31.778 105.79 31.9656 107.009 31.6563C108.228 31.347 109.275 30.5661 109.918 29.4853C110.562 28.4045 110.749 27.1124 110.44 25.8932C110.131 24.6741 109.35 23.6277 108.269 22.9843C107.188 22.3409 105.896 22.1532 104.677 22.4625C103.458 22.7718 102.411 23.5528 101.768 24.6336ZM106.616 25.9854L106.351 26.8679C106.345 26.8884 106.344 26.9102 106.35 26.9309C106.355 26.9516 106.366 26.9706 106.381 26.9857L107.035 27.635C107.123 27.7217 107.035 27.8684 106.917 27.8327L106.035 27.5674C106.014 27.5613 105.992 27.5609 105.972 27.5661C105.951 27.5714 105.932 27.5822 105.917 27.5973L105.268 28.2512C105.181 28.3389 105.034 28.2516 105.07 28.1335L105.335 27.251C105.341 27.2305 105.342 27.2087 105.336 27.188C105.331 27.1672 105.32 27.1483 105.305 27.1332L104.651 26.4839C104.564 26.3972 104.651 26.2504 104.769 26.2862L105.652 26.5515C105.672 26.5576 105.694 26.558 105.715 26.5528C105.735 26.5475 105.754 26.5367 105.769 26.5216L106.419 25.8677C106.505 25.78 106.652 25.8673 106.616 25.9854Z" id="Vector_8" stroke="var(--stroke-0, white)" stroke-linecap="round" stroke-linejoin="round" stroke-miterlimit="10" stroke-opacity="0.5" stroke-width="0.889223"/>
</g>
</g>
<defs>
<clipPath id="clip0_0_4847">
<rect fill="white" height="14.2276" transform="translate(15.8403 24.7916) rotate(-30.7648)" width="14.2276"/>
</clipPath>
<clipPath id="clip1_0_4847">
<rect fill="white" height="10.1316" transform="translate(0 55.95) rotate(-30.7648)" width="10.1316"/>
</clipPath>
<clipPath id="clip2_0_4847">
<rect fill="white" height="10.1316" transform="matrix(-0.859275 -0.511514 -0.511514 0.859275 129.809 55.95)" width="10.1316"/>
</clipPath>
<clipPath id="clip3_0_4847">
<rect fill="white" height="14.2276" transform="matrix(-0.859275 -0.511514 -0.511514 0.859275 114.782 24.7916)" width="14.2276"/>
</clipPath>
</defs>
</svg>