<?xml version="1.0" encoding="utf-8"?>
<svg xmlns="http://www.w3.org/2000/svg" fill="none" height="100%" overflow="visible" preserveAspectRatio="none" style="display: block;" viewBox="0 0 100 96" width="100%">
<g id="mdi:linkedin">
<path d="M0 11C0 4.92487 4.92487 0 11 0H89.5446C95.3189 0 100 4.68106 100 10.4554V10.4554C100 57.7004 61.7004 96 14.4554 96H10.8911C4.87611 96 0 91.1239 0 85.1089V11Z" fill="var(--fill-0, white)"/>
<path d="M65.1762 29.2683C66.3261 29.2683 67.429 29.7069 68.2422 30.4875C69.0554 31.2681 69.5122 32.3269 69.5122 33.4309V62.5691C69.5122 63.6731 69.0554 64.7319 68.2422 65.5125C67.429 66.2931 66.3261 66.7317 65.1762 66.7317H34.8238C33.6739 66.7317 32.571 66.2931 31.7578 65.5125C30.9446 64.7319 30.4878 63.6731 30.4878 62.5691V33.4309C30.4878 32.3269 30.9446 31.2681 31.7578 30.4875C32.571 29.7069 33.6739 29.2683 34.8238 29.2683H65.1762ZM64.0921 61.5285V50.4976C64.0921 48.6981 63.3475 46.9723 62.022 45.6998C60.6966 44.4274 58.8989 43.7125 57.0244 43.7125C55.1816 43.7125 53.0352 44.7948 51.9946 46.4182V44.108H45.9458V61.5285H51.9946V51.2676C51.9946 49.665 53.3388 48.3538 55.0081 48.3538C55.8131 48.3538 56.5851 48.6608 57.1544 49.2073C57.7236 49.7537 58.0434 50.4948 58.0434 51.2676V61.5285H64.0921ZM38.8997 40.8403C39.8657 40.8403 40.7921 40.4719 41.4752 39.8162C42.1583 39.1605 42.542 38.2711 42.542 37.3437C42.542 35.4081 40.916 33.8263 38.8997 33.8263C37.928 33.8263 36.996 34.1969 36.3089 34.8566C35.6218 35.5162 35.2358 36.4109 35.2358 37.3437C35.2358 39.2794 36.8835 40.8403 38.8997 40.8403ZM41.9133 61.5285V44.108H35.9079V61.5285H41.9133Z" fill="var(--fill-0, #0166B2)" id="Vector"/>
</g>
</svg>