<?xml version="1.0" encoding="utf-8"?>
<svg xmlns="http://www.w3.org/2000/svg" fill="none" height="100%" overflow="visible" preserveAspectRatio="none" style="display: block;" viewBox="0 0 79.46 45.9396" width="100%">
<path d="M75.5257 33.5885C71.7245 32.6217 68.1002 31.0599 64.787 28.9608C61.9975 27.3484 32.3451 10.2729 18.0268 1.93672C15.7009 0.704226 13.1157 0.0410916 10.4837 0.00184946C7.85167 -0.0373926 5.24789 0.548354 2.88623 1.71096C1.91198 2.23691 1.09845 3.017 0.532101 3.96834H0V5.80652C0.105088 6.8021 0.472375 7.752 1.0644 8.55931C1.65642 9.36661 2.45199 10.0024 3.36995 10.4019L50.3236 37.5228C52.7906 38.9256 57.0957 41.5377 58.1438 43.6661L57.4182 44.0853V45.9396L79.46 33.2176V31.3634L75.5257 33.5885Z" fill="var(--fill-0, #37474F)" id="Vector"/>
</svg>