<?xml version="1.0" encoding="utf-8"?>
<svg xmlns="http://www.w3.org/2000/svg" fill="none" height="100%" overflow="visible" preserveAspectRatio="none" style="display: block;" viewBox="0 0 63 63" width="100%">
<g id="Frame 35985">
<circle cx="31.5" cy="31.5" fill="var(--fill-0, white)" id="Ellipse 787" r="31.5"/>
<g id="fluent-mdl2:health-solid">
<path d="M38.0928 20.625C39.0492 20.625 39.9463 20.8027 40.7842 21.1582C41.6221 21.5137 42.3499 22.0046 42.9678 22.6309C43.5856 23.2572 44.0765 23.9893 44.4404 24.8271C44.8044 25.665 44.9863 26.5622 44.9863 27.5186C44.9863 28.0094 44.9355 28.4961 44.834 28.9785C44.7324 29.4609 44.5801 29.9264 44.377 30.375H38.499L36.0615 27.8359L31.999 31.8984L26.3115 26.2109L22.249 30.375H19.6211C19.418 29.9264 19.2656 29.4609 19.1641 28.9785C19.0625 28.4961 19.0117 28.0094 19.0117 27.5186C19.0117 26.5622 19.1895 25.665 19.5449 24.8271C19.9004 23.9893 20.3913 23.2614 21.0176 22.6436C21.6439 22.0257 22.376 21.5348 23.2139 21.1709C24.0518 20.807 24.9489 20.625 25.9053 20.625C26.8278 20.625 27.708 20.7985 28.5459 21.1455C29.3838 21.4925 30.1328 21.9919 30.793 22.6436L31.999 23.8623L33.2051 22.6436C33.8568 21.9919 34.6016 21.4925 35.4395 21.1455C36.2773 20.7985 37.1618 20.625 38.0928 20.625ZM36.874 32H43.3486L43.1709 32.2031C43.1117 32.2708 43.0482 32.3428 42.9805 32.4189L31.999 43.3877L21.0176 32.4189C20.9499 32.3512 20.8864 32.2835 20.8271 32.2158C20.7679 32.1481 20.7087 32.0762 20.6494 32H23.874L26.3115 29.6641L31.999 35.3516L36.0615 31.2891L36.874 32Z" fill="var(--fill-0, #FF853C)" id="Vector"/>
</g>
</g>
</svg>