<?xml version="1.0" encoding="utf-8"?>
<svg xmlns="http://www.w3.org/2000/svg" fill="none" height="100%" overflow="visible" preserveAspectRatio="none" style="display: block;" viewBox="0 0 318.633 400" width="100%">
<g id="Frame 2147257348">
<rect height="146" id="Rectangle 7899" rx="29.5" stroke="var(--stroke-0, white)" stroke-dasharray="8 8" width="247" x="0.5" y="35.5"/>
<g id="Polygon 4">
<mask fill="white" id="path-2-inside-1_0_17826">
<path d="M309.249 126.524C321.762 117.766 321.762 99.2343 309.249 90.4762L235.365 38.7639C220.784 28.5583 200.75 38.9898 200.75 56.7878L200.75 160.212C200.75 178.01 220.784 188.442 235.365 178.236L309.249 126.524Z"/>
</mask>
<path d="M309.249 126.524C321.762 117.766 321.762 99.2343 309.249 90.4762L235.365 38.7639C220.784 28.5583 200.75 38.9898 200.75 56.7878L200.75 160.212C200.75 178.01 220.784 188.442 235.365 178.236L309.249 126.524Z" fill="url(#paint0_linear_0_17826)"/>
<path d="M310.216 89.0937C309.571 90.0154 308.926 90.937 308.281 91.8587C302.446 87.927 296.613 83.9919 290.782 80.0534C271.699 67.1629 252.641 54.2358 233.61 41.2722C221.955 32.4692 203.387 42.6632 204.357 56.7878C204.702 91.2626 204.947 125.737 205.092 160.212C204.432 173.799 222.205 182.921 232.796 174.566C240.138 169.411 247.484 164.261 254.834 159.117C272.112 147.023 289.583 135.206 307.248 123.665C312.308 120.467 315.671 114.712 315.933 108.479C316.268 102.28 313.461 95.8755 308.281 91.8587C308.926 90.937 309.571 90.0154 310.216 89.0937C316.691 93.0575 321.089 100.565 321.333 108.473C321.718 116.379 317.871 124.582 311.249 129.382C294.358 142.028 277.273 154.397 259.995 166.49C252.645 171.634 245.291 176.773 237.934 181.906C221.772 194.431 195.302 180.516 196.408 160.212C196.553 125.737 196.798 91.2626 197.143 56.7878C196.348 37.0214 222.022 24.1784 237.121 36.2557C255.817 49.6987 274.488 63.1782 293.133 76.6944C298.83 80.8241 304.524 84.9572 310.216 89.0937ZM308.281 91.8587L310.216 89.0937L308.281 91.8587Z" fill="var(--stroke-0, white)" mask="url(#path-2-inside-1_0_17826)"/>
</g>
<g filter="url(#filter0_dd_0_17826)" id="Frame 21">
<rect fill="var(--fill-0, white)" height="89" rx="16.4583" width="209" x="36" y="64"/>
<g id="1">
<path d="M156.417 102.841C163.819 103.956 170.749 99.053 171.854 91.917C172.96 84.7811 167.818 78.1432 160.4 77.1296C153.057 76.1261 146.248 81.0165 145.153 88.0807C144.059 95.1451 149.089 101.736 156.417 102.841Z" fill="var(--fill-0, #FF7033)" id="Vector"/>
<path d="M157.151 100.906C162.91 101.69 168.183 97.4268 168.918 91.3916C169.654 85.3565 165.572 79.8425 159.81 79.0857C154.066 78.3312 148.823 82.5903 148.09 88.6065C147.357 94.6225 151.41 100.125 157.151 100.906Z" fill="var(--fill-0, white)" id="Vector_2"/>
<path d="M158.403 94.9991C158.811 94.9687 158.858 94.9453 159.215 94.7324C159.813 93.9096 159.57 91.4496 159.555 90.1915C160.38 89.1463 161.488 88.3047 162.004 87.0512C161.996 86.3927 162.014 86.6034 161.666 85.9991C160.589 86.0794 158.878 88.4834 158.054 89.4874C158.047 90.9368 157.818 93.9489 158.403 94.9991Z" fill="var(--fill-0, #FF7033)" id="Vector_3"/>
<path d="M158.352 99.9991C159.172 99.4273 159.148 98.349 158.668 96.9991C158.518 97.0858 158.391 97.2183 158.248 97.3513C157.873 98.4094 157.947 98.9983 158.352 99.9991Z" fill="var(--fill-0, #FF7033)" id="Vector_4"/>
<path d="M166.352 90.9883C167.129 90.9958 167.494 91.1213 167.992 90.2818C168.048 89.716 167.897 89.5182 167.648 89.0381C166.92 88.9676 166.383 88.893 166.004 89.7807C165.998 90.3778 166.086 90.4869 166.352 90.9883Z" fill="var(--fill-0, #FF7033)" id="Vector_5"/>
<path d="M163.206 84.9991C164.825 84.9194 165.385 84.355 164.745 82.9992C163.251 82.9874 162.655 83.7461 163.206 84.9991Z" fill="var(--fill-0, #FF7033)" id="Vector_6"/>
<path d="M163.989 96.9991C164.676 96.7957 164.887 96.7472 165.004 96.0777C164.835 95.5594 164.517 95.3582 164.078 94.9991C163.85 95.0268 163.622 95.0922 163.398 95.1468C162.972 95.5138 163.059 95.3346 163.004 95.8435C163.18 96.4032 163.519 96.6158 163.989 96.9991Z" fill="var(--fill-0, #FF7033)" id="Vector_7"/>
<path d="M152.543 96.9991C153.267 96.7942 153.794 96.6361 154.004 95.9732C153.896 95.3459 153.957 95.5517 153.438 94.9991C152.708 95.2437 152.198 95.4269 152.004 96.1057C152.014 96.5442 152.198 96.6659 152.543 96.9991Z" fill="var(--fill-0, #FF7033)" id="Vector_8"/>
<path d="M152.857 84.9991C153.447 84.9802 153.605 84.8768 153.97 84.5532C154.135 83.7782 153.675 83.4872 153.102 82.9991C151.348 83.1523 152.028 84.2274 152.857 84.9991Z" fill="var(--fill-0, #FF7033)" id="Vector_9"/>
<path d="M149.416 90.9977C150.154 91.0018 150.679 91.0443 151.004 90.1198C150.967 89.554 150.82 89.4168 150.51 88.9991C149.759 89.0218 149.388 88.9561 149.004 89.8066C149.008 90.4015 149.116 90.5223 149.416 90.9977Z" fill="var(--fill-0, #FF7033)" id="Vector_10"/>
<path d="M158.159 82.9984C158.658 83.0019 158.772 83.018 159 82.305C159.017 81.6942 158.981 81.5768 158.833 81.0042C157.851 80.9243 157.91 81.7991 158.159 82.9984Z" fill="var(--fill-0, #FF7033)" id="Vector_11"/>
<path d="M118.673 100.984C119.905 101.018 121.149 100.986 122.381 100.966L122.805 99.0763L125.529 97.953L127.263 99.0517C128.119 98.3153 129.136 97.2765 129.963 96.4783L128.818 94.8381C129.211 94.0138 129.599 93.0536 129.965 92.2074L132.004 91.7792L132.004 88.1972C131.355 88.0434 130.616 87.9199 129.954 87.7944C129.645 86.973 129.181 85.9832 128.824 85.1628L129.966 83.5179C129.045 82.6082 128.227 81.8357 127.252 80.9801L125.524 82.0139L122.815 80.9541C122.689 80.3015 122.611 79.5182 122.21 78.9991L118.621 79.0094L118.142 80.9564L115.416 82.0221L113.688 80.981C112.904 81.614 111.737 82.7983 110.978 83.5223L112.152 85.144L110.981 87.7904L109.027 88.175C108.978 89.3282 109.02 90.636 109.029 91.8012L110.981 92.2013L112.141 94.854L110.988 96.4695C111.833 97.3244 112.821 98.2234 113.7 99.0597L115.433 97.9556L118.137 99.0734C118.301 99.7887 118.45 100.293 118.673 100.984Z" fill="var(--fill-0, #FF7033)" id="Vector_12"/>
<path d="M119.621 95.9205C122.63 96.454 125.463 94.2156 125.936 90.9302C126.41 87.6448 124.343 84.5665 121.329 84.0677C118.337 83.5728 115.541 85.8072 115.071 89.068C114.602 92.3287 116.635 95.3907 119.621 95.9205Z" fill="var(--fill-0, white)" id="Vector_13"/>
<path d="M138.895 133.94C142.785 134.254 146.547 133.36 149.11 130.313C150.214 129.015 150.867 127.409 150.975 125.726C151.436 119.159 146.229 117.416 145.685 112.004L143.12 112.002L143.122 119.444C145.087 120.378 146.396 121.554 147.012 123.721C147.608 125.819 145.872 128.1 143.708 126.648C142.142 125.596 141.665 123.187 141.355 121.458C141.366 121.1 141.382 121.231 141.178 120.891C140.989 120.828 140.821 120.779 140.646 120.738C140.429 120.657 139.779 120.828 139.72 121.045C139.249 122.872 138.45 127.737 135.567 127.088C131.972 126.279 134.399 121.944 136.088 120.486C136.619 120.029 137.233 119.729 137.837 119.413L137.824 112.003L135.253 111.999C134.786 116.766 131.013 118.253 130.206 122.8C129.075 129.167 132.788 132.822 138.895 133.94Z" fill="var(--fill-0, #FF7033)" id="Vector_14"/>
<path d="M127.942 114.854C129.037 114.947 130.058 115.253 130.849 114.541C131.198 113.744 130.846 112.466 130.866 111.565C130.88 110.933 130.692 110.63 130.17 110.229C128.972 110.018 129.135 111.175 128.852 111.866C128.122 111.425 124.815 108.401 123.994 107.671C123.379 107.115 123.271 106.901 122.389 107.04C121.947 107.398 122.041 107.218 122.004 107.703C122.553 109.011 126.431 112.094 127.709 113.21C126.843 113.178 126.263 113.056 125.702 113.738C125.672 114.9 126.974 114.816 127.942 114.854Z" fill="var(--fill-0, #FF7033)" id="Vector_15"/>
<path d="M149.267 114.999C149.495 114.998 150.032 114.997 150.194 114.888C152.057 113.624 153.913 111.622 155.624 110.219C156.359 110.515 155.897 111.642 156.943 111.823C157.155 111.705 157.526 111.489 157.62 111.299C158.028 110.467 158.114 107.878 157.863 107.073C157.041 106.927 155.961 107.036 155.105 107.076C153.81 107.137 153.438 107.072 152.559 107.928C152.425 108.818 153.828 108.302 154.313 109.026C153.968 109.851 149.487 112.833 149.031 114.078C148.929 114.354 149.139 114.738 149.267 114.999Z" fill="var(--fill-0, #FF7033)" id="Vector_16"/>
<path d="M137.089 92.9991C137.739 92.8083 137.986 92.7402 138.134 92.087C137.979 91.5012 137.509 91.1697 137.041 90.7559C138.634 90.7359 142.9 91.0984 143.862 90.3284C144.044 89.7728 144.07 89.978 143.826 89.4914C142.866 88.8336 139.609 89.0774 138.278 89.0948C137.888 89.1081 137.811 89.1136 137.436 89.0177C137.465 88.445 138.176 88.0061 138.148 87.233C137.83 86.9808 137.547 87.0182 137.118 86.9991C136.292 87.3177 135.134 88.3751 134.475 88.9676C132.849 90.4288 135.857 92.0463 137.089 92.9991Z" fill="var(--fill-0, #FF7033)" id="Vector_17"/>
<path d="M135.151 110.951C136.508 110.957 145.415 111.159 145.981 110.688C146.084 110.144 145.824 109.727 145.595 109.217C144.042 108.865 138.422 109.024 136.575 109.114C135.987 109.143 135.487 109.329 135.112 109.846C134.978 110.539 134.945 110.288 135.151 110.951Z" fill="var(--fill-0, #FF7033)" id="Vector_18"/>
<path d="M137.004 107.958C138.411 107.962 142.799 108.099 143.91 107.85C144.081 107.266 143.989 107.278 143.864 106.543C142.685 105.785 138.979 105.88 137.622 106.453C137.21 106.627 137.103 107.49 137.004 107.958Z" fill="var(--fill-0, #FF7033)" id="Vector_19"/>
<path d="M140.032 118.987L140.079 118.989C140.417 119 140.724 119.055 140.939 118.725C141.055 117.181 140.982 113.705 140.973 112.015C140.561 112.007 140.371 111.925 140.068 112.232C139.954 113.655 140.026 117.391 140.032 118.987Z" fill="var(--fill-0, #FF7033)" id="Vector_20"/>
<path d="M139.758 139.999C140.038 139.986 140.993 139.903 141.18 139.79C142.421 139.043 142.156 136.775 141.078 135.999C138.307 136.244 138.805 138.908 139.758 139.999Z" fill="var(--fill-0, #FF7033)" id="Vector_21"/>
<path d="M148.294 137.999L148.834 137.661C149.413 136.472 148.383 134.787 147.697 133.999C146.178 134.944 147.516 136.913 148.294 137.999Z" fill="var(--fill-0, #FF7033)" id="Vector_22"/>
<path d="M126.212 131.999C127.141 132.01 128.363 131.135 128.931 130.239C129.052 129.529 129.037 129.776 128.774 129.005C127.807 128.914 126.624 129.828 126.058 130.763C125.954 131.439 125.998 131.272 126.212 131.999Z" fill="var(--fill-0, #FF7033)" id="Vector_23"/>
<path d="M132.501 137.999C133.345 137.623 133.971 135.987 134.004 134.821C133.807 134.25 133.851 134.407 133.438 133.999C132.815 134.452 132.055 136.075 132.005 137.045C131.982 137.493 132.283 137.736 132.501 137.999Z" fill="var(--fill-0, #FF7033)" id="Vector_24"/>
<path d="M154.102 131.999C154.483 131.985 154.712 131.835 154.988 131.53C155.179 130.347 153.611 129.484 152.942 129.012C152.645 128.957 152.247 129.084 152.025 129.351C151.798 130.568 153.45 131.545 154.102 131.999Z" fill="var(--fill-0, #FF7033)" id="Vector_25"/>
<path d="M138.004 104.886L140.582 104.993C141.177 105.021 141.596 104.967 142.004 104.479L141.914 103.604C140.643 102.682 138.501 102.603 138.004 104.886Z" fill="var(--fill-0, #FF7033)" id="Vector_26"/>
<path d="M144.675 124.999C145.732 124.224 143.974 122.563 143.169 121.999L143.017 122.099C142.881 123.002 143.845 124.37 144.675 124.999Z" fill="var(--fill-0, #FF7033)" id="Vector_27"/>
<path d="M136.057 124.999C137.459 124.401 137.879 122.317 138.004 120.999C136.7 122.054 135.768 123.293 136.057 124.999Z" fill="var(--fill-0, #FF7033)" id="Vector_28"/>
</g>
</g>
<path d="M55.5 393C57.433 393 59 394.567 59 396.5C59 398.433 57.433 400 55.5 400C53.567 400 52 398.433 52 396.5C52 394.567 53.567 393 55.5 393ZM56 391.027H55V387.046H56V391.027ZM56 383.064H55V379.083H56V383.064ZM56 375.102H55V371.12H56V375.102ZM56 367.139H55V363.157H56V367.139ZM56 359.176H55V355.194H56V359.176ZM56 351.213H55V347.231H56V351.213ZM56 343.25H55V339.269H56V343.25ZM56 335.287H55V331.306H56V335.287ZM56 327.324H55V323.343H56V327.324ZM56 319.361H55V315.38H56V319.361ZM56 311.398H55V307.417H56V311.398ZM56 303.436H55V299.454H56V303.436ZM56 295.473H55V291.491H56V295.473ZM56 287.51H55V283.527H56V287.51ZM56 279.546H55V275.564H56V279.546ZM56 271.583H55V267.602H56V271.583ZM56 263.62H55V259.639H56V263.62ZM56 255.657H55V251.676H56V255.657ZM56 247.694H55V243.713H56V247.694ZM56 239.731H55V235.75H56V239.731ZM56 231.769H55V227.787H56V231.769ZM56 223.806H55V219.824H56V223.806ZM56 215.843H55V211.861H56V215.843ZM56 207.88H55V203.898H56V207.88ZM56 199.917H55V195.936H56V199.917ZM56 191.954H55V187.973H56V191.954ZM56 183.991H55V182H56V183.991Z" fill="var(--fill-0, white)" id="Union"/>
</g>
<defs>
<filter color-interpolation-filters="sRGB" filterUnits="userSpaceOnUse" height="95.5833" id="filter0_dd_0_17826" width="215.583" x="32.7083" y="62.3542">
<feFlood flood-opacity="0" result="BackgroundImageFix"/>
<feColorMatrix in="SourceAlpha" result="hardAlpha" type="matrix" values="0 0 0 0 0 0 0 0 0 0 0 0 0 0 0 0 0 0 127 0"/>
<feMorphology in="SourceAlpha" operator="dilate" radius="1.64583" result="effect1_dropShadow_0_17826"/>
<feOffset/>
<feColorMatrix type="matrix" values="0 0 0 0 0 0 0 0 0 0 0 0 0 0 0 0 0 0 0.06 0"/>
<feBlend in2="BackgroundImageFix" mode="normal" result="effect1_dropShadow_0_17826"/>
<feColorMatrix in="SourceAlpha" result="hardAlpha" type="matrix" values="0 0 0 0 0 0 0 0 0 0 0 0 0 0 0 0 0 0 127 0"/>
<feOffset dy="1.64583"/>
<feGaussianBlur stdDeviation="1.64583"/>
<feColorMatrix type="matrix" values="0 0 0 0 0 0 0 0 0 0 0 0 0 0 0 0 0 0 0.06 0"/>
<feBlend in2="effect1_dropShadow_0_17826" mode="normal" result="effect2_dropShadow_0_17826"/>
<feBlend in="SourceGraphic" in2="effect2_dropShadow_0_17826" mode="normal" result="shape"/>
</filter>
<linearGradient gradientUnits="userSpaceOnUse" id="paint0_linear_0_17826" x1="204.5" x2="322" y1="178.5" y2="-29.5">
<stop offset="0.252701" stop-color="#FF7032"/>
<stop offset="1" stop-color="#FF0400"/>
</linearGradient>
</defs>
</svg>