<?xml version="1.0" encoding="utf-8"?>
<svg xmlns="http://www.w3.org/2000/svg" fill="none" height="100%" overflow="visible" preserveAspectRatio="none" style="display: block;" viewBox="0 0 547 530" width="100%">
<g id="Frame 2147257057">
<g clip-path="url(#clip0_0_8010)" id="Icon">
<path d="M260 115C160.589 115 80 195.589 80 295C80 394.411 160.589 475 260 475C359.411 475 440 394.411 440 295C440 195.589 359.411 115 260 115Z" fill="var(--fill-0, #FF853C)" id="Vector" opacity="0.1"/>
<path d="M260 75C138.497 75 40 173.497 40 295C40 416.503 138.497 515 260 515C381.503 515 480 416.503 480 295C480 173.497 381.503 75 260 75Z" id="Vector_2" stroke="var(--stroke-0, #FF853C)" stroke-dasharray="3 5" stroke-opacity="0.5"/>
<path d="M260 165C188.203 165 130 223.203 130 295C130 366.797 188.203 425 260 425C331.797 425 390 366.797 390 295C390 223.203 331.797 165 260 165Z" fill="var(--fill-0, #FF853C)" id="Vector_3" opacity="0.2"/>
<path d="M260 374.5C216.093 374.5 180.5 338.907 180.5 295C180.5 251.093 216.093 215.5 260 215.5C303.907 215.5 339.5 251.093 339.5 295C339.5 338.907 303.907 374.5 260 374.5Z" fill="url(#paint0_linear_0_8010)" id="Vector_4" stroke="var(--stroke-0, white)"/>
<path d="M260 295L260 475" id="Vector_5" stroke="var(--stroke-0, #FF853C)" stroke-dasharray="2 4" stroke-opacity="0.2"/>
<path d="M260 295L104.115 385" id="Vector_6" stroke="var(--stroke-0, #FF853C)" stroke-dasharray="2 4" stroke-opacity="0.2"/>
<path d="M260 295L104.115 205" id="Vector_7" stroke="var(--stroke-0, #FF853C)" stroke-dasharray="2 4" stroke-opacity="0.2"/>
<path d="M260 295L260 115" id="Vector_8" stroke="var(--stroke-0, #FF853C)" stroke-dasharray="2 4" stroke-opacity="0.2"/>
<path d="M259.998 295L415.883 205" id="Vector_9" stroke="var(--stroke-0, #FF853C)" stroke-dasharray="2 4" stroke-opacity="0.2"/>
<path d="M259.998 295L415.883 385" id="Vector_10" stroke="var(--stroke-0, #FF853C)" stroke-dasharray="2 4" stroke-opacity="0.2"/>
</g>
<g filter="url(#filter0_d_0_8010)" id="Container">
<g id="fluent:connected-16-filled">
<path d="M274.941 307.287C276.513 306.36 278.37 306.038 280.163 306.382C281.955 306.726 283.561 307.712 284.679 309.155C285.797 310.598 286.35 312.4 286.235 314.221C286.12 316.043 285.344 317.761 284.053 319.051C282.762 320.342 281.045 321.118 279.223 321.233C277.402 321.348 275.6 320.795 274.157 319.677C272.714 318.559 271.728 316.953 271.384 315.161C271.04 313.368 271.362 311.511 272.289 309.939L263.811 301.464C262.656 302.143 261.34 302.5 260.001 302.499C258.613 302.499 257.308 302.12 256.191 301.46L247.716 309.939C248.643 311.511 248.965 313.368 248.621 315.161C248.277 316.953 247.291 318.559 245.848 319.677C244.405 320.795 242.604 321.348 240.782 321.233C238.96 321.118 237.243 320.342 235.952 319.051C234.661 317.761 233.885 316.043 233.77 314.221C233.655 312.4 234.208 310.598 235.326 309.155C236.444 307.712 238.05 306.726 239.842 306.382C241.635 306.038 243.492 306.36 245.064 307.287L253.539 298.809C252.855 297.656 252.494 296.34 252.494 294.999C252.494 293.658 252.855 292.342 253.539 291.189L245.061 282.714C243.488 283.641 241.632 283.963 239.839 283.619C238.046 283.275 236.44 282.289 235.322 280.846C234.204 279.403 233.651 277.602 233.766 275.78C233.882 273.958 234.657 272.241 235.948 270.95C237.239 269.659 238.956 268.883 240.778 268.768C242.6 268.653 244.401 269.206 245.844 270.324C247.287 271.442 248.273 273.048 248.617 274.841C248.961 276.633 248.639 278.49 247.712 280.062L256.191 288.537C257.345 287.857 258.661 287.498 260.001 287.499C261.341 287.498 262.656 287.857 263.811 288.537L272.286 280.059C271.358 278.486 271.037 276.63 271.38 274.837C271.724 273.044 272.71 271.438 274.153 270.32C275.596 269.202 277.398 268.649 279.22 268.764C281.041 268.88 282.759 269.655 284.05 270.946C285.34 272.237 286.116 273.954 286.231 275.776C286.347 277.598 285.793 279.399 284.675 280.842C283.558 282.285 281.952 283.271 280.159 283.615C278.366 283.959 276.509 283.637 274.937 282.71L266.462 291.189C267.142 292.343 267.501 293.659 267.501 294.999C267.501 296.386 267.122 297.691 266.462 298.809L274.941 307.287Z" fill="var(--fill-0, white)" id="Vector_11"/>
</g>
</g>
<g filter="url(#filter1_d_0_8010)" id="Container_2">
<path d="M72 454C72 429.699 91.6995 410 116 410V410C140.301 410 160 429.699 160 454V454C160 478.301 140.301 498 116 498V498C91.6995 498 72 478.301 72 454V454Z" fill="var(--fill-0, #472511)" shape-rendering="crispEdges"/>
<g id="fluent:data-pie-24-filled">
<path d="M126.311 447.34C126.523 447.314 126.739 447.332 126.945 447.389L126.944 447.39C127.15 447.448 127.343 447.546 127.512 447.679C127.68 447.811 127.821 447.974 127.926 448.161C128.031 448.348 128.098 448.554 128.123 448.766C128.148 448.979 128.132 449.194 128.074 449.4L123.26 466.554C123.143 466.97 122.866 467.322 122.489 467.534C122.112 467.746 121.666 467.799 121.25 467.682C120.834 467.566 120.481 467.289 120.269 466.912C120.058 466.535 120.004 466.09 120.121 465.674L124.936 448.518C124.993 448.312 125.09 448.119 125.223 447.951C125.355 447.783 125.519 447.642 125.706 447.537C125.893 447.432 126.098 447.365 126.311 447.34ZM118.121 451.297C118.335 451.297 118.547 451.339 118.745 451.421C118.943 451.503 119.122 451.623 119.273 451.774C119.579 452.08 119.75 452.495 119.75 452.927C119.75 453.358 119.578 453.772 119.273 454.078L115.818 457.536L119.275 460.994C119.581 461.3 119.753 461.714 119.753 462.146C119.753 462.579 119.58 462.993 119.274 463.299C118.969 463.604 118.554 463.776 118.122 463.776C117.69 463.776 117.275 463.604 116.97 463.299L112.359 458.688C112.054 458.383 111.883 457.968 111.883 457.536C111.883 457.104 112.054 456.69 112.359 456.385L116.969 451.774C117.12 451.623 117.3 451.503 117.498 451.421C117.696 451.339 117.907 451.297 118.121 451.297ZM130.061 451.256C130.28 451.26 130.496 451.308 130.696 451.397C130.896 451.486 131.076 451.614 131.225 451.774L135.835 456.384C136.14 456.689 136.312 457.104 136.312 457.536C136.312 457.968 136.14 458.383 135.835 458.688L131.227 463.299C131.075 463.45 130.895 463.569 130.697 463.651C130.499 463.733 130.287 463.776 130.073 463.776C129.859 463.776 129.648 463.734 129.45 463.652C129.252 463.57 129.072 463.45 128.921 463.299C128.77 463.147 128.649 462.968 128.567 462.77C128.485 462.573 128.443 462.36 128.443 462.146C128.443 461.932 128.485 461.72 128.567 461.522C128.649 461.325 128.77 461.145 128.921 460.994L132.378 457.536L128.922 454.078C128.762 453.929 128.633 453.749 128.544 453.549C128.455 453.349 128.407 453.133 128.403 452.914C128.399 452.695 128.44 452.478 128.521 452.275C128.603 452.072 128.725 451.888 128.88 451.733C129.034 451.579 129.219 451.457 129.422 451.375C129.625 451.293 129.843 451.252 130.061 451.256ZM111.208 453.25C111.045 453.987 110.828 454.712 110.566 455.42C110.271 455.832 110.065 456.301 109.962 456.796C109.641 457.404 109.3 457.894 108.947 458.257C108.433 458.786 107.944 459 107.503 459C107.062 459 106.574 458.786 106.06 458.257C105.542 457.726 105.043 456.92 104.609 455.866C104.267 455.018 103.997 454.143 103.8 453.25H111.208ZM102.328 453.25C102.576 454.416 102.898 455.483 103.281 456.413C103.623 457.243 104.02 457.983 104.472 458.596C101.549 457.794 99.0585 455.873 97.541 453.25H102.328ZM101.847 445.104C101.671 447.342 101.745 449.591 102.067 451.812H96.8388C96.3002 450.48 96.0029 449.025 96.0029 447.5C96.0022 446.695 96.0859 445.892 96.2529 445.104H101.847ZM111.717 445.104C111.782 445.878 111.815 446.676 111.815 447.5C111.819 448.944 111.708 450.386 111.483 451.812H103.522C103.298 450.386 103.187 448.944 103.19 447.5C103.191 446.676 103.224 445.878 103.289 445.104H111.717ZM118.754 445.104C118.917 445.877 119.003 446.679 119.003 447.5C119.003 448.138 118.948 448.763 118.848 449.373C118.61 449.324 118.367 449.297 118.123 449.297C117.706 449.297 117.292 449.369 116.9 449.51L116.733 449.574C116.293 449.757 115.893 450.024 115.556 450.361L114.104 451.812H112.938C113.261 449.592 113.335 447.342 113.159 445.104H118.754ZM104.472 436.404C104.02 437.017 103.623 437.757 103.281 438.587C102.697 440.008 102.254 441.743 102 443.667H96.6582C97.2793 441.916 98.3133 440.341 99.6738 439.077C101.034 437.813 102.681 436.896 104.472 436.404ZM107.503 436C107.944 436 108.432 436.214 108.946 436.743C109.464 437.274 109.961 438.08 110.395 439.134C110.91 440.38 111.312 441.927 111.556 443.667H103.45C103.694 441.927 104.096 440.38 104.609 439.134C105.043 438.08 105.542 437.275 106.06 436.743C106.573 436.214 107.062 436 107.503 436ZM110.536 436.404C112.327 436.896 113.973 437.813 115.333 439.077C116.693 440.341 117.729 441.917 118.35 443.667H113.008C112.754 441.743 112.311 440.008 111.727 438.587C111.384 437.757 110.986 437.017 110.536 436.404Z" fill="var(--fill-0, white)" id="Union"/>
</g>
</g>
<g id="Container_3">
<rect fill="var(--fill-0, #472511)" height="88" rx="44" width="88" y="170"/>
<g id="hugeicons:ai-brain-04">
<g id="Vector_12">
<path d="M33.1436 202.182C33.9092 201.735 34.78 201.5 35.6667 201.5C35.6667 200.395 36.1057 199.335 36.8871 198.554C37.6685 197.772 38.7283 197.333 39.8333 197.333C40.9384 197.333 41.9982 197.772 42.7796 198.554C43.561 199.335 44 200.395 44 201.5V226.5C44 227.605 43.561 228.665 42.7796 229.446C41.9982 230.228 40.9384 230.667 39.8333 230.667C38.7283 230.667 37.6685 230.228 36.8871 229.446C36.1057 228.665 35.6667 227.605 35.6667 226.5C34.7802 226.5 33.9097 226.264 33.1443 225.817C32.3789 225.37 31.7461 224.728 31.3108 223.956C30.8755 223.183 30.6532 222.309 30.6668 221.423C30.6805 220.537 30.9295 219.67 31.3883 218.912C30.2476 218.691 29.2191 218.081 28.4796 217.184C27.74 216.288 27.3356 215.163 27.3356 214.001C27.3356 212.839 27.74 211.713 28.4796 210.817C29.2191 209.921 30.2476 209.31 31.3883 209.09C30.929 208.332 30.6797 207.465 30.6658 206.578C30.652 205.691 30.8742 204.817 31.3096 204.045C31.7449 203.272 32.3779 202.63 33.1436 202.182Z" fill="var(--fill-0, #D9D9D9)"/>
<path d="M55.1994 202.801C54.965 202.566 54.8333 202.248 54.8333 201.917C54.8333 201.585 54.965 201.267 55.1994 201.033C55.4339 200.798 55.7518 200.667 56.0833 200.667C56.4149 200.667 56.7328 200.798 56.9672 201.033C57.2016 201.267 57.3333 201.585 57.3333 201.917C57.3333 202.248 57.2016 202.566 56.9672 202.801C56.7328 203.035 56.4149 203.167 56.0833 203.167C55.7518 203.167 55.4339 203.035 55.1994 202.801Z" fill="var(--fill-0, #D9D9D9)"/>
<path d="M55.1994 225.199C54.965 225.434 54.8333 225.752 54.8333 226.083C54.8333 226.415 54.965 226.733 55.1994 226.967C55.4339 227.202 55.7518 227.333 56.0833 227.333C56.4149 227.333 56.7328 227.202 56.9672 226.967C57.2016 226.733 57.3333 226.415 57.3333 226.083C57.3333 225.752 57.2016 225.434 56.9672 225.199C56.7328 224.965 56.4149 224.833 56.0833 224.833C55.7518 224.833 55.4339 224.965 55.1994 225.199Z" fill="var(--fill-0, #D9D9D9)"/>
<path d="M55.1994 214.884C54.965 214.649 54.8333 214.332 54.8333 214C54.8333 213.668 54.965 213.351 55.1994 213.116C55.4339 212.882 55.7518 212.75 56.0833 212.75C56.4149 212.75 56.7328 212.882 56.9672 213.116C57.2016 213.351 57.3333 213.668 57.3333 214C57.3333 214.332 57.2016 214.649 56.9672 214.884C56.7328 215.118 56.4149 215.25 56.0833 215.25C55.7518 215.25 55.4339 215.118 55.1994 214.884Z" fill="var(--fill-0, #D9D9D9)"/>
<path d="M35.6667 201.5C34.78 201.5 33.9092 201.735 33.1436 202.182C32.3779 202.63 31.7449 203.272 31.3096 204.045C30.8742 204.817 30.652 205.691 30.6658 206.578C30.6797 207.465 30.929 208.332 31.3883 209.09C30.2476 209.31 29.2191 209.921 28.4796 210.817C27.74 211.713 27.3356 212.839 27.3356 214.001C27.3356 215.163 27.74 216.288 28.4796 217.184C29.2191 218.081 30.2476 218.691 31.3883 218.912M34 216.783C32.9094 217.169 31.9865 217.921 31.3883 218.912C30.9295 219.67 30.6805 220.537 30.6668 221.423C30.6532 222.309 30.8755 223.183 31.3108 223.956C31.7461 224.728 32.3789 225.37 33.1443 225.817C33.9097 226.264 34.7802 226.5 35.6667 226.5C35.6667 227.605 36.1057 228.665 36.8871 229.446C37.6685 230.228 38.7283 230.667 39.8333 230.667C40.9384 230.667 41.9982 230.228 42.7796 229.446C43.561 228.665 44 227.605 44 226.5V201.5C44 200.395 43.561 199.335 42.7796 198.554C41.9982 197.772 40.9384 197.333 39.8333 197.333C38.7283 197.333 37.6685 197.772 36.8871 198.554C36.1057 199.335 35.6667 200.395 35.6667 201.5M35.6667 201.5C35.6667 202.863 36.3217 204.073 37.3333 204.833M56.0833 201.917L52.3333 205.667H49M56.0833 226.083L52.3333 222.333H49M56.0833 214H49M54.8333 201.917C54.8333 202.248 54.965 202.566 55.1994 202.801C55.4339 203.035 55.7518 203.167 56.0833 203.167C56.4149 203.167 56.7328 203.035 56.9672 202.801C57.2016 202.566 57.3333 202.248 57.3333 201.917C57.3333 201.585 57.2016 201.267 56.9672 201.033C56.7328 200.798 56.4149 200.667 56.0833 200.667C55.7518 200.667 55.4339 200.798 55.1994 201.033C54.965 201.267 54.8333 201.585 54.8333 201.917ZM54.8333 226.083C54.8333 225.752 54.965 225.434 55.1994 225.199C55.4339 224.965 55.7518 224.833 56.0833 224.833C56.4149 224.833 56.7328 224.965 56.9672 225.199C57.2016 225.434 57.3333 225.752 57.3333 226.083C57.3333 226.415 57.2016 226.733 56.9672 226.967C56.7328 227.202 56.4149 227.333 56.0833 227.333C55.7518 227.333 55.4339 227.202 55.1994 226.967C54.965 226.733 54.8333 226.415 54.8333 226.083ZM54.8333 214C54.8333 214.332 54.965 214.649 55.1994 214.884C55.4339 215.118 55.7518 215.25 56.0833 215.25C56.4149 215.25 56.7328 215.118 56.9672 214.884C57.2016 214.649 57.3333 214.332 57.3333 214C57.3333 213.668 57.2016 213.351 56.9672 213.116C56.7328 212.882 56.4149 212.75 56.0833 212.75C55.7518 212.75 55.4339 212.882 55.1994 213.116C54.965 213.351 54.8333 213.668 54.8333 214Z" stroke="var(--stroke-0, white)" stroke-linecap="round" stroke-linejoin="round" stroke-width="1.5"/>
</g>
<g id="Vector_13">
<path d="M33.1439 202.182C33.9096 201.735 34.7804 201.499 35.6671 201.5C35.6671 200.395 36.106 199.335 36.8874 198.553C37.6688 197.772 38.7286 197.333 39.8337 197.333C40.9388 197.333 41.9986 197.772 42.78 198.553C43.5614 199.335 44.0004 200.395 44.0004 201.5V226.5C44.0004 227.605 43.5614 228.665 42.78 229.446C41.9986 230.227 40.9388 230.666 39.8337 230.666C38.7286 230.666 37.6688 230.227 36.8874 229.446C36.106 228.665 35.6671 227.605 35.6671 226.5C34.7806 226.5 33.9101 226.264 33.1447 225.817C32.3793 225.37 31.7465 224.727 31.3112 223.955C30.8758 223.183 30.6536 222.309 30.6672 221.423C30.6808 220.537 30.9298 219.67 31.3887 218.911C30.248 218.691 29.2195 218.08 28.48 217.184C27.7404 216.288 27.3359 215.162 27.3359 214.001C27.3359 212.839 27.7404 211.713 28.48 210.817C29.2195 209.921 30.248 209.31 31.3887 209.09C30.9294 208.331 30.6801 207.464 30.6662 206.578C30.6524 205.691 30.8745 204.817 31.3099 204.044C31.7453 203.272 32.3783 202.629 33.1439 202.182Z" fill="var(--fill-0, white)"/>
<path d="M35.6671 201.5C34.7804 201.499 33.9096 201.735 33.1439 202.182C32.3783 202.629 31.7453 203.272 31.3099 204.044C30.8745 204.817 30.6524 205.691 30.6662 206.578C30.6801 207.464 30.9294 208.331 31.3887 209.09C30.248 209.31 29.2195 209.921 28.48 210.817C27.7404 211.713 27.3359 212.839 27.3359 214.001C27.3359 215.162 27.7404 216.288 28.48 217.184C29.2195 218.08 30.248 218.691 31.3887 218.911M34.0004 216.783C32.9098 217.169 31.9868 217.921 31.3887 218.911C30.9298 219.67 30.6808 220.537 30.6672 221.423C30.6536 222.309 30.8758 223.183 31.3112 223.955C31.7465 224.727 32.3793 225.37 33.1447 225.817C33.9101 226.264 34.7806 226.5 35.6671 226.5C35.6671 227.605 36.106 228.665 36.8874 229.446C37.6688 230.227 38.7286 230.666 39.8337 230.666C40.9388 230.666 41.9986 230.227 42.78 229.446C43.5614 228.665 44.0004 227.605 44.0004 226.5V201.5C44.0004 200.395 43.5614 199.335 42.78 198.553C41.9986 197.772 40.9388 197.333 39.8337 197.333C38.7286 197.333 37.6688 197.772 36.8874 198.553C36.106 199.335 35.6671 200.395 35.6671 201.5M35.6671 201.5C35.6671 202.863 36.3221 204.073 37.3337 204.833" stroke="var(--stroke-0, #472511)" stroke-linecap="round" stroke-linejoin="round" stroke-width="1.5"/>
</g>
</g>
</g>
<g filter="url(#filter2_d_0_8010)" id="Container_4">
<path d="M435 211C435 186.699 454.699 167 479 167V167C503.301 167 523 186.699 523 211V211C523 235.301 503.301 255 479 255V255C454.699 255 435 235.301 435 211V211Z" fill="var(--fill-0, #472511)" shape-rendering="crispEdges"/>
<g id="mingcute:ai-fill">
<g id="Group">
<g id="Vector_14">
</g>
<path clip-rule="evenodd" d="M467.691 208.081C467.955 203.377 471.852 199.644 476.622 199.644C479.914 199.644 482.791 201.422 484.344 204.07C484.879 203.972 485.422 203.923 485.966 203.923C490.905 203.923 494.91 207.927 494.91 212.867C494.91 217.807 490.905 221.811 485.966 221.811H477.022V221.811H470.368C466.433 221.811 463.243 218.621 463.243 214.686C463.243 211.698 465.082 209.139 467.691 208.081Z" fill="var(--fill-0, white)" fill-rule="evenodd" id="Vector_15"/>
</g>
</g>
</g>
<g filter="url(#filter3_d_0_8010)" id="Container_5">
<path d="M216 60C216 35.6995 235.699 16 260 16V16C284.301 16 304 35.6995 304 60V60C304 84.3005 284.301 104 260 104V104C235.699 104 216 84.3005 216 60V60Z" fill="var(--fill-0, #472511)" shape-rendering="crispEdges"/>
<g id="fluent-mdl2:automate-flow">
<path d="M262.124 41.9014C261.957 41.8965 261.79 41.9252 261.634 41.9858C261.478 42.0464 261.336 42.1377 261.216 42.2543C261.096 42.3708 261.001 42.5103 260.936 42.6644C260.871 42.8185 260.837 42.9841 260.837 43.1514V56.478C260.837 57.168 261.397 57.728 262.087 57.728H275.414C275.581 57.7281 275.747 57.6946 275.901 57.6295C276.055 57.5644 276.194 57.469 276.311 57.3491C276.428 57.2291 276.519 57.0869 276.579 56.931C276.64 56.7751 276.669 56.6086 276.664 56.4414C276.548 52.6217 274.98 48.9901 272.277 46.2879C269.575 43.5858 265.944 42.0168 262.124 41.9014ZM257.931 45.5797C258.059 45.6969 258.161 45.8395 258.231 45.9985C258.301 46.1575 258.337 46.3293 258.337 46.503V56.478C258.337 57.4726 258.732 58.4264 259.436 59.1297C260.139 59.8329 261.093 60.228 262.087 60.228H272.029C272.203 60.228 272.375 60.2642 272.534 60.3344C272.693 60.4046 272.836 60.5072 272.953 60.6357C273.07 60.7641 273.159 60.9156 273.214 61.0805C273.27 61.2453 273.29 61.4199 273.274 61.593C273.009 64.4302 271.941 67.1332 270.196 69.3857C268.451 71.6382 266.1 73.3471 263.419 74.3123C260.738 75.2776 257.838 75.4593 255.057 74.8363C252.276 74.2132 249.731 72.8111 247.718 70.794C245.705 68.777 244.309 66.2284 243.692 63.4465C243.075 60.6646 243.262 57.7645 244.233 55.0856C245.204 52.4066 246.918 50.0596 249.175 48.3192C251.431 46.5788 254.136 45.517 256.974 45.258C257.147 45.2422 257.321 45.2626 257.486 45.318C257.651 45.3734 257.802 45.4625 257.931 45.5797Z" fill="var(--fill-0, white)" id="Vector_16"/>
</g>
</g>
<g filter="url(#filter4_d_0_8010)" id="Container_6">
<path d="M347 454C347 429.699 366.699 410 391 410V410C415.301 410 435 429.699 435 454V454C435 478.301 415.301 498 391 498V498C366.699 498 347 478.301 347 454V454Z" fill="var(--fill-0, #472511)" shape-rendering="crispEdges"/>
<g id="hugeicons:workflow-square-06">
<g id="Group_2">
<path d="M386.744 443.883C386.744 441.88 386.744 440.879 387.367 440.257C387.988 439.633 388.989 439.633 390.994 439.633C392.998 439.633 393.999 439.633 394.62 440.257C395.244 440.877 395.244 441.879 395.244 443.883C395.244 445.888 395.244 446.888 394.62 447.51C394 448.133 392.998 448.133 390.994 448.133C388.989 448.133 387.989 448.133 387.367 447.51C386.744 446.89 386.744 445.888 386.744 443.883ZM376.827 463.717C376.827 461.714 376.827 460.712 377.45 460.09C378.071 459.467 379.073 459.467 381.077 459.467C383.082 459.467 384.082 459.467 384.704 460.09C385.327 460.711 385.327 461.712 385.327 463.717C385.327 465.721 385.327 466.721 384.704 467.343C384.083 467.967 383.082 467.967 381.077 467.967C379.073 467.967 378.072 467.967 377.45 467.343C376.827 466.723 376.827 465.721 376.827 463.717ZM396.66 463.717C396.66 461.714 396.66 460.712 397.284 460.09C397.904 459.467 398.906 459.467 400.91 459.467C402.915 459.467 403.915 459.467 404.537 460.09C405.16 460.712 405.16 461.714 405.16 463.717C405.16 465.72 405.16 466.721 404.537 467.343C403.915 467.967 402.914 467.967 400.91 467.967C398.907 467.967 397.906 467.967 397.284 467.343C396.66 466.723 396.66 465.721 396.66 463.717Z" fill="var(--fill-0, white)" id="Vector_17" stroke="var(--stroke-0, white)" stroke-width="1.5"/>
<path d="M390.994 448.133V449.55M390.994 449.55C390.994 450.87 390.994 451.531 391.246 452.05C391.58 452.745 392.223 453.297 393.034 453.585C393.643 453.8 394.412 453.8 395.952 453.8C397.492 453.8 398.261 453.8 398.87 454.015C399.679 454.303 400.324 454.855 400.658 455.55C400.91 456.07 400.91 456.73 400.91 458.05V459.467M390.994 449.55C390.994 450.87 390.994 451.531 390.742 452.05C390.407 452.745 389.764 453.297 388.954 453.585C388.345 453.8 387.575 453.8 386.035 453.8C384.496 453.8 383.726 453.8 383.117 454.015C382.308 454.303 381.664 454.855 381.329 455.55C381.077 456.07 381.077 456.73 381.077 458.05V459.467" id="Vector_18" stroke="var(--stroke-0, white)" stroke-linecap="round" stroke-linejoin="round" stroke-width="1.5"/>
</g>
</g>
</g>
</g>
<defs>
<filter color-interpolation-filters="sRGB" filterUnits="userSpaceOnUse" height="210" id="filter0_d_0_8010" width="210" x="155" y="210">
<feFlood flood-opacity="0" result="BackgroundImageFix"/>
<feColorMatrix in="SourceAlpha" result="hardAlpha" type="matrix" values="0 0 0 0 0 0 0 0 0 0 0 0 0 0 0 0 0 0 127 0"/>
<feOffset dy="20"/>
<feGaussianBlur stdDeviation="25"/>
<feComposite in2="hardAlpha" operator="out"/>
<feColorMatrix type="matrix" values="0 0 0 0 0.505882 0 0 0 0 0.486275 0 0 0 0 0.933333 0 0 0 0.45 0"/>
<feBlend in2="BackgroundImageFix" mode="normal" result="effect1_dropShadow_0_8010"/>
<feBlend in="SourceGraphic" in2="effect1_dropShadow_0_8010" mode="normal" result="shape"/>
</filter>
<filter color-interpolation-filters="sRGB" filterUnits="userSpaceOnUse" height="136" id="filter1_d_0_8010" width="136" x="48" y="394">
<feFlood flood-opacity="0" result="BackgroundImageFix"/>
<feColorMatrix in="SourceAlpha" result="hardAlpha" type="matrix" values="0 0 0 0 0 0 0 0 0 0 0 0 0 0 0 0 0 0 127 0"/>
<feOffset dy="8"/>
<feGaussianBlur stdDeviation="12"/>
<feComposite in2="hardAlpha" operator="out"/>
<feColorMatrix type="matrix" values="0 0 0 0 0.0666667 0 0 0 0 0.0941176 0 0 0 0 0.152941 0 0 0 0.06 0"/>
<feBlend in2="BackgroundImageFix" mode="normal" result="effect1_dropShadow_0_8010"/>
<feBlend in="SourceGraphic" in2="effect1_dropShadow_0_8010" mode="normal" result="shape"/>
</filter>
<filter color-interpolation-filters="sRGB" filterUnits="userSpaceOnUse" height="136" id="filter2_d_0_8010" width="136" x="411" y="151">
<feFlood flood-opacity="0" result="BackgroundImageFix"/>
<feColorMatrix in="SourceAlpha" result="hardAlpha" type="matrix" values="0 0 0 0 0 0 0 0 0 0 0 0 0 0 0 0 0 0 127 0"/>
<feOffset dy="8"/>
<feGaussianBlur stdDeviation="12"/>
<feComposite in2="hardAlpha" operator="out"/>
<feColorMatrix type="matrix" values="0 0 0 0 0.0666667 0 0 0 0 0.0941176 0 0 0 0 0.152941 0 0 0 0.06 0"/>
<feBlend in2="BackgroundImageFix" mode="normal" result="effect1_dropShadow_0_8010"/>
<feBlend in="SourceGraphic" in2="effect1_dropShadow_0_8010" mode="normal" result="shape"/>
</filter>
<filter color-interpolation-filters="sRGB" filterUnits="userSpaceOnUse" height="136" id="filter3_d_0_8010" width="136" x="192" y="-3.19014e-08">
<feFlood flood-opacity="0" result="BackgroundImageFix"/>
<feColorMatrix in="SourceAlpha" result="hardAlpha" type="matrix" values="0 0 0 0 0 0 0 0 0 0 0 0 0 0 0 0 0 0 127 0"/>
<feOffset dy="8"/>
<feGaussianBlur stdDeviation="12"/>
<feComposite in2="hardAlpha" operator="out"/>
<feColorMatrix type="matrix" values="0 0 0 0 0.0666667 0 0 0 0 0.0941176 0 0 0 0 0.152941 0 0 0 0.06 0"/>
<feBlend in2="BackgroundImageFix" mode="normal" result="effect1_dropShadow_0_8010"/>
<feBlend in="SourceGraphic" in2="effect1_dropShadow_0_8010" mode="normal" result="shape"/>
</filter>
<filter color-interpolation-filters="sRGB" filterUnits="userSpaceOnUse" height="136" id="filter4_d_0_8010" width="136" x="323" y="394">
<feFlood flood-opacity="0" result="BackgroundImageFix"/>
<feColorMatrix in="SourceAlpha" result="hardAlpha" type="matrix" values="0 0 0 0 0 0 0 0 0 0 0 0 0 0 0 0 0 0 127 0"/>
<feOffset dy="8"/>
<feGaussianBlur stdDeviation="12"/>
<feComposite in2="hardAlpha" operator="out"/>
<feColorMatrix type="matrix" values="0 0 0 0 0.0666667 0 0 0 0 0.0941176 0 0 0 0 0.152941 0 0 0 0.06 0"/>
<feBlend in2="BackgroundImageFix" mode="normal" result="effect1_dropShadow_0_8010"/>
<feBlend in="SourceGraphic" in2="effect1_dropShadow_0_8010" mode="normal" result="shape"/>
</filter>
<linearGradient gradientUnits="userSpaceOnUse" id="paint0_linear_0_8010" x1="260" x2="103.011" y1="375" y2="258.448">
<stop stop-color="#FF7032"/>
<stop offset="1" stop-color="#FF4D00"/>
</linearGradient>
<clipPath id="clip0_0_8010">
<rect fill="white" height="440" transform="translate(480 515) rotate(-180)" width="440"/>
</clipPath>
</defs>
</svg>