<?xml version="1.0" encoding="utf-8"?>
<svg xmlns="http://www.w3.org/2000/svg" fill="none" height="100%" overflow="visible" preserveAspectRatio="none" style="display: block;" viewBox="0 0 198.936 607.21" width="100%">
<g id="Ellipse 3928">
<mask fill="white" id="path-1-inside-1_0_15400">
<path d="M6.33143 607.21C64.2645 580.139 113.209 537.007 147.349 482.937C181.49 428.868 199.391 366.135 198.927 302.19C198.463 238.246 179.652 175.779 144.73 122.212C109.808 68.6438 60.2424 26.2267 1.92238 3.1833e-09L2.0954e-06 4.27477C57.5016 30.1334 106.372 71.9552 140.804 124.771C175.236 177.587 193.782 239.178 194.24 302.224C194.698 365.271 177.047 427.124 143.386 480.435C109.725 533.745 61.4672 576.273 4.34718 602.963L6.33143 607.21Z"/>
</mask>
<path d="M6.33143 607.21C64.2645 580.139 113.209 537.007 147.349 482.937C181.49 428.868 199.391 366.135 198.927 302.19C198.463 238.246 179.652 175.779 144.73 122.212C109.808 68.6438 60.2424 26.2267 1.92238 3.1833e-09L2.0954e-06 4.27477C57.5016 30.1334 106.372 71.9552 140.804 124.771C175.236 177.587 193.782 239.178 194.24 302.224C194.698 365.271 177.047 427.124 143.386 480.435C109.725 533.745 61.4672 576.273 4.34718 602.963L6.33143 607.21Z" mask="url(#path-1-inside-1_0_15400)" stroke="var(--stroke-0, #FF7032)" stroke-width="12"/>
</g>
</svg>