<?xml version="1.0" encoding="utf-8"?>
<svg xmlns="http://www.w3.org/2000/svg" fill="none" height="100%" overflow="visible" preserveAspectRatio="none" style="display: block;" viewBox="0 0 4.43176 2.55557" width="100%">
<path d="M0.651834 0.37481C0.46209 0.437745 0.296996 0.558846 0.179987 0.720933C0.0629781 0.88302 0 1.07785 0 1.27776C0 1.47767 0.0629781 1.6725 0.179987 1.83459C0.296996 1.99668 0.46209 2.11778 0.651834 2.18071C1.13638 2.42711 1.67229 2.55557 2.21588 2.55557C2.75948 2.55557 3.29538 2.42711 3.77993 2.18071C3.96967 2.11778 4.13477 1.99668 4.25178 1.83459C4.36878 1.6725 4.43176 1.47767 4.43176 1.27776C4.43176 1.07785 4.36878 0.88302 4.25178 0.720933C4.13477 0.558846 3.96967 0.437745 3.77993 0.37481C3.29538 0.128415 2.75948 0 2.21588 0C1.67229 0 1.13638 0.128415 0.651834 0.37481Z" fill="var(--fill-0, #37474F)" id="Vector"/>
</svg>