<?xml version="1.0" encoding="utf-8"?>
<svg xmlns="http://www.w3.org/2000/svg" fill="none" height="100%" overflow="visible" preserveAspectRatio="none" style="display: block;" viewBox="0 0 4.44789 2.55592" width="100%">
<path d="M0.651834 0.375007C0.46209 0.437942 0.296984 0.559043 0.179975 0.72113C0.0629658 0.883217 0 1.07805 0 1.27796C0 1.47787 0.0629658 1.6727 0.179975 1.83479C0.296984 1.99687 0.46209 2.11797 0.651834 2.18091C1.13922 2.42745 1.67775 2.55592 2.22394 2.55592C2.77013 2.55592 3.30866 2.42745 3.79604 2.18091C3.98579 2.11797 4.15088 1.99687 4.26789 1.83479C4.3849 1.6727 4.44789 1.47787 4.44789 1.27796C4.44789 1.07805 4.3849 0.883217 4.26789 0.72113C4.15088 0.559043 3.98579 0.437942 3.79604 0.375007C3.30866 0.128463 2.77013 0 2.22394 0C1.67775 0 1.13922 0.128463 0.651834 0.375007Z" fill="var(--fill-0, #37474F)" id="Vector"/>
</svg>