<?xml version="1.0" encoding="utf-8"?>
<svg xmlns="http://www.w3.org/2000/svg" fill="none" height="100%" overflow="visible" preserveAspectRatio="none" style="display: block;" viewBox="0 0 21.9647 21.9647" width="100%">
<g id="gridicons:thumbs-up">
<path d="M6.13149 20.134H1.83008V11.8972H3.66047L6.13149 20.134ZM18.3027 8.23644H12.8124V4.57566C12.8124 3.84749 12.5231 3.14914 12.0082 2.63424C11.4934 2.11934 10.795 1.83008 10.0668 1.83008H9.15163V5.49086L6.49757 8.80843C5.84607 9.62283 5.49105 10.6346 5.49086 11.6776V12.8124L7.41276 19.2188H15.0427C15.8592 19.2189 16.6523 18.946 17.2959 18.4435C17.9395 17.941 18.3966 17.2379 18.5946 16.4457L20.0781 10.5107C20.1456 10.2409 20.1507 9.95922 20.093 9.68714C20.0353 9.41506 19.9163 9.1597 19.7452 8.94047C19.574 8.72123 19.3552 8.54389 19.1052 8.4219C18.8553 8.29991 18.5808 8.23648 18.3027 8.23644Z" fill="var(--fill-0, #FF8237)" id="Vector"/>
</g>
</svg>