<?xml version="1.0" encoding="utf-8"?>
<svg xmlns="http://www.w3.org/2000/svg" fill="none" height="100%" overflow="visible" preserveAspectRatio="none" style="display: block;" viewBox="0 0 86.6675 52.1662" width="100%">
<path d="M86.6352 44.5188H86.1192C85.4607 43.3399 84.4751 42.3768 83.2814 41.7455L25.4762 8.36841C22.977 6.93335 20.639 5.49832 22.2514 1.83813V0L0 12.8993V14.7375C1.86429 14.2507 3.81395 14.1878 5.70575 14.5533C7.59754 14.9189 9.38343 15.7035 10.9322 16.8497C13.1573 18.2525 51.1137 40.1008 68.7374 50.2268C71.0496 51.4524 73.6181 52.1158 76.2346 52.1635C78.8511 52.2111 81.4421 51.6415 83.7974 50.5009C84.6012 50.1458 85.2931 49.5784 85.7988 48.8596C86.3045 48.1409 86.6048 47.298 86.6675 46.4215L86.6352 44.5188Z" fill="var(--fill-0, #37474F)" id="Vector"/>
</svg>