<?xml version="1.0" encoding="utf-8"?>
<svg xmlns="http://www.w3.org/2000/svg" fill="none" height="100%" overflow="visible" preserveAspectRatio="none" style="display: block;" viewBox="0 0 59.3209 33.4447" width="100%">
<path d="M33.2642 33.4409C32.0696 33.4671 30.8879 33.1897 29.8297 32.6347L1.16094 16.0752C0.435355 15.656 0 15.1239 0 14.6241C0 14.1242 0.435355 13.576 1.16094 13.1567L22.5416 0.805619C23.6089 0.275726 24.7844 0 25.9761 0C27.1677 0 28.3432 0.275726 29.4105 0.805619L58.1599 17.3651C58.9016 17.7844 59.3209 18.3165 59.3209 18.8163C59.3209 19.3162 58.9016 19.8644 58.1599 20.2836L36.7793 32.6347C35.6971 33.2031 34.4859 33.4809 33.2642 33.4409Z" fill="var(--fill-0, #F0F0F0)" id="Vector"/>
</svg>