<?xml version="1.0" encoding="utf-8"?>
<svg xmlns="http://www.w3.org/2000/svg" fill="none" height="100%" overflow="visible" preserveAspectRatio="none" style="display: block;" viewBox="0 0 91 43" width="100%">
<g id="Frame 2147256615">
<g id="devicon:linkedin">
<path d="M29 6.25H3C2.41008 6.244 1.84187 6.47226 1.42005 6.88471C0.998227 7.29715 0.757253 7.86009 0.75 8.45V34.555C0.758564 35.144 1.00012 35.7057 1.42179 36.1171C1.84347 36.5284 2.41093 36.756 3 36.75H29C29.59 36.7547 30.1578 36.5256 30.5794 36.1129C31.001 35.7002 31.2421 35.1374 31.25 34.5475V8.4425C31.2395 7.85432 30.9972 7.29407 30.5759 6.88351C30.1546 6.47296 29.5883 6.24529 29 6.25Z" fill="var(--fill-0, #0076B2)" id="Vector"/>
<path d="M5.26527 17.6816H9.79277V32.2491H5.26527V17.6816ZM7.53027 10.4316C8.04956 10.4316 8.55717 10.5857 8.98891 10.8742C9.42064 11.1628 9.75709 11.5729 9.9557 12.0527C10.1543 12.5325 10.2061 13.0604 10.1047 13.5697C10.0032 14.0789 9.75291 14.5467 9.38554 14.9137C9.01818 15.2807 8.55022 15.5305 8.04085 15.6315C7.53149 15.7325 7.00361 15.6802 6.524 15.4811C6.04438 15.282 5.63459 14.9452 5.34645 14.5132C5.05831 14.0812 4.90478 13.5734 4.90527 13.0541C4.90594 12.3584 5.18279 11.6913 5.675 11.1996C6.16721 10.7079 6.83451 10.4316 7.53027 10.4316ZM12.6328 17.6816H16.9728V19.6816H17.0328C17.6378 18.5366 19.1128 17.3291 21.3153 17.3291C25.9003 17.3191 26.7503 20.3366 26.7503 24.2491V32.2491H22.2228V25.1616C22.2228 23.4741 22.1928 21.3016 19.8703 21.3016C17.5478 21.3016 17.1528 23.1416 17.1528 25.0516V32.2491H12.6328V17.6816Z" fill="var(--fill-0, white)" id="Vector_2"/>
</g>
<g id="fluent-color:mail-20">
<g id="Group">
<path d="M53.9274 13.0513C53.7642 12.9535 53.578 12.9008 53.3878 12.8985C53.1977 12.8962 53.0103 12.9444 52.8448 13.0382C52.6793 13.132 52.5417 13.268 52.4459 13.4323C52.3502 13.5967 52.2998 13.7835 52.2998 13.9737V31.1737C52.2998 32.5992 52.8661 33.9664 53.8741 34.9744C54.8821 35.9824 56.2493 36.5487 57.6748 36.5487H81.3248C82.7503 36.5487 84.1175 35.9824 85.1255 34.9744C86.1335 33.9664 86.6998 32.5992 86.6998 31.1737V13.9737C86.6998 13.7835 86.6494 13.5967 86.5537 13.4323C86.4579 13.268 86.3203 13.132 86.1548 13.0382C85.9893 12.9444 85.802 12.8962 85.6118 12.8985C85.4216 12.9008 85.2354 12.9535 85.0723 13.0513L69.4998 22.3952L53.9274 13.0513Z" fill="var(--fill-0, #367AF2)" id="Vector_3"/>
<path d="M53.9274 13.0513C53.7642 12.9535 53.578 12.9008 53.3878 12.8985C53.1977 12.8962 53.0103 12.9444 52.8448 13.0382C52.6793 13.132 52.5417 13.268 52.4459 13.4323C52.3502 13.5967 52.2998 13.7835 52.2998 13.9737V31.1737C52.2998 32.5992 52.8661 33.9664 53.8741 34.9744C54.8821 35.9824 56.2493 36.5487 57.6748 36.5487H81.3248C82.7503 36.5487 84.1175 35.9824 85.1255 34.9744C86.1335 33.9664 86.6998 32.5992 86.6998 31.1737V13.9737C86.6998 13.7835 86.6494 13.5967 86.5537 13.4323C86.4579 13.268 86.3203 13.132 86.1548 13.0382C85.9893 12.9444 85.802 12.8962 85.6118 12.8985C85.4216 12.9008 85.2354 12.9535 85.0723 13.0513L69.4998 22.3952L53.9274 13.0513Z" fill="url(#paint0_linear_0_4495)" id="Vector_4"/>
<path d="M53.9274 13.0513C53.7642 12.9535 53.578 12.9008 53.3878 12.8985C53.1977 12.8962 53.0103 12.9444 52.8448 13.0382C52.6793 13.132 52.5417 13.268 52.4459 13.4323C52.3502 13.5967 52.2998 13.7835 52.2998 13.9737V31.1737C52.2998 32.5992 52.8661 33.9664 53.8741 34.9744C54.8821 35.9824 56.2493 36.5487 57.6748 36.5487H81.3248C82.7503 36.5487 84.1175 35.9824 85.1255 34.9744C86.1335 33.9664 86.6998 32.5992 86.6998 31.1737V13.9737C86.6998 13.7835 86.6494 13.5967 86.5537 13.4323C86.4579 13.268 86.3203 13.132 86.1548 13.0382C85.9893 12.9444 85.802 12.8962 85.6118 12.8985C85.4216 12.9008 85.2354 12.9535 85.0723 13.0513L69.4998 22.3952L53.9274 13.0513Z" fill="url(#paint1_linear_0_4495)" id="Vector_5"/>
<path d="M53.9274 13.0513C53.7642 12.9535 53.578 12.9008 53.3878 12.8985C53.1977 12.8962 53.0103 12.9444 52.8448 13.0382C52.6793 13.132 52.5417 13.268 52.4459 13.4323C52.3502 13.5967 52.2998 13.7835 52.2998 13.9737V31.1737C52.2998 32.5992 52.8661 33.9664 53.8741 34.9744C54.8821 35.9824 56.2493 36.5487 57.6748 36.5487H81.3248C82.7503 36.5487 84.1175 35.9824 85.1255 34.9744C86.1335 33.9664 86.6998 32.5992 86.6998 31.1737V13.9737C86.6998 13.7835 86.6494 13.5967 86.5537 13.4323C86.4579 13.268 86.3203 13.132 86.1548 13.0382C85.9893 12.9444 85.802 12.8962 85.6118 12.8985C85.4216 12.9008 85.2354 12.9535 85.0723 13.0513L69.4998 22.3952L53.9274 13.0513Z" fill="url(#paint2_linear_0_4495)" fill-opacity="0.75" id="Vector_6"/>
<path d="M53.9274 13.0513C53.7642 12.9535 53.578 12.9008 53.3878 12.8985C53.1977 12.8962 53.0103 12.9444 52.8448 13.0382C52.6793 13.132 52.5417 13.268 52.4459 13.4323C52.3502 13.5967 52.2998 13.7835 52.2998 13.9737V31.1737C52.2998 32.5992 52.8661 33.9664 53.8741 34.9744C54.8821 35.9824 56.2493 36.5487 57.6748 36.5487H81.3248C82.7503 36.5487 84.1175 35.9824 85.1255 34.9744C86.1335 33.9664 86.6998 32.5992 86.6998 31.1737V13.9737C86.6998 13.7835 86.6494 13.5967 86.5537 13.4323C86.4579 13.268 86.3203 13.132 86.1548 13.0382C85.9893 12.9444 85.802 12.8962 85.6118 12.8985C85.4216 12.9008 85.2354 12.9535 85.0723 13.0513L69.4998 22.3952L53.9274 13.0513Z" fill="url(#paint3_linear_0_4495)" fill-opacity="0.7" id="Vector_7"/>
<path d="M57.6748 8.59961C56.2493 8.59961 54.8821 9.1659 53.8741 10.1739C52.8661 11.1819 52.2998 12.5491 52.2998 13.9746V15.2646C52.2999 15.4519 52.349 15.636 52.4421 15.7985C52.5353 15.9611 52.6693 16.0965 52.8309 16.1913L68.9559 25.6513C69.1208 25.748 69.3086 25.799 69.4998 25.799C69.691 25.799 69.8788 25.748 70.0438 25.6513L86.1688 16.1913C86.3303 16.0965 86.4644 15.9611 86.5575 15.7985C86.6506 15.636 86.6997 15.4519 86.6998 15.2646V13.9746C86.6998 12.5491 86.1335 11.1819 85.1255 10.1739C84.1175 9.1659 82.7503 8.59961 81.3248 8.59961H57.6748Z" fill="url(#paint4_linear_0_4495)" id="Vector_8"/>
</g>
</g>
</g>
<defs>
<linearGradient gradientUnits="userSpaceOnUse" id="paint0_linear_0_4495" x1="73.8665" x2="84.3843" y1="17.5341" y2="35.7231">
<stop offset="0.228" stop-color="#0094F0" stop-opacity="0"/>
<stop offset="0.431" stop-color="#0094F0"/>
</linearGradient>
<linearGradient gradientUnits="userSpaceOnUse" id="paint1_linear_0_4495" x1="64.5849" x2="52.8846" y1="15.3884" y2="36.8368">
<stop offset="0.228" stop-color="#0094F0" stop-opacity="0"/>
<stop offset="0.431" stop-color="#0094F0"/>
</linearGradient>
<linearGradient gradientUnits="userSpaceOnUse" id="paint2_linear_0_4495" x1="78.5707" x2="80.3724" y1="27.0091" y2="38.6793">
<stop stop-color="#2764E7" stop-opacity="0"/>
<stop offset="1" stop-color="#2764E7"/>
</linearGradient>
<linearGradient gradientUnits="userSpaceOnUse" id="paint3_linear_0_4495" x1="74.8232" x2="78.1127" y1="15.8033" y2="39.5802">
<stop offset="0.533" stop-color="#FF6CE8" stop-opacity="0"/>
<stop offset="1" stop-color="#FF6CE8"/>
</linearGradient>
<linearGradient gradientUnits="userSpaceOnUse" id="paint4_linear_0_4495" x1="62.5188" x2="74.6469" y1="3.23966" y2="32.5033">
<stop stop-color="#6CE0FF"/>
<stop offset="0.462" stop-color="#29C3FF"/>
<stop offset="1" stop-color="#4894FE"/>
</linearGradient>
</defs>
</svg>