<?xml version="1.0" encoding="utf-8"?>
<svg xmlns="http://www.w3.org/2000/svg" fill="none" height="100%" overflow="visible" preserveAspectRatio="none" style="display: block;" viewBox="0 0 318.633 317" width="100%">
<g id="Frame 2147257348">
<rect height="146" id="Rectangle 7899" rx="29.5" stroke="var(--stroke-0, white)" stroke-dasharray="8 8" width="247" x="0.5" y="35.5"/>
<g id="Polygon 3">
<mask fill="white" id="path-2-inside-1_0_17727">
<path d="M309.249 90.4762C321.762 99.2343 321.762 117.766 309.249 126.524L235.365 178.236C220.784 188.442 200.75 178.01 200.75 160.212L200.75 56.7877C200.75 38.9898 220.784 28.5583 235.365 38.764L309.249 90.4762Z"/>
</mask>
<path d="M309.249 90.4762C321.762 99.2343 321.762 117.766 309.249 126.524L235.365 178.236C220.784 188.442 200.75 178.01 200.75 160.212L200.75 56.7877C200.75 38.9898 220.784 28.5583 235.365 38.764L309.249 90.4762Z" fill="url(#paint0_linear_0_17727)"/>
<path d="M310.216 127.906C309.571 126.985 308.926 126.063 308.281 125.141C302.446 129.073 296.613 133.008 290.782 136.947C271.699 149.837 252.641 162.764 233.61 175.728C221.955 184.531 203.387 174.337 204.357 160.212C204.702 125.737 204.947 91.2626 205.092 56.7877C204.432 43.2008 222.205 34.0789 232.796 42.434C240.138 47.5893 247.484 52.7391 254.834 57.8834C272.112 69.9766 289.583 81.7936 307.248 93.3346C312.308 96.5331 315.671 102.288 315.933 108.521C316.268 114.72 313.461 121.125 308.281 125.141C308.926 126.063 309.571 126.985 310.216 127.906C316.691 123.942 321.089 116.435 321.333 108.527C321.718 100.621 317.871 92.4176 311.249 87.6178C294.358 74.9724 277.273 62.6032 259.995 50.51C252.645 45.3658 245.291 40.2271 237.934 35.0939C221.772 22.5688 195.302 36.4837 196.408 56.7877C196.553 91.2625 196.798 125.737 197.143 160.212C196.348 179.979 222.022 192.822 237.121 180.744C255.817 167.301 274.488 153.822 293.133 140.306C298.83 136.176 304.524 132.043 310.216 127.906ZM308.281 125.141L310.216 127.906L308.281 125.141Z" fill="var(--stroke-0, white)" mask="url(#path-2-inside-1_0_17727)"/>
</g>
<g filter="url(#filter0_dd_0_17727)" id="Frame 21">
<rect fill="var(--fill-0, white)" height="89" rx="16.4583" width="209" x="36" y="64"/>
<g id="1">
<path d="M136.257 103.143C138.193 103.01 149.39 102.762 150.67 103.542C151.272 103.909 151.582 104.858 151.724 105.492C152.062 107.001 152.246 115.372 151.345 116.344C150.752 116.982 149.066 117.181 148.776 117.725C148.398 118.435 148.802 119.395 148.295 120.169C146.582 121.62 143.477 118.463 141.99 117.338C141.933 123.544 143.042 125.265 135.713 125.135L132.674 125.14C131.084 126.174 128.133 129.016 126.518 128.998C126.151 128.993 125.802 128.843 125.551 128.582C124.705 127.706 124.915 126.343 124.945 125.178C122.004 125.119 120.877 123.733 121.075 120.916C121.255 118.362 120.318 110.407 122.248 108.766C123.381 107.801 132.341 108.178 134.297 108.186C134.249 105.847 133.843 104.373 136.257 103.143Z" fill="var(--fill-0, #FF7033)" id="Vector"/>
<path d="M124.196 110.085C128.927 109.957 135.143 109.974 139.866 110.108C140.132 113.012 139.93 119.378 139.908 122.539C138.927 122.59 137.722 122.568 136.723 122.578L132.354 122.55C131.129 123.357 129.082 125.048 127.857 125.998C127.95 122.258 127.539 122.52 124.074 122.553C124.026 120.998 123.89 111.179 124.196 110.085Z" fill="var(--fill-0, white)" id="Vector_2"/>
<path d="M137.012 104.998L149 104.998L149.002 115.282L146.611 115.314L146.534 115.402C145.847 116.195 145.976 116.905 145.99 117.998C144.947 117.069 143.414 115.42 142.141 115.126C140.621 112.396 144.857 107.78 137.002 107.922L137.012 104.998Z" fill="var(--fill-0, white)" id="Vector_3"/>
<path d="M117.989 88.1144C124.475 87.8045 131.349 88.2337 137.875 88.0286C138.771 88.0003 139.997 88.5117 139.995 89.5898C139.27 90.8629 135.96 90.4993 134.53 90.5002L124.046 90.4814C122.211 90.4755 120.096 90.3529 118.291 90.6065C115.233 91.0364 113.427 93.6264 113.447 96.6315C113.499 104.32 113.473 112.017 113.473 119.71L113.466 128.192C113.465 129.902 113.434 131.544 113.57 133.254C113.82 136.723 116.433 138.5 119.692 138.508C131.277 138.546 142.87 138.513 154.455 138.511C161.767 138.511 161.589 134.207 161.567 128.538L161.541 123.049L161.543 113.848C161.534 112.122 160.767 108.248 163.08 108.188C163.382 108.394 163.837 108.732 163.851 109.188C164.106 117.035 163.978 125.103 163.899 132.964C163.77 134.234 163.577 135.677 162.942 136.786C160.053 141.833 154.679 140.935 149.73 140.937L137.479 140.943L125.391 140.944C122.273 140.944 117.532 141.355 114.88 139.75C110.533 137.121 111.069 132.585 111.065 128.342L111.069 116.921L111.065 103.202C111.065 96.7056 109.857 89.8735 117.989 88.1144Z" fill="var(--fill-0, #FF7033)" id="Vector_4"/>
<path d="M156.433 75.9977C157.225 76.4293 157.893 78.9524 159.111 80.1124C160.841 81.7597 161.857 82.1485 164.002 83.042C159.76 85.1496 158.778 85.3026 156.788 89.9977C156.143 89.7824 156.041 89.2616 155.763 88.6757C154.135 85.2596 152.445 84.428 149.002 83.0545C153.529 81.2216 154.383 80.4004 156.433 75.9977Z" fill="var(--fill-0, #FF7033)" id="Vector_5"/>
<path d="M164.282 94.9977C165.136 95.3715 165.804 97.3607 166.665 98.1207C167.603 98.9473 168.871 99.4772 170.002 100.01C166.98 101.444 166.126 101.975 164.705 104.998C163.957 104.912 163.99 104.205 163.571 103.517C162.395 101.589 160.959 100.955 159.002 100.021C162.012 98.5671 162.926 98.0368 164.282 94.9977Z" fill="var(--fill-0, #FF7033)" id="Vector_6"/>
<path d="M146.91 91.9977C147.321 92.1849 147.828 93.2897 148.303 93.8374C149.371 95.0661 149.64 95.1936 151.002 96.0153C148.77 97.3312 148.358 97.6073 147.189 99.9977C146.668 99.7817 146.427 98.9854 146.064 98.5048C145.121 97.262 144.312 96.7303 143.002 95.9685C145.238 94.8405 145.762 94.2897 146.91 91.9977Z" fill="var(--fill-0, #FF7033)" id="Vector_7"/>
</g>
</g>
<path d="M56 310.035C57.6962 310.278 59 311.737 59 313.5C59 315.433 57.433 317 55.5 317C53.567 317 52 315.433 52 313.5C52 311.737 53.3038 310.278 55 310.035V308.984H56V310.035ZM56 304.953H55V300.922H56V304.953ZM56 296.891H55V292.859H56V296.891ZM56 288.828H55V284.797H56V288.828ZM56 280.766H55V276.734H56V280.766ZM56 272.703H55V268.672H56V272.703ZM56 264.641H55V260.609H56V264.641ZM56 256.578H55V252.547H56V256.578ZM56 248.516H55V244.484H56V248.516ZM56 240.453H55V236.422H56V240.453ZM56 232.391H55V228.359H56V232.391ZM56 224.328H55V220.297H56V224.328ZM56 216.266H55V212.234H56V216.266ZM56 208.203H55V204.172H56V208.203ZM56 200.141H55V196.109H56V200.141ZM56 192.078H55V188.047H56V192.078ZM56 184.016H55V182H56V184.016Z" fill="var(--fill-0, white)" id="Union"/>
</g>
<defs>
<filter color-interpolation-filters="sRGB" filterUnits="userSpaceOnUse" height="95.5833" id="filter0_dd_0_17727" width="215.583" x="32.7083" y="62.3542">
<feFlood flood-opacity="0" result="BackgroundImageFix"/>
<feColorMatrix in="SourceAlpha" result="hardAlpha" type="matrix" values="0 0 0 0 0 0 0 0 0 0 0 0 0 0 0 0 0 0 127 0"/>
<feMorphology in="SourceAlpha" operator="dilate" radius="1.64583" result="effect1_dropShadow_0_17727"/>
<feOffset/>
<feColorMatrix type="matrix" values="0 0 0 0 0 0 0 0 0 0 0 0 0 0 0 0 0 0 0.06 0"/>
<feBlend in2="BackgroundImageFix" mode="normal" result="effect1_dropShadow_0_17727"/>
<feColorMatrix in="SourceAlpha" result="hardAlpha" type="matrix" values="0 0 0 0 0 0 0 0 0 0 0 0 0 0 0 0 0 0 127 0"/>
<feOffset dy="1.64583"/>
<feGaussianBlur stdDeviation="1.64583"/>
<feColorMatrix type="matrix" values="0 0 0 0 0 0 0 0 0 0 0 0 0 0 0 0 0 0 0.06 0"/>
<feBlend in2="effect1_dropShadow_0_17727" mode="normal" result="effect2_dropShadow_0_17727"/>
<feBlend in="SourceGraphic" in2="effect2_dropShadow_0_17727" mode="normal" result="shape"/>
</filter>
<linearGradient gradientUnits="userSpaceOnUse" id="paint0_linear_0_17727" x1="204.5" x2="322" y1="38.5" y2="246.5">
<stop offset="0.252701" stop-color="#FF7032"/>
<stop offset="1" stop-color="#FF0400"/>
</linearGradient>
</defs>
</svg>