<?xml version="1.0" encoding="utf-8"?>
<svg xmlns="http://www.w3.org/2000/svg" fill="none" height="100%" overflow="visible" preserveAspectRatio="none" style="display: block;" viewBox="0 0 132.352 132.352" width="100%">
<g id="Frame 307">
<rect fill="var(--fill-0, white)" height="132.352" rx="66.1759" width="132.352"/>
<g id="Google Cloud 1">
<path d="M56.1797 51.4043H55.9297L56.0547 51.2793L47.3047 42.5293V42.3418C54.6797 35.8418 64.8672 33.5918 74.3047 36.4043C83.7422 39.2168 90.9922 46.7168 93.6172 56.2168C93.4922 56.1543 93.3047 56.0918 93.1172 56.0918C89.8672 53.9668 85.9922 52.7168 81.9297 52.7168C80.5547 52.7168 79.2422 52.8418 77.9297 53.0918C77.8672 53.0293 77.8047 53.0293 77.7422 53.0293C72.1172 46.8418 62.6172 46.0918 56.1172 51.4043H56.1797Z" fill="var(--fill-0, #EA4535)" id="Vector"/>
<path d="M38.9922 56.0918C40.4297 50.7793 43.4297 45.9668 47.6172 42.2793L56.5547 51.1543C52.8047 54.2168 50.6172 58.8418 50.7422 63.6543V65.2168C40.1797 65.2168 40.1797 80.9668 50.7422 80.9668H66.6172V93.4668H66.6797L66.6172 93.5918H50.7422C41.6172 93.6543 33.5547 87.7793 30.8672 79.1543C28.1797 70.5293 31.4922 61.1543 38.9922 56.0918Z" fill="var(--fill-0, #557EBF)" id="Vector_2"/>
<path d="M82.1797 93.6543H65.7422V81.0293H82.1797C83.3672 81.0293 84.4922 80.7793 85.5547 80.3418L95.0547 89.4668V89.5918C91.3047 92.2793 86.8047 93.7168 82.1172 93.7168L82.1797 93.6543Z" fill="var(--fill-0, #36A852)" id="Vector_3"/>
<path d="M81.4297 52.4043C90.7422 52.4668 98.9922 58.2168 101.992 66.6543C104.992 75.1543 101.992 84.4668 94.6172 89.9668L84.8672 80.6543C90.2422 78.3418 91.4922 71.5918 87.3672 67.6543C83.2422 63.6543 76.2422 64.9043 73.8047 70.0293L64.0547 60.7168C68.1797 55.5293 74.6172 52.4668 81.4297 52.5293V52.4043Z" fill="var(--fill-0, #F9BC15)" id="Vector_4"/>
</g>
</g>
</svg>