<?xml version="1.0" encoding="utf-8"?>
<svg xmlns="http://www.w3.org/2000/svg" fill="none" height="100%" overflow="visible" preserveAspectRatio="none" style="display: block;" viewBox="0 0 1600 41" width="100%">
<g id="Frame 2147256882">
<g id="Frame 42">
<path d="M0 20.5C0 9.17816 9.17816 0 20.5 0V0C31.8218 0 41 9.17816 41 20.5V20.5C41 31.8218 31.8218 41 20.5 41V41C9.17816 41 0 31.8218 0 20.5V20.5Z" fill="var(--fill-0, #FF853C)"/>
<path d="M20.5 0.5C31.5457 0.5 40.5 9.45431 40.5 20.5C40.5 31.5457 31.5457 40.5 20.5 40.5C9.45431 40.5 0.5 31.5457 0.5 20.5C0.5 9.45431 9.45431 0.5 20.5 0.5Z" stroke="var(--stroke-0, white)" stroke-opacity="0.15"/>
<g id="weui:arrow-filled">
<path clip-rule="evenodd" d="M15.997 21.2406L22.1254 27.1333L23.6572 25.6604L18.2947 20.5042L23.6572 15.3479L22.1254 13.875L15.997 19.7677C15.7939 19.963 15.6798 20.228 15.6798 20.5042C15.6798 20.7804 15.7939 21.0453 15.997 21.2406Z" fill="var(--fill-0, white)" fill-rule="evenodd" id="Vector"/>
</g>
</g>
<g id="Frame 43">
<path d="M1600 20.5C1600 9.17816 1590.82 0 1579.5 0V0C1568.18 0 1559 9.17816 1559 20.5V20.5C1559 31.8218 1568.18 41 1579.5 41V41C1590.82 41 1600 31.8218 1600 20.5V20.5Z" fill="var(--fill-0, #FF853C)"/>
<path d="M1579.5 0.5C1568.45 0.5 1559.5 9.45431 1559.5 20.5C1559.5 31.5457 1568.45 40.5 1579.5 40.5C1590.55 40.5 1599.5 31.5457 1599.5 20.5C1599.5 9.45431 1590.55 0.5 1579.5 0.5Z" stroke="var(--stroke-0, white)" stroke-opacity="0.15"/>
<g id="weui:arrow-filled_2">
<path clip-rule="evenodd" d="M1584 21.2406L1577.87 27.1333L1576.34 25.6604L1581.71 20.5042L1576.34 15.3479L1577.87 13.875L1584 19.7677C1584.21 19.963 1584.32 20.228 1584.32 20.5042C1584.32 20.7804 1584.21 21.0453 1584 21.2406Z" fill="var(--fill-0, white)" fill-rule="evenodd" id="Vector_2"/>
</g>
</g>
</g>
</svg>