<?xml version="1.0" encoding="utf-8"?>
<svg xmlns="http://www.w3.org/2000/svg" fill="none" height="100%" overflow="visible" preserveAspectRatio="none" style="display: block;" viewBox="0 0 183 176.001" width="100%">
<g id="Frame 2147257003">
<path d="M91.3269 23.6559C89.188 23.5269 87.561 23.1479 85.6999 22.0063C81.9952 19.7339 79.6773 15.362 79.9883 10.9888C80.2066 7.83385 81.6698 4.8973 84.0524 2.83249C86.3868 0.792882 89.4409 -0.214483 92.5228 0.0382504C99.1325 0.550856 103.759 6.39329 103.193 12.9607C102.893 16.1232 101.354 19.0358 98.914 21.0549C96.7684 22.8227 94.4953 23.5565 91.7607 23.6754L91.713 40.0199C91.7118 42.9527 91.6175 46.5368 91.8084 49.4253C93.4824 44.2034 95.5814 41.5289 99.9679 38.1435C101.199 37.1926 103.03 35.8913 104.154 34.8769L104.358 35.1692L104.282 35.2387C103.178 36.2359 100.819 37.8933 99.5541 38.8787C95.3495 42.1533 92.1423 46.6132 91.8228 52.0997C91.6686 54.7318 91.7817 57.875 91.7551 60.5829C99.2723 60.8776 106.233 63.5523 111.426 69.1462C111.738 69.4821 112.039 69.8311 112.324 70.192C114.067 68.4026 115.819 66.6222 117.579 64.8507C125.754 56.5638 125.805 53.8351 125.685 42.4939C125.677 41.8877 125.661 41.2815 125.639 40.6755C125.845 40.7434 126.068 40.7504 126.278 40.6955C126.257 45.9826 126.775 51.4197 124.625 56.2614C123.995 57.6812 123.367 58.6382 122.698 59.9542C128.695 54.0591 134.634 48.1031 140.512 42.0867C137.891 39.5016 136.296 36.892 136.266 33.044C136.251 29.8634 137.49 26.8063 139.711 24.5406C144.156 20.0146 151.624 19.9893 156.093 24.5474C160.687 29.2344 160.627 36.8858 155.906 41.4849C153.718 43.6414 150.756 44.8187 147.691 44.7505C144.888 44.6856 143.095 43.9113 140.847 42.3707C139.298 43.752 137.695 45.3788 136.259 46.884C131.851 51.5057 127.017 55.8708 122.661 60.5204C129.681 56.878 132.474 57.0921 140.245 58.6118C141.492 58.8557 143.572 59.0332 144.582 59.303L144.422 59.6541C135.919 58.4003 129.543 55.79 121.642 61.735C118.526 64.0794 115.448 68.0501 112.6 70.5386C116.548 75.1839 118.816 81.0344 119.038 87.1396C121.584 87.1181 124.13 87.1124 126.677 87.1228C131.369 87.1204 134.034 87.1847 138.223 84.7751C139.971 83.7607 141.569 82.5036 142.969 81.0409C143.934 80.0434 146.963 76.3985 147.731 75.1122L148.082 75.3587C142.69 81.6056 141.838 84.517 133.194 87.0778C136.78 87.2379 140.448 87.1887 144.042 87.1888L159.779 87.1795C159.794 83.4354 160.683 80.5093 163.387 77.815C165.568 75.6601 168.515 74.4713 171.572 74.5135C174.648 74.5399 177.581 75.8237 179.696 78.0694C181.933 80.4132 183.123 83.5727 182.99 86.8183C182.892 89.9799 181.542 92.9723 179.24 95.1283C177.029 97.2028 174.096 98.3203 171.073 98.24C165.142 98.0248 160.496 93.4831 159.906 87.5877L143.075 87.562C140.392 87.5562 137.01 87.4617 134.394 87.617L134.631 88.0254C138.297 88.8768 142.092 92.0767 144.458 94.8996C145.616 96.2837 146.868 98.0259 148.065 99.313L147.863 99.6766C143.045 93.5356 138.717 87.9132 130.114 87.6602C126.438 87.5522 122.738 87.5331 119.058 87.6088C119.078 92.872 117.65 98.0382 114.93 102.536C114.602 103.068 113.709 104.493 113.275 104.861C112.961 104.97 113.11 104.883 112.9 105.302C112.531 105.866 112.096 106.347 111.644 106.843C106.329 112.66 99.4997 115.305 91.7817 115.582C91.7718 117.011 91.8239 119.025 91.7451 120.402C91.5843 120.164 91.6542 116.52 91.6464 115.897L91.5099 115.765L91.5299 115.68L91.3236 116.531C91.3047 116.025 91.3846 115.936 91.156 115.573C81.776 114.954 76.2077 112.344 69.8854 105.141C64.1049 111.57 57.4932 115.176 56.9072 124.88C56.7248 127.899 57.0025 131.228 56.8232 134.097C56.6539 134.092 56.7179 134.083 56.5309 133.932C56.4371 133.044 56.4836 131.33 56.4741 130.358C56.412 126.422 56.3489 122.781 57.7835 119.028C58.3497 117.545 59.6019 115.97 60.0315 114.727C58.191 116.69 56.062 118.668 54.1254 120.567C50.1448 124.4 46.2375 128.31 42.4057 132.294C44.3463 134.321 45.4255 136.489 45.7604 139.298C46.1415 142.424 45.2645 145.574 43.3244 148.046C41.3307 150.585 38.7071 152.1 35.4979 152.446C32.4518 152.79 29.3954 151.895 27.0089 149.961C24.5293 147.929 22.9572 144.988 22.6405 141.788C22.3392 138.607 23.3204 135.437 25.3641 132.99C27.3076 130.649 30.1026 129.188 33.125 128.934C36.8876 128.618 39.3274 129.639 42.1283 132.018C42.9394 131.021 44.7684 129.284 45.7207 128.334C48.4479 125.602 51.2024 122.898 53.9839 120.222C55.4574 118.802 58.0836 116.399 59.3437 114.901C53.755 118.017 49.8525 118.115 43.6067 117.056C41.755 116.742 39.8468 116.486 38.0056 115.998C38.0833 115.947 38.4038 115.841 38.5106 115.803C45.9084 117.072 53.6824 118.955 60.1628 113.822C63.4909 111.186 66.5661 107.726 69.6457 104.765C65.7278 99.0855 64.1273 94.5472 63.9955 87.6335C59.2197 87.4626 52.7652 87.3186 48.1917 88.3694C43.8547 89.3653 39.8643 93.2724 37.2017 96.6596C36.516 97.5318 35.4529 98.6527 34.9063 99.623L34.5412 99.4167C35.3771 98.5111 36.557 96.8894 37.3965 95.8744C40.8579 91.6897 44.1124 88.7843 49.5085 87.7346C46.5396 87.4153 42.2726 87.5897 39.142 87.5949C33.7873 87.573 28.4327 87.5873 23.0783 87.638C22.7926 90.3156 21.6285 92.8218 19.7696 94.7613C17.6208 96.9786 14.6781 98.2389 11.5987 98.2601C5.06789 98.2635 -0.0822099 92.6656 0.000994084 86.17C0.0437055 82.9784 1.36177 79.9382 3.6582 77.7341C5.85168 75.6188 8.78478 74.456 11.8239 74.4967C14.8136 74.5429 17.6599 75.7928 19.7253 77.9665C22.3176 80.6882 23.1912 83.4951 23.1063 87.1676L49.4227 87.1526C48.3472 86.7966 47.3686 86.5582 46.3056 86.1093C42.7177 84.594 39.7493 81.8586 37.367 78.8135C36.6023 77.8362 35.39 76.4286 34.7448 75.3806L34.9119 75.1837C35.3301 75.958 39.1578 80.4594 39.9307 81.2599C42.8112 84.2425 47.0693 86.6216 51.2349 86.9896C52.8817 87.135 54.5775 87.1211 56.2564 87.1249L64.0156 87.1142C64.2519 81.2058 66.5666 75.0286 70.4365 70.5559C67.133 67.7418 63.8998 63.4178 60.1153 60.9491C54.5652 57.3286 49.9583 57.6385 43.7913 58.7127C41.8852 59.0312 39.9835 59.3769 38.0871 59.7499L38.2046 59.3918C38.7037 59.0266 41.5768 58.8254 42.3808 58.6419C49.3418 57.0541 53.7221 56.9275 60.1095 60.4563C59.0573 59.1692 57.474 57.7281 56.2485 56.547C54.5027 54.8598 52.7653 53.1638 51.0365 51.4589L44.8608 45.3093C43.8981 44.3551 42.4907 42.8886 41.4781 42.066C39.4591 43.8183 37.0995 44.7089 34.4265 44.7756C31.338 44.8628 28.3443 43.6987 26.1178 41.545C23.8142 39.3378 22.502 36.284 22.4826 33.0848C22.4211 29.8822 23.658 26.7921 25.9087 24.525C28.0616 22.329 31.008 21.1044 34.0748 21.1309C44.8065 21.1226 49.6601 34.2272 41.8262 41.819C47.8231 47.8389 53.8709 53.8074 59.969 59.7238C55.8261 52.5196 56.3691 48.8057 56.4926 40.7309L56.8666 40.686C56.8413 43.5035 56.8437 46.3291 56.8799 49.1478C57.007 59.0602 64.6124 63.6806 70.6551 70.2742C70.9518 69.9244 71.2529 69.5785 71.5585 69.2367C76.6513 63.5998 83.8737 60.9316 91.3136 60.566C91.3202 57.9383 91.4622 53.6371 91.1339 51.1878C90.0711 43.2619 84.381 39.5334 78.6143 35.1363L78.921 34.9557C82.7893 37.8383 87.3429 41.0842 89.5652 45.3879C90.3329 46.8736 90.659 47.9389 91.2592 49.4345C91.3946 46.3741 91.3258 43.0178 91.3247 39.9261L91.3269 23.6559Z" fill="var(--fill-0, white)" id="Vector"/>
<path d="M134.631 88.0249C134.241 87.957 133.901 87.9392 133.574 87.7252C133.836 87.5565 134.022 87.6218 134.395 87.6165L134.631 88.0249Z" fill="var(--fill-0, #131313)" id="Vector_2"/>
<path d="M89.9052 61.0203C104.814 60.1123 117.624 71.5433 118.499 86.5338C119.372 101.524 107.976 114.381 93.0637 115.23C78.1936 116.075 65.4493 104.657 64.5783 89.7097C63.7073 74.761 75.0383 61.9257 89.9052 61.0203Z" fill="var(--fill-0, white)" id="Vector_3"/>
<path d="M91.2892 68.7871C93.2096 68.885 93.6567 70.0081 93.5335 71.7085C95.5959 72.8195 97.6482 73.9485 99.6906 75.0953C100.473 74.4594 101.439 74.0582 102.424 74.5332C102.881 74.7497 103.228 75.1468 103.384 75.6303C103.653 76.4472 103.427 77.0523 103.064 77.7666C104.642 79.2251 105.939 80.9426 107.559 82.2614C107.571 82.271 110.086 81.7238 110.512 83.0103C111.163 84.9782 110.535 85.6068 108.84 86.3334C108.628 88.6237 108.369 90.425 108.086 92.688L108.15 92.7504L108.254 92.8553C109.047 93.6483 109.144 93.8055 109.461 94.8495C108.893 97.0166 107.307 97.7817 105.596 96.1276C104.148 96.9519 102.674 97.4526 101.248 98.2925C101.214 100.596 99.7993 101.731 97.6804 100.552C96.2293 101.751 94.6507 103.27 93.2762 104.576C94.0461 106.449 93.1197 108.094 91.003 107.882C89.3523 107.214 89.1515 106.218 89.7217 104.624C87.9579 103.41 84.9085 101.34 83.3033 99.9655C82.5179 100.617 81.7875 100.948 80.7652 100.581C80.276 100.408 79.8805 100.038 79.674 99.5606C79.2505 98.6014 79.5567 98.0828 79.9061 97.2095C78.9077 95.8577 76.9583 93.8858 75.6796 92.7805C73.8903 93.6918 72.9102 92.8932 72.4607 91.131C72.6348 90.4227 72.7086 90.2744 73.0236 89.642C73.3582 89.4178 73.763 89.2204 74.1228 89.0308L74.0368 86.8039C72.8753 86.2863 71.9019 85.462 72.4805 84.0467C72.6843 83.5599 73.0705 83.1731 73.5556 82.9703C74.3073 82.6576 74.7804 82.7574 75.4758 83.0659C76.7544 81.4519 78.3897 79.662 79.6485 78.0131C79.9538 77.655 79.3403 77.0485 79.3416 76.7754C79.3547 74.0531 81.5061 74.0023 83.2658 75.1602C85.3388 74.084 87.3485 72.8904 89.4399 71.8409C89.3844 70.1029 89.4865 69.3763 91.2892 68.7871Z" fill="var(--fill-0, #131313)" id="Vector_4"/>
<path d="M89.3462 94.9758C90.0895 94.9446 90.216 95.5168 91.2854 95.809C91.3087 98.401 91.3176 100.993 91.311 103.585C90.6398 103.851 90.4712 103.915 89.9431 104.403C89.08 103.809 88.1755 103.121 87.3236 102.499C86.0202 101.589 84.7387 100.646 83.4805 99.6725C83.8234 98.7847 83.7615 98.6107 83.6619 97.676C85.4222 97.0002 87.6209 95.838 89.3462 94.9758Z" fill="var(--fill-0, white)" id="Vector_5"/>
<path d="M89.7487 83.0488C90.3588 83.2953 89.813 83.5566 91.2342 84.0162C91.395 84.4179 91.3296 90.7039 91.2586 91.4456C90.6295 91.7657 90.3333 91.9341 89.7476 92.3323C88.8126 91.798 87.8438 91.1868 86.9068 90.6325C86.2709 90.2656 83.9778 89.0554 83.7051 88.5424C83.7696 87.8202 83.7763 87.5587 83.6406 86.8316C85.3885 85.7149 88.2035 84.2302 89.7487 83.0488Z" fill="var(--fill-0, white)" id="Vector_6"/>
<path d="M83.2653 77.7236C84.8614 78.6524 87.7085 79.9501 89.4839 80.8392C89.4129 81.2925 89.5138 82.7447 89.3918 82.8438C88.7905 83.3363 86.9259 84.3936 86.2859 84.7703C85.366 85.3126 84.3782 85.9812 83.4736 86.5657C82.8908 86.0788 82.5349 85.9364 81.8526 85.6802C81.8198 83.3303 81.7145 81.0201 81.6563 78.6746C82.4476 78.4001 82.6518 78.2993 83.2653 77.7236Z" fill="var(--fill-0, white)" id="Vector_7"/>
<path d="M89.6906 72.1729C90.3762 72.5125 90.1233 72.7853 91.3269 73.0833C91.3103 75.2338 91.307 77.3843 91.3181 79.5349C90.6214 79.7368 90.1754 79.9826 89.7161 80.5465L86.7871 79.053C85.634 78.5026 84.4887 77.9358 83.3516 77.3527C83.5599 76.6704 83.4512 75.7948 83.5607 75.6798C84.5466 74.6441 88.4849 72.7872 89.6906 72.1729Z" fill="var(--fill-0, white)" id="Vector_8"/>
<path d="M93.3287 72.1016C95.1503 72.8909 97.4967 74.426 99.4814 75.3693C99.2972 76.245 99.285 76.4859 99.4448 77.3699C98.5129 77.8011 97.4279 78.4079 96.506 78.8927C95.4366 79.4907 94.3593 80.0535 93.2888 80.6615C92.7818 79.9153 92.6221 79.8774 91.7512 79.5909C91.7046 77.4131 91.6924 75.2347 91.7124 73.0566C92.5544 72.8339 92.7175 72.7264 93.3287 72.1016Z" fill="var(--fill-0, white)" id="Vector_9"/>
<path d="M99.5396 77.7012L99.6683 77.7425C100.078 78.3281 100.42 78.3787 101.098 78.5434C100.823 80.8712 100.62 83.3239 100.407 85.6627C99.5718 85.8543 99.4587 85.953 98.8563 86.5857C98.0298 85.9334 97.4374 85.5297 96.5487 84.9578C96.2381 84.7591 93.6743 83.0767 93.5279 82.7183C93.5423 82.7542 93.5368 81.1021 93.5234 80.871C95.121 80.1473 98.0275 78.6199 99.5396 77.7012Z" fill="var(--fill-0, white)" id="Vector_10"/>
<path d="M83.4574 89.0752C85.5056 90.2418 87.5421 91.4285 89.5667 92.6353C89.377 93.3826 89.4003 93.7819 89.4657 94.5191L86.5184 95.9624C85.5048 96.4408 84.4888 96.9126 83.4703 97.3799C82.9265 96.8055 82.5806 96.6896 81.8852 96.3505C81.8724 94.2369 81.8791 92.1234 81.9053 90.0098C82.6113 89.7165 82.8927 89.5949 83.4574 89.0752Z" fill="var(--fill-0, white)" id="Vector_11"/>
<path d="M93.1289 83.0215C93.3918 83.1326 97.6241 86.2481 98.2187 86.6005C98.2809 86.6376 98.4939 86.8526 98.4905 86.8838C98.4262 87.496 98.323 88.0956 98.4439 88.7101C98.4517 88.7547 98.4584 88.7993 98.4661 88.8428C97.5997 89.4451 96.7288 90.0385 95.8513 90.6218C95.0082 91.0791 93.9964 91.7795 93.1854 92.316C93.1466 92.2859 93.1067 92.2557 93.0678 92.2256L92.8881 92.0951C92.3867 91.7248 92.3212 91.7148 91.7066 91.5241C91.6756 90.4991 91.5857 84.693 91.8242 84.043C92.4455 83.7346 92.7484 83.6442 93.1289 83.0215Z" fill="var(--fill-0, white)" id="Vector_12"/>
<path d="M102.787 78.0684C103.266 78.2322 106.628 82.0435 107.244 82.7299C106.674 83.4922 106.581 83.8403 106.735 84.7841C106.043 85.1983 105.209 85.5284 104.461 85.849C103.88 86.145 102.964 86.5095 102.344 86.7789C101.75 86.1771 101.542 85.9834 100.746 85.7102C100.942 83.5822 101.142 81.0947 101.492 78.9767C101.567 78.5213 102.239 78.361 102.787 78.0684Z" fill="var(--fill-0, white)" id="Vector_13"/>
<path d="M93.0645 95.084C93.3762 95.1364 96.4947 97.3191 97.1648 97.7318C96.8553 98.8281 96.8442 99.2062 97.3834 100.194C96.5913 101.04 95.6849 101.826 94.8229 102.605C94.3148 103.013 93.5992 103.721 93.0922 104.185C92.6108 103.931 92.2314 103.807 91.7233 103.625C91.6944 101.039 91.6611 98.43 91.7743 95.8469C92.4288 95.5937 92.542 95.5881 93.0645 95.084Z" fill="var(--fill-0, white)" id="Vector_14"/>
<path d="M98.526 89.2761C98.9697 89.2538 99.5899 89.7334 99.9915 89.9833C99.8339 92.2206 99.2726 94.4189 99.165 96.5648C98.3241 96.8158 98.0778 96.8816 97.451 97.4905C96.9307 97.1782 96.427 96.8191 95.9256 96.4745C95.1057 95.9246 94.2926 95.3647 93.486 94.7948C93.6169 93.8769 93.6469 93.482 93.3906 92.5954C94.9893 91.6217 97.0294 90.3547 98.526 89.2761Z" fill="var(--fill-0, white)" id="Vector_15"/>
<path d="M106.864 85.291C107.395 85.5339 107.527 85.9347 108.512 86.3118C108.136 88.6953 107.886 90.4397 107.751 92.8399C106.92 92.8488 106.693 93.0764 106.01 93.1366C105.588 92.9961 105.209 92.4562 104.898 92.0949C103.964 91.1301 103.037 90.1587 102.117 89.1805C102.415 88.421 102.527 88.0303 102.431 87.2228C103.718 86.6069 105.546 85.7702 106.864 85.291Z" fill="var(--fill-0, white)" id="Vector_16"/>
<path d="M101.723 89.5596C101.736 89.5585 101.748 89.5552 101.76 89.5574C102.278 89.6165 105.145 93.0071 105.736 93.6417C105.289 94.6645 105.428 94.7448 105.206 95.7832C104.848 96.2259 103.402 96.778 102.792 97.0535L101.158 97.7885C100.555 97.0089 100.441 96.9833 99.5156 96.6576C99.7841 94.389 100.059 92.2431 100.521 90.0069C101.119 89.8674 101.21 89.8686 101.723 89.5596Z" fill="var(--fill-0, white)" id="Vector_17"/>
<path d="M80.0519 78.2305C80.5329 78.4234 80.8394 78.5283 81.3376 78.6697C81.361 81.0069 81.4028 83.3437 81.4633 85.6802C80.6856 85.9395 80.4216 86.1266 79.8152 86.6842C79.0865 86.4689 78.4546 86.2321 77.7435 85.9671C77.2512 85.7752 76.7573 85.5876 76.2617 85.4042C76.6609 84.34 76.3985 84.1144 75.8164 83.2522C76.9892 82.0071 78.7993 79.675 80.0519 78.2305Z" fill="var(--fill-0, white)" id="Vector_18"/>
<path d="M79.5858 89.1892C79.9313 89.1636 80.6146 89.7837 81.4548 89.9443C81.446 91.5103 81.5515 94.5194 81.4336 96.1857C81.3686 96.2716 81.3035 96.3575 81.2385 96.4422C80.7917 96.6073 80.7538 96.6341 80.3552 96.914L80.2556 96.9854C79.9696 96.5917 79.5656 96.1355 79.2473 95.7552C78.1629 94.7012 77.1028 93.519 76.082 92.3969C76.7841 91.5683 76.7332 91.75 76.6069 90.6191C77.7155 90.1674 78.5341 89.7413 79.5858 89.1892Z" fill="var(--fill-0, white)" id="Vector_19"/>
<path d="M76.0858 85.8291C76.5162 85.8881 79.1268 86.9102 79.6298 87.1036L79.5734 87.9966C79.5018 89.1765 78.3995 89.365 77.4414 89.7587C77.1387 89.9037 76.8625 90.0956 76.5796 90.2785C75.778 89.403 75.5611 89.278 74.4454 88.9892L74.4219 86.717C75.2853 86.53 75.4861 86.4704 76.0858 85.8291Z" fill="var(--fill-0, white)" id="Vector_20"/>
<path d="M99.0154 96.8906C101.094 97.1182 101.729 99.5507 99.3649 100.608C97.1517 100.485 96.6369 97.8219 99.0154 96.8906Z" fill="var(--fill-0, white)" id="Vector_21"/>
<path d="M81.206 96.8573C82.1103 96.6465 83.0166 97.1997 83.2493 98.1031C83.4821 99.0065 82.9566 99.9311 82.0644 100.189C81.466 100.362 80.8214 100.194 80.381 99.7527C79.9406 99.3099 79.7737 98.6619 79.9451 98.0607C80.1165 97.4584 80.5993 96.9978 81.206 96.8573Z" fill="var(--fill-0, white)" id="Vector_22"/>
<path d="M101.164 74.7722C102.086 74.6289 102.95 75.2607 103.098 76.1865C103.246 77.1123 102.623 77.9846 101.703 78.1393C100.775 78.2952 99.8982 77.6622 99.7484 76.7283C99.5987 75.7944 100.234 74.9167 101.164 74.7722Z" fill="var(--fill-0, white)" id="Vector_23"/>
<path d="M80.9878 74.8946C81.8877 74.621 82.8369 75.1373 83.1015 76.0443C83.366 76.9513 82.8445 77.9011 81.9401 78.1594C81.0465 78.4147 80.1154 77.8978 79.854 77.0017C79.5925 76.1055 80.0986 75.1649 80.9878 74.8946Z" fill="var(--fill-0, white)" id="Vector_24"/>
<path d="M91.1907 80.0478C92.1115 79.8967 92.979 80.5266 93.1254 81.4528C93.2719 82.3789 92.6417 83.2484 91.7198 83.3921C90.8035 83.535 89.9448 82.9059 89.7984 81.985C89.6531 81.0642 90.2754 80.1981 91.1907 80.0478Z" fill="var(--fill-0, white)" id="Vector_25"/>
<path d="M81.1292 86.2221C81.7088 86.0314 82.3458 86.1729 82.7915 86.5916C83.2371 87.0103 83.4207 87.6397 83.2705 88.234C83.1204 88.8284 82.6603 89.2935 82.0699 89.4474C81.1955 89.6761 80.2988 89.1653 80.0445 88.2931C79.7904 87.4218 80.2705 86.5046 81.1292 86.2221Z" fill="var(--fill-0, white)" id="Vector_26"/>
<path d="M91.0976 104.144C91.9818 103.921 92.8804 104.456 93.1134 105.342C93.3464 106.229 92.8261 107.139 91.9474 107.383C91.3694 107.545 90.7493 107.381 90.3244 106.955C89.8995 106.528 89.7364 105.904 89.8962 105.323C90.0559 104.741 90.5152 104.291 91.0976 104.144Z" fill="var(--fill-0, white)" id="Vector_27"/>
<path d="M90.9272 92.0821C91.4974 91.878 92.132 92.0018 92.5846 92.4056C93.0372 92.8082 93.2369 93.4261 93.106 94.0195C92.9751 94.6139 92.5336 95.0879 91.9534 95.2597C91.0892 95.5162 90.1806 95.0344 89.9021 94.1734C89.6237 93.3123 90.0785 92.3844 90.9272 92.0821Z" fill="var(--fill-0, white)" id="Vector_28"/>
<path d="M90.9188 69.4086C91.4868 69.207 92.1181 69.3309 92.5696 69.7322C93.02 70.1336 93.2197 70.7493 93.0888 71.3403C92.959 71.9314 92.5197 72.405 91.9428 72.5774C91.0808 72.8346 90.1722 72.3542 89.8938 71.4946C89.6164 70.6351 90.0713 69.7097 90.9188 69.4086Z" fill="var(--fill-0, white)" id="Vector_29"/>
<path d="M99.874 86.2144C102.361 86.0446 102.805 88.2412 100.918 89.4591C98.6503 89.671 98.069 87.3393 99.874 86.2144Z" fill="var(--fill-0, white)" id="Vector_30"/>
<path d="M106.914 93.2864C107.48 93.1391 108.08 93.3098 108.486 93.7325C108.892 94.1552 109.04 94.7642 108.874 95.3274C108.709 95.8907 108.255 96.3212 107.686 96.4539C106.821 96.6569 105.954 96.1215 105.742 95.2538C105.531 94.3861 106.053 93.5083 106.914 93.2864Z" fill="var(--fill-0, white)" id="Vector_31"/>
<path d="M108.197 82.4982C110.351 82.3918 111.202 84.4087 109.383 85.6471C108.525 85.6968 107.887 85.7703 107.382 84.9582C106.715 83.8857 107.318 83.0701 108.197 82.4982Z" fill="var(--fill-0, white)" id="Vector_32"/>
<path d="M73.8998 89.5938C74.4335 89.3652 75.049 89.4443 75.5076 89.8013C75.9664 90.1593 76.196 90.7392 76.1078 91.3159C76.0195 91.8925 75.627 92.3754 75.0826 92.5784C74.2693 92.8807 73.3646 92.4758 73.0436 91.6661C72.7226 90.8564 73.1025 89.9373 73.8998 89.5938Z" fill="var(--fill-0, white)" id="Vector_33"/>
<path d="M73.9041 83.0591C74.6716 83.047 75.3569 83.2626 75.7499 83.9821C75.9434 84.342 75.982 84.766 75.8566 85.1552C75.656 85.7845 75.2118 86.0294 74.6668 86.3067C72.2705 85.9144 72.187 84.5052 73.9041 83.0591Z" fill="var(--fill-0, white)" id="Vector_34"/>
<path d="M90.2525 0.540937C96.464 -0.221056 102.11 4.23234 102.852 10.4786C103.593 16.7248 99.1487 22.3896 92.9339 23.1193C86.7422 23.8464 81.1326 19.3983 80.3934 13.1747C79.6541 6.9513 84.0641 1.30014 90.2525 0.540937Z" fill="var(--fill-0, white)" fill-opacity="0.5" id="Vector_35" opacity="0"/>
<path d="M91.5886 5.43066C92.3208 5.56439 96.0517 8.10054 97.201 8.54924C97.2365 10.7376 97.2254 12.9829 97.2365 15.1755C95.5214 16.0333 93.4568 17.3214 91.6474 18.2691C90.8076 18.0244 87.0998 15.7129 86.0508 15.1385C86.1562 13.0555 86.1125 10.689 86.0942 8.59775C87.7965 7.71073 89.9312 6.43089 91.5886 5.43066Z" fill="var(--fill-0, #131313)" id="Vector_36"/>
<path d="M86.9571 8.98597L86.9145 8.74383C87.8271 7.87577 90.4377 6.65616 91.637 5.80371C92.418 6.28598 96.2542 8.43622 96.4928 8.86395L96.394 9.0143L96.5127 9.15639L96.6436 9.16755C96.8944 9.5675 96.7745 14.1414 96.769 14.964C95.4677 15.771 92.814 17.0903 91.7035 17.899C90.065 16.8927 88.1421 15.8533 86.4525 14.8983C86.4705 13.7474 86.3537 10.1934 86.5751 9.20937L86.8222 9.12873L86.9571 8.98597Z" fill="var(--fill-0, white)" id="Vector_37"/>
<path d="M86.9567 8.98597L86.9141 8.74383C87.8266 7.87577 90.4373 6.65616 91.6365 5.80371C92.4175 6.28598 96.2538 8.43622 96.4923 8.86395L96.3935 9.0143C95.1366 9.41771 92.9789 10.8567 91.6565 11.5471C90.3896 10.7803 88.2883 9.64446 86.9567 8.98597Z" fill="var(--fill-0, white)" id="Vector_38"/>
<path d="M86.9591 8.98633C88.2907 9.64482 90.392 10.7807 91.6589 11.5475C92.9813 10.8571 95.1391 9.41807 96.396 9.01466L96.5147 9.15675C94.9116 10.015 93.2886 10.9577 91.7055 11.8583C90.2089 11.1525 88.281 9.99146 86.8242 9.12909L86.9591 8.98633Z" fill="var(--fill-0, #131313)" id="Vector_39"/>
<path d="M33.3689 21.6066C39.5798 21.1987 44.9486 25.9185 45.375 32.1613C45.8013 38.404 41.1245 43.8173 34.9165 44.2666C28.6793 44.718 23.264 39.9892 22.8356 33.7171C22.4072 27.445 27.1288 22.0165 33.3689 21.6066Z" fill="var(--fill-0, white)" fill-opacity="0.5" id="Vector_40" opacity="0"/>
<path d="M32.8472 26.6746C34.2989 26.5967 37.7473 26.5891 38.8911 27.8054C39.5316 28.4864 39.3735 31.0418 39.3721 32.1321L39.3676 37.7755C38.0059 38.9445 37.172 38.9921 35.45 39.2347C33.1092 39.5055 30.6804 39.2112 28.7109 37.8507L28.7409 28.1786C29.955 27.0003 31.2681 26.8417 32.8472 26.6746Z" fill="var(--fill-0, #131313)" id="Vector_41"/>
<path d="M29.1523 35.373C31.7704 36.651 36.3362 36.7089 38.9365 35.3604C38.9441 36.0104 39.0224 37.2643 38.878 37.8188C35.6223 39.3458 32.4154 39.3296 29.2007 37.7443L29.1523 35.373Z" fill="var(--fill-0, white)" id="Vector_42"/>
<path d="M34.0787 27.0117C35.3087 27.0398 38.5951 27.1432 38.8217 28.6842C38.3063 30.092 35.262 30.0924 34.0352 30.1402C32.786 30.1155 29.9213 30.1055 29.2773 28.8013C29.3029 27.142 32.8842 27.0699 34.0787 27.0117Z" fill="var(--fill-0, white)" id="Vector_43"/>
<path d="M38.8697 29.459C39.0762 29.6905 38.9546 31.5592 38.8494 31.893C37.3166 33.7508 31.2959 33.0725 29.2289 32.0917C29.1765 31.2463 29.1636 30.374 29.1406 29.5249C29.6982 29.8221 30.285 30.0606 30.8913 30.2366C33.5508 31.0026 36.4323 30.8275 38.8697 29.459Z" fill="var(--fill-0, white)" id="Vector_44"/>
<path d="M38.8478 32.4453C39.0279 32.6774 38.9679 34.4364 38.9672 34.8554C38.6895 34.9905 38.408 35.1178 38.1233 35.2369C35.3181 36.397 32.0145 36.0715 29.2577 34.9023C29.0459 34.5425 29.1725 33.0255 29.1918 32.5079C32.2144 33.802 35.8639 33.8889 38.8478 32.4453Z" fill="var(--fill-0, white)" id="Vector_45"/>
<path d="M147.173 21.6104C153.394 21.2106 158.762 25.9551 159.164 32.2102C159.566 38.4653 154.851 43.8648 148.629 44.2734C142.401 44.6824 137.024 39.936 136.621 33.6747C136.22 27.4134 140.945 22.0107 147.173 21.6104Z" fill="var(--fill-0, white)" fill-opacity="0.5" id="Vector_46" opacity="0"/>
<path d="M147.287 28.0828C149.965 27.872 151.202 29.1684 152.102 31.5098L152.099 31.5122C152.255 31.5282 152.413 31.5493 152.569 31.5757C153.306 31.7067 154.098 32.2177 154.512 32.8495C154.929 33.5 155.065 34.2933 154.89 35.0472C154.633 36.1488 153.931 36.7526 153.02 37.3083C151.757 37.3823 150.041 37.3366 148.746 37.3377C146.968 37.3337 143.321 37.687 142.022 36.7637C141.39 36.3142 140.975 35.6187 140.878 34.8468C140.619 32.9018 142.036 31.5794 143.889 31.4484C144.435 29.3725 145.276 28.6277 147.287 28.0828Z" fill="var(--fill-0, #131313)" id="Vector_47"/>
<path d="M147.178 28.432C150.983 28.2213 150.552 29.9819 151.882 31.9967C152.113 32.3465 153.287 31.7795 154.427 33.4647C155.017 37.5807 151.459 36.9905 148.595 36.9605C146.801 36.943 144.358 37.2536 142.673 36.6275C141.348 36.113 140.955 34.3011 141.602 33.103C142.57 31.3095 144.268 32.8544 144.779 30.1995C144.918 29.4788 146.427 28.7022 147.178 28.432Z" fill="var(--fill-0, white)" id="Vector_48"/>
<path d="M170.385 75.064C176.581 74.5035 182.06 79.0873 182.638 85.3145C183.216 91.5416 178.674 97.0658 172.483 97.667C166.261 98.2715 160.735 93.6797 160.155 87.4237C159.574 81.1673 164.16 75.627 170.385 75.064Z" fill="var(--fill-0, white)" fill-opacity="0.5" id="Vector_49" opacity="0"/>
<path d="M170.733 79.4843C171.689 79.3393 172.272 79.4048 173.2 79.7261C173.941 79.936 174.411 80.1182 175.053 80.5439C176.649 81.5982 177.749 83.2629 178.094 85.1518C178.437 86.9706 177.982 88.8949 176.927 90.4006C175.871 91.904 174.261 92.9212 172.455 93.2235C170.69 93.528 168.784 93.0294 167.352 91.9587C165.866 90.8322 164.894 89.1492 164.657 87.2929C164.16 83.4015 166.839 79.9474 170.733 79.4843Z" fill="var(--fill-0, #131313)" id="Vector_50"/>
<path d="M171.628 79.7793C171.935 79.955 172.362 80.1827 172.63 80.3889C173.486 81.3516 173.579 81.7336 174.053 82.9196L171.585 83.0631C171.564 82.0523 171.521 80.7637 171.628 79.7793Z" fill="var(--fill-0, white)" id="Vector_51"/>
<path d="M170.73 79.4843C171.687 79.3393 172.269 79.4048 173.198 79.7261C172.71 80.0746 172.958 80.0989 172.63 80.3889C172.361 80.1827 171.934 79.955 171.627 79.7793L171.682 79.5772C171.296 79.4806 171.121 79.4919 170.73 79.4843Z" fill="var(--fill-0, #131313)" id="Vector_52"/>
<path d="M175 86.1597L177.74 86.1533L177.766 86.6067C177.573 88.3156 177.511 88.7796 176.49 90.176C175.665 89.7689 175.447 89.7109 174.57 89.4756C174.814 88.3558 174.873 87.6737 174.966 86.5466L175 86.1597Z" fill="var(--fill-0, white)" id="Vector_53"/>
<path d="M175.002 86.1597L177.742 86.1533L177.769 86.6067L174.969 86.5466L175.002 86.1597Z" fill="var(--fill-0, #131313)" id="Vector_54"/>
<path d="M166.273 82.4629C167.112 82.8496 167.336 82.938 168.234 83.137C167.997 84.0445 168.033 85.6812 167.658 86.1424L167.246 86.1624L164.953 86.1456C165.163 84.7224 165.374 83.6301 166.273 82.4629Z" fill="var(--fill-0, white)" id="Vector_55"/>
<path d="M164.984 86.5293L167.842 86.5429C167.873 87.2356 168.198 88.9845 168.013 89.4853L167.635 89.6057C167.081 89.7842 166.715 89.9682 166.194 90.2147C165.385 89.0068 165.055 87.9712 164.984 86.5293Z" fill="var(--fill-0, white)" id="Vector_56"/>
<path d="M176.461 82.5664C177.38 83.7136 177.733 84.6754 177.74 86.1535L175 86.1599C174.895 85.1169 174.799 84.1775 174.578 83.1514C175.32 82.9603 175.749 82.853 176.461 82.5664Z" fill="var(--fill-0, white)" id="Vector_57"/>
<path d="M172.154 86.5665C172.946 86.5476 173.753 86.5476 174.548 86.54C174.524 87.273 174.576 89.0185 173.982 89.4669C173.282 89.3264 172.293 89.2717 171.558 89.2104C171.562 88.5467 171.413 87.3026 171.704 86.7244C171.785 86.5635 171.905 86.6054 172.154 86.5665Z" fill="var(--fill-0, white)" id="Vector_58"/>
<path d="M173.917 83.3514C174.045 83.3324 173.959 83.3336 174.163 83.43C174.538 84.1453 174.51 85.3559 174.538 86.1795L172.294 86.1245C172.072 86.1323 172.013 86.1124 171.792 86.0813C171.39 85.5445 171.57 84.1773 171.609 83.4517L173.917 83.3514Z" fill="var(--fill-0, white)" id="Vector_59"/>
<path d="M168.613 83.3125C169.462 83.3477 170.311 83.3777 171.159 83.4024C171.185 84.1832 171.232 85.2585 171.081 86.0071L170.897 86.1062C169.991 86.1422 169.085 86.1556 168.18 86.1463C168.224 85.0969 168.393 84.337 168.613 83.3125Z" fill="var(--fill-0, white)" id="Vector_60"/>
<path d="M168.216 86.5322L171.125 86.564C171.153 87.0872 171.305 88.8571 171.077 89.2319C170.229 89.2798 169.467 89.3512 168.62 89.4427C168.372 88.3842 168.197 87.6208 168.216 86.5322Z" fill="var(--fill-0, white)" id="Vector_61"/>
<path d="M171.582 89.6025C172.589 89.6449 173.08 89.7118 174.068 89.8992C173.725 90.7023 173.528 91.2153 173.048 91.9391C172.677 92.3262 172.563 92.4935 172.098 92.7322C171.891 92.7333 171.824 92.7835 171.726 92.6541C171.363 92.1756 171.556 90.2595 171.582 89.6025Z" fill="var(--fill-0, white)" id="Vector_62"/>
<path d="M169.811 89.6831C170.097 89.6329 170.846 89.6162 171.171 89.6006C171.188 90.3189 171.368 92.312 170.992 92.8005L170.633 92.7469C170.07 92.3343 168.395 90.446 168.886 89.8025L169.811 89.6831Z" fill="var(--fill-0, white)" id="Vector_63"/>
<path d="M170.851 79.8955L170.986 79.9387C171.279 80.3242 171.17 82.4463 171.165 83.0691L169.189 82.9628C168.95 82.9425 169.069 82.9739 168.836 82.8562C168.841 81.7615 170.017 80.5281 170.851 79.8955Z" fill="var(--fill-0, white)" id="Vector_64"/>
<path d="M168.125 89.9971L168.323 90.0506C168.801 91.2072 169.164 91.7571 169.957 92.7084C169.533 92.5857 169.135 92.443 168.72 92.298C167.661 91.7002 167.315 91.3678 166.473 90.5179C167.002 90.3317 167.585 90.1644 168.125 89.9971Z" fill="var(--fill-0, white)" id="Vector_65"/>
<path d="M169.5 80.1512L169.609 80.1406C169.73 80.3888 168.936 81.3707 168.784 81.7253C168.622 82.103 168.504 82.3737 168.381 82.7693L167.248 82.4373C166.964 82.3561 167.044 82.3846 166.787 82.2331L166.766 82.0159C167.248 81.1307 168.589 80.5023 169.5 80.1512Z" fill="var(--fill-0, white)" id="Vector_66"/>
<path d="M172.988 80.1113C173.779 80.2277 175.976 81.3263 176.09 82.1633L175.947 82.3379L174.528 82.7725C174.119 81.7714 173.591 81.0002 172.988 80.1113Z" fill="var(--fill-0, white)" id="Vector_67"/>
<path d="M174.559 89.9482C174.97 90.1691 175.786 90.4011 176.257 90.5528C175.579 91.2699 175.085 91.7428 174.229 92.2313L172.836 92.7611C173.636 91.7517 174.012 91.1182 174.559 89.9482Z" fill="var(--fill-0, white)" id="Vector_68"/>
<path d="M33.8159 129.352C40.0366 129.122 45.2691 133.997 45.5125 140.251C45.756 146.504 40.9186 151.775 34.6991 152.035C28.459 152.295 23.1945 147.412 22.9502 141.138C22.7059 134.865 27.5747 129.584 33.8159 129.352Z" fill="var(--fill-0, white)" fill-opacity="0.5" id="Vector_69"/>
<path d="M34.2326 134.127C34.5625 134.491 35.8472 136.74 36.1614 137.271C37.7432 139.941 39.2144 142.586 40.8814 145.212L34.1756 145.242L27.7266 145.212C27.9463 144.666 28.2395 144.186 28.5489 143.688C30.5044 140.538 32.3 137.29 34.2326 134.127Z" fill="var(--fill-0, #131313)" id="Vector_70"/>
<path d="M34.1904 134.891C34.597 135.177 39.5606 143.829 40.1655 144.828C38.2668 144.856 36.3249 144.839 34.4225 144.844C32.4301 144.851 30.4377 144.844 28.4453 144.825C30.14 141.549 32.4042 138.169 34.1904 134.891Z" fill="var(--fill-0, white)" id="Vector_71"/>
<path d="M10.8566 75.0678C17.0439 74.6667 22.3897 79.3697 22.815 85.5884C23.2405 91.8067 18.5854 97.2015 12.4017 97.6555C6.18057 98.1127 0.775197 93.3983 0.347307 87.1418C-0.080694 80.8855 4.63176 75.4713 10.8566 75.0678Z" fill="var(--fill-0, white)" fill-opacity="0.5" id="Vector_72" opacity="0"/>
<path d="M6.2184 80.8155C9.79806 80.8445 13.3779 80.8408 16.9575 80.8047C16.9757 84.4485 16.959 88.0928 16.9077 91.7355C16.6495 91.9496 7.2295 91.8704 6.23172 91.8749C6.19866 88.1887 6.19433 84.5018 6.2184 80.8155Z" fill="var(--fill-0, #131313)" id="Vector_73"/>
<path d="M6.57031 81.2822L16.5471 81.3065L16.552 91.3339C13.3426 91.2603 9.79729 91.3239 6.57586 91.3506C6.60881 87.9943 6.60692 84.638 6.57031 81.2822Z" fill="var(--fill-0, white)" id="Vector_74"/>
<path d="M123.739 114.656C125.387 115.567 127.105 116.406 128.953 116.828C133.577 117.885 139.752 116.744 144.389 115.778L144.601 116.036C140.064 117.147 132.923 118.33 128.481 117.089C126.68 116.585 124.982 115.744 123.323 114.89C125.246 117.02 127.873 119.432 129.959 121.476C133.425 124.88 136.867 128.308 140.286 131.759C142.625 129.953 144.471 129.003 147.485 128.888C150.69 128.766 153.464 129.785 155.792 132.004C158.1 134.185 159.433 137.209 159.488 140.392C159.721 151.033 147.105 156.54 139.827 149.188C137.569 146.944 136.29 143.89 136.271 140.699C136.284 137.27 137.693 134.384 140.064 131.993C138.583 130.734 135.786 127.709 134.255 126.181L123.066 115.156C123.101 114.989 123.523 114.814 123.739 114.656Z" fill="var(--fill-0, white)" id="Vector_75"/>
<path d="M147.148 129.374C153.352 128.955 158.723 133.66 159.162 139.896C159.602 146.13 154.942 151.549 148.742 152.014C142.508 152.482 137.083 147.768 136.642 141.498C136.2 135.229 140.911 129.793 147.148 129.374Z" fill="var(--fill-0, white)" fill-opacity="0.5" id="Vector_76" opacity="0"/>
<path d="M147.859 134.004C148.614 134.421 153.51 139.621 154.65 140.652C152.469 142.679 150.12 145.194 147.983 147.33L147.947 147.341C147.651 147.212 141.858 141.277 141.25 140.667C143.323 138.484 145.722 136.162 147.859 134.004Z" fill="var(--fill-0, #131313)" id="Vector_77"/>
<path d="M147.847 134.564C148.254 134.723 153.24 139.886 154.094 140.664C152.098 142.452 149.889 144.87 147.935 146.792C147.002 146.233 142.764 141.604 141.816 140.626C143.617 138.95 146.204 136.384 147.847 134.564Z" fill="var(--fill-0, white)" id="Vector_78"/>
<path d="M91.306 126.902L91.5367 126.557C91.6998 126.771 91.6488 127.519 91.6876 127.908C91.7264 132.62 91.7309 137.331 91.7042 142.042C91.7042 145.388 91.7819 148.946 91.7142 152.271C97.6472 152.598 102.557 156.795 103.164 162.857C103.468 166.039 102.516 169.214 100.512 171.695C98.497 174.153 95.8101 175.674 92.6317 175.95C89.6397 176.235 86.6574 175.314 84.3387 173.392C81.9077 171.337 80.2698 168.315 79.9989 165.125C79.7461 161.943 80.7641 158.79 82.828 156.363C85.0032 153.819 88.0356 152.482 91.3293 152.248C91.2727 143.823 91.4158 135.315 91.306 126.902Z" fill="var(--fill-0, white)" id="Vector_79"/>
<path d="M91.2547 152.787C97.4762 152.598 102.68 157.499 102.9 163.752C103.12 170.005 98.2716 175.263 92.0535 175.515C85.7887 175.77 80.5134 170.854 80.2923 164.554C80.0711 158.255 84.9884 152.977 91.2547 152.787Z" fill="var(--fill-0, white)" fill-opacity="0.5" id="Vector_80" opacity="0"/>
<path d="M91.6061 158.254C92.8264 158.787 97.2418 161.191 98.3733 161.903C97.5646 162.42 96.8191 162.732 95.9504 163.122C96.7913 163.589 97.4514 163.835 98.2879 164.39C97.7044 164.766 96.697 165.253 96.0514 165.586C96.7492 166.019 97.6567 166.44 98.4232 166.892C96.4918 167.99 93.6773 169.324 91.6127 170.407C90.3469 169.694 88.989 169.016 87.6946 168.344C86.6968 167.828 85.7673 167.487 84.8164 166.861C85.6782 166.443 86.4246 166.091 87.2413 165.581C86.3794 165.179 85.7399 164.876 84.9253 164.394C85.7188 163.844 86.4989 163.543 87.3759 163.166C86.4237 162.722 85.7936 162.433 84.8991 161.861C85.3679 161.518 86.6752 160.878 87.2667 160.568C88.7222 159.814 90.1683 159.042 91.6061 158.254Z" fill="var(--fill-0, #131313)" id="Vector_81"/>
<path d="M91.5346 158.672C92.2679 158.81 96.4669 161.349 97.6506 161.857L91.6333 165.008C90.829 164.81 86.5764 162.344 85.625 161.83C87.3417 161.046 89.8905 159.625 91.5346 158.672Z" fill="var(--fill-0, white)" id="Vector_82"/>
<path d="M95.6107 165.879C96.2042 166.104 97.0795 166.564 97.6753 166.855L95.5985 167.918C94.3837 168.503 92.7485 169.361 91.6313 170.081C90.6018 169.282 87.117 167.653 85.6992 166.846L87.4344 165.931C88.6136 166.04 90.3566 167.333 91.6779 167.845C92.6708 167.468 94.4026 166.416 95.6107 165.879Z" fill="var(--fill-0, white)" id="Vector_83"/>
<path d="M91.5954 165.434C92.9433 164.762 94.2779 164.064 95.5981 163.338C96.1672 163.594 97.0203 164.087 97.5916 164.396L95.831 165.28C94.7161 165.925 92.4574 166.879 91.6708 167.478C90.6103 166.769 87.0815 165.098 85.7383 164.374C86.3993 163.99 86.9065 163.701 87.5972 163.378C88.7307 163.853 90.4683 164.826 91.5954 165.434Z" fill="var(--fill-0, white)" id="Vector_84"/>
<path d="M112.898 105.303C113.108 104.884 112.959 104.971 113.273 104.861C114.246 106.021 115.57 107.267 116.66 108.362C119.112 110.827 120.829 112.705 123.736 114.656C123.521 114.813 123.098 114.989 123.064 115.156L123.017 115.325C125.826 120.444 126.438 123.435 126.271 129.315C126.229 130.783 126.342 132.632 126.244 134.084C125.916 133.816 126.016 133.83 125.908 133.286C125.851 133.578 125.817 133.671 125.794 133.98C125.727 133.055 125.76 131.528 125.766 130.59C125.813 123.961 126.091 121.02 122.415 115.21C122.198 115.042 121.576 114.132 121.328 113.865C118.645 110.991 115.767 107.972 112.898 105.303Z" fill="var(--fill-0, white)" id="Vector_85"/>
<path d="M90.721 126.797L91.107 126.352L91.1969 126.422L91.1691 126.855C89.3453 132.238 87.0344 134.994 82.4272 138.349C81.756 138.838 80.2116 140.069 79.5321 140.426L79.3633 140.197C85.0237 135.938 88.4955 133.936 90.721 126.797Z" fill="var(--fill-0, white)" id="Vector_86"/>
<path d="M91.8047 126.565C91.9811 126.354 91.8945 126.448 92.1941 126.332C94.2387 133.644 97.8708 135.953 103.735 140.229L103.589 140.516C97.6944 136.341 94.1067 133.748 91.8047 126.565Z" fill="var(--fill-0, white)" id="Vector_87"/>
<path d="M91.3234 116.531L91.5297 115.68L91.5097 115.764L91.6462 115.896C91.654 116.52 91.5841 120.163 91.7449 120.401C91.776 122.463 91.7627 124.3 92.1931 126.331C91.8936 126.447 91.9801 126.353 91.8037 126.564C91.7483 127.032 91.7172 127.437 91.6884 127.907C91.6495 127.518 91.7006 126.769 91.5375 126.555L91.3067 126.901L91.1669 126.854L91.1947 126.421L91.1048 126.351L90.7188 126.796C91.5464 123.692 91.3267 119.797 91.3234 116.531Z" fill="var(--fill-0, white)" id="Vector_88"/>
<path d="M125.798 133.98C125.821 133.671 125.854 133.577 125.912 133.285C126.019 133.829 125.92 133.816 126.248 134.084C126.734 134.376 127.158 134.688 127.294 135.272C127.175 136.377 125.463 136.524 124.777 135.74C124.54 134.907 125.185 134.433 125.798 133.98Z" fill="var(--fill-0, #131313)" id="Vector_89"/>
<path d="M144.387 115.778C144.5 115.713 144.616 115.685 144.651 115.563C144.996 114.341 146.597 114.244 146.948 115.391C147.316 116.588 145.382 117.799 144.599 116.036L144.387 115.778Z" fill="var(--fill-0, #131313)" id="Vector_90"/>
<path d="M38.006 115.999C37.0388 117.593 35.7733 117.14 35.83 115.358C35.837 115.137 36.0665 114.722 36.2785 114.635C37.2586 114.231 37.7011 114.92 38.134 115.682C38.2597 115.722 38.3854 115.764 38.511 115.804C38.4043 115.842 38.0838 115.948 38.006 115.999Z" fill="var(--fill-0, #131313)" id="Vector_91"/>
<path d="M145.827 58.3643C147.971 59.4859 146.857 61.3151 145.073 60.4388C144.878 60.3429 144.667 59.8358 144.422 59.654L144.582 59.3029C145.02 58.791 145.249 58.707 145.827 58.3643Z" fill="var(--fill-0, #131313)" id="Vector_92"/>
<path d="M79.5286 140.426C79.5891 141.225 79.5742 141.533 78.9863 142.146C78.3233 142.374 77.7827 141.989 77.4963 141.374C76.7855 139.847 78.1975 139.501 79.3598 140.198L79.5286 140.426Z" fill="var(--fill-0, #131313)" id="Vector_93"/>
<path d="M34.9063 99.6226C35.8863 102.203 32.71 102.369 32.9245 100.017C32.9847 99.3571 33.9339 99.1976 34.5412 99.4162L34.9063 99.6226Z" fill="var(--fill-0, #131313)" id="Vector_94"/>
<path d="M78.6132 35.1365C77.6505 35.9245 76.6622 35.2281 76.7044 34.3235C76.7733 32.8484 79.29 32.5966 78.9199 34.9559L78.6132 35.1365Z" fill="var(--fill-0, #131313)" id="Vector_95"/>
<path d="M103.733 140.229C106.062 138.657 106.81 142.682 103.882 141.968C103.38 141.847 103.426 140.935 103.587 140.515L103.733 140.229Z" fill="var(--fill-0, #131313)" id="Vector_96"/>
<path d="M56.5295 133.932C56.7165 134.083 56.6525 134.092 56.8218 134.097C59.1937 134.731 56.7256 137.258 55.7766 136.096C55.0255 135.177 55.8165 134.537 56.5295 133.932Z" fill="var(--fill-0, #131313)" id="Vector_97"/>
<path d="M125.639 40.6752C125.099 40.4982 124.771 39.9494 124.869 39.3874C124.966 38.8255 125.461 38.4213 126.028 38.439C126.595 38.4568 127.063 38.891 127.126 39.4579C127.188 40.0249 126.828 40.5521 126.278 40.6951C126.068 40.75 125.845 40.7431 125.639 40.6752Z" fill="var(--fill-0, #131313)" id="Vector_98"/>
<path d="M148.066 99.3129C151.397 99.2683 149.172 103.031 147.556 100.958C147.316 100.651 147.677 99.9564 147.865 99.6765L148.066 99.3129Z" fill="var(--fill-0, #131313)" id="Vector_99"/>
<path d="M56.4921 40.7313C53.7486 39.3245 57.3159 36.8751 57.7888 39.7781C57.8632 40.2352 57.2634 40.5938 56.8661 40.6864L56.4921 40.7313Z" fill="var(--fill-0, #131313)" id="Vector_100"/>
<path d="M34.7441 75.381L34.5801 75.3087C34.0685 75.3955 33.7514 75.4885 33.2931 75.1613C32.7811 74.8868 32.6393 74.0287 33.1574 73.6723C34.861 72.5003 35.3039 73.6682 34.9113 75.1842L34.7441 75.381Z" fill="var(--fill-0, #131313)" id="Vector_101"/>
<path d="M104.154 34.8772C104.098 34.55 104.066 33.8405 104.364 33.6406C106.853 31.9676 107.087 36.6071 104.358 35.1695L104.154 34.8772Z" fill="var(--fill-0, #131313)" id="Vector_102"/>
<path d="M38.0883 59.7497C37.616 60.371 37.2445 60.9079 36.3491 60.6247C35.0991 59.6296 36.3697 57.4081 37.6345 58.8675C37.847 59.1128 37.9482 59.2061 38.2058 59.3916L38.0883 59.7497Z" fill="var(--fill-0, #131313)" id="Vector_103"/>
<path d="M147.73 75.1116C147.626 74.8075 147.447 74.1738 147.641 73.8962C149.501 71.2393 150.925 76.2904 148.081 75.3581L147.73 75.1116Z" fill="var(--fill-0, #131313)" id="Vector_104"/>
</g>
</svg>