<?xml version="1.0" encoding="utf-8"?>
<svg xmlns="http://www.w3.org/2000/svg" fill="none" height="100%" overflow="visible" preserveAspectRatio="none" style="display: block;" viewBox="0 0 4.43174 2.55557" width="100%">
<path d="M0.651822 0.37486C0.462078 0.437794 0.296984 0.558895 0.179975 0.720982C0.0629659 0.88307 0 1.0779 0 1.27781C0 1.47772 0.0629659 1.67255 0.179975 1.83464C0.296984 1.99672 0.462078 2.11783 0.651822 2.18076C1.13637 2.42716 1.67227 2.55557 2.21587 2.55557C2.75946 2.55557 3.29537 2.42716 3.77992 2.18076C3.96966 2.11783 4.13475 1.99672 4.25176 1.83464C4.36877 1.67255 4.43174 1.47772 4.43174 1.27781C4.43174 1.0779 4.36877 0.88307 4.25176 0.720982C4.13475 0.558895 3.96966 0.437794 3.77992 0.37486C3.29537 0.128464 2.75946 0 2.21587 0C1.67227 0 1.13637 0.128464 0.651822 0.37486Z" fill="var(--fill-0, #37474F)" id="Vector"/>
</svg>