<?xml version="1.0" encoding="utf-8"?>
<svg xmlns="http://www.w3.org/2000/svg" fill="none" height="100%" overflow="visible" preserveAspectRatio="none" style="display: block;" viewBox="0 0 24 24" width="100%">
<g id="mingcute:device-line">
<g id="Group">
<g id="Vector">
</g>
<path d="M17 4C17.5046 3.99984 17.9906 4.19041 18.3605 4.5335C18.7305 4.87659 18.9572 5.34684 18.995 5.85L19 6V8H20C20.5046 7.99984 20.9906 8.19041 21.3605 8.5335C21.7305 8.87659 21.9572 9.34685 21.995 9.85L22 10V19C22.0002 19.5046 21.8096 19.9906 21.4665 20.3605C21.1234 20.7305 20.6532 20.9572 20.15 20.995L20 21H16C15.6758 20.9999 15.3566 20.9211 15.0697 20.7702C14.7827 20.6194 14.5368 20.401 14.353 20.134L14.268 20H4C3.49542 20.0002 3.00943 19.8096 2.63945 19.4665C2.26947 19.1234 2.04284 18.6532 2.005 18.15L2 18V6C1.99984 5.49542 2.19041 5.00943 2.5335 4.63945C2.87659 4.26947 3.34684 4.04284 3.85 4.005L4 4H17ZM20 10H16V19H20V10ZM17 6H4V18H14V10C14 9.46957 14.2107 8.96086 14.5858 8.58579C14.9609 8.21071 15.4696 8 16 8H17V6Z" fill="var(--fill-0, white)" fill-opacity="0.58" id="Vector_2"/>
</g>
</g>
</svg>