<?xml version="1.0" encoding="utf-8"?>
<svg xmlns="http://www.w3.org/2000/svg" fill="none" height="100%" overflow="visible" preserveAspectRatio="none" style="display: block;" viewBox="0 0 160.307 98.3382" width="100%">
<g id="Mobile">
<path d="M54.4113 0.930654L3.89425 30.0993C2.7192 30.7176 1.73539 31.6452 1.04907 32.7819C0.362757 33.9186 2.49254e-05 35.2212 2.49254e-05 36.549C2.49254e-05 37.8768 0.362757 39.1794 1.04907 40.3161C1.73539 41.4527 2.7192 42.3803 3.89425 42.9986L98.124 97.4178C99.3302 98.0221 100.661 98.3368 102.01 98.3368C103.359 98.3368 104.69 98.0221 105.896 97.4178L156.413 68.2491C157.588 67.6308 158.572 66.7032 159.258 65.5665C159.944 64.4298 160.307 63.1272 160.307 61.7994C160.307 60.4716 159.944 59.1691 159.258 58.0324C158.572 56.8957 157.588 55.9681 156.413 55.3498L62.1832 0.930654C60.9792 0.318863 59.6477 0 58.2972 0C56.9467 0 55.6153 0.318863 54.4113 0.930654Z" fill="var(--fill-0, #FF7032)" id="Vector"/>
<path d="M54.4113 0.930654L3.89425 30.0993C2.7192 30.7176 1.73539 31.6452 1.04907 32.7819C0.362757 33.9186 2.49254e-05 35.2212 2.49254e-05 36.549C2.49254e-05 37.8768 0.362757 39.1794 1.04907 40.3161C1.73539 41.4527 2.7192 42.3803 3.89425 42.9986L98.124 97.4178C99.3302 98.0221 100.661 98.3368 102.01 98.3368C103.359 98.3368 104.69 98.0221 105.896 97.4178L156.413 68.2491C157.588 67.6308 158.572 66.7032 159.258 65.5665C159.944 64.4298 160.307 63.1272 160.307 61.7994C160.307 60.4716 159.944 59.1691 159.258 58.0324C158.572 56.8957 157.588 55.9681 156.413 55.3498L62.1832 0.930654C60.9792 0.318863 59.6477 0 58.2972 0C56.9467 0 55.6153 0.318863 54.4113 0.930654Z" fill="var(--fill-0, #FF7032)" id="Vector_2"/>
<path d="M54.4113 0.930654L3.89425 30.0993C2.7192 30.7176 1.73539 31.6452 1.04907 32.7819C0.362757 33.9186 2.49254e-05 35.2212 2.49254e-05 36.549C2.49254e-05 37.8768 0.362757 39.1794 1.04907 40.3161C1.73539 41.4527 2.7192 42.3803 3.89425 42.9986L98.124 97.4178C99.3302 98.0221 100.661 98.3368 102.01 98.3368C103.359 98.3368 104.69 98.0221 105.896 97.4178L156.413 68.2491C157.588 67.6308 158.572 66.7032 159.258 65.5665C159.944 64.4298 160.307 63.1272 160.307 61.7994C160.307 60.4716 159.944 59.1691 159.258 58.0324C158.572 56.8957 157.588 55.9681 156.413 55.3498L62.1832 0.930654C60.9792 0.318863 59.6477 0 58.2972 0C56.9467 0 55.6153 0.318863 54.4113 0.930654Z" fill="var(--fill-0, #FF7032)" id="Vector_3"/>
<path d="M54.4113 0.930654L3.89425 30.0993C2.7192 30.7176 1.73539 31.6452 1.04907 32.7819C0.362757 33.9186 2.49254e-05 35.2212 2.49254e-05 36.549C2.49254e-05 37.8768 0.362757 39.1794 1.04907 40.3161C1.73539 41.4527 2.7192 42.3803 3.89425 42.9986L98.124 97.4178C99.3302 98.0221 100.661 98.3368 102.01 98.3368C103.359 98.3368 104.69 98.0221 105.896 97.4178L156.413 68.2491C157.588 67.6308 158.572 66.7032 159.258 65.5665C159.944 64.4298 160.307 63.1272 160.307 61.7994C160.307 60.4716 159.944 59.1691 159.258 58.0324C158.572 56.8957 157.588 55.9681 156.413 55.3498L62.1832 0.930654C60.9792 0.318863 59.6477 0 58.2972 0C56.9467 0 55.6153 0.318863 54.4113 0.930654Z" fill="var(--fill-0, black)" id="Vector_4" opacity="0.1"/>
<path d="M102.01 23.9076L62.1832 0.930654C60.9792 0.318863 59.6477 0 58.2972 0C56.9467 0 55.6153 0.318863 54.4113 0.930654L3.89425 30.0993C2.7192 30.7176 1.73539 31.6452 1.04907 32.7819C0.362757 33.9186 2.49254e-05 35.2212 2.49254e-05 36.549C2.49254e-05 37.8768 0.362757 39.1794 1.04907 40.3161C1.73539 41.4527 2.7192 42.3803 3.89425 42.9986L98.124 97.4178C99.3217 98.0451 100.658 98.3612 102.01 98.3368V23.9076Z" fill="var(--fill-0, #FF7032)" id="Vector_5"/>
<path d="M98.14 88.9687L3.8942 34.5496C1.74969 33.3241 1.74969 31.3248 3.8942 30.0671L54.4113 0.930654C55.6153 0.318863 56.9467 0 58.2972 0C59.6477 0 60.9791 0.318863 62.1831 0.930654L156.413 55.3498C158.557 56.5752 158.557 58.5746 156.413 59.8323L105.896 88.9687C104.695 89.5804 103.366 89.8992 102.018 89.8992C100.67 89.8992 99.3412 89.5804 98.14 88.9687Z" fill="var(--fill-0, #FF7032)" id="Vector_6"/>
<path d="M98.14 88.9687L3.8942 34.5496C1.74969 33.3241 1.74969 31.3248 3.8942 30.0671L54.4113 0.930654C55.6153 0.318863 56.9467 0 58.2972 0C59.6477 0 60.9791 0.318863 62.1831 0.930654L156.413 55.3498C158.557 56.5752 158.557 58.5746 156.413 59.8323L105.896 88.9687C104.695 89.5804 103.366 89.8992 102.018 89.8992C100.67 89.8992 99.3412 89.5804 98.14 88.9687Z" fill="var(--fill-0, #FF7032)" id="Vector_7"/>
<path d="M98.14 88.9687L3.8942 34.5496C1.74969 33.3241 1.74969 31.3248 3.8942 30.0671L54.4113 0.930654C55.6153 0.318863 56.9467 0 58.2972 0C59.6477 0 60.9791 0.318863 62.1831 0.930654L156.413 55.3498C158.557 56.5752 158.557 58.5746 156.413 59.8323L105.896 88.9687C104.695 89.5804 103.366 89.8992 102.018 89.8992C100.67 89.8992 99.3412 89.5804 98.14 88.9687Z" fill="var(--fill-0, #FF7032)" id="Vector_8"/>
<path d="M98.14 88.9687L3.8942 34.5496C1.74969 33.3241 1.74969 31.3248 3.8942 30.0671L54.4113 0.930654C55.6153 0.318863 56.9467 0 58.2972 0C59.6477 0 60.9791 0.318863 62.1831 0.930654L156.413 55.3498C158.557 56.5752 158.557 58.5746 156.413 59.8323L105.896 88.9687C104.695 89.5804 103.366 89.8992 102.018 89.8992C100.67 89.8992 99.3412 89.5804 98.14 88.9687Z" fill="var(--fill-0, white)" id="Vector_9" opacity="0.2"/>
<path d="M16.1319 35.63L64.0369 7.97703C64.5158 7.7309 65.0464 7.60251 65.5848 7.60251C66.1232 7.60251 66.6539 7.7309 67.1327 7.97703L144.174 52.5281C144.358 52.5945 144.517 52.7161 144.63 52.8762C144.742 53.0364 144.803 53.2273 144.803 53.423C144.803 53.6187 144.742 53.8097 144.63 53.9698C144.517 54.13 144.358 54.2515 144.174 54.3179L96.2853 81.9709C95.8036 82.2172 95.2703 82.3456 94.7293 82.3456C94.1883 82.3456 93.655 82.2172 93.1733 81.9709L16.1319 37.5004C15.9137 37.4597 15.7165 37.3439 15.5746 37.1731C15.4327 37.0023 15.355 36.7873 15.355 36.5652C15.355 36.3432 15.4327 36.1281 15.5746 35.9573C15.7165 35.7865 15.9137 35.6707 16.1319 35.63Z" fill="var(--fill-0, white)" id="Vector_10"/>
<path d="M128.034 72.5381C127.261 72.9356 126.404 73.1429 125.535 73.1429C124.665 73.1429 123.809 72.9356 123.035 72.5381C121.649 71.748 121.649 70.4581 123.035 69.6519C123.811 69.2619 124.667 69.0588 125.535 69.0588C126.403 69.0588 127.258 69.2619 128.034 69.6519C129.421 70.4581 129.421 71.748 128.034 72.5381Z" fill="var(--fill-0, #FF7032)" id="Vector_11"/>
<path d="M128.034 72.5381C127.261 72.9356 126.404 73.1429 125.535 73.1429C124.665 73.1429 123.809 72.9356 123.035 72.5381C121.649 71.748 121.649 70.4581 123.035 69.6519C123.811 69.2619 124.667 69.0588 125.535 69.0588C126.403 69.0588 127.258 69.2619 128.034 69.6519C129.421 70.4581 129.421 71.748 128.034 72.5381Z" fill="var(--fill-0, black)" id="Vector_12" opacity="0.1"/>
<path d="M33.0948 17.732C32.9012 17.835 32.6852 17.8889 32.4659 17.8889C32.2466 17.8889 32.0307 17.835 31.8371 17.732C31.763 17.7045 31.6991 17.655 31.654 17.5901C31.6089 17.5253 31.5848 17.4482 31.5848 17.3692C31.5848 17.2902 31.6089 17.2131 31.654 17.1482C31.6991 17.0834 31.763 17.0339 31.8371 17.0064C32.0307 16.9033 32.2466 16.8495 32.4659 16.8495C32.6852 16.8495 32.9012 16.9033 33.0948 17.0064C33.1688 17.0339 33.2327 17.0834 33.2778 17.1482C33.3229 17.2131 33.3471 17.2902 33.3471 17.3692C33.3471 17.4482 33.3229 17.5253 33.2778 17.5901C33.2327 17.655 33.1688 17.7045 33.0948 17.732Z" fill="var(--fill-0, #FF7032)" id="Vector_13"/>
<path d="M31.0794 23.5044C30.6841 23.7029 30.2479 23.8063 29.8055 23.8063C29.3632 23.8063 28.927 23.7029 28.5317 23.5044C28.3781 23.4527 28.2445 23.3541 28.1498 23.2225C28.0552 23.0909 28.0043 22.9329 28.0043 22.7707C28.0043 22.6086 28.0552 22.4506 28.1498 22.3189C28.2445 22.1873 28.3781 22.0887 28.5317 22.0371C28.927 21.8385 29.3632 21.7351 29.8055 21.7351C30.2479 21.7351 30.6841 21.8385 31.0794 22.0371C31.233 22.0887 31.3666 22.1873 31.4613 22.3189C31.5559 22.4506 31.6068 22.6086 31.6068 22.7707C31.6068 22.9329 31.5559 23.0909 31.4613 23.2225C31.3666 23.3541 31.233 23.4527 31.0794 23.5044Z" fill="var(--fill-0, #FF7032)" id="Vector_14"/>
<path d="M32.869 20.9409C32.4014 20.6668 32.4175 20.2153 32.869 19.925L41.2213 15.0878C41.4927 14.9565 41.7904 14.8883 42.092 14.8883C42.3936 14.8883 42.6912 14.9565 42.9627 15.0878C43.4303 15.3619 43.398 15.8134 42.9627 16.1036L34.6265 20.9409C34.354 21.0784 34.053 21.15 33.7477 21.15C33.4425 21.15 33.1415 21.0784 32.869 20.9409Z" fill="var(--fill-0, #FF7032)" id="Vector_15"/>
<path d="M33.0956 17.055C33.1697 17.0824 33.2335 17.132 33.2786 17.1968C33.3238 17.2617 33.3479 17.3388 33.3479 17.4178C33.3479 17.4968 33.3238 17.5738 33.2786 17.6387C33.2335 17.7036 33.1697 17.7531 33.0956 17.7806C32.902 17.8836 32.6861 17.9375 32.4668 17.9375C32.2475 17.9375 32.0315 17.8836 31.8379 17.7806" fill="var(--fill-0, #FF7032)" id="Vector_16"/>
<path d="M31.0794 23.5044C30.6841 23.7029 30.2479 23.8063 29.8055 23.8063C29.3632 23.8063 28.927 23.7029 28.5317 23.5044C28.3781 23.4527 28.2445 23.3541 28.1498 23.2225C28.0552 23.0909 28.0043 22.9329 28.0043 22.7707C28.0043 22.6086 28.0552 22.4506 28.1498 22.3189C28.2445 22.1873 28.3781 22.0887 28.5317 22.0371C28.927 21.8385 29.3632 21.7351 29.8055 21.7351C30.2479 21.7351 30.6841 21.8385 31.0794 22.0371C31.233 22.0887 31.3666 22.1873 31.4613 22.3189C31.5559 22.4506 31.6068 22.6086 31.6068 22.7707C31.6068 22.9329 31.5559 23.0909 31.4613 23.2225C31.3666 23.3541 31.233 23.4527 31.0794 23.5044Z" fill="var(--fill-0, #FF7032)" id="Vector_17"/>
<path d="M32.869 20.9409C32.4014 20.6668 32.4175 20.2153 32.869 19.925L41.2213 15.0878C41.4927 14.9565 41.7904 14.8883 42.092 14.8883C42.3936 14.8883 42.6912 14.9565 42.9627 15.0878C43.4303 15.3619 43.398 15.8134 42.9627 16.1036L34.6265 20.9409C34.354 21.0784 34.053 21.15 33.7477 21.15C33.4425 21.15 33.1415 21.0784 32.869 20.9409Z" fill="var(--fill-0, #FF7032)" id="Vector_18"/>
<path d="M33.0956 17.055C33.1697 17.0824 33.2335 17.132 33.2786 17.1968C33.3238 17.2617 33.3479 17.3388 33.3479 17.4178C33.3479 17.4968 33.3238 17.5738 33.2786 17.6387C33.2335 17.7036 33.1697 17.7531 33.0956 17.7806C32.902 17.8836 32.6861 17.9375 32.4668 17.9375C32.2475 17.9375 32.0315 17.8836 31.8379 17.7806" fill="var(--fill-0, #FF7032)" id="Vector_19"/>
<path d="M31.0794 23.5044C30.6841 23.7029 30.2479 23.8063 29.8055 23.8063C29.3632 23.8063 28.927 23.7029 28.5317 23.5044C28.3781 23.4527 28.2445 23.3541 28.1498 23.2225C28.0552 23.0909 28.0043 22.9329 28.0043 22.7707C28.0043 22.6086 28.0552 22.4506 28.1498 22.3189C28.2445 22.1873 28.3781 22.0887 28.5317 22.0371C28.927 21.8385 29.3632 21.7351 29.8055 21.7351C30.2479 21.7351 30.6841 21.8385 31.0794 22.0371C31.233 22.0887 31.3666 22.1873 31.4613 22.3189C31.5559 22.4506 31.6068 22.6086 31.6068 22.7707C31.6068 22.9329 31.5559 23.0909 31.4613 23.2225C31.3666 23.3541 31.233 23.4527 31.0794 23.5044Z" fill="var(--fill-0, #FF7032)" id="Vector_20"/>
<path d="M32.869 20.9409C32.4014 20.6668 32.4175 20.2153 32.869 19.925L41.2213 15.0878C41.4927 14.9565 41.7904 14.8883 42.092 14.8883C42.3936 14.8883 42.6912 14.9565 42.9627 15.0878C43.4303 15.3619 43.398 15.8134 42.9627 16.1036L34.6265 20.9409C34.354 21.0784 34.053 21.15 33.7477 21.15C33.4425 21.15 33.1415 21.0784 32.869 20.9409Z" fill="var(--fill-0, #FF7032)" id="Vector_21"/>
<path d="M33.0948 17.732C32.9012 17.835 32.6852 17.8889 32.4659 17.8889C32.2466 17.8889 32.0307 17.835 31.8371 17.732C31.763 17.7045 31.6991 17.655 31.654 17.5901C31.6089 17.5253 31.5848 17.4482 31.5848 17.3692C31.5848 17.2902 31.6089 17.2131 31.654 17.1482C31.6991 17.0834 31.763 17.0339 31.8371 17.0064C32.0307 16.9033 32.2466 16.8495 32.4659 16.8495C32.6852 16.8495 32.9012 16.9033 33.0948 17.0064C33.1688 17.0339 33.2327 17.0834 33.2778 17.1482C33.3229 17.2131 33.3471 17.2902 33.3471 17.3692C33.3471 17.4482 33.3229 17.5253 33.2778 17.5901C33.2327 17.655 33.1688 17.7045 33.0948 17.732Z" fill="var(--fill-0, black)" id="Vector_22" opacity="0.1"/>
<path d="M33.0956 17.055C33.1697 17.0824 33.2335 17.132 33.2786 17.1968C33.3238 17.2617 33.3479 17.3388 33.3479 17.4178C33.3479 17.4968 33.3238 17.5738 33.2786 17.6387C33.2335 17.7036 33.1697 17.7531 33.0956 17.7806C32.902 17.8836 32.6861 17.9375 32.4668 17.9375C32.2475 17.9375 32.0315 17.8836 31.8379 17.7806" fill="var(--fill-0, black)" id="Vector_23" opacity="0.1"/>
<path d="M31.0794 23.5044C30.6841 23.7029 30.2479 23.8063 29.8055 23.8063C29.3632 23.8063 28.927 23.7029 28.5317 23.5044C28.3781 23.4527 28.2445 23.3541 28.1498 23.2225C28.0552 23.0909 28.0043 22.9329 28.0043 22.7707C28.0043 22.6086 28.0552 22.4506 28.1498 22.3189C28.2445 22.1873 28.3781 22.0887 28.5317 22.0371C28.927 21.8385 29.3632 21.7351 29.8055 21.7351C30.2479 21.7351 30.6841 21.8385 31.0794 22.0371C31.233 22.0887 31.3666 22.1873 31.4613 22.3189C31.5559 22.4506 31.6068 22.6086 31.6068 22.7707C31.6068 22.9329 31.5559 23.0909 31.4613 23.2225C31.3666 23.3541 31.233 23.4527 31.0794 23.5044Z" fill="var(--fill-0, black)" id="Vector_24" opacity="0.1"/>
<path d="M32.869 20.9409C32.4014 20.6668 32.4175 20.2153 32.869 19.925L41.2213 15.0878C41.4927 14.9565 41.7904 14.8883 42.092 14.8883C42.3936 14.8883 42.6912 14.9565 42.9627 15.0878C43.4303 15.3619 43.398 15.8134 42.9627 16.1036L34.6265 20.9409C34.354 21.0784 34.053 21.15 33.7477 21.15C33.4425 21.15 33.1415 21.0784 32.869 20.9409Z" fill="var(--fill-0, black)" id="Vector_25" opacity="0.1"/>
</g>
</svg>