<?xml version="1.0" encoding="utf-8"?>
<svg xmlns="http://www.w3.org/2000/svg" fill="none" height="100%" overflow="visible" preserveAspectRatio="none" style="display: block;" viewBox="0 0 81.8001 81.8001" width="100%">
<g id="Frame 322" opacity="0.7">
<rect fill="var(--fill-0, white)" height="81.8001" rx="40.9001" width="81.8001"/>
<path d="M23.1941 52.5053C25.54 52.4416 27.3315 52.6591 28.8632 53.3019C29.2983 53.4846 29.9929 53.4897 30.064 54.0325C29.8247 54.282 29.7874 54.6549 29.5974 54.9619C29.2316 55.5506 28.6143 56.3408 28.0633 56.7546C27.461 57.2072 26.8406 57.6908 26.1953 58.0825C25.0474 58.779 23.7659 59.1772 22.6608 59.8752C22.0093 60.2869 21.3623 60.8052 20.7268 61.2694C20.4123 61.4991 20.2014 61.8561 19.793 62V61.934C20.0076 61.6617 20.063 61.2881 20.2599 61.0039L21.1271 60.1406C21.9748 59.0203 23.0512 58.0362 24.1953 57.2191C25.1076 56.5671 27.1493 55.6864 27.5297 54.6298L27.5964 54.5634C26.9497 54.4906 26.1925 54.2578 25.5954 54.0982C24.5925 53.8307 23.6962 53.8998 22.6608 53.6337L21.2604 53.2352V52.9698C21.7837 52.4351 22.157 51.7273 22.7275 51.2434C24.2212 49.9775 25.851 48.7126 27.5294 47.6577C28.4605 47.073 29.6107 46.6929 30.5976 46.1971C30.9295 46.03 31.5126 45.9432 31.7317 45.6655C32.2503 45.0081 32.5323 44.1743 32.9318 43.4083C33.769 41.8031 34.591 40.0502 35.3328 38.3613C35.8387 37.2097 36.1692 36.0745 36.8002 35.0413C39.8287 30.0842 43.0883 27.0926 48.138 24.1517C49.2127 23.5262 50.5065 23.2795 51.8738 22.9562C52.607 22.9123 53.3409 22.8677 54.0744 22.8231C54.5225 22.6373 54.9881 22.0918 55.4082 21.8271C57.0811 20.7749 61.3723 18.4863 62.611 21.4953C63.3934 23.3945 61.4417 25.2471 60.744 26.2098C60.2538 26.8843 59.6266 27.6415 59.2766 28.4007C59.0462 28.8999 59.0065 29.4005 58.8093 29.9283C58.3249 31.2289 57.9028 32.6439 57.2756 33.8455C56.9587 34.454 56.6094 35.0944 56.2084 35.6382C55.963 35.972 55.5415 36.1191 55.4752 36.6343C55.8867 37.208 55.9103 38.0989 56.1417 38.8258C57.1843 42.0978 56.7909 46.1651 55.2745 48.5867C54.8097 49.3306 53.7135 50.9249 52.2067 50.313C50.8887 49.7788 51.183 48.1222 50.8059 46.6609C50.7208 46.3298 50.7731 46.0861 50.606 45.8643V45.9306L49.4052 48.3209C48.5164 49.7457 46.94 51.2346 45.6034 52.2391C44.9106 52.7601 44.365 53.6606 43.4691 53.9655V53.8988H43.5358C43.7094 53.6296 43.9812 53.518 44.2027 53.3016C44.7246 52.7921 45.305 52.1588 45.7364 51.5752C46.9519 49.9326 48.0259 48.1348 49.0045 46.2634C49.4722 45.3695 49.8786 44.384 50.2724 43.4743C50.4241 43.1238 50.4221 42.5933 50.7386 42.4119C51.1703 43.0782 51.8058 43.6173 52.1394 44.404C52.673 45.6618 52.7417 47.1959 52.9396 48.7864C53.0565 48.828 53.0045 48.7994 53.0732 48.8525C54.0023 48.6296 54.3284 47.6777 54.674 46.8607C55.547 44.795 55.7093 41.4696 54.9409 39.0919C54.742 38.4763 53.8437 36.5393 54.2074 35.9707C54.381 35.4037 54.9539 35.0757 55.2742 34.6425C55.6711 34.1069 56.0669 33.4018 56.342 32.7831C57.0565 31.1731 57.3901 29.3651 58.1424 27.7371C58.5023 26.9588 59.1104 26.171 59.6098 25.4795C60.1626 24.7128 60.7819 24.1483 61.2106 23.2216C61.363 22.8922 61.5698 22.3648 61.3442 22.0262C61.2725 21.7978 61.1706 21.7025 60.944 21.628C60.557 21.3309 59.4796 21.7267 59.0769 21.8931C58.0074 22.3355 57.1146 22.7568 56.2084 23.3544C55.7739 23.6416 55.3337 24.1966 54.808 24.3504H54.2077C53.2687 24.5651 52.217 24.4168 51.3395 24.6822C49.789 25.1511 48.3995 25.8811 47.1379 26.6743C43.2938 29.0912 40.1504 32.5309 38.0003 36.6346C37.6544 37.2955 37.5047 37.9257 37.2001 38.6267C36.5856 40.04 35.8113 41.4941 35.1998 42.8764C34.5893 44.2553 33.9946 45.6468 33.1318 46.7943C32.6782 47.3973 30.9267 47.721 30.1303 48.0562C29.5724 48.2906 28.6581 48.5356 28.1293 48.8525C27.1199 49.4589 26.1416 50.1807 25.1944 50.8449C24.7217 51.1767 23.2665 51.9053 23.1941 52.5053ZM53.0073 27.2069C53.4964 27.1977 53.8423 27.26 54.2081 27.3393V27.4056H54.1414C53.908 27.8827 53.4961 28.1904 53.2079 28.6011C52.9857 29.0663 52.7632 29.5308 52.5407 29.9953L52.4744 29.9297C52.0611 29.6394 51.8721 29.1762 51.8745 28.4684C52.0399 28.2952 52.0642 28.0781 52.2077 27.8712C52.3978 27.5952 52.7666 27.4383 53.0073 27.2069Z" fill="var(--fill-0, #00618A)" id="Vector"/>
</g>
</svg>