<?xml version="1.0" encoding="utf-8"?>
<svg xmlns="http://www.w3.org/2000/svg" fill="none" height="100%" overflow="visible" preserveAspectRatio="none" style="display: block;" viewBox="0 0 81.8001 81.8001" width="100%">
<g id="Frame 310" opacity="0.7">
<rect fill="var(--fill-0, white)" height="81.8001" rx="40.9001" width="81.8001"/>
<g clip-path="url(#clip0_0_7619)" id="Langchain--Streamline-Simple-Icons 1">
<path d="M53.8205 26.5609C61.5271 26.5609 67.7969 32.8142 67.7969 40.5C67.7969 48.1858 61.5269 54.4391 53.8205 54.4391H26.7733C19.0666 54.4391 12.7969 48.1858 12.7969 40.5C12.7969 32.8142 19.0669 26.5609 26.7733 26.5609H53.8205ZM54.0987 30.9919C52.9689 31.0203 51.7612 31.5639 51.1814 32.4191C50.3396 33.4715 50.0864 34.8639 49.1317 35.841C47.8475 37.2431 46.384 38.4776 45.199 39.9706C44.0779 41.3351 43.2772 42.9354 42.5782 44.5482C42.2931 45.0833 42.2902 45.7404 41.8678 46.1975C41.6597 46.4735 40.6427 47.2249 40.8634 47.4912C40.7362 47.7671 39.7858 48.1466 40.1156 48.414C40.5611 48.5057 41.0618 48.5231 41.4026 48.1679C41.5284 48.4567 41.822 48.3045 42.0486 48.2669C42.0683 48.323 42.0874 48.3792 42.1059 48.4356C42.8594 48.4858 43.4245 47.7192 43.7834 47.1408C44.4964 46.7558 45.3055 46.5216 46.0338 46.1187C46.0755 46.7821 45.9302 47.6049 46.5632 48.0329C46.5953 49.3082 44.63 48.1833 44.4498 49.1339C44.5896 49.1492 44.7445 49.1121 44.8564 49.2193C45.3695 49.7171 45.9575 48.8424 46.5488 49.2033C47.3426 49.602 47.4214 49.9277 48.4041 50.01C48.4584 49.9277 48.4369 49.8743 48.3906 49.8241C48.114 49.5035 48.0938 49.1261 47.6215 48.9892C48.1078 48.9127 48.515 49.1801 48.9245 49.3919C49.4569 49.6096 49.4525 48.9012 50.2716 49.4295C50.3623 49.3557 50.3192 49.2885 50.2675 49.2315C50.0594 48.9778 49.7857 48.9404 49.4768 48.9546C50.9962 48.1099 51.7114 49.9875 52.4131 49.0536C52.624 49.1093 52.703 49.2984 52.836 49.4322C52.9505 49.3066 52.8641 49.1545 52.8586 49.0067C52.9957 48.9425 53.1694 48.9127 53.1288 48.6936C53.3972 48.6031 53.5844 48.7612 53.7842 48.9118C53.9646 48.7725 53.6623 48.5699 53.6064 48.4248C53.4455 48.1461 53.0793 48.3675 52.8935 48.1668C52.365 47.867 51.6285 48.3533 51.0246 48.271C50.5594 48.3295 49.9833 47.8528 50.2166 47.3773C50.7141 46.7432 50.6268 45.9138 50.638 45.1555C50.6994 44.7135 51.7632 44.1513 52.0708 43.6746C52.451 43.2454 52.7468 42.7472 53.0431 42.2579C54.1124 40.1936 53.776 37.5408 55.1233 35.6243C55.7329 35.9602 56.5269 35.8016 57.0524 35.3515C57.3361 35.6094 57.3485 35.9469 57.3709 36.3051C58.0516 35.6263 57.9652 34.3437 57.4214 33.5883C57.1993 33.29 56.9339 33.0445 56.6376 32.8284C56.5707 32.7796 56.548 32.7324 56.5494 32.6572C56.2803 31.4502 55.2285 30.9635 54.0987 30.9919ZM25.6657 32.046C24.3881 32.046 23.1894 32.5408 22.2878 33.4398C21.3863 34.3389 20.8899 35.5356 20.8899 36.8095C20.8899 38.0837 21.3865 39.2799 22.2878 40.1778L24.3549 42.2405C24.9052 42.7899 25.5816 43.1964 26.325 43.4244L26.3626 43.4352L26.3759 43.4727C26.6138 44.1024 26.9843 44.6735 27.4622 45.1475L29.5288 47.2089C30.4303 48.1081 31.6302 48.6029 32.9079 48.6029C34.1855 48.6029 35.3842 48.1079 36.2858 47.2089C38.1489 45.351 38.1489 42.329 36.2858 40.4709L34.2189 38.4095C33.6705 37.8608 32.9951 37.4559 32.2527 37.2309L32.2137 37.2188L32.2004 37.1826C31.9612 36.551 31.59 35.9777 31.1114 35.5012L29.0448 33.4398C28.1432 32.5406 26.9431 32.046 25.6657 32.046ZM25.6657 34.1005C26.0226 34.0994 26.3762 34.1689 26.7062 34.305C27.0361 34.4412 27.3358 34.6413 27.588 34.8939L29.6546 36.9553C29.9306 37.2311 30.1437 37.5635 30.2793 37.9294C30.4149 38.2954 30.4697 38.6864 30.44 39.0755L30.4278 39.2066C30.3538 39.8143 30.0864 40.3625 29.6546 40.7917C29.3567 41.0887 29.0283 41.2762 28.63 41.4073C28.6086 41.5269 28.5979 41.6483 28.5979 41.7698C28.5969 42.0382 28.6492 42.3041 28.7519 42.5521C28.8545 42.8002 29.0054 43.0253 29.1958 43.2145L29.3228 43.3414C30.0132 43.1059 30.5889 42.7616 31.1089 42.2433C31.7965 41.5608 32.2574 40.6832 32.4291 39.7298L32.4518 39.5973L32.5575 39.6816C32.6276 39.7387 32.6946 39.7994 32.7582 39.8636L34.8262 41.925C35.8856 42.9814 35.8856 44.7025 34.8262 45.7589C34.2966 46.2871 33.6002 46.5518 32.9026 46.5521C32.2052 46.5521 31.5099 46.2871 30.9803 45.7587L28.9135 43.6973C27.854 42.6409 27.854 40.9214 28.9135 39.8634C29.196 39.5815 29.5379 39.3663 29.9142 39.2334C29.9349 39.1114 29.9456 38.9879 29.9463 38.8642C29.9463 38.2704 29.7119 37.7069 29.2815 37.2777C28.5897 37.5133 27.9753 37.8951 27.4569 38.4121C26.7678 39.0993 26.3124 39.9681 26.1378 40.9256L26.1138 41.058L26.0095 40.9725C25.9385 40.9156 25.8706 40.8549 25.8062 40.7906L23.7391 38.729C22.6799 37.6725 22.6785 35.9506 23.7391 34.8939C23.9915 34.6411 24.2915 34.4409 24.6217 34.3047C24.9519 34.1686 25.3058 34.0992 25.663 34.1005H25.6657ZM48.5205 45.918C48.7022 46.6233 48.7621 47.8255 49.6815 47.8604C49.7571 48.2674 49.4001 48.4207 49.073 48.2898C48.7499 48.142 48.5961 48.4062 48.4871 48.6696C47.9882 48.7422 47.2509 48.5034 47.223 47.9138C47.9678 47.4859 48.1976 46.6721 48.5205 45.918Z" fill="var(--fill-0, black)" id="Vector"/>
</g>
</g>
<defs>
<clipPath id="clip0_0_7619">
<rect fill="white" height="55" transform="matrix(-1 0 0 1 67.7969 13)" width="55"/>
</clipPath>
</defs>
</svg>