<?xml version="1.0" encoding="utf-8"?>
<svg xmlns="http://www.w3.org/2000/svg" fill="none" height="100%" overflow="visible" preserveAspectRatio="none" style="display: block;" viewBox="0 0 318.633 317" width="100%">
<g id="Frame 2147257348">
<rect height="146" id="Rectangle 7899" rx="29.5" stroke="var(--stroke-0, white)" stroke-dasharray="8 8" width="247" x="0.5" y="35.5"/>
<g id="Polygon 4">
<mask fill="white" id="path-2-inside-1_0_27296">
<path d="M309.249 90.4762C321.762 99.2343 321.762 117.766 309.249 126.524L235.365 178.236C220.784 188.442 200.75 178.01 200.75 160.212L200.75 56.7877C200.75 38.9898 220.784 28.5583 235.365 38.764L309.249 90.4762Z"/>
</mask>
<path d="M309.249 90.4762C321.762 99.2343 321.762 117.766 309.249 126.524L235.365 178.236C220.784 188.442 200.75 178.01 200.75 160.212L200.75 56.7877C200.75 38.9898 220.784 28.5583 235.365 38.764L309.249 90.4762Z" fill="url(#paint0_linear_0_27296)"/>
<path d="M310.216 127.906C309.571 126.985 308.926 126.063 308.281 125.141C302.446 129.073 296.613 133.008 290.782 136.947C271.699 149.837 252.641 162.764 233.61 175.728C221.955 184.531 203.387 174.337 204.357 160.212C204.702 125.737 204.947 91.2626 205.092 56.7877C204.432 43.2008 222.205 34.0789 232.796 42.434C240.138 47.5893 247.484 52.7391 254.834 57.8834C272.112 69.9766 289.583 81.7936 307.248 93.3346C312.308 96.5331 315.671 102.288 315.933 108.521C316.268 114.72 313.461 121.125 308.281 125.141C308.926 126.063 309.571 126.985 310.216 127.906C316.691 123.942 321.089 116.435 321.333 108.527C321.718 100.621 317.871 92.4176 311.249 87.6178C294.358 74.9724 277.273 62.6032 259.995 50.51C252.645 45.3658 245.291 40.2271 237.934 35.0939C221.772 22.5688 195.302 36.4837 196.408 56.7877C196.553 91.2625 196.798 125.737 197.143 160.212C196.348 179.979 222.022 192.822 237.121 180.744C255.817 167.301 274.488 153.822 293.133 140.306C298.83 136.176 304.524 132.043 310.216 127.906ZM308.281 125.141L310.216 127.906L308.281 125.141Z" fill="var(--stroke-0, white)" mask="url(#path-2-inside-1_0_27296)"/>
</g>
<g filter="url(#filter0_dd_0_27296)" id="Frame 21">
<rect fill="var(--fill-0, white)" height="89" rx="16.4583" width="209" x="36" y="64"/>
<g id="1">
<path d="M135.529 80.1637C141.332 79.3461 148.167 81.66 153.228 84.4654C151.388 86.2365 151.486 85.7537 150.655 87.9757C149.342 87.3827 147.285 86.3398 146 85.9074C140.426 84.0314 134.58 84.0234 129.033 85.9149C122.457 88.1722 117.056 92.9569 114.029 99.2065C111.033 105.446 110.625 112.613 112.894 119.151C115.195 125.662 119.979 131.002 126.203 134.01C132.438 137.018 139.619 137.412 146.145 135.103C152.704 132.785 158.069 127.958 161.057 121.685C164.186 115.1 164.332 108.225 161.899 101.417C161.46 100.257 160.605 98.8217 160.348 97.8171C160.442 97.6299 163.081 95.4845 163.617 94.9092C166.031 98.7867 167.55 103.676 167.91 108.203C168.533 116.23 165.937 124.175 160.692 130.291C155.451 136.447 147.97 140.265 139.904 140.902C131.876 141.538 123.923 138.972 117.786 133.766C111.597 128.53 107.753 121.049 107.102 112.976C106.438 104.852 109.078 96.8037 114.428 90.6463C119.926 84.2902 127.191 80.7915 135.529 80.1637Z" fill="var(--fill-0, #FF7033)" id="Vector"/>
<path d="M165.909 73.9972L165.955 74.0346C166.113 74.401 165.458 81.5144 165.391 82.4175C167.925 82.312 171.455 81.9066 174.001 81.6598L160.229 95.5029L155.034 95.9529L143.27 107.786C144.495 111.696 143.583 114.419 139.991 116.486C138.372 117.04 136.836 117.217 135.184 116.645C133.645 116.097 132.386 114.955 131.685 113.471C130.902 111.884 130.786 110.047 131.365 108.373C132.756 104.356 136.457 103.302 140.167 104.664L151.939 92.8169C152.009 91.2003 152.224 89.228 152.361 87.5899L165.909 73.9972Z" fill="var(--fill-0, #FF7033)" id="Vector_2"/>
<path d="M135.407 93.1479C139.484 92.5694 143.248 93.7055 146.749 95.7131L143.51 98.9443C143.066 98.7355 142.602 98.5215 142.147 98.341C138.956 97.0927 135.399 97.1587 132.257 98.5248C129.056 99.933 126.546 102.55 125.275 105.803C124.019 109.114 124.14 112.788 125.611 116.009C127.036 119.137 129.658 121.564 132.89 122.745C136.204 123.956 139.864 123.804 143.065 122.324C146.213 120.851 148.647 118.191 149.831 114.928C151.115 111.328 150.693 107.977 149.087 104.587L150.818 102.875L152.336 101.351C153.545 103.287 154.369 105.437 154.764 107.684C155.53 112.273 154.421 116.976 151.685 120.741C148.977 124.503 144.88 127.034 140.299 127.775C135.663 128.519 130.923 127.375 127.139 124.599C123.408 121.884 120.914 117.795 120.212 113.238C119.489 108.614 120.643 103.893 123.417 100.12C126.405 96.1109 130.501 93.8668 135.407 93.1479Z" fill="var(--fill-0, #FF7033)" id="Vector_3"/>
</g>
</g>
<path d="M56 310.035C57.6962 310.278 59 311.737 59 313.5C59 315.433 57.433 317 55.5 317C53.567 317 52 315.433 52 313.5C52 311.737 53.3038 310.278 55 310.035V308.984H56V310.035ZM56 304.953H55V300.922H56V304.953ZM56 296.891H55V292.859H56V296.891ZM56 288.828H55V284.797H56V288.828ZM56 280.766H55V276.734H56V280.766ZM56 272.703H55V268.672H56V272.703ZM56 264.641H55V260.609H56V264.641ZM56 256.578H55V252.547H56V256.578ZM56 248.516H55V244.484H56V248.516ZM56 240.453H55V236.422H56V240.453ZM56 232.391H55V228.359H56V232.391ZM56 224.328H55V220.297H56V224.328ZM56 216.266H55V212.234H56V216.266ZM56 208.203H55V204.172H56V208.203ZM56 200.141H55V196.109H56V200.141ZM56 192.078H55V188.047H56V192.078ZM56 184.016H55V182H56V184.016Z" fill="var(--fill-0, white)" id="Union"/>
</g>
<defs>
<filter color-interpolation-filters="sRGB" filterUnits="userSpaceOnUse" height="95.5833" id="filter0_dd_0_27296" width="215.583" x="32.7083" y="62.3542">
<feFlood flood-opacity="0" result="BackgroundImageFix"/>
<feColorMatrix in="SourceAlpha" result="hardAlpha" type="matrix" values="0 0 0 0 0 0 0 0 0 0 0 0 0 0 0 0 0 0 127 0"/>
<feMorphology in="SourceAlpha" operator="dilate" radius="1.64583" result="effect1_dropShadow_0_27296"/>
<feOffset/>
<feColorMatrix type="matrix" values="0 0 0 0 0 0 0 0 0 0 0 0 0 0 0 0 0 0 0.06 0"/>
<feBlend in2="BackgroundImageFix" mode="normal" result="effect1_dropShadow_0_27296"/>
<feColorMatrix in="SourceAlpha" result="hardAlpha" type="matrix" values="0 0 0 0 0 0 0 0 0 0 0 0 0 0 0 0 0 0 127 0"/>
<feOffset dy="1.64583"/>
<feGaussianBlur stdDeviation="1.64583"/>
<feColorMatrix type="matrix" values="0 0 0 0 0 0 0 0 0 0 0 0 0 0 0 0 0 0 0.06 0"/>
<feBlend in2="effect1_dropShadow_0_27296" mode="normal" result="effect2_dropShadow_0_27296"/>
<feBlend in="SourceGraphic" in2="effect2_dropShadow_0_27296" mode="normal" result="shape"/>
</filter>
<linearGradient gradientUnits="userSpaceOnUse" id="paint0_linear_0_27296" x1="204.5" x2="322" y1="38.5" y2="246.5">
<stop offset="0.252701" stop-color="#FF7032"/>
<stop offset="1" stop-color="#FF0400"/>
</linearGradient>
</defs>
</svg>