<?xml version="1.0" encoding="utf-8"?>
<svg xmlns="http://www.w3.org/2000/svg" fill="none" height="100%" overflow="visible" preserveAspectRatio="none" style="display: block;" viewBox="0 0 63 63" width="100%">
<g id="Frame 35985">
<circle cx="31.5" cy="31.5" fill="var(--fill-0, #F2F2F2)" id="Ellipse 787" r="31.5"/>
<g id="lsicon:user-crowd-filled">
<path clip-rule="evenodd" d="M22.5669 25.6706C22.5669 25.2214 22.6554 24.7766 22.8273 24.3616C22.9992 23.9466 23.2511 23.5695 23.5688 23.2519C23.8864 22.9342 24.2635 22.6823 24.6785 22.5104C25.0935 22.3385 25.5383 22.25 25.9875 22.25C26.4367 22.25 26.8815 22.3385 27.2965 22.5104C27.7115 22.6823 28.0886 22.9342 28.4062 23.2519C28.7239 23.5695 28.9758 23.9466 29.1477 24.3616C29.3196 24.7766 29.4081 25.2214 29.4081 25.6706C29.4081 26.5778 29.0477 27.4479 28.4062 28.0894C27.7648 28.7309 26.8947 29.0913 25.9875 29.0913C25.0803 29.0913 24.2102 28.7309 23.5688 28.0894C22.9273 27.4479 22.5669 26.5778 22.5669 25.6706ZM34.7544 25.6706C34.7544 24.7634 35.1148 23.8934 35.7563 23.2519C36.3977 22.6104 37.2678 22.25 38.175 22.25C39.0822 22.25 39.9523 22.6104 40.5937 23.2519C41.2352 23.8934 41.5956 24.7634 41.5956 25.6706C41.5956 26.5778 41.2352 27.4479 40.5937 28.0894C39.9523 28.7309 39.0822 29.0913 38.175 29.0913C37.2678 29.0913 36.3977 28.7309 35.7563 28.0894C35.1148 27.4479 34.7544 26.5778 34.7544 25.6706ZM28.5794 30.5456C28.5794 29.6384 28.9398 28.7684 29.5813 28.1269C30.2227 27.4854 31.0928 27.125 32 27.125C32.9072 27.125 33.7773 27.4854 34.4187 28.1269C35.0602 28.7684 35.4206 29.6384 35.4206 30.5456C35.4206 31.4528 35.0602 32.3229 34.4187 32.9644C33.7773 33.6059 32.9072 33.9663 32 33.9663C31.0928 33.9663 30.2227 33.6059 29.5813 32.9644C28.9398 32.3229 28.5794 31.4528 28.5794 30.5456ZM27.125 30.05H24.6875C23.6101 30.05 22.5767 30.478 21.8149 31.2399C21.053 32.0017 20.625 33.0351 20.625 34.1125V36.0625H27.125V30.05ZM36.875 30.05H39.3125C40.3899 30.05 41.4233 30.478 42.1851 31.2399C42.947 32.0017 43.375 33.0351 43.375 34.1125V36.0625H36.875V30.05ZM26.6375 38.9875C26.6375 37.9101 27.0655 36.8767 27.8274 36.1149C28.5892 35.353 29.6226 34.925 30.7 34.925H33.3C34.3774 34.925 35.4108 35.353 36.1726 36.1149C36.9345 36.8767 37.3625 37.9101 37.3625 38.9875V41.75H26.6375V38.9875Z" fill="var(--fill-0, #656565)" fill-rule="evenodd" id="Vector"/>
</g>
</g>
</svg>