<?xml version="1.0" encoding="utf-8"?>
<svg xmlns="http://www.w3.org/2000/svg" fill="none" height="100%" overflow="visible" preserveAspectRatio="none" style="display: block;" viewBox="0 0 497.186 577.745" width="100%">
<g id="contact-us/amico">
<g id="Floor">
<path d="M248.593 577.745C385.887 577.745 497.186 514.518 497.186 436.524C497.186 358.53 385.887 295.304 248.593 295.304C111.299 295.304 0 358.53 0 436.524C0 514.518 111.299 577.745 248.593 577.745Z" fill="var(--fill-0, #F5F5F5)" id="Vector" opacity="0.07"/>
</g>
<g id="Shadows">
<path d="M352.04 525.566L166.476 418.421C164.843 417.48 163.487 416.126 162.545 414.495C161.602 412.864 161.106 411.013 161.106 409.129C161.106 407.246 161.602 405.395 162.545 403.764C163.487 402.133 164.843 400.779 166.476 399.838L184.781 388.295C187.941 386.475 191.524 385.517 195.17 385.517C198.817 385.517 202.399 386.475 205.559 388.295L391.149 495.453C392.782 496.393 394.137 497.747 395.08 499.378C396.023 501.009 396.519 502.86 396.519 504.744C396.519 506.628 396.023 508.479 395.08 510.11C394.137 511.741 392.782 513.095 391.149 514.036L372.844 525.566C369.682 527.396 366.095 528.359 362.442 528.359C358.79 528.359 355.202 527.396 352.04 525.566Z" fill="var(--fill-0, #E0E0E0)" id="Vector_2"/>
<path d="M69.8918 427.884C92.1319 427.884 110.161 417.531 110.161 404.76C110.161 391.988 92.1319 381.635 69.8918 381.635C47.6516 381.635 29.6224 391.988 29.6224 404.76C29.6224 417.531 47.6516 427.884 69.8918 427.884Z" fill="var(--fill-0, #E6E6E6)" id="Vector_3"/>
</g>
<g id="Plants">
<path d="M417.846 433.181L435.508 443.337C435.508 443.337 426.488 414.989 431.294 386.415C433.111 375.616 437.009 370.254 438.372 367.365C439.734 364.476 450.293 346.625 440.895 338.45C431.496 330.275 409.633 346.713 410.819 390.704C411.358 405.103 413.719 419.376 417.846 433.181Z" fill="var(--fill-0, #FF7032)" id="Vector_4"/>
<path d="M417.846 433.181L435.508 443.337C435.508 443.337 426.488 414.989 431.294 386.415C433.111 375.616 437.009 370.254 438.372 367.365C439.734 364.476 450.293 346.625 440.895 338.45C431.496 330.275 409.633 346.713 410.819 390.704C411.358 405.103 413.719 419.376 417.846 433.181Z" fill="var(--fill-0, black)" id="Vector_5" opacity="0.5"/>
<path d="M426.059 438.531C425.93 438.534 425.804 438.496 425.698 438.424C425.591 438.352 425.51 438.248 425.466 438.127C425.403 437.938 418.653 419.494 418.868 389.847C419.082 360.2 434.663 344.102 434.814 343.951C434.873 343.892 434.942 343.845 435.019 343.813C435.096 343.781 435.179 343.764 435.262 343.764C435.345 343.764 435.428 343.781 435.504 343.813C435.581 343.845 435.651 343.892 435.71 343.951C435.769 344.01 435.816 344.079 435.848 344.156C435.88 344.233 435.896 344.316 435.896 344.399C435.896 344.482 435.88 344.565 435.848 344.641C435.816 344.718 435.769 344.788 435.71 344.847C435.558 344.998 420.344 360.616 420.129 389.86C419.915 419.103 426.576 437.522 426.652 437.698C426.708 437.856 426.7 438.029 426.63 438.18C426.559 438.332 426.43 438.449 426.273 438.506C426.204 438.527 426.131 438.536 426.059 438.531Z" fill="var(--fill-0, white)" id="Vector_6"/>
<path d="M425.213 437.521L449.36 451.399C451.876 452.886 454.86 453.37 457.717 452.755C460.574 452.14 463.095 450.471 464.776 448.081C466.375 445.594 467.049 442.624 466.681 439.691C465.521 427.151 460.071 424.262 466.744 418.673C473.418 413.085 475.159 412.693 474.781 407.319C474.402 401.945 470.731 399.598 468.99 397.479C467.249 395.359 462.43 390.919 465.71 384.359C468.99 377.798 473.469 371.453 466.681 368.551C462.632 366.81 455.882 369.131 451.441 373.951C447.001 378.77 443.342 382.239 439.091 383.4C434.839 384.56 425.983 384.75 426.361 392.079C426.74 399.409 428.683 401.92 426.942 405.187C423.662 411.293 409.393 414.762 425.213 437.521Z" fill="var(--fill-0, #FF7032)" id="Vector_7"/>
<path d="M437.148 444.99C436.991 444.985 436.841 444.924 436.725 444.817C436.609 444.711 436.536 444.566 436.518 444.41C436.518 443.981 432.809 400.684 462.582 371.869C462.705 371.768 462.861 371.717 463.02 371.726C463.179 371.736 463.328 371.805 463.439 371.92C463.549 372.034 463.611 372.187 463.614 372.346C463.616 372.505 463.559 372.659 463.452 372.778C434.108 401.176 437.741 443.867 437.779 444.296C437.793 444.462 437.742 444.626 437.635 444.754C437.529 444.881 437.377 444.962 437.212 444.978L437.148 444.99Z" fill="var(--fill-0, white)" id="Vector_8"/>
<path d="M441.929 407.724C441.771 407.725 441.617 407.665 441.5 407.558C441.383 407.45 441.311 407.302 441.299 407.144C441.034 403.789 440.089 400.522 438.521 397.544C436.953 394.566 434.795 391.939 432.177 389.822C432.109 389.775 432.051 389.714 432.007 389.643C431.962 389.573 431.932 389.495 431.918 389.412C431.904 389.33 431.906 389.246 431.925 389.165C431.943 389.084 431.978 389.007 432.026 388.939C432.073 388.872 432.132 388.814 432.202 388.769C432.271 388.725 432.348 388.695 432.429 388.681C432.511 388.667 432.594 388.669 432.674 388.687C432.754 388.706 432.83 388.74 432.897 388.788C435.685 391 437.985 393.766 439.648 396.913C441.312 400.06 442.303 403.518 442.56 407.068C442.574 407.237 442.521 407.404 442.413 407.534C442.304 407.664 442.148 407.746 441.98 407.762L441.929 407.724Z" fill="var(--fill-0, white)" id="Vector_9"/>
<path d="M439.874 415.154C439.721 415.156 439.573 415.102 439.457 415.003C439.332 414.891 439.255 414.735 439.244 414.568C439.232 414.401 439.286 414.235 439.394 414.107C439.697 413.754 447.153 405.529 464.626 407.711C464.791 407.733 464.941 407.82 465.043 407.952C465.145 408.085 465.19 408.252 465.168 408.418C465.146 408.584 465.06 408.735 464.928 408.839C464.796 408.943 464.628 408.991 464.462 408.973C447.683 406.866 440.403 414.864 440.328 414.94C440.27 415.004 440.2 415.056 440.122 415.093C440.044 415.13 439.96 415.151 439.874 415.154Z" fill="var(--fill-0, white)" id="Vector_10"/>
</g>
<g id="Device">
<path d="M346.39 512.762L183.193 418.535C171.675 411.887 162.339 394.048 162.339 378.695V29.2389C162.339 13.8856 171.675 6.83337 183.193 13.4819L346.39 107.709C357.908 114.357 367.244 132.196 367.244 147.549V497.005C367.244 512.346 357.908 519.41 346.39 512.762Z" fill="var(--fill-0, #455A64)" id="Vector_11"/>
<path d="M365.187 96.7204L201.977 2.4935C197.057 -0.345038 192.541 -0.673049 188.971 1.06792C188.534 1.28681 188.112 1.53551 187.709 1.81225L169.416 12.4473C173.1 10.2396 177.919 10.4036 183.205 13.4566L346.402 107.683C357.92 114.332 367.256 132.171 367.256 147.524V496.98C367.256 505.104 364.645 510.857 360.481 513.582L378.535 503.073C383.139 500.626 386.104 494.633 386.104 486.042V136.586C386.104 121.207 376.705 103.369 365.187 96.7204Z" fill="var(--fill-0, #37474F)" id="Vector_12"/>
<path d="M367.245 147.524V496.979C367.245 505.104 364.633 510.857 360.47 513.582L378.536 503.073C383.14 500.625 386.105 494.633 386.105 486.042V136.586L367.308 147.499L367.245 147.524Z" fill="var(--fill-0, #263238)" id="Vector_13"/>
<path d="M386.042 163.697L367.245 174.547V183.025L386.042 172.163V163.697Z" fill="var(--fill-0, #37474F)" id="Vector_14"/>
<path d="M377.803 220.076C376.125 221.048 374.763 220.013 374.763 217.78V199.551C374.78 198.411 375.064 197.291 375.592 196.281C376.12 195.271 376.877 194.399 377.803 193.735C379.481 192.763 380.843 193.735 380.843 196.031V214.261C380.826 215.4 380.542 216.52 380.014 217.53C379.486 218.54 378.729 219.412 377.803 220.076Z" fill="var(--fill-0, #37474F)" id="Vector_15"/>
<path d="M374.75 217.831V199.551C374.767 198.411 375.051 197.291 375.579 196.281C376.107 195.271 376.865 194.399 377.791 193.735C378.067 193.541 378.39 193.423 378.726 193.392C379.062 193.361 379.401 193.419 379.708 193.558L377.425 192.385C377.113 192.235 376.766 192.17 376.42 192.196C376.075 192.223 375.742 192.34 375.457 192.536C374.53 193.201 373.771 194.073 373.241 195.082C372.711 196.092 372.424 197.212 372.404 198.352V216.569C372.356 217.03 372.426 217.494 372.607 217.92C372.788 218.346 373.074 218.719 373.438 219.004L375.823 220.266C375.443 219.992 375.144 219.622 374.955 219.194C374.766 218.766 374.696 218.296 374.75 217.831Z" fill="var(--fill-0, #455A64)" id="Vector_16"/>
<path d="M377.803 264.194C376.125 265.166 374.763 264.194 374.763 261.898V243.668C374.781 242.529 375.065 241.41 375.593 240.4C376.121 239.39 376.878 238.518 377.803 237.853C379.481 236.881 380.843 237.853 380.843 240.161V258.378C380.828 259.518 380.545 260.639 380.017 261.649C379.489 262.659 378.731 263.531 377.803 264.194Z" fill="var(--fill-0, #37474F)" id="Vector_17"/>
<path d="M374.751 261.898V243.668C374.769 242.529 375.053 241.409 375.581 240.399C376.109 239.389 376.866 238.517 377.791 237.852C378.07 237.662 378.392 237.546 378.727 237.515C379.063 237.484 379.401 237.539 379.709 237.675L377.426 236.49C377.115 236.333 376.767 236.264 376.42 236.29C376.073 236.317 375.74 236.438 375.457 236.641C374.528 237.303 373.768 238.175 373.238 239.185C372.707 240.195 372.422 241.316 372.404 242.457V260.724C372.356 261.185 372.425 261.65 372.606 262.076C372.787 262.502 373.074 262.875 373.439 263.159L375.823 264.421C375.428 264.141 375.119 263.757 374.929 263.311C374.74 262.866 374.678 262.376 374.751 261.898Z" fill="var(--fill-0, #455A64)" id="Vector_18"/>
<path d="M340.689 117.511L180.318 24.8862C179.648 24.5012 178.89 24.2979 178.118 24.2964C177.346 24.295 176.586 24.4955 175.916 24.8781C175.245 25.2606 174.686 25.8119 174.294 26.4772C173.902 27.1426 173.691 27.8988 173.682 28.6709V378.694C173.682 390.376 181.97 404.721 192.088 410.562L348.523 500.928C349.265 501.355 350.106 501.579 350.962 501.578C351.818 501.578 352.659 501.352 353.4 500.924C354.141 500.496 354.757 499.88 355.185 499.139C355.613 498.398 355.839 497.558 355.84 496.702V143.789C355.903 134.151 349.066 122.33 340.689 117.511Z" fill="var(--fill-0, #FF7032)" id="Vector_19"/>
<path d="M340.689 117.511L180.318 24.8862C179.648 24.5012 178.89 24.2979 178.118 24.2964C177.346 24.295 176.586 24.4955 175.916 24.8781C175.245 25.2606 174.686 25.8119 174.294 26.4772C173.902 27.1426 173.691 27.8988 173.682 28.6709V378.694C173.682 390.376 181.97 404.721 192.088 410.562L348.523 500.928C349.265 501.355 350.106 501.579 350.962 501.578C351.818 501.578 352.659 501.352 353.4 500.924C354.141 500.496 354.757 499.88 355.185 499.139C355.613 498.398 355.839 497.558 355.84 496.702V143.789C355.903 134.151 349.066 122.33 340.689 117.511Z" fill="var(--fill-0, white)" id="Vector_20" opacity="0.9"/>
<path d="M228.281 49.0703L230.766 59.5287L283.929 90.185L293.113 85.2901L228.281 49.0703Z" fill="var(--fill-0, #455A64)" id="Vector_21"/>
<path d="M243.912 59.1759C243.912 60.9168 242.65 61.6107 241.187 60.7528C240.401 60.2313 239.749 59.5327 239.282 58.7133C238.815 57.8938 238.547 56.9764 238.5 56.0346C238.5 54.3062 239.761 53.5997 241.225 54.4702C242.01 54.9891 242.662 55.6853 243.129 56.5027C243.596 57.3201 243.864 58.2358 243.912 59.1759Z" fill="var(--fill-0, #263238)" id="Vector_22"/>
<path d="M279.729 81.3158C279.438 81.3135 279.152 81.2399 278.896 81.1014L251.747 65.9625C251.364 65.7374 251.084 65.3713 250.967 64.9425C250.85 64.5136 250.905 64.056 251.121 63.6673C251.336 63.2787 251.695 62.9898 252.121 62.8623C252.547 62.7348 253.006 62.7789 253.4 62.9852L280.561 78.1241C280.892 78.3076 281.151 78.5956 281.3 78.943C281.449 79.2903 281.477 79.6771 281.382 80.0426C281.287 80.4082 281.073 80.7316 280.773 80.9621C280.474 81.1926 280.107 81.317 279.729 81.3158Z" fill="var(--fill-0, #263238)" id="Vector_23"/>
<path d="M207.314 97.7295C205.661 96.7707 204.463 97.6033 204.463 99.7102C204.463 100.764 204.723 101.801 205.221 102.73C205.718 103.659 206.437 104.45 207.314 105.034C207.784 105.319 208.323 105.47 208.872 105.47C209.422 105.47 209.96 105.319 210.43 105.034L213.067 109.803C212.139 110.315 211.088 110.558 210.029 110.507C208.971 110.456 207.948 110.112 207.074 109.513C204.932 108.202 203.146 106.384 201.875 104.218C200.603 102.053 199.884 99.6078 199.783 97.0987C199.783 92.4183 202.924 90.7908 207.251 93.314C209.695 94.8876 211.696 97.0587 213.067 99.6219L210.43 101.716C209.78 100.125 208.701 98.7447 207.314 97.7295Z" fill="var(--fill-0, #FF7032)" id="Vector_24"/>
<path d="M228.246 113.537C228.246 118.255 225.054 119.845 220.676 117.322C218.473 116.005 216.629 114.164 215.309 111.963C213.988 109.763 213.232 107.27 213.107 104.706C213.107 99.9876 216.298 98.398 220.676 100.921C222.885 102.232 224.733 104.071 226.054 106.273C227.375 108.475 228.128 110.971 228.246 113.537ZM217.787 107.519C217.809 108.602 218.088 109.665 218.602 110.619C219.115 111.573 219.848 112.392 220.739 113.007C222.304 113.915 223.565 113.007 223.565 110.862C223.561 109.804 223.302 108.761 222.81 107.824C222.318 106.886 221.608 106.081 220.739 105.475C219.15 104.555 217.787 105.337 217.787 107.519Z" fill="var(--fill-0, #FF7032)" id="Vector_25"/>
<path d="M233.328 108.529L238.778 119.884V111.709L242.903 114.093V130.001L239.119 127.806L233.694 116.553V124.678L229.543 122.281V106.334L233.328 108.529Z" fill="var(--fill-0, #FF7032)" id="Vector_26"/>
<path d="M256.389 121.838V126.001L252.452 123.731V135.488L247.898 132.852V121.094L243.987 118.836V114.685L256.389 121.838Z" fill="var(--fill-0, #FF7032)" id="Vector_27"/>
<path d="M265.271 140.635L260.099 137.645L259.392 139.487L254.725 136.787L260.54 124.235L265.221 126.934L270.822 146.085L265.965 143.284L265.271 140.635ZM264.148 136.22L262.736 130.782L261.285 134.567L264.148 136.22Z" fill="var(--fill-0, #FF7032)" id="Vector_28"/>
<path d="M278.051 138.567C276.399 137.621 275.2 138.441 275.2 140.56C275.203 141.613 275.464 142.65 275.961 143.578C276.458 144.507 277.176 145.299 278.051 145.884C278.524 146.166 279.065 146.315 279.616 146.315C280.167 146.315 280.707 146.166 281.18 145.884L283.817 150.653C282.885 151.159 281.833 151.399 280.774 151.348C279.715 151.297 278.69 150.956 277.812 150.363C275.668 149.051 273.881 147.231 272.609 145.063C271.337 142.895 270.619 140.447 270.52 137.936C270.52 133.256 273.674 131.628 277.988 134.152C280.429 135.733 282.433 137.902 283.817 140.459L281.18 142.541C280.516 140.958 279.434 139.585 278.051 138.567Z" fill="var(--fill-0, #FF7032)" id="Vector_29"/>
<path d="M296.254 144.863V149.013L292.318 146.742V158.538L287.764 155.901V144.144L283.853 141.885V137.735L296.254 144.863Z" fill="var(--fill-0, #FF7032)" id="Vector_30"/>
<path d="M309.716 164.391C310.839 165.034 311.697 164.53 311.697 162.953V153.781L316.264 156.405V165.577C316.264 169.803 313.741 171.065 309.704 168.756C307.759 167.676 306.124 166.114 304.955 164.221C303.787 162.328 303.124 160.167 303.03 157.944V148.773L307.597 151.409V160.581C307.615 161.34 307.817 162.084 308.186 162.748C308.555 163.411 309.081 163.975 309.716 164.391Z" fill="var(--fill-0, #FF7032)" id="Vector_31"/>
<path d="M323.62 164.441C323.103 164.151 322.775 164.138 322.775 164.617C322.775 166.611 329.903 169.487 329.903 175.253C329.903 178.785 327.216 178.798 324.112 177.006C321.384 175.335 319.034 173.113 317.211 170.484L318.902 167.506C320.289 169.654 322.07 171.521 324.15 173.007C324.819 173.398 325.248 173.398 325.248 172.83C325.248 170.761 318.107 168.011 318.107 162.422C318.107 159.243 320.428 158.638 324.011 160.656C326.319 162.052 328.351 163.861 330.004 165.993L328.351 169.046C326.986 167.307 325.395 165.758 323.62 164.441Z" fill="var(--fill-0, #FF7032)" id="Vector_32"/>
</g>
<g id="speech-bubble">
<path d="M184.366 176.127C189.485 169.84 192.061 161.863 191.588 153.769C191.114 145.676 187.624 138.054 181.806 132.408C175.989 126.761 168.267 123.5 160.163 123.267C152.059 123.035 144.162 125.848 138.031 131.151C131.899 136.455 127.978 143.864 127.041 151.917C126.103 159.97 128.218 168.082 132.968 174.652C137.718 181.222 144.758 185.773 152.699 187.408C160.639 189.042 168.904 187.642 175.863 183.482L191.658 190.345L184.366 176.127Z" fill="var(--fill-0, #FF7032)" id="Vector_33"/>
<path d="M184.366 176.127C189.485 169.84 192.061 161.863 191.588 153.769C191.114 145.676 187.624 138.054 181.806 132.408C175.989 126.761 168.267 123.5 160.163 123.267C152.059 123.035 144.162 125.848 138.031 131.151C131.899 136.455 127.978 143.864 127.041 151.917C126.103 159.97 128.218 168.082 132.968 174.652C137.718 181.222 144.758 185.773 152.699 187.408C160.639 189.042 168.904 187.642 175.863 183.482L191.658 190.345L184.366 176.127Z" fill="var(--fill-0, black)" id="Vector_34" opacity="0.4"/>
<path d="M147.225 153.922C147.225 153.43 146.872 153.153 146.228 153.153C144.736 153.348 143.342 154.005 142.242 155.032L140.45 151.55C142.336 150.131 144.614 149.33 146.973 149.254C150 149.254 152.296 150.844 152.296 153.216C152.296 154.906 151.035 156.534 149.42 158.161L147.162 160.394H152.498V164.103H141.031V161.063L146.14 155.777C146.69 155.29 147.07 154.64 147.225 153.922Z" fill="var(--fill-0, white)" id="Vector_35"/>
<path d="M161.835 149.468L158.353 157.82H159.779V155.006H164.169V157.82H165.834V161.264H164.169V164.102H159.779V161.264H153.534V158.135L157.319 149.468H161.835Z" fill="var(--fill-0, white)" id="Vector_36"/>
<path d="M179.385 156.824V164.103H174.692V158.174C174.719 157.981 174.704 157.784 174.649 157.597C174.593 157.41 174.498 157.238 174.371 157.091C174.243 156.943 174.085 156.825 173.907 156.745C173.73 156.664 173.537 156.622 173.342 156.622C172.421 156.622 171.841 157.341 171.841 158.452V164.103H167.148V148.637H171.841V154.326C172.208 153.746 172.719 153.271 173.325 152.948C173.931 152.625 174.611 152.465 175.297 152.484C175.86 152.47 176.419 152.574 176.939 152.791C177.458 153.007 177.926 153.331 178.312 153.74C178.697 154.15 178.992 154.636 179.177 155.168C179.362 155.699 179.433 156.264 179.385 156.824Z" fill="var(--fill-0, white)" id="Vector_37"/>
</g>
<g id="Character">
<path d="M332.413 274.047V430.798C332.415 432.571 331.951 434.313 331.066 435.849C330.181 437.386 328.908 438.662 327.373 439.55C325.838 440.437 324.097 440.905 322.324 440.905C320.551 440.906 318.809 440.44 317.274 439.553L232.849 390.806L217.887 382.177C212.735 379.198 208.455 374.919 205.475 369.767C202.495 364.615 200.92 358.772 200.906 352.82V196.057C200.904 194.284 201.368 192.542 202.253 191.006C203.138 189.469 204.412 188.193 205.946 187.305C207.481 186.418 209.222 185.95 210.995 185.95C212.768 185.949 214.51 186.415 216.045 187.302L315.457 244.691C320.612 247.665 324.892 251.944 327.869 257.097C330.845 262.25 332.412 268.096 332.413 274.047Z" fill="var(--fill-0, #FF7032)" id="Vector_38"/>
<path d="M332.413 274.047V430.798C332.415 432.571 331.951 434.313 331.066 435.849C330.181 437.386 328.908 438.662 327.373 439.55C325.838 440.437 324.097 440.905 322.324 440.905C320.551 440.906 318.809 440.44 317.274 439.553L232.849 390.806L217.887 382.177C212.735 379.198 208.455 374.919 205.475 369.767C202.495 364.615 200.92 358.772 200.906 352.82V196.057C200.904 194.284 201.368 192.542 202.253 191.006C203.138 189.469 204.412 188.193 205.946 187.305C207.481 186.418 209.222 185.95 210.995 185.95C212.768 185.949 214.51 186.415 216.045 187.302L315.457 244.691C320.612 247.665 324.892 251.944 327.869 257.097C330.845 262.25 332.412 268.096 332.413 274.047Z" fill="var(--fill-0, white)" id="Vector_39" opacity="0.5"/>
<path d="M283.779 366.798C283.779 366.798 299.586 393.014 288.169 422.572L232.811 390.806L283.779 366.798Z" fill="var(--fill-0, #263238)" id="Vector_40"/>
<path d="M308.988 249.014C310.184 239.298 303.278 230.452 293.562 229.256C283.846 228.059 275 234.966 273.803 244.682C272.607 254.397 279.513 263.244 289.229 264.44C298.945 265.636 307.791 258.73 308.988 249.014Z" fill="var(--fill-0, #263238)" id="Vector_41"/>
<path d="M291.487 197.129C291.487 197.129 296.924 188.298 298.589 188.942C300.255 189.585 297.504 198 297.504 198C297.504 198 305.73 199.716 304.203 201.785C302.677 203.854 292.622 203.362 292.622 203.362L291.487 197.129Z" fill="var(--fill-0, #263238)" id="Vector_42"/>
<path d="M295.271 219.888C291.486 248.324 267.517 248.324 267.517 248.324L217.306 226.222C217.306 226.222 213.521 222.904 212.361 215.284C211.915 212.162 211.915 208.994 212.361 205.872C212.361 205.872 212.361 205.809 212.361 205.784C213.963 193.824 222.907 180.969 242.386 177.02C246.655 176.158 251 175.736 255.355 175.759C257.462 175.751 259.567 175.857 261.663 176.074C276.802 177.563 287.412 184.628 292.47 195.616C293.608 198.096 294.455 200.699 294.994 203.374C296.02 208.824 296.114 214.408 295.271 219.888Z" fill="var(--fill-0, #263238)" id="Vector_43"/>
<path d="M174.727 274.893C174.727 274.893 156.901 274.275 150.038 291.647C150.038 291.647 157.608 296.756 167.536 291.647C177.465 286.537 174.727 274.893 174.727 274.893Z" fill="var(--fill-0, #FF7032)" id="Vector_44"/>
<path d="M174.727 274.893C174.727 274.893 156.901 274.275 150.038 291.647C150.038 291.647 157.608 296.756 167.536 291.647C177.465 286.537 174.727 274.893 174.727 274.893Z" fill="var(--fill-0, black)" id="Vector_45" opacity="0.5"/>
<path d="M174.223 283.258C174.223 283.258 169.177 261.331 166.515 261.067C163.853 260.802 163.336 267.753 163.55 271.676L157.242 258.102C157.042 257.68 156.758 257.304 156.407 256.996C156.056 256.688 155.645 256.456 155.201 256.313C154.756 256.17 154.287 256.119 153.823 256.164C153.358 256.209 152.907 256.349 152.499 256.575C146.191 260.045 135.127 270.591 158.453 296.668L174.223 283.258Z" fill="var(--fill-0, #945959)" id="Vector_46"/>
<path d="M238.816 268.093L235.031 267.601C231.217 267.095 227.337 267.614 223.79 269.104C220.242 270.594 217.155 273.001 214.846 276.079L192.327 306.054L174.665 274.893C174.665 274.893 172.546 296.088 149.976 291.647L174.211 332.433C175.745 335.016 177.879 337.189 180.434 338.769C182.988 340.349 185.886 341.288 188.881 341.507C191.876 341.727 194.88 341.219 197.637 340.028C200.394 338.837 202.822 336.998 204.716 334.666L225.456 309.17L238.816 268.093Z" fill="var(--fill-0, #FF7032)" id="Vector_47"/>
<path d="M286.882 338.048C281.836 350.84 281.281 353.338 284.359 359.734C286.503 364.458 288.192 369.375 289.405 374.419C289.405 374.419 266.016 400.635 232.723 390.819L217.761 382.19C214.649 380.396 211.846 378.113 209.459 375.428L214.014 341.467C214.243 339.679 214.062 337.863 213.484 336.156L208.702 322.139C206.369 315.294 206.022 307.927 207.701 300.892C209.38 293.857 213.016 287.442 218.189 282.387L234.262 266.681L276.474 272.08L282.782 273.884C286.912 275.079 290.471 277.723 292.808 281.331C295.144 284.94 296.099 289.27 295.499 293.527C293.43 308.414 290.049 330.012 286.882 338.048Z" fill="var(--fill-0, #FF7032)" id="Vector_48"/>
<path d="M286.882 338.048C281.836 350.84 281.281 353.338 284.359 359.734C286.503 364.458 288.192 369.375 289.405 374.419C289.405 374.419 266.016 400.635 232.723 390.819L217.761 382.19C214.649 380.396 211.846 378.113 209.459 375.428L214.014 341.467C214.243 339.679 214.062 337.863 213.484 336.156L208.702 322.139C206.369 315.294 206.022 307.927 207.701 300.892C209.38 293.857 213.016 287.442 218.189 282.387L234.262 266.681L276.474 272.08L282.782 273.884C286.912 275.079 290.471 277.723 292.808 281.331C295.144 284.94 296.099 289.27 295.499 293.527C293.43 308.414 290.049 330.012 286.882 338.048Z" fill="var(--fill-0, black)" id="Vector_49" opacity="0.5"/>
<path d="M261.424 299.833L252.971 292.63C252.076 291.864 250.997 291.345 249.84 291.124C248.682 290.903 247.488 290.987 246.373 291.368L236.154 294.888L234.779 289.161C234.565 288.269 234.172 287.431 233.624 286.696C233.077 285.961 232.386 285.344 231.594 284.883C230.802 284.422 229.924 284.127 229.015 284.014C228.105 283.901 227.182 283.974 226.302 284.228L221.873 285.489L229.367 271.133C231.814 266.457 235.583 262.605 240.204 260.056L243.144 258.441L267.429 259.703C267.429 259.703 276.474 263.488 276.474 272.003L261.424 299.758" fill="var(--fill-0, #FF7032)" id="Vector_50"/>
<path d="M267.529 270.465L243.181 289.439V229.022H267.529V270.465Z" fill="var(--fill-0, #945959)" id="Vector_51"/>
<path d="M243.56 265.483L236.155 294.941L267.429 270.466L243.56 265.483Z" fill="var(--fill-0, #945959)" id="Vector_52"/>
<path d="M243.183 261.104C248.597 259.094 253.546 256.004 257.729 252.022C261.913 248.04 265.243 243.25 267.518 237.942V229.022H243.17L243.183 261.104Z" fill="var(--fill-0, #703838)" id="Vector_53"/>
<path d="M248.43 184.249C239.195 184.249 219.565 189.396 217.294 213.568C215.024 237.739 217.219 256.461 229.683 258.278C242.147 260.094 271.113 251.049 274.999 219.762C278.884 188.475 257.425 184.249 248.43 184.249Z" fill="var(--fill-0, #945959)" id="Vector_54"/>
<path d="M233.896 223.798V238.042L225.545 235.481L233.896 223.798Z" fill="var(--fill-0, #703838)" id="Vector_55"/>
<path d="M243.182 229.161C244.784 229.161 246.083 227.862 246.083 226.259C246.083 224.657 244.784 223.358 243.182 223.358C241.579 223.358 240.28 224.657 240.28 226.259C240.28 227.862 241.579 229.161 243.182 229.161Z" fill="var(--fill-0, #263238)" id="Vector_56"/>
<path d="M226.982 224.24C226.98 224.814 226.807 225.373 226.487 225.849C226.167 226.324 225.713 226.694 225.182 226.912C224.652 227.13 224.069 227.185 223.507 227.072C222.945 226.959 222.429 226.681 222.024 226.275C221.62 225.869 221.345 225.352 221.234 224.789C221.123 224.227 221.181 223.644 221.401 223.114C221.621 222.585 221.993 222.133 222.47 221.814C222.947 221.496 223.507 221.326 224.08 221.326C224.463 221.326 224.841 221.402 225.194 221.548C225.547 221.695 225.867 221.91 226.137 222.18C226.406 222.451 226.62 222.773 226.765 223.126C226.91 223.48 226.984 223.858 226.982 224.24Z" fill="var(--fill-0, #263238)" id="Vector_57"/>
<path d="M220.537 218.185L226.214 214.817C226.214 214.817 224.044 212.559 221.874 213.909C219.704 215.259 220.537 218.185 220.537 218.185Z" fill="var(--fill-0, #263238)" id="Vector_58"/>
<path d="M229.973 243.821C232.737 244.023 235.489 243.285 237.782 241.726C237.782 241.726 238.324 245.852 234.867 246.634C231.411 247.416 229.973 243.821 229.973 243.821Z" fill="var(--fill-0, #703838)" id="Vector_59"/>
<path d="M225.015 192.475C225.015 192.475 228.484 225.843 273.863 226.89C273.863 226.89 287.576 193.724 260.478 182.95C233.379 172.176 225.015 192.475 225.015 192.475Z" fill="var(--fill-0, #263238)" id="Vector_60"/>
<path d="M287.223 221.895L281.647 218.665C279.527 217.404 276.6 217.58 273.358 219.447C266.924 223.156 261.701 232.202 261.701 239.633C261.701 243.354 262.963 245.94 265.133 247.202L270.608 250.356L270.923 250.533L271.113 250.646C273.182 251.655 275.944 251.416 278.985 249.662C285.419 245.877 290.642 236.908 290.642 229.477C290.604 225.717 289.305 223.119 287.223 221.895Z" fill="var(--fill-0, #FF7032)" id="Vector_61"/>
<path d="M287.179 240.895C291.728 233.014 291.729 224.497 287.179 221.87C282.629 219.243 275.253 223.502 270.703 231.383C266.153 239.263 266.153 247.781 270.703 250.408C275.252 253.034 282.629 248.775 287.179 240.895Z" fill="var(--fill-0, #FF7032)" id="Vector_62"/>
<path d="M287.179 240.895C291.728 233.014 291.729 224.497 287.179 221.87C282.629 219.243 275.253 223.502 270.703 231.383C266.153 239.263 266.153 247.781 270.703 250.408C275.252 253.034 282.629 248.775 287.179 240.895Z" fill="var(--fill-0, black)" id="Vector_63" opacity="0.5"/>
<path d="M289.456 228.895L285.671 226.688C284.233 225.83 282.227 225.943 280.007 227.218C277.687 228.733 275.757 230.774 274.372 233.173C272.987 235.573 272.186 238.265 272.033 241.032C272.033 243.555 272.929 245.359 274.38 246.192L278.165 248.349C278.232 248.398 278.304 248.44 278.379 248.475L278.505 248.551C279.392 248.887 280.349 249.001 281.29 248.882C282.231 248.764 283.129 248.416 283.905 247.87C286.223 246.355 288.152 244.317 289.537 241.919C290.922 239.522 291.724 236.832 291.878 234.068C291.777 231.507 290.894 229.728 289.456 228.895Z" fill="var(--fill-0, #FF7032)" id="Vector_64"/>
<path d="M291.777 234.044C291.623 236.808 290.821 239.498 289.436 241.895C288.051 244.293 286.122 246.331 283.804 247.845C279.388 250.368 275.818 248.325 275.818 243.241C275.968 240.474 276.769 237.781 278.157 235.383C279.545 232.984 281.48 230.948 283.804 229.439C288.207 226.891 291.777 228.947 291.777 234.044Z" fill="var(--fill-0, #FF7032)" id="Vector_65"/>
<path d="M291.777 234.044C291.623 236.808 290.821 239.498 289.436 241.895C288.051 244.293 286.122 246.331 283.804 247.845C279.388 250.368 275.818 248.325 275.818 243.241C275.968 240.474 276.769 237.781 278.157 235.383C279.545 232.984 281.48 230.948 283.804 229.439C288.207 226.891 291.777 228.947 291.777 234.044Z" fill="var(--fill-0, black)" id="Vector_66" opacity="0.3"/>
<path d="M269.903 177.738C266.286 174.945 261.857 173.408 257.287 173.361H256.164C251.537 173.311 246.917 173.734 242.375 174.622C243.208 174.622 244.04 174.622 244.898 174.622H242.375V176.969H244.722C252.809 177.244 260.472 180.653 266.091 186.475C271.711 192.297 274.847 200.076 274.835 208.167V218.096C274.835 218.489 274.917 218.877 275.076 219.235C275.236 219.594 275.469 219.915 275.76 220.178C276.052 220.441 276.395 220.64 276.768 220.761C277.141 220.883 277.536 220.925 277.926 220.884H278.216L280.74 220.102C280.571 220.155 280.398 220.189 280.222 220.203C280.975 220.101 281.663 219.725 282.156 219.148C282.649 218.571 282.913 217.833 282.897 217.074V207.865C282.872 191.199 275.668 182.242 269.903 177.738Z" fill="var(--fill-0, #FF7032)" id="Vector_67"/>
<path d="M254.016 257.583C252.976 257.583 251.948 257.36 251.001 256.927L243.116 253.281C242.993 253.237 242.88 253.168 242.785 253.078C242.69 252.988 242.614 252.879 242.563 252.759C242.512 252.638 242.487 252.508 242.489 252.377C242.491 252.246 242.52 252.117 242.574 251.998C242.628 251.879 242.707 251.772 242.804 251.685C242.902 251.597 243.017 251.531 243.141 251.491C243.266 251.45 243.397 251.436 243.528 251.449C243.658 251.462 243.784 251.501 243.899 251.565L251.783 255.211C252.789 255.679 253.915 255.821 255.006 255.617C256.096 255.414 257.095 254.875 257.864 254.076L265.434 246.254C265.611 246.077 265.851 245.978 266.102 245.978C266.353 245.978 266.593 246.077 266.771 246.254C266.945 246.433 267.042 246.673 267.042 246.923C267.042 247.173 266.945 247.413 266.771 247.592L259.201 255.413C258.528 256.105 257.721 256.654 256.83 257.027C255.939 257.4 254.982 257.589 254.016 257.583Z" fill="var(--fill-0, #FF7032)" id="Vector_68"/>
<path d="M254.016 257.583C252.976 257.583 251.948 257.36 251.001 256.927L243.116 253.281C242.993 253.237 242.88 253.168 242.785 253.078C242.69 252.988 242.614 252.879 242.563 252.759C242.512 252.638 242.487 252.508 242.489 252.377C242.491 252.246 242.52 252.117 242.574 251.998C242.628 251.879 242.707 251.772 242.804 251.685C242.902 251.597 243.017 251.531 243.141 251.491C243.266 251.45 243.397 251.436 243.528 251.449C243.658 251.462 243.784 251.501 243.899 251.565L251.783 255.211C252.789 255.679 253.915 255.821 255.006 255.617C256.096 255.414 257.095 254.875 257.864 254.076L265.434 246.254C265.611 246.077 265.851 245.978 266.102 245.978C266.353 245.978 266.593 246.077 266.771 246.254C266.945 246.433 267.042 246.673 267.042 246.923C267.042 247.173 266.945 247.413 266.771 247.592L259.201 255.413C258.528 256.105 257.721 256.654 256.83 257.027C255.939 257.4 254.982 257.589 254.016 257.583Z" fill="var(--fill-0, black)" id="Vector_69" opacity="0.5"/>
<path d="M245.186 250.633C245.186 251.362 244.969 252.074 244.565 252.68C244.16 253.286 243.585 253.758 242.911 254.036C242.238 254.315 241.498 254.388 240.783 254.246C240.068 254.104 239.412 253.753 238.897 253.238C238.382 252.723 238.031 252.066 237.889 251.352C237.747 250.637 237.82 249.897 238.098 249.223C238.377 248.55 238.849 247.975 239.455 247.57C240.061 247.165 240.773 246.949 241.502 246.949C242.479 246.949 243.416 247.337 244.107 248.028C244.797 248.719 245.186 249.656 245.186 250.633Z" fill="var(--fill-0, #FF7032)" id="Vector_70"/>
<path d="M245.186 250.633C245.186 251.362 244.969 252.074 244.565 252.68C244.16 253.286 243.585 253.758 242.911 254.036C242.238 254.315 241.498 254.388 240.783 254.246C240.068 254.104 239.412 253.753 238.897 253.238C238.382 252.723 238.031 252.066 237.889 251.352C237.747 250.637 237.82 249.897 238.098 249.223C238.377 248.55 238.849 247.975 239.455 247.57C240.061 247.165 240.773 246.949 241.502 246.949C242.479 246.949 243.416 247.337 244.107 248.028C244.797 248.719 245.186 249.656 245.186 250.633Z" fill="var(--fill-0, black)" id="Vector_71" opacity="0.5"/>
<path d="M282.87 207.865V217.075C282.886 217.834 282.623 218.572 282.129 219.149C281.636 219.726 280.948 220.102 280.196 220.204C279.78 220.248 279.36 220.204 278.962 220.075C278.565 219.946 278.199 219.735 277.888 219.456C277.577 219.176 277.329 218.834 277.159 218.452C276.99 218.07 276.902 217.657 276.903 217.239V207.865C276.91 203.392 276.012 198.963 274.263 194.846C272.514 190.728 269.95 187.007 266.725 183.906C263.501 180.805 259.682 178.389 255.499 176.802C251.317 175.215 246.856 174.491 242.386 174.673C246.928 173.785 251.548 173.362 256.175 173.412H257.273C261.842 173.459 266.272 174.996 269.889 177.79C275.667 182.243 282.87 191.2 282.87 207.865Z" fill="var(--fill-0, #FF7032)" id="Vector_72"/>
<path d="M282.87 207.865V217.075C282.886 217.834 282.623 218.572 282.129 219.149C281.636 219.726 280.948 220.102 280.196 220.204C279.78 220.248 279.36 220.204 278.962 220.075C278.565 219.946 278.199 219.735 277.888 219.456C277.577 219.176 277.329 218.834 277.159 218.452C276.99 218.07 276.902 217.657 276.903 217.239V207.865C276.91 203.392 276.012 198.963 274.263 194.846C272.514 190.728 269.95 187.007 266.725 183.906C263.501 180.805 259.682 178.389 255.499 176.802C251.317 175.215 246.856 174.491 242.386 174.673C246.928 173.785 251.548 173.362 256.175 173.412H257.273C261.842 173.459 266.272 174.996 269.889 177.79C275.667 182.243 282.87 191.2 282.87 207.865Z" fill="var(--fill-0, black)" id="Vector_73" opacity="0.5"/>
<path d="M268.69 381.42C268.69 381.42 262.584 398.237 284.409 405.806C284.409 405.806 291.537 395.335 284.409 386.769C277.281 378.203 268.69 381.42 268.69 381.42Z" fill="var(--fill-0, #FF7032)" id="Vector_74"/>
<path d="M268.69 381.42C268.69 381.42 262.584 398.237 284.409 405.806C284.409 405.806 291.537 395.335 284.409 386.769C277.281 378.203 268.69 381.42 268.69 381.42Z" fill="var(--fill-0, black)" id="Vector_75" opacity="0.7"/>
<path d="M276.348 382.191C276.348 382.191 255.028 390 255.141 393.027C255.255 396.055 264.199 393.986 264.199 393.986L260.932 396.131C257.491 398.376 254.826 401.627 253.299 405.441C252.967 406.283 252.955 407.217 253.267 408.066C253.579 408.915 254.192 409.62 254.99 410.046L263.089 414.335C263.547 414.578 264.048 414.727 264.564 414.772C265.08 414.818 265.599 414.759 266.092 414.6C266.585 414.442 267.041 414.186 267.433 413.848C267.825 413.51 268.146 413.096 268.375 412.632C268.827 411.74 269.451 410.947 270.211 410.297C270.971 409.647 271.852 409.155 272.803 408.848C277.206 407.384 285.419 403.17 288.712 391.64L276.348 382.191Z" fill="var(--fill-0, #945959)" id="Vector_76"/>
<path d="M282.744 273.858C282.744 273.858 271.389 280.166 277.42 299.317C283.45 318.467 294.766 348.177 294.766 348.177L268.69 381.42C271.475 381.756 274.159 382.676 276.566 384.119C278.972 385.562 281.047 387.497 282.655 389.797C284.196 392.135 285.158 394.806 285.463 397.59C285.768 400.373 285.407 403.19 284.409 405.806L316.781 364.174C319.774 360.327 321.762 355.794 322.564 350.986C323.366 346.177 322.956 341.245 321.373 336.634L307.496 296.112C305.799 291.162 302.98 286.672 299.26 282.993C295.539 279.314 291.017 276.546 286.049 274.905L282.744 273.858Z" fill="var(--fill-0, #FF7032)" id="Vector_77"/>
</g>
<g id="Icons">
<path d="M91.0868 160.733L40.9141 131.717C40.3367 131.317 39.6686 131.067 38.9704 130.99C38.2721 130.913 37.5657 131.011 36.9149 131.275C36.7777 131.339 36.6468 131.415 36.5238 131.502L25.6112 137.899H25.6869C24.3118 138.681 23.4413 140.497 23.4413 143.096V198.908C23.4413 203.627 26.305 209.114 29.8501 211.158L80.0228 240.174C80.6594 240.635 81.4172 240.898 82.2022 240.932C82.9871 240.965 83.7647 240.768 84.4383 240.364C84.4042 240.377 84.3739 240.399 84.35 240.427L95.1869 234.119C96.5999 233.362 97.4956 231.52 97.4956 228.883V172.983C97.4956 168.265 94.6823 162.777 91.0868 160.733Z" fill="var(--fill-0, #FF7032)" id="Vector_78"/>
<path d="M95.7049 166.019C94.6898 163.86 93.0902 162.029 91.0875 160.733L40.9148 131.717C40.3374 131.317 39.6694 131.067 38.9711 130.99C38.2728 130.913 37.5664 131.011 36.9156 131.275C36.7784 131.339 36.6475 131.415 36.5245 131.502L25.6119 137.899C26.2794 137.557 27.0279 137.406 27.7755 137.462C28.5232 137.518 29.2411 137.778 29.8508 138.214L80.0235 167.23C82.0944 168.584 83.7357 170.501 84.7544 172.756L95.7049 166.019Z" fill="var(--fill-0, #FF7032)" id="Vector_79"/>
<path d="M86.4335 235.268C86.4335 237.791 85.6261 239.545 84.3519 240.314L95.1889 234.006C96.6018 233.249 97.4975 231.407 97.4975 228.771V172.984C97.4442 170.556 96.8311 168.173 95.7061 166.02L84.7556 172.757C85.807 174.846 86.3802 177.143 86.4335 179.481V235.268Z" fill="var(--fill-0, #FF7032)" id="Vector_80"/>
<path d="M95.7049 166.019C94.6898 163.86 93.0902 162.029 91.0875 160.733L40.9148 131.717C40.3374 131.317 39.6694 131.067 38.9711 130.99C38.2728 130.913 37.5664 131.011 36.9156 131.275C36.7784 131.339 36.6475 131.415 36.5245 131.502L25.6119 137.899C26.2794 137.557 27.0279 137.406 27.7755 137.462C28.5232 137.518 29.2411 137.778 29.8508 138.214L80.0235 167.23C82.0944 168.584 83.7357 170.501 84.7544 172.756L95.7049 166.019Z" fill="var(--fill-0, black)" id="Vector_81" opacity="0.3"/>
<path d="M86.4335 235.268C86.4335 237.791 85.6261 239.545 84.3519 240.314L95.1889 234.006C96.6018 233.249 97.4975 231.407 97.4975 228.771V172.984C97.4442 170.556 96.8311 168.173 95.7061 166.02L84.7556 172.757C85.807 174.846 86.3802 177.143 86.4335 179.481V235.268Z" fill="var(--fill-0, black)" id="Vector_82" opacity="0.6"/>
<path d="M71.7222 195.464C71.7222 202.693 68.8584 205.153 64.569 202.668C63.3858 201.994 62.3511 201.088 61.5272 200.004C60.7033 198.92 60.1073 197.68 59.7751 196.36C58.5135 197.912 56.558 198.013 53.8078 196.423C49.2914 193.811 45.7337 187.592 45.7337 181.549C45.7337 175.506 49.2535 173.424 53.8078 176.049C56.1188 177.411 57.9856 179.413 59.1821 181.814V179.43L63.9382 182.18V195.25C63.8674 195.937 63.9864 196.632 64.2822 197.256C64.578 197.881 65.0393 198.413 65.6161 198.795C67.2183 199.728 68.2024 198.151 68.2024 193.471C68.2024 185.283 62.9542 176.604 55.1955 172.125C47.4369 167.646 42.2014 170.763 42.2014 179.19C42.303 183.662 43.5352 188.035 45.7831 191.902C48.0309 195.769 51.2213 199.004 55.0568 201.305C57.1393 202.588 59.5042 203.342 61.945 203.5L63.0678 207.853C60.2258 207.623 57.4794 206.72 55.0568 205.216C44.9642 199.375 38.2905 187.617 38.2905 176.97C38.2905 166.322 45.0273 162.461 55.1955 168.34C65.0232 174.005 71.7222 185.346 71.7222 195.464ZM59.2578 189.396C59.2823 187.796 58.892 186.217 58.1248 184.814C57.3576 183.41 56.2397 182.228 54.8801 181.385C52.357 179.909 50.553 180.943 50.553 184.375C50.5205 185.977 50.9017 187.561 51.6597 188.973C52.4176 190.385 53.5268 191.578 54.8801 192.436C57.4033 193.862 59.2578 192.941 59.2578 189.396Z" fill="var(--fill-0, #FF7032)" id="Vector_83"/>
<g id="Group" opacity="0.9">
<path d="M71.7227 195.465C71.7227 202.694 68.8589 205.154 64.5695 202.669C63.3863 201.995 62.3516 201.089 61.5277 200.005C60.7038 198.921 60.1078 197.681 59.7756 196.361C58.514 197.912 56.5585 198.013 53.8083 196.424C49.2919 193.812 45.7343 187.593 45.7343 181.55C45.7343 175.507 49.254 173.425 53.8083 176.049C56.1193 177.411 57.9861 179.414 59.1826 181.815V179.43L63.9387 182.181V195.251C63.8679 195.938 63.9869 196.632 64.2827 197.257C64.5785 197.882 65.0398 198.414 65.6166 198.796C67.2188 199.729 68.2029 198.152 68.2029 193.472C68.2029 185.284 62.9547 176.604 55.196 172.126C47.4374 167.647 42.2019 170.763 42.2019 179.191C42.3035 183.662 43.5357 188.036 45.7836 191.903C48.0314 195.77 51.2218 199.005 55.0573 201.306C57.1398 202.589 59.5047 203.343 61.9455 203.501L63.0683 207.854C60.2263 207.624 57.4799 206.72 55.0573 205.217C44.9647 199.376 38.291 187.618 38.291 176.97C38.291 166.323 45.0278 162.462 55.196 168.341C65.0237 174.006 71.7227 185.347 71.7227 195.465ZM59.2583 189.397C59.2829 187.797 58.8925 186.218 58.1253 184.814C57.3581 183.41 56.2402 182.229 54.8807 181.386C52.3575 179.91 50.5535 180.944 50.5535 184.376C50.521 185.978 50.9022 187.562 51.6602 188.974C52.4181 190.386 53.5273 191.579 54.8807 192.437C57.4038 193.863 59.2583 192.942 59.2583 189.397Z" fill="var(--fill-0, white)" id="Vector_84"/>
</g>
<path d="M91.0868 260.12L40.9141 231.104C40.3375 230.702 39.6686 230.451 38.9695 230.376C38.2704 230.301 37.5637 230.404 36.9149 230.675C36.7777 230.738 36.6468 230.814 36.5238 230.902L25.6112 237.298H25.6869C24.3118 238.081 23.4413 239.897 23.4413 242.483V298.27C23.4413 303.001 26.305 308.476 29.8501 310.52L80.0228 339.536C80.6581 340 81.4163 340.265 82.2019 340.299C82.9876 340.332 83.7657 340.133 84.4383 339.725L84.35 339.801L95.1869 333.43C96.5999 332.686 97.4956 330.907 97.4956 328.195V272.357C97.4956 267.639 94.6823 262.164 91.0868 260.12Z" fill="var(--fill-0, #FF7032)" id="Vector_85"/>
<path d="M95.7049 265.406C94.6932 263.245 93.0929 261.413 91.0875 260.12L40.9148 231.104C40.3382 230.702 39.6693 230.451 38.9702 230.376C38.2711 230.301 37.5644 230.404 36.9156 230.675C36.7784 230.738 36.6475 230.814 36.5245 230.902L25.6119 237.298C26.2779 236.954 27.026 236.8 27.7739 236.853C28.5218 236.907 29.2405 237.166 29.8508 237.601L80.0235 266.617C82.0976 267.973 83.7395 269.895 84.7544 272.156L95.7049 265.406Z" fill="var(--fill-0, #FF7032)" id="Vector_86"/>
<path d="M86.4335 334.64C86.4335 337.163 85.6261 338.917 84.3519 339.75L95.1889 333.379C96.6018 332.634 97.4975 330.855 97.4975 328.143V272.356C97.4441 269.932 96.831 267.553 95.7061 265.405L84.7556 272.142C85.8068 274.227 86.38 276.519 86.4335 278.853V334.64Z" fill="var(--fill-0, #FF7032)" id="Vector_87"/>
<path d="M95.7049 265.406C94.6932 263.245 93.0929 261.413 91.0875 260.12L40.9148 231.104C40.3382 230.702 39.6693 230.451 38.9702 230.376C38.2711 230.301 37.5644 230.404 36.9156 230.675C36.7784 230.738 36.6475 230.814 36.5245 230.902L25.6119 237.298C26.2779 236.954 27.026 236.8 27.7739 236.853C28.5218 236.907 29.2405 237.166 29.8508 237.601L80.0235 266.617C82.0976 267.973 83.7395 269.895 84.7544 272.156L95.7049 265.406Z" fill="var(--fill-0, black)" id="Vector_88" opacity="0.3"/>
<path d="M86.4335 334.64C86.4335 337.163 85.6261 338.917 84.3519 339.75L95.1889 333.379C96.6018 332.634 97.4975 330.855 97.4975 328.143V272.356C97.4441 269.932 96.831 267.553 95.7061 265.405L84.7556 272.142C85.8068 274.227 86.38 276.519 86.4335 278.853V334.64Z" fill="var(--fill-0, black)" id="Vector_89" opacity="0.6"/>
<path d="M49.327 285.06L37.2285 265.405V292.037L49.327 285.06Z" fill="var(--fill-0, #FF7032)" id="Vector_90"/>
<path d="M60.571 290.726L72.6442 311.63V285.036L60.571 290.726Z" fill="var(--fill-0, #FF7032)" id="Vector_91"/>
<path d="M39.0585 264.51L51.485 284.695C51.5376 284.74 51.5843 284.79 51.6238 284.847C51.6347 284.897 51.6347 284.948 51.6238 284.998L55.3202 291.003L58.4489 289.527C58.4976 289.474 58.5527 289.428 58.6129 289.388C58.7362 289.316 58.8743 289.273 59.0166 289.262L71.6323 283.345L39.0585 264.51Z" fill="var(--fill-0, #FF7032)" id="Vector_92"/>
<path d="M58.7421 291.583L55.361 293.172C55.2308 293.233 55.0884 293.263 54.9447 293.261C54.7706 293.263 54.5989 293.219 54.4464 293.135C54.2938 293.051 54.1656 292.929 54.0742 292.781L50.3778 286.776L38.2415 293.79L70.9036 312.638L58.7421 291.583Z" fill="var(--fill-0, #FF7032)" id="Vector_93"/>
<g id="Group_2" opacity="0.9">
<path d="M49.3262 285.062L37.2277 265.407V292.038L49.3262 285.062Z" fill="var(--fill-0, white)" id="Vector_94"/>
<path d="M60.5701 290.726L72.6433 311.631V285.037L60.5701 290.726Z" fill="var(--fill-0, white)" id="Vector_95"/>
<path d="M39.0577 264.512L51.4841 284.697C51.5368 284.741 51.5834 284.792 51.6229 284.848C51.6339 284.898 51.6339 284.95 51.6229 285L55.3193 291.005L58.448 289.529C58.4968 289.476 58.5518 289.429 58.612 289.39C58.7354 289.318 58.8734 289.275 59.0157 289.264L71.6315 283.347L39.0577 264.512Z" fill="var(--fill-0, white)" id="Vector_96"/>
<path d="M58.7412 291.584L55.3602 293.174C55.2299 293.234 55.0875 293.265 54.9438 293.262C54.7697 293.264 54.598 293.221 54.4455 293.137C54.293 293.053 54.1648 292.931 54.0733 292.783L50.3769 286.778L38.2406 293.792L70.9027 312.64L58.7412 291.584Z" fill="var(--fill-0, white)" id="Vector_97"/>
</g>
<path d="M91.0868 61.3969L40.9141 32.3808C40.3375 31.9784 39.6686 31.7281 38.9695 31.6531C38.2704 31.5781 37.5637 31.6809 36.9149 31.9518C36.7777 32.0152 36.6468 32.0912 36.5238 32.1789L25.6112 38.5751H25.6869C24.3118 39.3447 23.4413 41.1739 23.4413 43.7602V99.5469C23.4413 104.265 26.305 109.753 29.8501 111.797L80.0228 140.813C80.6581 141.276 81.4163 141.542 82.2019 141.575C82.9876 141.609 83.7657 141.41 84.4383 141.002L84.35 141.065L95.1869 134.757C96.5999 134.013 97.4956 132.234 97.4956 129.522V73.5963C97.4956 68.8781 94.6823 63.3902 91.0868 61.3969Z" fill="var(--fill-0, #FF7032)" id="Vector_98"/>
<path d="M95.7049 66.6451C94.6935 64.4806 93.0934 62.6444 91.0875 61.3465L40.9148 32.3808C40.3382 31.9784 39.6693 31.7281 38.9702 31.6531C38.2711 31.5781 37.5644 31.6809 36.9156 31.9518C36.7784 32.0152 36.6475 32.0912 36.5245 32.1789L25.6119 38.5751C26.2779 38.2307 27.026 38.0767 27.7739 38.1301C28.5218 38.1836 29.2405 38.4423 29.8508 38.8779L80.0235 67.894C82.0976 69.2498 83.7395 71.1718 84.7544 73.4323L95.7049 66.6451Z" fill="var(--fill-0, #FF7032)" id="Vector_99"/>
<path d="M86.4335 135.83C86.4335 138.353 85.6261 140.106 84.3519 140.876L95.1889 134.568C96.6018 133.824 97.4975 132.045 97.4975 129.333V73.5964C97.4441 71.1722 96.831 68.7932 95.7061 66.6451L84.7556 73.3819C85.8068 75.4666 86.38 77.7594 86.4335 80.0935V135.83Z" fill="var(--fill-0, #FF7032)" id="Vector_100"/>
<path d="M95.7049 66.6451C94.6935 64.4806 93.0934 62.6444 91.0875 61.3465L40.9148 32.3808C40.3382 31.9784 39.6693 31.7281 38.9702 31.6531C38.2711 31.5781 37.5644 31.6809 36.9156 31.9518C36.7784 32.0152 36.6475 32.0912 36.5245 32.1789L25.6119 38.5751C26.2779 38.2307 27.026 38.0767 27.7739 38.1301C28.5218 38.1836 29.2405 38.4423 29.8508 38.8779L80.0235 67.894C82.0976 69.2498 83.7395 71.1718 84.7544 73.4323L95.7049 66.6451Z" fill="var(--fill-0, black)" id="Vector_101" opacity="0.3"/>
<path d="M86.4335 135.83C86.4335 138.353 85.6261 140.106 84.3519 140.876L95.1889 134.568C96.6018 133.824 97.4975 132.045 97.4975 129.333V73.5964C97.4441 71.1722 96.831 68.7932 95.7061 66.6451L84.7556 73.3819C85.8068 75.4666 86.38 77.7594 86.4335 80.0935V135.83Z" fill="var(--fill-0, black)" id="Vector_102" opacity="0.6"/>
<path d="M70.0175 111.859C68.0873 108.68 66.1445 105.551 64.2143 102.347C63.9082 101.74 63.4802 101.203 62.957 100.769C62.4339 100.335 61.8269 100.013 61.1739 99.8239C60.2404 99.6346 59.3068 99.4202 58.348 99.1426C58.0065 99.0002 57.7193 98.7528 57.528 98.4361C54.3695 93.0305 51.8585 87.2717 50.0469 81.2788C50.0083 81.1506 49.9974 81.0158 50.0148 80.8831C50.0322 80.7505 50.0775 80.623 50.1478 80.5092C50.7407 79.9163 51.4093 79.3738 52.0149 78.8439C52.6205 78.3141 52.9358 77.0903 52.4943 75.5007C51.5607 72.1323 50.665 68.764 49.7315 65.4082C49.5508 64.4547 49.1222 63.5656 48.4888 62.8303C47.8555 62.095 47.0396 61.5396 46.1234 61.2197C44.0889 60.6541 41.9291 60.7335 39.9416 61.4468C39.1721 61.737 38.7684 62.4309 38.7558 63.6293C39.0838 65.938 39.2982 68.2215 39.7398 70.568C42.8517 87.4899 50.337 103.049 62.1958 117.246C62.5054 117.717 62.9213 118.108 63.41 118.389C63.8987 118.669 64.4464 118.831 65.0091 118.861C66.9724 118.814 68.8586 118.087 70.3456 116.805C71.4684 115.795 71.3548 114.004 70.0175 111.859Z" fill="var(--fill-0, #FF7032)" id="Vector_103"/>
<path d="M69.8665 94.6651C69.6026 91.0363 68.6025 87.4993 66.9271 84.2697C65.6762 81.7467 64.0843 79.4077 62.1962 77.3184C61.7042 76.7633 61.2879 76.5867 61.0355 77.003C60.7832 77.4194 61.0355 78.0123 61.5149 78.5548L62.0069 79.1225C65.4939 83.1476 67.6915 88.1273 68.3148 93.4161C68.3086 93.8019 68.3467 94.1871 68.4284 94.5641C68.5868 94.998 68.8412 95.3904 69.1727 95.7122C69.4376 95.9014 69.7404 95.7122 69.9549 95.7122C69.8792 95.1949 69.8918 94.93 69.8665 94.6651Z" fill="var(--fill-0, #FF7032)" id="Vector_104"/>
<path d="M58.4384 84.3073C60.0226 86.0498 60.9853 88.2679 61.176 90.6152C61.2591 90.972 61.3907 91.3159 61.5671 91.637C62.3367 92.2678 62.7151 92.0533 62.7151 91.2586C62.4454 88.2489 61.2007 85.4096 59.1701 83.1719C58.6907 82.6799 58.2996 82.5285 58.0726 82.9448C57.9909 83.1825 57.982 83.4392 58.0472 83.682C58.1124 83.9247 58.2486 84.1425 58.4384 84.3073Z" fill="var(--fill-0, #FF7032)" id="Vector_105"/>
<g id="Group_3" opacity="0.9">
<path d="M70.0185 111.859C68.0883 108.68 66.1455 105.551 64.2153 102.347C63.9091 101.74 63.4811 101.203 62.958 100.769C62.4349 100.334 61.8279 100.013 61.1749 99.8238C60.2413 99.6346 59.3077 99.4201 58.3489 99.1426C58.0075 99.0002 57.7203 98.7527 57.5289 98.4361C54.3704 93.0304 51.8594 87.2716 50.0478 81.2787C50.0093 81.1506 49.9983 81.0157 50.0157 80.8831C50.0331 80.7504 50.0784 80.623 50.1487 80.5091C50.7417 79.9162 51.4103 79.3737 52.0158 78.8439C52.6214 78.314 52.9368 77.0903 52.4952 75.5007C51.5617 72.1323 50.666 68.7639 49.7324 65.4081C49.5518 64.4546 49.1232 63.5655 48.4898 62.8302C47.8564 62.095 47.0405 61.5395 46.1243 61.2197C44.0899 60.6541 41.9301 60.7334 39.9426 61.4468C39.173 61.7369 38.7693 62.4308 38.7567 63.6293C39.0847 65.938 39.2992 68.2214 39.7407 70.5679C42.8526 87.4898 50.338 103.049 62.1967 117.246C62.5063 117.717 62.9223 118.108 63.4109 118.389C63.8996 118.669 64.4474 118.831 65.0101 118.861C66.9734 118.814 68.8595 118.087 70.3465 116.805C71.4693 115.795 71.3558 114.004 70.0185 111.859Z" fill="var(--fill-0, white)" id="Vector_106"/>
<path d="M69.8675 94.665C69.6036 91.0362 68.6034 87.4993 66.928 84.2696C65.6771 81.7466 64.0853 79.4077 62.1971 77.3184C61.7051 76.7633 61.2888 76.5867 61.0365 77.003C60.7842 77.4193 61.0365 78.0122 61.5159 78.5547L62.0079 79.1224C65.4949 83.1475 67.6924 88.1272 68.3158 93.416C68.3096 93.8018 68.3477 94.187 68.4293 94.5641C68.5878 94.9979 68.8422 95.3904 69.1736 95.7121C69.4386 95.9013 69.7413 95.7121 69.9558 95.7121C69.8801 95.1948 69.8927 94.9299 69.8675 94.665Z" fill="var(--fill-0, white)" id="Vector_107"/>
<path d="M58.4393 84.3072C60.0236 86.0497 60.9862 88.2678 61.177 90.6151C61.2601 90.972 61.3916 91.3158 61.5681 91.637C62.3376 92.2678 62.7161 92.0533 62.7161 91.2585C62.4463 88.2489 61.2016 85.4095 59.1711 83.1718C58.6917 82.6798 58.3006 82.5284 58.0735 82.9447C57.9918 83.1824 57.983 83.4391 58.0482 83.6819C58.1134 83.9247 58.2496 84.1424 58.4393 84.3072Z" fill="var(--fill-0, white)" id="Vector_108"/>
</g>
</g>
<g id="Clouds">
<path d="M348.511 27.9401L360.332 34.6643V30.4758C360.332 30.1857 360.332 29.8829 360.332 29.5927C360.332 29.3026 360.332 29.025 360.332 28.7475V28.5961C360.761 23.0578 364.962 20.9257 370.084 23.8904C372.403 25.3167 374.39 27.2222 375.913 29.4792C377.061 21.9098 383.204 19.2352 390.635 23.512C398.886 28.2807 405.572 39.9124 405.572 49.3994V58.3566C405.56 59.0731 405.737 59.7801 406.085 60.4067C406.432 61.0334 406.939 61.5576 407.553 61.9268L414.517 66.0017C416.02 66.8928 417.265 68.1588 418.132 69.6758C418.999 71.1928 419.457 72.9089 419.462 74.6561C419.462 75.381 419.271 76.0931 418.909 76.7208C418.546 77.3485 418.025 77.8695 417.397 78.2315C416.769 78.5935 416.056 78.7836 415.331 78.7827C414.607 78.7818 413.895 78.5899 413.268 78.2264L348.688 40.8964C346.975 39.9015 345.552 38.4756 344.56 36.7604C343.569 35.0452 343.043 33.1004 343.036 31.1192C343.035 30.478 343.203 29.8478 343.523 29.2919C343.843 28.736 344.303 28.2739 344.857 27.9519C345.412 27.6298 346.041 27.4593 346.683 27.4572C347.324 27.4551 347.955 27.6217 348.511 27.9401Z" fill="var(--fill-0, #E6E6E6)" id="Vector_109"/>
<path d="M438.623 26.1867L447.214 31.1194V28.0412C447.214 27.8267 447.214 27.6122 447.214 27.3978C447.214 27.1833 447.214 26.9815 447.214 26.7796V26.7039C447.53 22.6795 450.583 21.1278 454.304 23.285C455.99 24.3177 457.435 25.6984 458.543 27.3347C459.389 21.8595 463.855 19.8788 469.254 22.9949C475.259 26.4642 480.116 34.8915 480.116 41.8175V48.3399C480.121 48.8512 480.258 49.3525 480.514 49.7948C480.771 50.2371 481.138 50.6052 481.58 50.863L486.626 53.8277C487.724 54.4735 488.634 55.3956 489.265 56.5023C489.895 57.609 490.225 58.8617 490.221 60.1356C490.221 60.6573 490.084 61.1698 489.825 61.6226C489.565 62.0754 489.193 62.4529 488.743 62.7177C488.294 62.9826 487.783 63.1258 487.261 63.1331C486.739 63.1405 486.225 63.0118 485.768 62.7597L438.749 35.6106C437.503 34.8898 436.469 33.8543 435.749 32.6077C435.03 31.3611 434.65 29.9473 434.649 28.508C434.648 28.0421 434.77 27.5842 435.001 27.1799C435.233 26.7756 435.566 26.4392 435.968 26.2043C436.371 25.9693 436.828 25.844 437.293 25.8409C437.759 25.8378 438.218 25.957 438.623 26.1867Z" fill="var(--fill-0, #E6E6E6)" id="Vector_110"/>
</g>
</g>
</svg>