<?xml version="1.0" encoding="utf-8"?>
<svg xmlns="http://www.w3.org/2000/svg" fill="none" height="100%" overflow="visible" preserveAspectRatio="none" style="display: block;" viewBox="0 0 24 24" width="100%">
<g id="iconamoon:eye-fill">
<path clip-rule="evenodd" d="M1.069 11.636C2.803 7.194 6.884 4 12 4C17.116 4 21.197 7.194 22.932 11.636C23.0235 11.87 23.0235 12.13 22.932 12.364C21.197 16.806 17.116 20 12 20C6.884 20 2.803 16.806 1.069 12.364C0.977532 12.13 0.977532 11.87 1.069 11.636ZM12 15C12.7956 15 13.5587 14.6839 14.1213 14.1213C14.6839 13.5587 15 12.7956 15 12C15 11.2044 14.6839 10.4413 14.1213 9.87868C13.5587 9.31607 12.7956 9 12 9C11.2044 9 10.4413 9.31607 9.87868 9.87868C9.31607 10.4413 9 11.2044 9 12C9 12.7956 9.31607 13.5587 9.87868 14.1213C10.4413 14.6839 11.2044 15 12 15Z" fill="var(--fill-0, white)" fill-rule="evenodd" id="Vector"/>
</g>
</svg>