<?xml version="1.0" encoding="utf-8"?>
<svg xmlns="http://www.w3.org/2000/svg" fill="none" height="100%" overflow="visible" preserveAspectRatio="none" style="display: block;" viewBox="0 0 318.633 400" width="100%">
<g id="Frame 2147257348">
<rect height="146" id="Rectangle 7899" rx="29.5" stroke="var(--stroke-0, white)" stroke-dasharray="8 8" width="247" x="0.5" y="35.5"/>
<g id="Polygon 4">
<mask fill="white" id="path-2-inside-1_0_17495">
<path d="M309.249 126.524C321.762 117.766 321.762 99.2343 309.249 90.4762L235.365 38.7639C220.784 28.5583 200.75 38.9898 200.75 56.7878L200.75 160.212C200.75 178.01 220.784 188.442 235.365 178.236L309.249 126.524Z"/>
</mask>
<path d="M309.249 126.524C321.762 117.766 321.762 99.2343 309.249 90.4762L235.365 38.7639C220.784 28.5583 200.75 38.9898 200.75 56.7878L200.75 160.212C200.75 178.01 220.784 188.442 235.365 178.236L309.249 126.524Z" fill="url(#paint0_linear_0_17495)"/>
<path d="M310.216 89.0937C309.571 90.0154 308.926 90.937 308.281 91.8587C302.446 87.927 296.613 83.9919 290.782 80.0534C271.699 67.1629 252.641 54.2358 233.61 41.2722C221.955 32.4692 203.387 42.6632 204.357 56.7878C204.702 91.2626 204.947 125.737 205.092 160.212C204.432 173.799 222.205 182.921 232.796 174.566C240.138 169.411 247.484 164.261 254.834 159.117C272.112 147.023 289.583 135.206 307.248 123.665C312.308 120.467 315.671 114.712 315.933 108.479C316.268 102.28 313.461 95.8755 308.281 91.8587C308.926 90.937 309.571 90.0154 310.216 89.0937C316.691 93.0575 321.089 100.565 321.333 108.473C321.718 116.379 317.871 124.582 311.249 129.382C294.358 142.028 277.273 154.397 259.995 166.49C252.645 171.634 245.291 176.773 237.934 181.906C221.772 194.431 195.302 180.516 196.408 160.212C196.553 125.737 196.798 91.2626 197.143 56.7878C196.348 37.0214 222.022 24.1784 237.121 36.2557C255.817 49.6987 274.488 63.1782 293.133 76.6944C298.83 80.8241 304.524 84.9572 310.216 89.0937ZM308.281 91.8587L310.216 89.0937L308.281 91.8587Z" fill="var(--stroke-0, white)" mask="url(#path-2-inside-1_0_17495)"/>
</g>
<g filter="url(#filter0_dd_0_17495)" id="Frame 21">
<rect fill="var(--fill-0, white)" height="89" rx="16.4583" width="209" x="36" y="64"/>
<g id="1">
<path d="M140.251 120.998C141.028 120.999 162.209 109.699 163.785 108.595C164.038 108.151 164.031 108.085 163.957 107.585C163.4 106.786 162.117 107.213 161.27 106.947C160.796 106.797 160.952 105.637 160.704 105.133C160.456 104.63 159.262 104.35 159.037 104.007C158.571 103.296 158.864 102.629 158.452 101.844C157.924 101.335 157.591 101.284 156.881 101.07L156.888 88.1579C157.12 88.0743 157.348 87.9821 157.571 87.8814C159.621 86.9409 157.952 85.2891 159.546 84.6811C162.029 83.7332 159.677 82.2181 162.324 81.6481C163.4 81.4165 163.56 78.527 163.045 77.5436C162.069 76.7579 156.449 77.0517 154.987 77.0526L140.747 77.0658L125.864 77.0511C124.316 77.0498 119.494 76.9399 118.185 77.2502C117.478 77.8987 117.397 80.025 117.928 80.8931C118.928 82.5311 120.1 81.0597 120.228 83.8518C120.241 84.0963 120.892 84.4824 121.219 84.59C122.463 84.9987 122.064 86.1717 122.411 87.1758C122.888 87.7508 123.366 87.8817 124.05 88.1564L124.044 101.07C120.931 101.922 123.364 103.175 121.07 104.52C120.836 104.657 120.496 105.084 120.32 105.314C119.832 108.172 118.514 106.391 117.232 107.353C116.941 107.909 117.002 107.66 117.02 108.313C118.555 109.969 137.145 119.356 140.251 120.998Z" fill="var(--fill-0, #FF7033)" id="Vector"/>
<path d="M140.474 118.998C146.338 116.059 153.227 112.229 159.002 109.009L140.781 108.998L122.002 109.003C123.641 110.029 126.472 111.447 128.24 112.402L140.474 118.998Z" fill="var(--fill-0, white)" id="Vector_2"/>
<path d="M149.837 103.998C150.37 103.303 149.955 102.509 150.446 101.661C150.598 101.399 151.682 100.896 151.703 100.788C152.179 98.4745 151.944 90.1137 151.941 88.2105C150.098 87.5142 150.151 87.0008 150.07 84.9981C149.246 85.5652 150.659 87.189 148.005 88.2068L148.002 100.834C149.813 101.337 149.751 102.23 149.837 103.998Z" fill="var(--fill-0, white)" id="Vector_3"/>
<path d="M130.956 103.998C131.77 102.688 130.462 101.667 132.999 100.858L133.002 88.4272C131.042 87.7138 131.239 87.0848 131.082 84.9981C130.368 86.8067 131.544 87.5079 129.03 88.4536C129.065 92.0814 128.953 95.7183 129.029 99.3437C129.034 99.533 129.179 100.618 129.197 100.631C130.717 101.83 130.818 102.087 130.956 103.998Z" fill="var(--fill-0, white)" id="Vector_4"/>
<path d="M140.336 103.998C141.495 102.965 139.665 101.745 142.96 100.833C142.908 97.1385 143.095 93.3504 142.937 89.671C142.82 86.9578 140.717 88.8492 140.644 84.9981C139.472 86.0326 141.352 87.2645 138.004 88.2941L138.002 100.842C140.279 101.369 140.195 102.223 140.336 103.998Z" fill="var(--fill-0, white)" id="Vector_5"/>
<path d="M119.002 79.8533C122.419 80.0512 161.022 80.0381 161.513 79.8633C161.823 79.7529 161.88 79.4131 162.002 79.1166C159.022 78.929 119.613 78.9741 119.214 79.1812L119.002 79.8533Z" fill="var(--fill-0, white)" id="Vector_6"/>
<path d="M122.002 82.9556C124.989 83.0123 158.377 83.049 158.8 82.8159L159.002 82.0631C151.807 81.8723 144.372 82.1741 137.153 82.0535C135.108 82.0194 122.539 81.9466 122.086 82.2577L122.002 82.9556Z" fill="var(--fill-0, white)" id="Vector_7"/>
<path d="M122.002 106.813C123.165 107.107 130.952 106.963 132.496 106.963L156.323 106.954C157.369 106.949 158.339 107.231 159.002 106.257C158.072 105.893 152.752 106.019 151.448 106.019L135.181 106.018L126.565 106.024C125.242 106.026 123.756 105.966 122.44 106.109C122.303 106.124 122.114 106.592 122.002 106.813Z" fill="var(--fill-0, white)" id="Vector_8"/>
<path d="M126.045 100.998C126.314 100.93 126.55 100.828 126.809 100.727C127.159 99.5338 126.928 89.975 126.919 87.9981L126.181 88.1931C125.891 88.776 126.039 99.4566 126.045 100.998Z" fill="var(--fill-0, white)" id="Vector_9"/>
<path d="M154.106 100.998L154.751 100.831C155.149 100.235 154.976 89.3887 154.886 87.9981C154.734 88.054 154.234 88.2331 154.222 88.3039C153.88 90.4014 154.016 99.3124 154.106 100.998Z" fill="var(--fill-0, white)" id="Vector_10"/>
<path d="M135.043 100.998C135.457 100.908 135.509 100.886 135.864 100.658C136.117 99.051 135.947 90.2234 135.936 87.9981C135.511 88.0334 135.445 88.0335 135.086 88.2548C134.954 89.2079 135.016 91.5761 135.018 92.6322L135.043 100.998Z" fill="var(--fill-0, white)" id="Vector_11"/>
<path d="M145.081 100.998L145.716 100.845C146.15 100.275 145.997 89.3848 145.86 87.9981L145.097 88.3987C144.961 89.3467 145.008 92.0639 145.017 93.167C145.039 95.7103 144.957 98.477 145.081 100.998Z" fill="var(--fill-0, white)" id="Vector_12"/>
<path d="M133.002 85.9447C134.13 85.9542 136.838 86.1333 137.779 85.777C137.988 85.6979 137.968 85.2896 138.002 85.0478C136.372 85.0836 134.968 84.8649 133.391 85.1357C132.932 85.4321 133.072 85.3477 133.002 85.9447Z" fill="var(--fill-0, white)" id="Vector_13"/>
<path d="M143.002 85.9208C144.15 85.9463 146.379 86.1243 147.512 85.8336C147.848 85.7474 147.882 85.3919 148.002 85.0704C146.729 85.0704 144.499 84.8393 143.36 85.2032C143.117 85.281 143.085 85.6541 143.002 85.9208Z" fill="var(--fill-0, white)" id="Vector_14"/>
<path d="M152.002 85.9201C153.187 85.9497 155.448 86.1228 156.568 85.8314C156.871 85.7522 156.904 85.3651 157.002 85.0643C155.853 85.0537 153.403 84.855 152.349 85.2013C152.139 85.2703 152.077 85.6842 152.002 85.9201Z" fill="var(--fill-0, white)" id="Vector_15"/>
<path d="M124.002 85.9257C125.083 85.9446 127.687 86.1442 128.684 85.7856C128.892 85.7107 128.933 85.3127 129.002 85.0783C127.807 85.0498 125.461 84.8526 124.392 85.2075C124.153 85.2867 124.095 85.6707 124.002 85.9257Z" fill="var(--fill-0, white)" id="Vector_16"/>
<path d="M133.002 103.939C134.095 103.949 137.007 104.158 137.854 103.726C137.938 103.684 137.981 103.196 138.002 103.056C136.926 103.046 134.115 102.853 133.219 103.233C133.025 103.316 133.036 103.703 133.002 103.939Z" fill="var(--fill-0, white)" id="Vector_17"/>
<path d="M143.002 103.944C144.082 103.948 146.73 104.137 147.728 103.781C147.936 103.707 147.949 103.308 148.002 103.061C146.725 103.074 143.982 102.787 143.096 103.341L143.002 103.944Z" fill="var(--fill-0, white)" id="Vector_18"/>
<path d="M152.002 103.933C153.242 103.912 155.832 104.193 156.831 103.728C156.928 103.682 156.977 103.206 157.002 103.06C155.714 103.072 153.008 102.791 152.104 103.337L152.002 103.933Z" fill="var(--fill-0, white)" id="Vector_19"/>
<path d="M124.002 103.92C125.112 103.939 127.646 104.148 128.692 103.791C128.891 103.722 128.934 103.33 129.002 103.094C127.817 103.047 125.486 102.854 124.374 103.201C124.146 103.272 124.092 103.659 124.002 103.92Z" fill="var(--fill-0, white)" id="Vector_20"/>
<path d="M151.485 136.926C156.16 137.667 157.732 132.478 153.669 130.36C153.558 121.742 154.587 124.724 147.363 121.204C147.048 121.05 146.995 119.662 146.962 119.214C146.036 118.954 145.85 118.797 145.186 119.54C144.882 120.388 145.035 121.645 145.083 122.587C146.522 123.365 150.036 124.668 151.639 125.284L151.634 130.232C148.627 132.159 148.32 134.997 151.485 136.926Z" fill="var(--fill-0, #FF7033)" id="Vector_21"/>
<path d="M152.517 134.81C152.846 135.084 153.251 135.057 153.562 134.74C153.873 134.424 154.04 133.871 153.994 133.311C153.947 132.751 153.693 132.277 153.34 132.087C152.849 131.822 152.306 132.167 152.091 132.879C151.876 133.591 152.062 134.432 152.517 134.81Z" fill="var(--fill-0, white)" id="Vector_22"/>
<path d="M127.305 136.927C131.853 137.662 133.519 132.522 129.386 130.337C129.379 128.652 129.361 126.986 129.433 125.302C131.575 124.438 133.862 123.557 135.951 122.596C136.043 121.633 135.986 120.335 135.969 119.337C133.312 117.991 134.421 121.063 133.478 121.424C126.519 124.089 127.259 122.809 127.348 130.331C124.248 131.916 124.206 135.217 127.305 136.927Z" fill="var(--fill-0, #FF7033)" id="Vector_23"/>
<path d="M127.502 134.797C127.974 135.205 128.577 134.972 128.858 134.273C129.139 133.573 128.995 132.665 128.535 132.229C128.229 131.94 127.843 131.921 127.524 132.18C127.207 132.439 127.006 132.936 127.002 133.479C126.998 134.022 127.189 134.526 127.502 134.797Z" fill="var(--fill-0, white)" id="Vector_24"/>
<path d="M120.843 131.998C124.814 131.714 125.605 127.501 122.135 125.451L122.137 118.608C123.38 118.201 126.569 117.462 127.002 116.176C126.896 115.441 126.917 115.645 126.445 114.998C124.917 115.329 121.807 116.616 120.291 117.206C120.13 119.365 120.237 123.029 120.235 125.298C117.238 127.5 117.082 130.783 120.843 131.998Z" fill="var(--fill-0, #FF7033)" id="Vector_25"/>
<path d="M120.519 129.812C120.851 130.086 121.257 130.055 121.569 129.734C121.88 129.412 122.045 128.854 121.992 128.291C121.94 127.729 121.681 127.259 121.323 127.077C120.832 126.828 120.295 127.183 120.087 127.894C119.878 128.605 120.066 129.437 120.519 129.812Z" fill="var(--fill-0, white)" id="Vector_26"/>
<path d="M159.448 131.998C163.369 131.854 164.377 127.45 160.786 125.402C160.807 122.638 160.8 119.874 160.76 117.11C158.914 116.317 157.177 115.694 155.288 115.018C155.09 114.974 154.781 115.014 154.565 115.031C154.026 115.403 153.905 115.658 154.071 116.29C154.97 117.344 157.536 118.012 158.893 118.471L158.892 125.398C155.725 127.251 155.967 130.746 159.448 131.998Z" fill="var(--fill-0, #FF7033)" id="Vector_27"/>
<path d="M159.518 129.81C159.996 130.207 160.599 129.955 160.87 129.243C161.141 128.531 160.982 127.624 160.51 127.207C160.2 126.931 159.815 126.928 159.503 127.199C159.19 127.469 158.999 127.97 159.002 128.511C159.005 129.052 159.202 129.548 159.518 129.81Z" fill="var(--fill-0, white)" id="Vector_28"/>
<path d="M143.494 139.998C147.551 139.61 148.291 135.424 144.646 133.301L144.641 129.672C143.656 128.605 142.276 127.294 141.227 126.244C141.28 124.512 141.647 123.253 140.303 121.998C138.537 122.944 139.058 125.269 139.124 127.051C139.921 127.99 141.579 129.539 142.504 130.458L142.502 133.225C142.406 133.284 142.31 133.344 142.214 133.405C139.068 135.442 139.557 139.31 143.494 139.998Z" fill="var(--fill-0, #FF7033)" id="Vector_29"/>
<path d="M142.799 137.822C143.29 138.084 143.887 138.051 144.347 137.737C144.808 137.422 145.057 136.878 144.992 136.324C144.927 135.77 144.561 135.298 144.04 135.098C143.301 134.814 142.466 135.155 142.137 135.876C141.808 136.597 142.098 137.45 142.799 137.822Z" fill="var(--fill-0, white)" id="Vector_30"/>
</g>
</g>
<path d="M54.5 393C56.433 393 58 394.567 58 396.5C58 398.433 56.433 400 54.5 400C52.567 400 51 398.433 51 396.5C51 394.567 52.567 393 54.5 393ZM55 387.046V391.027H54V387.046H55ZM55 379.083V383.064H54V379.083H55ZM55 371.12V375.102H54V371.12H55ZM55 363.157V367.139H54V363.157H55ZM55 355.194V359.176H54V355.194H55ZM55 347.231V351.213H54V347.231H55ZM55 339.269V343.25H54V339.269H55ZM55 331.306V335.287H54V331.306H55ZM55 323.343V327.324H54V323.343H55ZM55 315.38V319.361H54V315.38H55ZM55 307.417V311.398H54V307.417H55ZM55 299.454V303.436H54V299.454H55ZM55 291.491V295.473H54V291.491H55ZM55 283.527V287.51H54V283.527H55ZM55 275.564V279.546H54V275.564H55ZM55 267.602V271.583H54V267.602H55ZM55 259.639V263.62H54V259.639H55ZM55 251.676V255.657H54V251.676H55ZM55 243.713V247.694H54V243.713H55ZM55 235.75V239.731H54V235.75H55ZM55 227.787V231.769H54V227.787H55ZM55 219.824V223.806H54V219.824H55ZM55 211.861V215.843H54V211.861H55ZM55 203.898V207.88H54V203.898H55ZM55 195.936V199.917H54V195.936H55ZM55 187.973V191.954H54V187.973H55ZM55 182V183.991H54V182H55Z" fill="var(--fill-0, white)" id="Union"/>
</g>
<defs>
<filter color-interpolation-filters="sRGB" filterUnits="userSpaceOnUse" height="95.5833" id="filter0_dd_0_17495" width="215.583" x="32.7083" y="62.3542">
<feFlood flood-opacity="0" result="BackgroundImageFix"/>
<feColorMatrix in="SourceAlpha" result="hardAlpha" type="matrix" values="0 0 0 0 0 0 0 0 0 0 0 0 0 0 0 0 0 0 127 0"/>
<feMorphology in="SourceAlpha" operator="dilate" radius="1.64583" result="effect1_dropShadow_0_17495"/>
<feOffset/>
<feColorMatrix type="matrix" values="0 0 0 0 0 0 0 0 0 0 0 0 0 0 0 0 0 0 0.06 0"/>
<feBlend in2="BackgroundImageFix" mode="normal" result="effect1_dropShadow_0_17495"/>
<feColorMatrix in="SourceAlpha" result="hardAlpha" type="matrix" values="0 0 0 0 0 0 0 0 0 0 0 0 0 0 0 0 0 0 127 0"/>
<feOffset dy="1.64583"/>
<feGaussianBlur stdDeviation="1.64583"/>
<feColorMatrix type="matrix" values="0 0 0 0 0 0 0 0 0 0 0 0 0 0 0 0 0 0 0.06 0"/>
<feBlend in2="effect1_dropShadow_0_17495" mode="normal" result="effect2_dropShadow_0_17495"/>
<feBlend in="SourceGraphic" in2="effect2_dropShadow_0_17495" mode="normal" result="shape"/>
</filter>
<linearGradient gradientUnits="userSpaceOnUse" id="paint0_linear_0_17495" x1="204.5" x2="322" y1="178.5" y2="-29.5">
<stop offset="0.252701" stop-color="#FF7032"/>
<stop offset="1" stop-color="#FF0400"/>
</linearGradient>
</defs>
</svg>