<?xml version="1.0" encoding="utf-8"?>
<svg xmlns="http://www.w3.org/2000/svg" fill="none" height="100%" overflow="visible" preserveAspectRatio="none" style="display: block;" viewBox="0 0 21.9647 21.9647" width="100%">
<g clip-path="url(#clip0_0_7557)" id="icon-park-solid:check-one">
<g id="Mask group">
<mask height="22" id="mask0_0_7557" maskUnits="userSpaceOnUse" style="mask-type:luminance" width="22" x="0" y="0">
<g id="Group">
<g id="Group_2">
<path d="M10.9821 20.1339C12.1842 20.1353 13.3747 19.8993 14.4852 19.4393C15.5958 18.9792 16.6045 18.3043 17.4534 17.4533C18.3045 16.6043 18.9794 15.5956 19.4394 14.4851C19.8995 13.3745 20.1355 12.184 20.134 10.9819C20.1355 9.77985 19.8995 8.58934 19.4394 7.47878C18.9794 6.36822 18.3045 5.3595 17.4534 4.51058C16.6045 3.65952 15.5958 2.98459 14.4852 2.52457C13.3747 2.06454 12.1842 1.82849 10.9821 1.82997C9.78002 1.82849 8.5895 2.06454 7.47894 2.52457C6.36838 2.98459 5.35967 3.65952 4.51074 4.51058C3.65969 5.3595 2.98476 6.36822 2.52473 7.47878C2.06471 8.58934 1.82866 9.77985 1.83014 10.9819C1.82866 12.184 2.06471 13.3745 2.52473 14.4851C2.98476 15.5956 3.65969 16.6043 4.51074 17.4533C5.35967 18.3043 6.36838 18.9792 7.47894 19.4393C8.5895 19.8993 9.78002 20.1353 10.9821 20.1339Z" fill="var(--fill-0, white)" id="Vector" stroke="var(--stroke-0, white)" stroke-linejoin="round" stroke-width="1.83039"/>
<path d="M7.3213 10.9819L10.0669 13.7275L15.558 8.23633" id="Vector_2" stroke="var(--stroke-0, black)" stroke-linecap="round" stroke-linejoin="round" stroke-width="1.83039"/>
</g>
</g>
</mask>
<g mask="url(#mask0_0_7557)">
<path d="M1.38283e-05 -2.76566e-05H21.9647V21.9646H1.38283e-05V-2.76566e-05Z" fill="var(--fill-0, #FF8237)" id="Vector_3"/>
</g>
</g>
</g>
<defs>
<clipPath id="clip0_0_7557">
<rect fill="white" height="21.9647" width="21.9647"/>
</clipPath>
</defs>
</svg>