<?xml version="1.0" encoding="utf-8"?>
<svg xmlns="http://www.w3.org/2000/svg" fill="none" height="100%" overflow="visible" preserveAspectRatio="none" style="display: block;" viewBox="0 0 81.8001 81.8001" width="100%">
<g id="Frame 312" opacity="0.7">
<rect fill="var(--fill-0, white)" height="81.8001" rx="40.9001" width="81.8001"/>
<g clip-path="url(#clip0_0_14663)" id="React 1">
<g id="Group">
<path d="M41.1055 46.1305C43.9584 46.1305 46.2711 43.8177 46.2711 40.9648C46.2711 38.1119 43.9584 35.7992 41.1055 35.7992C38.2526 35.7992 35.9398 38.1119 35.9398 40.9648C35.9398 43.8177 38.2526 46.1305 41.1055 46.1305Z" fill="var(--fill-0, #61DAFB)" id="Vector"/>
<path d="M60.7258 32.4461C59.7289 32.0836 58.6867 31.7211 57.5992 31.4039C57.8711 30.3164 58.0977 29.2289 58.2789 28.1867C59.2305 22.2055 58.1883 17.9914 55.2883 16.3602C54.4273 15.8617 53.4758 15.6352 52.3883 15.6352C49.2164 15.6352 45.1836 17.9914 41.1055 21.9336C37.0273 17.9914 32.9945 15.6352 29.8227 15.6352C28.7352 15.6352 27.7836 15.8617 26.9227 16.3602C24.0227 18.0367 22.9805 22.2508 23.932 28.1867C24.1133 29.2289 24.3398 30.3164 24.6117 31.4039C23.5242 31.7211 22.482 32.0383 21.4852 32.4461C15.8211 34.6211 12.7398 37.6117 12.7398 40.9648C12.7398 44.318 15.8664 47.3086 21.4852 49.4836C22.482 49.8461 23.5242 50.2086 24.6117 50.5258C24.3398 51.6133 24.1133 52.7008 23.932 53.743C22.9805 59.7242 24.0227 63.9383 26.9227 65.5695C27.7836 66.068 28.7352 66.2945 29.8227 66.2945C33.0398 66.2945 37.0727 63.9383 41.1055 59.9961C45.1836 63.9383 49.2164 66.2945 52.3883 66.2945C53.4758 66.2945 54.4273 66.068 55.2883 65.5695C58.1883 63.893 59.2305 59.6789 58.2789 53.743C58.0977 52.7008 57.8711 51.6133 57.5992 50.5258C58.6867 50.2086 59.7289 49.8914 60.7258 49.4836C66.3898 47.3086 69.4711 44.318 69.4711 40.9648C69.4711 37.6117 66.3898 34.6211 60.7258 32.4461ZM54.0195 18.6258C55.8773 19.7133 56.5117 23.0664 55.7414 27.8242C55.6055 28.7758 55.3789 29.7727 55.107 30.8148C52.7508 30.2711 50.2586 29.9086 47.6305 29.682C46.0898 27.507 44.5039 25.5586 42.918 23.7914C46.2711 20.4836 49.6695 18.218 52.4336 18.218C53.0227 18.218 53.5664 18.3539 54.0195 18.6258ZM48.9445 45.4961C48.1289 46.9461 47.1773 48.3961 46.1805 49.8461C44.5039 49.982 42.8273 50.0273 41.1055 50.0273C39.3383 50.0273 37.6617 49.982 36.0305 49.8461C35.0336 48.3961 34.1273 46.9461 33.3117 45.4961C32.4508 44.0008 31.6352 42.4602 30.9102 40.9648C31.6352 39.4695 32.4508 37.9289 33.3117 36.4336C34.1273 34.9836 35.0789 33.5336 36.0758 32.0836C37.7523 31.9477 39.4289 31.9023 41.1508 31.9023C42.918 31.9023 44.5945 31.9477 46.2258 32.0836C47.2227 33.5336 48.1289 34.9836 48.9445 36.4336C49.8055 37.9289 50.6211 39.4695 51.3461 40.9648C50.5758 42.4602 49.8055 43.9555 48.9445 45.4961ZM52.7055 44.0008C53.3852 45.5867 53.9289 47.1273 54.4273 48.668C52.8867 49.0305 51.2555 49.3023 49.5336 49.5289C50.0773 48.668 50.6664 47.7617 51.1648 46.8102C51.7086 45.8586 52.207 44.907 52.7055 44.0008ZM41.1055 56.2805C40.018 55.1023 38.9758 53.8336 37.9789 52.5195C39.0211 52.5648 40.0633 52.6102 41.1055 52.6102C42.1477 52.6102 43.1898 52.5648 44.232 52.5195C43.2352 53.8336 42.193 55.1023 41.1055 56.2805ZM32.6773 49.4836C30.9555 49.257 29.3242 48.9852 27.7836 48.6227C28.282 47.1273 28.8258 45.5414 29.5055 43.9555C30.0039 44.8617 30.5023 45.8133 31.0461 46.7195C31.5898 47.7164 32.1336 48.5773 32.6773 49.4836ZM29.5055 37.9289C28.8258 36.343 28.282 34.8023 27.7836 33.2617C29.3242 32.8992 30.9555 32.6273 32.6773 32.4008C32.1336 33.2617 31.5445 34.168 31.0461 35.1195C30.5023 36.0711 30.0039 37.0227 29.5055 37.9289ZM41.1055 25.6492C42.193 26.8273 43.2352 28.0961 44.232 29.4102C43.1898 29.3648 42.1477 29.3195 41.1055 29.3195C40.0633 29.3195 39.0211 29.3648 37.9789 29.4102C38.9758 28.0961 40.018 26.8273 41.1055 25.6492ZM51.1648 35.1648L49.5336 32.4461C51.2555 32.6727 52.8867 32.9445 54.4273 33.307C53.9289 34.8023 53.3852 36.3883 52.7055 37.9742C52.207 37.0227 51.7086 36.0711 51.1648 35.1648ZM26.4695 27.8242C25.6992 23.0664 26.3336 19.7133 28.1914 18.6258C28.6445 18.3539 29.1883 18.218 29.7773 18.218C32.4961 18.218 35.8945 20.4383 39.293 23.7914C37.707 25.5133 36.1211 27.507 34.5805 29.682C31.9523 29.9086 29.4602 30.3164 27.1039 30.8148C26.832 29.7727 26.6508 28.7758 26.4695 27.8242ZM15.2773 40.9648C15.2773 38.8352 17.8602 36.5695 22.3914 34.893C23.2977 34.5305 24.2945 34.2133 25.2914 33.9414C26.0164 36.207 26.9227 38.6086 28.0102 41.0102C26.9227 43.4117 25.9711 45.768 25.2914 48.0336C19.0383 46.2211 15.2773 43.5023 15.2773 40.9648ZM28.1914 63.3039C26.3336 62.2164 25.6992 58.8633 26.4695 54.1055C26.6055 53.1539 26.832 52.157 27.1039 51.1148C29.4602 51.6586 31.9523 52.0211 34.5805 52.2477C36.1211 54.4227 37.707 56.3711 39.293 58.1383C35.9398 61.4461 32.5414 63.7117 29.7773 63.7117C29.1883 63.7117 28.6445 63.5758 28.1914 63.3039ZM55.7414 54.1055C56.5117 58.8633 55.8773 62.2164 54.0195 63.3039C53.5664 63.5758 53.0227 63.7117 52.4336 63.7117C49.7148 63.7117 46.3164 61.4914 42.918 58.1383C44.5039 56.4164 46.0898 54.4227 47.6305 52.2477C50.2586 52.0211 52.7508 51.6133 55.107 51.1148C55.3789 52.157 55.5602 53.1539 55.7414 54.1055ZM59.8195 47.0367C58.9133 47.3992 57.9164 47.7164 56.9195 47.9883C56.1945 45.7227 55.2883 43.3211 54.2008 40.9195C55.2883 38.518 56.2398 36.1617 56.9195 33.8961C63.1727 35.7086 66.9336 38.4273 66.9336 40.9648C66.9336 43.0945 64.3055 45.3602 59.8195 47.0367Z" fill="var(--fill-0, #61DAFB)" id="Vector_2"/>
</g>
</g>
</g>
<defs>
<clipPath id="clip0_0_14663">
<rect fill="white" height="58" transform="translate(12.1055 11.9648)" width="58"/>
</clipPath>
</defs>
</svg>