<?xml version="1.0" encoding="utf-8"?>
<svg xmlns="http://www.w3.org/2000/svg" fill="none" height="100%" overflow="visible" preserveAspectRatio="none" style="display: block;" viewBox="0 0 81.8001 81.8001" width="100%">
<g id="Frame 318" opacity="0.7">
<rect fill="var(--fill-0, white)" height="81.8001" rx="40.9001" width="81.8001"/>
<g clip-path="url(#clip0_0_7717)" id="FastAPI 1">
<path d="M43.7152 61.8609C44.3545 61.7847 45.025 61.6862 45.2047 61.6419C45.4692 61.5792 45.7352 61.5232 46.0026 61.4739C46.3079 61.4147 46.6108 61.3438 46.9106 61.2613C48.3031 60.8622 48.4028 60.8296 49.4526 60.4003C50.4185 60.0065 52.1979 59.0868 52.8066 58.6682C52.9733 58.5526 53.1291 58.4596 53.153 58.4596C53.1765 58.4596 53.5662 58.1854 54.019 57.8505C56.898 55.7196 59.0594 53.1329 60.6212 49.9469C60.89 49.3997 61.1093 48.9142 61.1093 48.8685C61.1093 48.8235 61.1577 48.6989 61.2168 48.5941C61.3388 48.3761 61.5125 47.9064 61.6525 47.421C61.7128 47.2147 61.7828 47.0115 61.8625 46.8119C61.928 46.6574 61.9808 46.4693 61.9808 46.3934C61.9808 46.3171 62.0463 46.0692 62.1262 45.8407C62.2062 45.614 62.2707 45.3462 62.2707 45.2461C62.2707 45.1467 62.3335 44.8027 62.4111 44.4815C62.5999 43.6887 62.8008 41.6351 62.8008 40.4842C62.8008 39.3346 62.5999 37.281 62.4111 36.4886C62.3338 36.1671 62.2707 35.8167 62.2707 35.7092C62.2707 35.6014 62.222 35.3901 62.1632 35.2389C62.1027 35.0884 62.0254 34.818 61.9898 34.6382C61.9529 34.4585 61.8689 34.1488 61.8007 33.9479L61.6025 33.368C61.457 32.9337 61.322 32.5662 61.2575 32.4231C61.2205 32.3431 61.0764 32.0166 60.936 31.6974C60.7089 31.1818 60.2221 30.2092 59.9376 29.7003C59.8338 29.5138 59.7945 29.452 59.2328 28.5742C58.3429 27.1807 56.8221 25.447 55.4065 24.2111C54.9076 23.7754 53.241 22.5102 53.1661 22.5102C53.1453 22.5102 52.988 22.4158 52.8157 22.3002C52.3632 21.9972 51.9194 21.7399 51.3409 21.45C51.1333 21.3473 50.9277 21.2406 50.7242 21.1298C50.6284 21.0747 50.4487 20.9921 49.5259 20.5789C49.3226 20.4882 49.1036 20.4056 48.4724 20.1849C48.3333 20.1365 48.0538 20.034 47.8542 19.9591C47.6534 19.8845 47.4172 19.8227 47.3292 19.8227C47.2425 19.8227 47.0144 19.7622 46.8226 19.6877C46.6311 19.6127 46.2834 19.5274 46.0486 19.4985C45.8148 19.471 45.504 19.4055 45.3582 19.3541C45.2138 19.3044 44.8174 19.2399 44.4777 19.2113C44.0351 19.1713 43.5936 19.1192 43.1538 19.0551C42.2508 18.9227 40.2876 18.9227 39.394 19.0551C38.9719 19.1157 38.5484 19.1655 38.1238 19.2046C37.8037 19.2311 37.3955 19.298 37.2158 19.3531C37.0361 19.4068 36.725 19.474 36.5254 19.4985C36.3259 19.5251 35.9899 19.6077 35.779 19.6836C35.5673 19.7609 35.3275 19.8227 35.2448 19.8227C35.1622 19.8227 34.9915 19.8687 34.8669 19.9265C34.7409 19.983 34.4745 20.0774 34.2736 20.1365C34.0741 20.1969 33.7318 20.3162 33.5111 20.4042C33.292 20.4919 32.9981 20.6075 32.8577 20.6599C32.599 20.7573 30.6875 21.7137 30.4275 21.8766C28.3175 23.1925 27.2321 24.0522 25.7727 25.5599C24.0131 27.3786 22.845 29.1107 21.6562 31.6605C21.5722 31.8405 21.4439 32.1069 21.3703 32.2511C21.2981 32.3969 21.2376 32.5675 21.2376 32.6307C21.2376 32.6945 21.1771 32.886 21.1025 33.057C20.9003 33.5216 20.7273 34.0503 20.6457 34.4545C20.6054 34.6527 20.5304 34.8979 20.4794 34.999C20.428 35.0998 20.3678 35.3561 20.344 35.5661C20.3205 35.7757 20.2509 36.1197 20.1918 36.3283C19.8492 37.5145 19.6788 41.0093 19.8861 42.5549C19.9476 43.0142 20.0171 43.5695 20.0406 43.7885C20.0803 44.1637 20.2785 45.1336 20.4478 45.7856L20.6225 46.476C20.9517 47.8053 21.7653 49.699 22.7587 51.4509C23.1524 52.1463 24.4723 54.0269 24.7216 54.2472C24.7441 54.2667 24.8556 54.3984 24.9685 54.5371C25.0814 54.6776 25.4435 55.0699 25.7714 55.4086C27.2163 56.9005 28.3816 57.823 30.4275 59.0935C30.67 59.2443 32.7277 60.2494 33.1123 60.4056C33.3119 60.4856 33.6451 60.6206 33.8524 60.7046C34.0583 60.7876 34.2881 60.8571 34.3603 60.8585C34.4325 60.8595 34.6227 60.924 34.7829 61.0013C34.9428 61.0785 35.1464 61.143 35.2368 61.1444C35.3261 61.1457 35.5872 61.2089 35.8169 61.2848C36.0464 61.3621 36.3655 61.445 36.5258 61.4696C36.6857 61.4947 37.028 61.5629 37.288 61.6207C37.5477 61.6785 38.3328 61.7914 39.0305 61.8713C40.587 62.0529 42.1595 62.0494 43.7152 61.8609ZM42.1353 57.6617C42.0345 57.5831 41.9307 57.4265 41.9031 57.3167C41.8426 57.0738 32.0823 37.5065 31.8986 37.2612C31.7437 37.054 31.7293 36.722 31.871 36.6051C31.9456 36.5423 32.8802 36.5225 35.3748 36.5265C37.246 36.5306 38.8192 36.5319 38.8706 36.5306C38.9465 36.5279 38.9623 35.2775 38.9546 29.922C38.9492 26.2882 38.9664 23.2819 38.9926 23.2402C39.0188 23.1979 39.1212 23.1639 39.221 23.1639C39.3614 23.1639 39.4269 23.2244 39.5133 23.4354C39.6762 23.8278 40.1263 24.7187 42.3177 28.9733C42.7728 29.8563 43.2269 30.7398 43.6799 31.6239C44.0682 32.3837 44.681 33.5767 45.0394 34.2744C46.0042 36.15 46.967 38.0267 47.9278 39.9044C49.585 43.1415 49.7856 43.5275 49.8568 43.6128C49.9945 43.7794 50.0694 44.1637 49.9918 44.3082C49.9213 44.4405 49.7805 44.4459 46.2821 44.4405C44.2822 44.4382 42.6328 44.4486 42.6156 44.4641C42.5696 44.5114 42.5868 56.9979 42.6341 57.2955C42.6654 57.491 42.6445 57.5945 42.5552 57.6839C42.4006 57.8387 42.3583 57.8374 42.1353 57.6617Z" fill="var(--fill-0, #049688)" id="Vector"/>
</g>
</g>
<defs>
<clipPath id="clip0_0_7717">
<rect fill="white" height="43" transform="matrix(-1 0 0 1 62.8008 19)" width="43"/>
</clipPath>
</defs>
</svg>