<?xml version="1.0" encoding="utf-8"?>
<svg xmlns="http://www.w3.org/2000/svg" fill="none" height="100%" overflow="visible" preserveAspectRatio="none" style="display: block;" viewBox="0 0 207.527 103.366" width="100%">
<g id="Frame 2147256930">
<g id="solar:code-outline">
<path d="M106.822 5.8795C107.086 5.9501 107.311 6.12273 107.448 6.35944C107.585 6.59615 107.622 6.87755 107.552 7.14175L102.089 27.533C102.018 27.7974 101.845 28.0228 101.608 28.1596C101.371 28.2964 101.089 28.3334 100.825 28.2624C100.56 28.1915 100.335 28.0185 100.198 27.7814C100.061 27.5442 100.024 27.2625 100.095 26.9981L105.559 6.60687C105.595 6.47604 105.655 6.3534 105.738 6.24596C105.82 6.13852 105.923 6.04839 106.04 5.98072C106.158 5.91304 106.287 5.86915 106.421 5.85155C106.556 5.83395 106.692 5.84298 106.823 5.87813M109.933 10.076C110.116 9.87274 110.372 9.75044 110.645 9.736C110.919 9.72156 111.186 9.81616 111.389 9.999L113.778 12.1495C114.791 13.0598 115.63 13.816 116.207 14.5007C116.812 15.2226 117.244 15.9968 117.244 16.9538C117.244 17.9094 116.814 18.6835 116.207 19.404C115.63 20.0901 114.791 20.8464 113.778 21.7566L111.389 23.9071C111.186 24.0902 110.918 24.185 110.645 24.1707C110.372 24.1564 110.116 24.0341 109.933 23.8308C109.75 23.6275 109.655 23.3598 109.669 23.0866C109.683 22.8134 109.806 22.5571 110.009 22.374L112.342 20.2744C113.426 19.2995 114.156 18.6381 114.629 18.0771C115.083 17.5368 115.182 17.2219 115.182 16.9524C115.182 16.6829 115.083 16.3694 114.629 15.829C114.156 15.2666 113.426 14.6052 112.342 13.6317L110.009 11.5321C109.908 11.4415 109.826 11.332 109.768 11.2097C109.709 11.0873 109.675 10.9547 109.668 10.8193C109.661 10.684 109.681 10.5485 109.726 10.4207C109.771 10.2929 109.841 10.1753 109.932 10.0746M97.6395 11.5321C97.8428 11.3491 97.965 11.0927 97.9793 10.8195C97.9937 10.5463 97.8988 10.2786 97.7158 10.0753C97.5327 9.87201 97.2764 9.74975 97.0032 9.73544C96.73 9.72113 96.4623 9.81593 96.259 9.999L93.8706 12.1495C92.8572 13.0598 92.0185 13.816 91.441 14.5007C90.836 15.2226 90.4042 15.9968 90.4042 16.9538C90.4042 17.9094 90.8346 18.6835 91.441 19.404C92.0185 20.0901 92.8572 20.8464 93.8706 21.7566L96.259 23.9071C96.4623 24.0902 96.73 24.185 97.0032 24.1707C97.2764 24.1564 97.5327 24.0341 97.7158 23.8308C97.8988 23.6275 97.9937 23.3598 97.9793 23.0866C97.965 22.8134 97.8428 22.5571 97.6395 22.374L95.3061 20.2744C94.2226 19.2995 93.4925 18.6381 93.0195 18.0771C92.5657 17.5368 92.4667 17.2219 92.4667 16.9524C92.4667 16.6829 92.5657 16.3694 93.0195 15.829C93.4925 15.2666 94.2226 14.6052 95.3061 13.6317L97.6395 11.5321Z" fill="var(--fill-0, white)" id="Vector"/>
</g>
<g clip-path="url(#clip0_0_4864)" id="eos-icons:big-data-outlined">
<path d="M44.5916 34.945C44.3931 35.0081 44.199 35.0842 44.0104 35.1729C43.0268 34.0778 41.727 33.3155 40.2911 32.9915C38.8552 32.6675 37.3541 32.7977 35.9955 33.3642C34.6368 33.9307 33.4878 34.9055 32.7075 36.1537C31.9271 37.4018 31.554 38.8616 31.6396 40.3312C31.2912 40.6001 30.9751 40.9085 30.6978 41.2503C29.9447 42.1512 29.49 43.2638 29.3966 44.4342C29.3031 45.6047 29.5755 46.7753 30.1762 47.7843C30.7768 48.7932 31.676 49.5907 32.7494 50.0666C33.8229 50.5424 35.0177 50.6731 36.1686 50.4405L35.1001 48.6456C34.4364 48.6569 33.7816 48.4926 33.2017 48.1695C32.6219 47.8464 32.1378 47.3758 31.7982 46.8054C31.4587 46.2351 31.2759 45.5851 31.2682 44.9214C31.2605 44.2577 31.4283 43.6037 31.7546 43.0256C32.0075 42.5657 32.3555 42.1649 32.7754 41.85L33.5934 41.2417L33.5401 40.2256C33.4749 39.1481 33.7467 38.0769 34.3177 37.1608C34.8887 36.2446 35.7307 35.5289 36.7269 35.1129C37.7231 34.6969 38.824 34.6012 39.877 34.8392C40.93 35.0771 41.8828 35.6368 42.6033 36.4407L43.5748 37.5168L44.8741 36.8647C45.1018 36.7534 45.3433 36.6731 45.5922 36.6258C46.1648 36.5063 46.7603 36.5686 47.2958 36.8039C47.8312 37.0392 48.2799 37.4358 48.579 37.9383C48.8782 38.4409 49.013 39.0243 48.9646 39.6072C48.9162 40.19 48.687 40.7432 48.309 41.1896L49.3193 42.8867C50.1286 42.1569 50.66 41.1691 50.8229 40.0916C50.9858 39.014 50.7701 37.9133 50.2127 36.9769C49.6552 36.0404 48.7904 35.3261 47.7655 34.9557C46.7406 34.5852 45.619 34.5814 44.5916 34.945Z" fill="var(--fill-0, white)" fill-opacity="0.5" id="Vector_2"/>
<path d="M40.4293 42.7754C37.3201 44.6264 35.9106 46.3015 36.5936 47.4489L40.7948 54.5063C41.4778 55.6537 44.3593 54.7745 46.7315 53.3623C49.1038 51.9501 51.2503 49.8363 50.5672 48.6888L46.3661 41.6315C45.683 40.484 43.5386 40.9245 40.4293 42.7754ZM40.9141 43.5898C43.1219 42.2756 45.3054 41.8692 45.7407 42.6005C46.176 43.3318 44.7369 44.9904 42.5299 46.3041C40.323 47.6179 38.1789 48.0924 37.7436 47.3611C37.3082 46.6298 38.7072 44.9036 40.9141 43.5898ZM40.757 52.4232L40.2029 51.4924C41.7788 51.2558 43.2874 50.6907 44.631 49.8336C46.0248 49.0611 47.2408 48.0044 48.2 46.7318L48.7716 47.6919C47.7792 48.93 46.5501 49.9579 45.156 50.7156C43.8156 51.5672 42.321 52.1474 40.757 52.4232Z" fill="var(--fill-0, white)" fill-opacity="0.5" id="Vector_3"/>
</g>
<g clip-path="url(#clip1_0_4864)" id="mingcute:mic-ai-fill">
<g id="Group">
<g id="Vector_4">
</g>
<path d="M15.2053 89.8298C15.2872 89.7955 15.375 89.7777 15.4637 89.7774C15.5525 89.7771 15.6404 89.7943 15.7225 89.828C15.8045 89.8617 15.8792 89.9113 15.9421 89.9739C16.005 90.0365 16.0549 90.1109 16.089 90.1928C16.5423 91.2849 16.6247 92.4956 16.3236 93.6391C16.0225 94.7826 15.3545 95.7957 14.4221 96.5229L14.7887 97.1388C14.8803 97.2926 14.907 97.4765 14.863 97.65C14.8189 97.8235 14.7078 97.9724 14.554 98.064C14.4002 98.1555 14.2163 98.1822 14.0428 98.1382C13.8693 98.0942 13.7204 97.9831 13.6289 97.8292L13.2622 97.2134C12.1785 97.686 10.9696 97.7901 9.82102 97.5096C8.67243 97.2292 7.64756 96.5797 6.90359 95.6608C6.7911 95.5215 6.73855 95.3433 6.75749 95.1653C6.77643 94.9872 6.86531 94.824 7.00457 94.7116C7.14384 94.5991 7.32209 94.5465 7.5001 94.5655C7.67811 94.5844 7.84131 94.6733 7.9538 94.8125C8.56657 95.569 9.43134 96.0795 10.3898 96.2505C11.3482 96.4214 12.3361 96.2414 13.1726 95.7434C14.0092 95.2455 14.6383 94.4628 14.9449 93.5388C15.2515 92.6148 15.2151 91.6113 14.8422 90.712C14.8081 90.6302 14.7905 90.5424 14.7903 90.4538C14.7901 90.3651 14.8074 90.2773 14.8412 90.1954C14.875 90.1134 14.9246 90.0389 14.9871 89.9761C15.0497 89.9133 15.1235 89.8638 15.2053 89.8298ZM7.64956 86.4654C8.12452 86.1827 8.64081 86.0301 9.1568 85.997C9.00421 86.3379 8.94889 86.7144 8.99697 87.0848C9.04504 87.4552 9.19464 87.8051 9.4292 88.0958C9.66377 88.3864 9.97417 88.6065 10.3261 88.7318C10.6779 88.857 11.0576 88.8824 11.4231 88.8053L11.6872 88.7501C11.7879 88.7289 11.8922 88.7309 11.9921 88.7562C12.0919 88.7814 12.1846 88.8292 12.2632 88.8958L12.4685 89.0705C12.7397 89.3017 13.0593 89.4508 13.3924 89.5156L14.0014 90.5386C14.4592 91.3076 14.5927 92.227 14.3727 93.0945C14.1526 93.962 13.5969 94.7065 12.8279 95.1643C12.0589 95.6221 11.1395 95.7557 10.272 95.5356C9.40448 95.3155 8.65994 94.7598 8.20215 93.9908L6.47604 91.0912C6.01824 90.3221 5.8847 89.4028 6.10477 88.5353C6.32485 87.6678 6.88053 86.9232 7.64956 86.4654ZM11.3638 83.469C11.4723 83.4044 11.5967 83.3715 11.723 83.3741C11.8492 83.3767 11.9722 83.4147 12.0779 83.4837L12.1461 83.535L12.352 83.7093C12.5704 83.8952 12.8258 84.0325 13.1013 84.1123C13.3768 84.192 13.6661 84.2123 13.95 84.1718L14.0815 84.1486L14.3452 84.0929C14.4758 84.0653 14.6117 84.077 14.7356 84.1267C14.8595 84.1763 14.9659 84.2615 15.0414 84.3717C15.1169 84.4818 15.158 84.6118 15.1596 84.7452C15.1611 84.8787 15.1231 85.0097 15.0502 85.1215L14.9984 85.1901L14.824 85.396C14.6382 85.6144 14.5008 85.8698 14.4211 86.1453C14.3414 86.4208 14.3211 86.71 14.3615 86.994L14.3848 87.1254L14.4405 87.3892C14.468 87.5198 14.4562 87.6556 14.4065 87.7795C14.3568 87.9034 14.2715 88.0097 14.1613 88.0851C14.0512 88.1605 13.9212 88.2016 13.7877 88.2031C13.6542 88.2046 13.5233 88.1665 13.4115 88.0936L13.3433 88.0423L13.1374 87.868C12.919 87.6821 12.6636 87.5448 12.3881 87.465C12.1126 87.3853 11.8233 87.365 11.5394 87.4055L11.4079 87.4288L11.1442 87.4844C11.0136 87.512 10.8777 87.5003 10.7538 87.4506C10.6299 87.401 10.5235 87.3158 10.448 87.2057C10.3726 87.0956 10.3314 86.9655 10.3299 86.8321C10.3283 86.6986 10.3663 86.5676 10.4392 86.4558L10.491 86.3872L10.6654 86.1813C10.8512 85.9629 10.9886 85.7075 11.0683 85.432C11.1481 85.1565 11.1684 84.8673 11.1279 84.5833L11.1046 84.4519L11.0489 84.1881C11.0198 84.0504 11.0346 83.907 11.091 83.778C11.1475 83.6491 11.2429 83.541 11.3638 83.469Z" fill="var(--fill-0, white)" fill-opacity="0.23" id="Vector_5"/>
</g>
</g>
<g clip-path="url(#clip2_0_4864)" id="mingcute:file-ai-line">
<g id="Group_2">
<g id="Vector_6">
</g>
<path d="M198.958 85.9179C198.65 85.7349 198.283 85.6815 197.936 85.7696L193.852 86.8056C193.505 86.8936 193.207 87.1157 193.024 87.4233L189.024 94.1423C188.841 94.4499 188.788 94.8177 188.876 95.1647C188.964 95.5117 189.186 95.8095 189.494 95.9926L196.453 100.135C196.761 100.318 197.128 100.372 197.475 100.284C197.822 100.196 198.12 99.9735 198.303 99.6659L201.065 95.0265C201.157 94.8727 201.183 94.6888 201.139 94.5153C201.095 94.3418 200.984 94.1929 200.83 94.1013C200.676 94.0098 200.493 93.983 200.319 94.0271C200.146 94.0711 199.997 94.1822 199.905 94.336L197.143 98.9754L190.184 94.8328L193.636 89.0335L196.246 90.587C196.477 90.7243 196.753 90.7644 197.013 90.6984C197.273 90.6324 197.497 90.4657 197.634 90.2349L199.187 87.6253L199.767 87.9705C199.921 88.0621 200.105 88.0888 200.278 88.0448C200.452 88.0007 200.601 87.8896 200.692 87.7358C200.784 87.582 200.811 87.3981 200.767 87.2246C200.723 87.0511 200.612 86.9022 200.458 86.8106L198.958 85.9179ZM204.282 88.3021C204.161 88.2301 204.021 88.1978 203.881 88.2096C203.74 88.2214 203.607 88.2769 203.5 88.3681L203.294 88.5424C202.817 88.9486 202.178 89.1111 201.564 88.9813L201.301 88.926C201.163 88.8971 201.02 88.9119 200.891 88.9685C200.762 89.025 200.655 89.1204 200.583 89.2413C200.511 89.3622 200.478 89.5025 200.49 89.6427C200.502 89.7829 200.557 89.9159 200.648 90.0232L200.822 90.2291C201.228 90.7065 201.391 91.3452 201.261 91.9591L201.206 92.2223C201.177 92.36 201.192 92.5032 201.248 92.6321C201.305 92.7609 201.4 92.8688 201.521 92.9408C201.642 93.0128 201.782 93.0451 201.923 93.0334C202.063 93.0217 202.196 92.9665 202.303 92.8754L202.509 92.7011C202.745 92.5006 203.023 92.3568 203.323 92.2807C203.623 92.2047 203.936 92.1983 204.239 92.2622L204.502 92.3175C204.64 92.3464 204.783 92.3316 204.912 92.275C205.041 92.2185 205.149 92.1231 205.221 92.0022C205.293 91.8814 205.325 91.741 205.313 91.6008C205.302 91.4606 205.246 91.3276 205.155 91.2203L204.981 91.0144C204.575 90.537 204.412 89.8983 204.542 89.2844L204.612 88.9152C204.618 88.7927 204.59 88.6709 204.532 88.5629C204.474 88.4549 204.388 88.3647 204.282 88.3021ZM196.647 89.2545L194.567 88.0166L197.885 87.1749L196.647 89.2545ZM203.179 90.1555C203.214 90.4098 203.277 90.6594 203.368 90.8993C203.113 90.9332 202.865 90.9959 202.624 91.0874C202.59 90.8327 202.527 90.5851 202.436 90.3445C202.69 90.31 202.939 90.2466 203.179 90.1555Z" fill="var(--fill-0, white)" fill-opacity="0.23" id="Vector_7"/>
</g>
</g>
<g clip-path="url(#clip3_0_4864)" id="si:ai-search-line">
<path d="M156.222 46.5561L161.418 45.2378M162.698 39.382C161.67 41.1098 161.37 43.1755 161.864 45.1247C162.358 47.0738 163.607 48.7466 165.335 49.7752C167.063 50.8038 169.128 51.1039 171.078 50.6094C173.027 50.1149 174.7 48.8664 175.728 47.1385C176.757 45.4106 177.057 43.3449 176.562 41.3958C176.068 39.4467 174.819 37.7738 173.091 36.7452C171.364 35.7167 169.298 35.4166 167.349 35.9111C165.4 36.4056 163.727 37.6541 162.698 39.382ZM170.449 41.5431L170.025 42.954C170.016 42.9867 170.015 43.0216 170.023 43.0547C170.032 43.0879 170.049 43.1182 170.073 43.1423L171.118 44.1804C171.259 44.319 171.119 44.5536 170.93 44.4964L169.519 44.0723C169.487 44.0626 169.452 44.0618 169.419 44.0703C169.385 44.0787 169.355 44.0959 169.331 44.1201L168.293 45.1654C168.154 45.3057 167.92 45.1661 167.977 44.9773L168.401 43.5665C168.411 43.5337 168.412 43.4989 168.403 43.4657C168.395 43.4326 168.377 43.4023 168.353 43.3781L167.308 42.3401C167.168 42.2014 167.307 41.9669 167.496 42.0241L168.907 42.4481C168.94 42.4579 168.975 42.4586 169.008 42.4502C169.041 42.4418 169.071 42.4246 169.095 42.4003L170.133 41.355C170.272 41.2148 170.507 41.3544 170.449 41.5431Z" id="Vector_8" stroke="var(--stroke-0, white)" stroke-linecap="round" stroke-linejoin="round" stroke-miterlimit="10" stroke-opacity="0.5" stroke-width="1.42162"/>
</g>
</g>
<defs>
<clipPath id="clip0_0_4864">
<rect fill="white" height="22.7459" transform="translate(25.3242 39.6348) rotate(-30.7648)" width="22.7459"/>
</clipPath>
<clipPath id="clip1_0_4864">
<rect fill="white" height="16.1976" transform="translate(0 89.4482) rotate(-30.7648)" width="16.1976"/>
</clipPath>
<clipPath id="clip2_0_4864">
<rect fill="white" height="16.1976" transform="matrix(-0.859275 -0.511514 -0.511514 0.859275 207.527 89.4482)" width="16.1976"/>
</clipPath>
<clipPath id="clip3_0_4864">
<rect fill="white" height="22.7459" transform="matrix(-0.859275 -0.511514 -0.511514 0.859275 183.504 39.6348)" width="22.7459"/>
</clipPath>
</defs>
</svg>