<?xml version="1.0" encoding="utf-8"?>
<svg xmlns="http://www.w3.org/2000/svg" fill="none" height="100%" overflow="visible" preserveAspectRatio="none" style="display: block;" viewBox="0 0 551.108 375.405" width="100%">
<g id="Windows">
<path d="M427.259 61.9594V162.365C427.334 163.711 427.725 165.022 428.4 166.19C429.075 167.357 430.015 168.35 431.144 169.088L547.239 236.117C549.383 237.358 551.108 236.359 551.108 233.875V133.47C551.038 132.124 550.651 130.813 549.979 129.645C549.306 128.476 548.367 127.483 547.239 126.746L431.144 59.7181C429 58.4766 427.259 59.4763 427.259 61.9594Z" fill="var(--fill-0, #37474F)" id="Vector"/>
<path d="M431.144 169.088L547.239 236.117C549.383 237.358 551.108 236.358 551.108 233.875V137.404L427.259 65.8935V162.365C427.332 163.712 427.722 165.023 428.397 166.191C429.072 167.36 430.014 168.352 431.144 169.088Z" fill="var(--fill-0, #455A64)" id="Vector_2"/>
<path d="M436.885 79.8572L475.937 102.431C476.617 102.872 477.183 103.466 477.589 104.167C477.995 104.867 478.231 105.654 478.275 106.462V113.702C478.275 115.201 477.227 115.798 475.937 115.056L436.885 92.4825C436.205 92.042 435.639 91.4474 435.233 90.7469C434.827 90.0464 434.592 89.26 434.547 88.4514V81.2117C434.547 79.7121 435.595 79.1155 436.885 79.8572Z" fill="var(--fill-0, #EBEBEB)" id="Vector_3"/>
<path d="M544.497 128.117C544.93 128.404 545.29 128.788 545.548 129.239C545.805 129.689 545.954 130.194 545.981 130.713C545.981 131.664 545.32 132.051 544.497 131.567C544.058 131.29 543.692 130.911 543.431 130.461C543.17 130.012 543.021 129.507 542.998 128.988C542.998 128.036 543.659 127.649 544.497 128.117Z" fill="var(--fill-0, #FAFAFA)" id="Vector_4"/>
<path d="M538.564 124.698C538.999 124.984 539.362 125.368 539.622 125.819C539.882 126.269 540.034 126.775 540.064 127.294C540.064 128.246 539.387 128.633 538.564 128.149C538.128 127.87 537.766 127.489 537.507 127.04C537.249 126.591 537.103 126.087 537.081 125.569C537.081 124.618 537.742 124.231 538.564 124.698Z" fill="var(--fill-0, #FAFAFA)" id="Vector_5"/>
<path d="M532.582 121.28C533.015 121.567 533.375 121.951 533.633 122.402C533.89 122.853 534.039 123.358 534.066 123.876C534.066 124.828 533.405 125.215 532.582 124.731C532.143 124.453 531.777 124.074 531.516 123.625C531.255 123.176 531.106 122.67 531.083 122.151C531.147 121.2 531.824 120.813 532.582 121.28Z" fill="var(--fill-0, #FAFAFA)" id="Vector_6"/>
<path d="M436.885 96.6748L490.514 127.633C491.184 128.067 491.742 128.652 492.146 129.341C492.549 130.03 492.785 130.803 492.836 131.6C492.836 133.051 491.804 133.615 490.514 132.874L436.885 101.915C436.21 101.485 435.647 100.901 435.24 100.212C434.834 99.5227 434.596 98.7472 434.547 97.9486C434.547 96.4974 435.595 95.9331 436.885 96.6748Z" fill="var(--fill-0, #EBEBEB)" id="Vector_7"/>
<path d="M436.885 108.332L490.514 139.291C491.186 139.722 491.747 140.306 492.151 140.995C492.554 141.685 492.789 142.46 492.836 143.257C492.836 144.708 491.804 145.273 490.514 144.531L436.885 113.573C436.213 113.14 435.651 112.555 435.245 111.867C434.839 111.178 434.6 110.404 434.547 109.606C434.547 108.155 435.595 107.591 436.885 108.332Z" fill="var(--fill-0, #EBEBEB)" id="Vector_8"/>
<path d="M436.885 119.974L490.514 150.9C491.184 151.334 491.742 151.919 492.146 152.608C492.549 153.297 492.785 154.07 492.836 154.867C492.836 156.318 491.804 156.882 490.514 156.141L436.885 125.182C436.21 124.752 435.647 124.169 435.24 123.479C434.834 122.79 434.596 122.014 434.547 121.216C434.547 119.797 435.595 119.233 436.885 119.974Z" fill="var(--fill-0, #EBEBEB)" id="Vector_9"/>
<path d="M436.885 131.632L490.514 162.59C491.186 163.021 491.747 163.605 492.151 164.295C492.554 164.984 492.789 165.759 492.836 166.557C492.836 167.992 491.804 168.572 490.514 167.831L436.885 136.872C436.213 136.439 435.651 135.855 435.245 135.166C434.839 134.477 434.6 133.703 434.547 132.906C434.547 131.454 435.595 130.89 436.885 131.632Z" fill="var(--fill-0, #EBEBEB)" id="Vector_10"/>
<path d="M437.659 147.675L540.741 207.19C541.644 207.764 542.399 208.544 542.943 209.466C543.487 210.388 543.804 211.426 543.869 212.495V222.169C543.869 224.152 542.45 224.959 540.725 223.959L437.772 164.412C436.869 163.823 436.117 163.031 435.577 162.098C435.036 161.165 434.722 160.119 434.66 159.043V149.368C434.547 147.417 435.95 146.611 437.659 147.675Z" fill="var(--fill-0, #EBEBEB)" id="Vector_11"/>
<path d="M502.446 117.717L541.338 140.291C542.014 140.738 542.577 141.337 542.983 142.039C543.389 142.741 543.626 143.528 543.676 144.338L543.837 197.741C543.837 199.225 542.805 199.837 541.515 199.096L502.462 176.522C501.783 176.081 501.217 175.487 500.811 174.786C500.404 174.086 500.169 173.299 500.124 172.491V119.055C500.124 117.572 501.172 117.04 502.446 117.717Z" fill="var(--fill-0, #FAFAFA)" id="Vector_12"/>
<path d="M507.412 140.242C512.943 143.467 517.426 140.839 517.426 134.454C517.314 131.045 516.349 127.719 514.62 124.779L502.446 117.701C501.172 116.959 500.124 117.556 500.124 119.039V132.374C501.826 135.587 504.338 138.3 507.412 140.242Z" fill="var(--fill-0, #263238)" id="Vector_13"/>
<path d="M543.755 172.926L536.435 147.95C535.887 146.047 534.694 145.934 533.775 147.692L523.052 168.153L518.682 156.479C517.989 154.625 516.764 154.577 515.941 156.383L505.783 178.521L541.514 199.16C542.595 199.789 543.497 199.434 543.755 198.435V172.926Z" fill="var(--fill-0, #263238)" id="Vector_14"/>
<path d="M146.215 26.2281L191.008 0.429457C192.717 -0.570243 194.104 0.235967 194.104 2.21924V95.9975C194.046 97.0749 193.735 98.1237 193.197 99.0592C192.66 99.9947 191.91 100.791 191.008 101.383L146.215 127.182C144.506 128.165 143.103 127.359 143.103 125.376V31.5814C143.17 30.5087 143.486 29.4663 144.026 28.5371C144.566 27.6079 145.316 26.8173 146.215 26.2281Z" fill="var(--fill-0, #263238)" id="Vector_15"/>
<path d="M143.103 44.8515L194.104 15.4087V82.7111L143.103 112.154V44.8515Z" fill="var(--fill-0, #FAFAFA)" id="Vector_16"/>
<path d="M165.176 64.4907C165.725 62.588 167.047 62.3945 168.127 64.0553L173.577 72.4722L183.8 41.8362C184.429 39.9497 185.67 39.8529 186.589 41.6105L194.103 56.1222V82.6143L153.051 106.317L165.176 64.4907Z" fill="var(--fill-0, #455A64)" id="Vector_17"/>
<path d="M143.103 61.766C144.307 62.1941 145.596 62.3296 146.863 62.1614C148.131 61.9932 149.34 61.526 150.391 60.7985C153.581 58.7235 156.237 55.9247 158.142 52.6298C160.048 49.3349 161.148 45.6369 161.355 41.8365C161.432 40.6997 161.281 39.559 160.91 38.4817C160.539 37.4044 159.955 36.4124 159.194 35.5642L143.07 44.8517L143.103 61.766Z" fill="var(--fill-0, #455A64)" id="Vector_18"/>
<path d="M150.439 29.179C151.906 28.3244 153.099 29.0178 153.099 30.7108C153.049 31.6301 152.782 32.5245 152.32 33.3205C151.857 34.1166 151.213 34.7916 150.439 35.2901C148.971 36.1285 147.794 35.4513 147.794 33.6777C147.856 32.7741 148.127 31.8972 148.586 31.1164C149.045 30.3356 149.679 29.6723 150.439 29.179Z" fill="var(--fill-0, #FAFAFA)" id="Vector_19"/>
<path d="M158.162 25.3574L173.109 16.731C173.721 16.3924 174.221 16.6343 174.221 17.2953C174.192 17.6674 174.077 18.0275 173.884 18.3467C173.69 18.666 173.425 18.9354 173.109 19.1335L158.162 27.7599C157.549 28.1147 157.049 27.8567 157.049 27.1956C157.078 26.8236 157.194 26.4635 157.387 26.1442C157.58 25.825 157.845 25.5555 158.162 25.3574Z" fill="var(--fill-0, #FAFAFA)" id="Vector_20"/>
<path d="M158.162 29.4692L166.385 24.6319C166.998 24.2772 167.498 24.5352 167.498 25.1963C167.469 25.5683 167.353 25.9284 167.16 26.2476C166.967 26.5669 166.701 26.8363 166.385 27.0344L158.162 31.8717C157.549 32.2264 157.049 31.9845 157.049 31.3234C157.075 30.9486 157.19 30.5853 157.383 30.2631C157.577 29.9408 157.843 29.6688 158.162 29.4692Z" fill="var(--fill-0, #FAFAFA)" id="Vector_21"/>
<path d="M153.745 117.878H152.874C151.745 117.878 150.391 117.346 150.391 115.717C150.423 115.12 150.597 114.538 150.896 114.019C151.196 113.501 151.614 113.061 152.116 112.734C152.858 112.315 153.487 112.493 153.729 113.105C153.969 112.188 154.544 111.394 155.341 110.88C156.292 110.332 157.066 110.767 157.066 111.864C156.755 113.742 155.897 115.486 154.599 116.878L153.745 117.878Z" fill="var(--fill-0, #FAFAFA)" id="Vector_22"/>
<path d="M166.804 103.834L173.06 100.238C173.351 100.061 173.576 100.238 173.576 100.528V104.946C173.565 105.126 173.513 105.301 173.423 105.458C173.334 105.614 173.21 105.748 173.06 105.849L166.804 109.445C166.53 109.622 166.288 109.445 166.288 109.155V104.737C166.303 104.558 166.356 104.384 166.446 104.228C166.535 104.072 166.657 103.937 166.804 103.834Z" fill="var(--fill-0, #FAFAFA)" id="Vector_23"/>
<path d="M167.756 110.106C167.756 110.687 167.981 110.735 168.239 110.219L169.626 107.51L167.756 108.526V110.106Z" fill="var(--fill-0, #FAFAFA)" id="Vector_24"/>
<path d="M188.702 93.9014L185.106 92.7405V94.4658C183.479 95.3089 182.225 96.7293 181.591 98.4485C181.498 98.8184 181.482 99.2032 181.542 99.5797C181.602 99.9562 181.738 100.317 181.942 100.639C182.145 100.962 182.412 101.239 182.726 101.456C183.039 101.673 183.394 101.823 183.768 101.899C183.45 101.632 183.199 101.295 183.034 100.915C182.868 100.534 182.794 100.12 182.816 99.7062C183.026 98.1905 183.88 97.6584 185.106 97.1263V99.1418L188.702 93.9014Z" fill="var(--fill-0, #FAFAFA)" id="Vector_25"/>
<path d="M123.834 3.91224V104.318C123.762 105.663 123.375 106.974 122.702 108.142C122.03 109.31 121.092 110.303 119.964 111.041L3.86989 178.07C1.72538 179.311 8.61445e-05 178.311 8.61445e-05 175.828V75.423C0.0702394 74.0767 0.4573 72.7661 1.12976 71.5977C1.80222 70.4293 2.74107 69.4362 3.86989 68.6992L119.964 1.67098C122.109 0.429417 123.834 1.42912 123.834 3.91224Z" fill="var(--fill-0, #37474F)" id="Vector_26"/>
<path d="M119.964 111.041L3.86989 178.07C1.72538 179.311 8.61445e-05 178.312 8.61445e-05 175.828V79.3574L123.834 7.84669V104.318C123.762 105.664 123.375 106.974 122.702 108.142C122.03 109.31 121.092 110.304 119.964 111.041Z" fill="var(--fill-0, #455A64)" id="Vector_27"/>
<path d="M114.224 21.8101L75.1715 44.384C74.492 44.8244 73.9261 45.4191 73.5198 46.1195C73.1135 46.82 72.8784 47.6065 72.8335 48.415V55.6548C72.8335 57.1543 73.8816 57.7509 75.1715 57.0092L114.224 34.4353C114.904 33.9949 115.47 33.4002 115.876 32.6998C116.282 31.9993 116.517 31.2128 116.562 30.4043V23.1645C116.578 21.665 115.514 21.0684 114.224 21.8101Z" fill="var(--fill-0, #EBEBEB)" id="Vector_28"/>
<path d="M6.61066 70.0698C6.17769 70.3564 5.81795 70.7406 5.56033 71.1914C5.30271 71.6422 5.15436 72.1472 5.12722 72.6658C5.12722 73.6171 5.78832 74.0041 6.61066 73.5203C7.04994 73.2429 7.41569 72.8635 7.67678 72.4143C7.93786 71.9651 8.08656 71.4595 8.1102 70.9405C8.1102 69.9892 7.44911 69.6022 6.61066 70.0698Z" fill="var(--fill-0, #FAFAFA)" id="Vector_29"/>
<path d="M12.5446 66.6516C12.1096 66.9374 11.7474 67.321 11.487 67.7717C11.2266 68.2225 11.0753 68.7279 11.0451 69.2476C11.0451 70.1989 11.7223 70.5859 12.5446 70.1021C12.9809 69.8229 13.3435 69.4426 13.6017 68.9936C13.8599 68.5445 14.0062 68.0398 14.0281 67.5223C14.0281 66.5709 13.3831 66.184 12.5446 66.6516Z" fill="var(--fill-0, #FAFAFA)" id="Vector_30"/>
<path d="M18.462 63.2331C18.029 63.5197 17.6693 63.9039 17.4116 64.3547C17.154 64.8056 17.0057 65.3105 16.9785 65.8291C16.9785 66.7804 17.6396 67.1674 18.462 66.6837C18.9013 66.4062 19.267 66.0268 19.5281 65.5776C19.7892 65.1284 19.9379 64.6228 19.9615 64.1038C19.9615 63.1525 19.2843 62.7655 18.462 63.2331Z" fill="var(--fill-0, #FAFAFA)" id="Vector_31"/>
<path d="M114.224 38.6277L60.5947 69.5861C59.9249 70.0201 59.366 70.6049 58.9628 71.2937C58.5596 71.9825 58.3233 72.7561 58.2728 73.5526C58.2728 75.0038 59.3048 75.5682 60.5947 74.8265L114.224 43.868C114.898 43.4378 115.462 42.8542 115.868 42.1649C116.274 41.4756 116.512 40.7001 116.562 39.9015C116.578 38.4503 115.514 37.8859 114.224 38.6277Z" fill="var(--fill-0, #EBEBEB)" id="Vector_32"/>
<path d="M114.224 50.2855L60.5947 81.2439C59.9222 81.6751 59.3613 82.2592 58.9577 82.9485C58.5542 83.6379 58.3195 84.413 58.2728 85.2105C58.2728 86.6616 59.3048 87.226 60.5947 86.4843L114.224 55.5259C114.896 55.0927 115.457 54.5085 115.863 53.8198C116.269 53.1311 116.508 52.357 116.562 51.5593C116.578 50.1081 115.514 49.5438 114.224 50.2855Z" fill="var(--fill-0, #EBEBEB)" id="Vector_33"/>
<path d="M114.224 61.9271L60.5947 92.8533C59.9249 93.2873 59.366 93.8721 58.9628 94.5609C58.5596 95.2497 58.3233 96.0233 58.2728 96.8198C58.2728 98.271 59.3048 98.8354 60.5947 98.0936L114.224 67.1352C114.898 66.7049 115.462 66.1214 115.868 65.4321C116.274 64.7428 116.512 63.9672 116.562 63.1687C116.578 61.7497 115.514 61.1854 114.224 61.9271Z" fill="var(--fill-0, #EBEBEB)" id="Vector_34"/>
<path d="M114.224 73.585L60.5947 104.543C59.9222 104.975 59.3613 105.559 58.9577 106.248C58.5542 106.937 58.3195 107.713 58.2728 108.51C58.2728 109.945 59.3048 110.525 60.5947 109.784L114.224 78.8254C114.896 78.3922 115.457 77.808 115.863 77.1193C116.269 76.4306 116.508 75.6565 116.562 74.8588C116.578 73.4076 115.514 72.8433 114.224 73.585Z" fill="var(--fill-0, #EBEBEB)" id="Vector_35"/>
<path d="M113.45 89.6285L10.3679 149.143C9.4648 149.729 8.71433 150.521 8.17874 151.455C7.64315 152.389 7.33787 153.437 7.28823 154.512V164.187C7.28823 166.17 8.70716 166.976 10.4163 165.977L113.385 106.43C114.288 105.841 115.04 105.048 115.581 104.116C116.121 103.183 116.435 102.137 116.497 101.061V91.3861C116.578 89.3705 115.159 88.5643 113.45 89.6285Z" fill="var(--fill-0, #EBEBEB)" id="Vector_36"/>
<path d="M48.6634 59.6697L9.77188 82.2435C9.09556 82.6912 8.53237 83.2897 8.12667 83.992C7.72096 84.6943 7.4838 85.4812 7.43387 86.2907L7.27263 139.694C7.27263 141.177 8.30458 141.79 9.59451 141.048L48.6473 118.475C49.3268 118.034 49.8927 117.439 50.299 116.739C50.7052 116.039 50.9404 115.252 50.9853 114.444V61.008C50.9853 59.5246 49.9372 58.9925 48.6634 59.6697Z" fill="var(--fill-0, #FAFAFA)" id="Vector_37"/>
<path d="M43.6966 82.1952C38.166 85.42 33.6834 82.7918 33.6834 76.4066C33.7951 72.9979 34.7597 69.6717 36.489 66.7321L48.6628 59.6536C49.9366 58.9119 50.9847 59.5085 50.9847 60.9919V74.3266C49.2831 77.5401 46.7706 80.2528 43.6966 82.1952Z" fill="var(--fill-0, #263238)" id="Vector_38"/>
<path d="M7.35302 114.879L14.6734 89.9026C15.2216 87.9999 16.4148 87.887 17.3339 89.6446L28.0565 110.106L32.4261 98.4323C33.1195 96.578 34.3449 96.5296 35.1672 98.3355L45.3255 120.474L9.59428 141.113C8.49784 141.742 7.61101 141.387 7.35302 140.387V114.879Z" fill="var(--fill-0, #263238)" id="Vector_39"/>
<path d="M361.262 105.221V198.596C361.262 199.563 360.585 199.95 359.762 199.466L232.478 125.989C232.037 125.7 231.669 125.312 231.406 124.856C231.143 124.399 230.991 123.887 230.962 123.36V29.969C230.962 29.0016 231.64 28.6146 232.478 29.0983L359.762 102.528C360.207 102.826 360.576 103.226 360.836 103.694C361.097 104.162 361.243 104.685 361.262 105.221Z" fill="var(--fill-0, #455A64)" id="Vector_40"/>
<path d="M232.478 29.1143L359.762 102.528C360.199 102.82 360.562 103.209 360.822 103.665C361.082 104.121 361.233 104.632 361.262 105.156V111.783L230.962 36.4186V29.9689C230.962 29.0176 231.64 28.6306 232.478 29.1143Z" fill="var(--fill-0, #37474F)" id="Vector_41"/>
<path d="M355.78 102.802C356.222 103.081 356.589 103.463 356.85 103.915C357.111 104.367 357.259 104.876 357.28 105.398C357.28 106.349 356.619 106.736 355.78 106.252C355.344 105.973 354.981 105.593 354.723 105.144C354.465 104.695 354.319 104.19 354.297 103.673C354.297 102.721 354.958 102.334 355.78 102.802Z" fill="var(--fill-0, #FAFAFA)" id="Vector_42"/>
<path d="M349.862 99.3834C350.297 99.6692 350.66 100.053 350.92 100.504C351.18 100.954 351.332 101.46 351.362 101.979C351.362 102.931 350.685 103.318 349.862 102.834C349.426 102.555 349.063 102.174 348.805 101.725C348.547 101.276 348.401 100.772 348.379 100.254C348.379 99.3028 349.04 98.9158 349.862 99.3834Z" fill="var(--fill-0, #FAFAFA)" id="Vector_43"/>
<path d="M343.929 95.9652C344.362 96.2519 344.722 96.636 344.98 97.0869C345.237 97.5377 345.386 98.0427 345.413 98.5612C345.413 99.5125 344.752 99.8995 343.929 99.4158C343.49 99.1384 343.124 98.7589 342.863 98.3097C342.602 97.8605 342.453 97.3549 342.43 96.8359C342.446 95.8846 343.123 95.4976 343.929 95.9652Z" fill="var(--fill-0, #FAFAFA)" id="Vector_44"/>
<path d="M255.988 59.5085C249.909 55.9934 244.991 58.8474 244.991 65.8453C245.196 69.6611 246.298 73.3746 248.209 76.6837C250.12 79.9928 252.785 82.8038 255.988 84.888C262.051 88.3869 266.969 85.5491 266.969 78.535C266.761 74.7241 265.659 71.0156 263.751 67.7101C261.844 64.4045 259.184 61.5948 255.988 59.5085Z" fill="var(--fill-0, white)" id="Vector_45"/>
<path d="M255.245 64.5553C253.278 63.4105 251.682 64.3295 251.682 66.6192C251.75 67.8558 252.109 69.059 252.728 70.1318C253.347 71.2045 254.209 72.1167 255.245 72.7947C257.213 73.9234 258.809 73.0044 258.809 70.7309C258.743 69.4936 258.386 68.2894 257.767 67.2163C257.148 66.1432 256.284 65.2314 255.245 64.5553Z" fill="var(--fill-0, #263238)" id="Vector_46"/>
<path d="M249.038 77.1482C249.038 73.4074 251.65 71.8917 254.891 73.7622L256.906 74.9392C258.616 76.0463 260.039 77.5425 261.059 79.3054C262.079 81.0682 262.667 83.0475 262.775 85.0813V86.081C261.624 86.3766 260.423 86.423 259.252 86.2173C258.082 86.0115 256.968 85.5583 255.987 84.8878C253.175 83.1612 250.797 80.811 249.038 78.0189V77.1482Z" fill="var(--fill-0, #263238)" id="Vector_47"/>
<path d="M276.111 72.4401L293.219 82.3243C293.748 82.6518 294.192 83.1003 294.515 83.6329C294.837 84.1654 295.028 84.7669 295.073 85.3879C295.073 86.5004 294.251 86.9197 293.219 86.3231L276.111 76.4389C275.58 76.1134 275.134 75.6654 274.812 75.1324C274.489 74.5994 274.299 73.9969 274.257 73.3753C274.257 72.2628 275.079 71.8919 276.111 72.4401Z" fill="var(--fill-0, white)" id="Vector_48"/>
<path d="M276.111 82.2437L303.99 98.3678C304.516 98.6972 304.957 99.1465 305.277 99.679C305.596 100.211 305.785 100.812 305.828 101.431C305.828 102.544 305.006 103.044 303.99 102.367L276.111 86.2424C275.58 85.9169 275.134 85.4689 274.812 84.9359C274.489 84.4029 274.299 83.8005 274.257 83.1789C274.257 82.0663 275.079 81.6471 276.111 82.2437Z" fill="var(--fill-0, white)" id="Vector_49"/>
<path d="M276.111 89.6286L303.99 105.753C304.514 106.085 304.953 106.535 305.272 107.067C305.591 107.599 305.781 108.198 305.828 108.816C305.828 109.929 305.006 110.429 303.99 109.752L276.111 93.6273C275.581 93.2963 275.137 92.8448 274.815 92.3096C274.493 91.7744 274.302 91.1707 274.257 90.5476C274.257 89.4512 275.079 89.032 276.111 89.6286Z" fill="var(--fill-0, white)" id="Vector_50"/>
<path d="M354.394 175.264V186.083C354.394 187.067 353.716 187.486 352.862 186.986L322.226 169.33L319.501 167.718C319.037 167.429 318.649 167.035 318.369 166.566C318.089 166.098 317.924 165.57 317.888 165.025V154.19C317.888 153.206 318.582 152.803 319.501 153.287L352.83 172.539C353.289 172.835 353.671 173.237 353.943 173.711C354.215 174.185 354.37 174.718 354.394 175.264Z" fill="var(--fill-0, white)" id="Vector_51"/>
<path d="M354.394 118.152V165.041C354.394 166.041 353.716 166.444 352.862 165.944L322.226 148.208L319.501 146.595C319.038 146.31 318.65 145.919 318.369 145.453C318.089 144.987 317.924 144.461 317.888 143.919V97.1263C317.888 96.1266 318.582 95.7396 319.501 96.2233L352.862 115.427C353.315 115.727 353.691 116.13 353.957 116.604C354.224 117.078 354.373 117.609 354.394 118.152Z" fill="var(--fill-0, white)" id="Vector_52"/>
<path d="M317.969 97.1261V108.977C319.34 111.279 321.242 113.22 323.516 114.637C328.192 117.33 331.965 115.153 331.965 109.8C331.875 107.175 331.174 104.608 329.917 102.302L319.533 96.3038C318.662 95.7394 317.969 96.078 317.969 97.1261Z" fill="var(--fill-0, #263238)" id="Vector_53"/>
<path d="M354.394 148.288V165.041C354.394 166.041 353.717 166.444 352.862 165.944L322.226 148.208L331.401 128.859L337.205 141.468L346.461 122.731L354.394 148.288Z" fill="var(--fill-0, #263238)" id="Vector_54"/>
<path d="M240.154 84.0656L308.456 123.489C309.084 123.844 309.621 124.341 310.024 124.94C310.428 125.539 310.685 126.224 310.778 126.94C310.778 128.101 309.746 128.439 308.456 127.698L240.218 88.2901C239.571 87.939 239.016 87.4383 238.601 86.8297C238.186 86.2211 237.922 85.5223 237.832 84.7912C237.832 83.6625 238.864 83.3078 240.154 84.0656Z" fill="var(--fill-0, white)" id="Vector_55"/>
<path d="M240.154 94.6109L308.456 134.002C309.084 134.357 309.621 134.854 310.024 135.453C310.428 136.052 310.685 136.737 310.778 137.453C310.778 138.614 309.746 138.952 308.456 138.211L240.154 98.8193C239.525 98.4643 238.988 97.9675 238.585 97.3685C238.182 96.7695 237.924 96.0848 237.832 95.3688C237.832 94.2078 238.864 93.8692 240.154 94.6109Z" fill="var(--fill-0, white)" id="Vector_56"/>
<path d="M240.153 105.156L308.455 144.563C309.083 144.916 309.619 145.41 310.022 146.006C310.425 146.602 310.684 147.284 310.777 147.998C310.777 149.175 309.745 149.513 308.455 148.772L240.218 109.364C239.589 109.009 239.052 108.512 238.649 107.913C238.246 107.314 237.988 106.63 237.896 105.914C237.831 104.753 238.863 104.414 240.153 105.156Z" fill="var(--fill-0, white)" id="Vector_57"/>
<path d="M240.153 115.717L308.455 155.109C309.084 155.464 309.621 155.961 310.024 156.56C310.427 157.158 310.685 157.843 310.777 158.559C310.777 159.72 309.745 160.059 308.455 159.317L240.218 119.926C239.589 119.571 239.052 119.074 238.649 118.475C238.246 117.876 237.988 117.191 237.896 116.475C237.831 115.314 238.863 114.976 240.153 115.717Z" fill="var(--fill-0, white)" id="Vector_58"/>
<path d="M186.814 364.659L175.35 357.951C174.974 357.826 174.648 357.586 174.416 357.264C174.184 356.943 174.06 356.557 174.06 356.161C174.06 355.765 174.184 355.379 174.416 355.058C174.648 354.737 174.974 354.497 175.35 354.371L220.143 328.573C221.104 328.08 222.168 327.823 223.247 327.823C224.326 327.823 225.39 328.08 226.351 328.573L237.815 335.28C238.191 335.406 238.518 335.646 238.749 335.967C238.981 336.288 239.105 336.674 239.105 337.07C239.105 337.466 238.981 337.852 238.749 338.173C238.518 338.494 238.191 338.735 237.815 338.86L193.022 364.659C192.059 365.143 190.996 365.396 189.918 365.396C188.84 365.396 187.777 365.143 186.814 364.659Z" fill="var(--fill-0, #37474F)" id="Vector_59"/>
<path d="M179.817 354.452L188.541 349.421C189.176 349.103 189.877 348.938 190.588 348.938C191.299 348.938 192 349.103 192.636 349.421L201.359 354.452C201.604 354.539 201.816 354.7 201.966 354.912C202.115 355.124 202.196 355.377 202.196 355.637C202.196 355.897 202.115 356.15 201.966 356.363C201.816 356.575 201.604 356.735 201.359 356.822L192.636 361.869C192 362.187 191.299 362.353 190.588 362.353C189.877 362.353 189.176 362.187 188.541 361.869L179.817 356.822C179.573 356.735 179.361 356.575 179.211 356.363C179.061 356.15 178.981 355.897 178.981 355.637C178.981 355.377 179.061 355.124 179.211 354.912C179.361 354.7 179.573 354.539 179.817 354.452Z" fill="var(--fill-0, white)" id="Vector_60"/>
<path d="M186.315 355.468L191.055 358.209C191.225 358.303 191.424 358.327 191.611 358.276C191.798 358.224 191.957 358.102 192.055 357.935L194.329 354.001C194.522 353.646 194.329 353.42 193.974 353.501L186.396 354.968C186.009 355.032 185.912 355.274 186.315 355.468Z" fill="var(--fill-0, #37474F)" id="Vector_61"/>
<path d="M200.052 347.003C200.552 347.255 201.105 347.386 201.665 347.386C202.225 347.386 202.777 347.255 203.277 347.003L224.706 334.635C225.609 334.103 225.658 333.281 224.803 332.781C224.304 332.526 223.751 332.394 223.191 332.394C222.63 332.394 222.077 332.526 221.578 332.781L200.133 345.148C199.246 345.681 199.198 346.503 200.052 347.003Z" fill="var(--fill-0, white)" id="Vector_62"/>
<path d="M205.793 350.276C206.293 350.528 206.846 350.659 207.406 350.659C207.966 350.659 208.518 350.528 209.018 350.276L218.693 344.632C219.596 344.1 219.644 343.278 218.789 342.794C218.29 342.538 217.738 342.405 217.177 342.405C216.616 342.405 216.063 342.538 215.565 342.794L205.89 348.438C204.987 348.97 204.939 349.792 205.793 350.276Z" fill="var(--fill-0, white)" id="Vector_63"/>
<path d="M164.95 352.033L153.486 345.342C153.112 345.212 152.788 344.97 152.559 344.647C152.33 344.325 152.206 343.939 152.206 343.544C152.206 343.148 152.33 342.763 152.559 342.44C152.788 342.118 153.112 341.875 153.486 341.746L198.279 315.947C199.242 315.462 200.305 315.21 201.383 315.21C202.461 315.21 203.524 315.462 204.487 315.947L215.951 322.655C216.325 322.784 216.649 323.027 216.878 323.349C217.108 323.672 217.231 324.057 217.231 324.453C217.231 324.848 217.108 325.234 216.878 325.556C216.649 325.878 216.325 326.121 215.951 326.251L171.158 352.049C170.196 352.539 169.132 352.793 168.052 352.79C166.973 352.788 165.91 352.528 164.95 352.033Z" fill="var(--fill-0, #37474F)" id="Vector_64"/>
<path d="M158 341.843L166.724 336.812C167.357 336.487 168.059 336.317 168.771 336.317C169.484 336.317 170.186 336.487 170.819 336.812L179.542 341.843C179.787 341.93 179.999 342.09 180.149 342.302C180.299 342.515 180.379 342.768 180.379 343.028C180.379 343.288 180.299 343.541 180.149 343.753C179.999 343.965 179.787 344.126 179.542 344.213L170.819 349.228C170.186 349.553 169.484 349.723 168.771 349.723C168.059 349.723 167.357 349.553 166.724 349.228L158 344.197C157.761 344.107 157.555 343.946 157.409 343.736C157.264 343.525 157.186 343.276 157.186 343.02C157.186 342.764 157.264 342.514 157.409 342.304C157.555 342.094 157.761 341.933 158 341.843Z" fill="var(--fill-0, white)" id="Vector_65"/>
<path d="M164.499 342.859L169.223 345.584C169.308 345.633 169.402 345.665 169.499 345.677C169.596 345.69 169.694 345.684 169.788 345.658C169.883 345.633 169.971 345.589 170.049 345.529C170.126 345.469 170.191 345.395 170.239 345.31L172.513 341.392C172.706 341.037 172.513 340.811 172.158 340.892L164.58 342.343C164.193 342.423 164.144 342.649 164.499 342.859Z" fill="var(--fill-0, #37474F)" id="Vector_66"/>
<path d="M178.237 334.377C178.737 334.63 179.29 334.761 179.85 334.761C180.41 334.761 180.962 334.63 181.462 334.377L202.891 321.994C203.794 321.478 203.842 320.64 202.988 320.156C202.489 319.9 201.936 319.766 201.375 319.766C200.815 319.766 200.262 319.9 199.763 320.156L178.318 332.539C177.431 333.104 177.383 333.894 178.237 334.377Z" fill="var(--fill-0, white)" id="Vector_67"/>
<path d="M183.977 337.667C184.476 337.923 185.029 338.057 185.589 338.057C186.15 338.057 186.703 337.923 187.202 337.667L196.876 332.04C197.779 331.507 197.828 330.685 196.973 330.185C196.474 329.93 195.921 329.798 195.361 329.798C194.8 329.798 194.247 329.93 193.748 330.185L184.074 335.829C183.171 336.329 183.122 337.167 183.977 337.667Z" fill="var(--fill-0, white)" id="Vector_68"/>
<path d="M494.609 353.001L508.911 344.649C511.056 343.407 511.056 341.424 508.911 340.166L453.025 307.918C451.826 307.306 450.5 306.987 449.155 306.987C447.81 306.987 446.483 307.306 445.285 307.918L430.999 316.27C428.855 317.512 428.855 319.495 430.999 320.753L486.869 353.001C488.068 353.61 489.394 353.927 490.739 353.927C492.084 353.927 493.41 353.61 494.609 353.001Z" fill="var(--fill-0, #37474F)" id="Vector_69"/>
<path d="M463.764 317.624L452.88 311.336C452.089 310.931 451.213 310.72 450.324 310.72C449.436 310.72 448.56 310.931 447.769 311.336L436.885 317.624C436.599 317.751 436.355 317.957 436.185 318.219C436.014 318.481 435.923 318.787 435.923 319.1C435.923 319.412 436.014 319.718 436.185 319.98C436.355 320.242 436.599 320.449 436.885 320.575L447.769 326.847C448.56 327.252 449.436 327.463 450.324 327.463C451.213 327.463 452.089 327.252 452.88 326.847L463.764 320.575C464.05 320.449 464.293 320.242 464.464 319.98C464.635 319.718 464.726 319.412 464.726 319.1C464.726 318.787 464.635 318.481 464.464 318.219C464.293 317.957 464.05 317.751 463.764 317.624Z" fill="var(--fill-0, white)" id="Vector_70"/>
<path d="M449.768 316.205L445.382 318.737C444.512 319.237 444.608 319.801 445.576 319.994L453.638 321.607C454.621 321.8 454.976 321.268 454.46 320.43L452.235 316.834C451.979 316.437 451.583 316.152 451.125 316.035C450.667 315.919 450.183 315.979 449.768 316.205Z" fill="var(--fill-0, #37474F)" id="Vector_71"/>
<path d="M499.963 343.617C499.341 343.926 498.657 344.087 497.963 344.087C497.269 344.087 496.585 343.926 495.964 343.617L469.23 328.17C468.085 327.525 468.037 326.557 469.101 325.88C469.719 325.571 470.401 325.41 471.092 325.41C471.783 325.41 472.465 325.571 473.084 325.88L499.834 341.327C500.978 341.972 501.027 343.004 499.963 343.617Z" fill="var(--fill-0, white)" id="Vector_72"/>
<path d="M478.307 339.295C477.687 339.608 477.002 339.772 476.308 339.772C475.613 339.772 474.928 339.608 474.308 339.295L462.215 332.249C461.087 331.604 461.038 330.637 462.102 329.959C462.721 329.65 463.402 329.489 464.094 329.489C464.785 329.489 465.467 329.65 466.085 329.959L478.194 337.006C479.371 337.651 479.371 338.682 478.307 339.295Z" fill="var(--fill-0, white)" id="Vector_73"/>
<path d="M456.798 374.494L471.1 366.126C473.244 364.884 473.244 362.901 471.1 361.643L415.214 329.395C414.015 328.783 412.689 328.465 411.344 328.465C409.998 328.465 408.672 328.783 407.474 329.395L393.156 337.747C391.027 338.989 391.027 340.972 393.156 342.23L449.042 374.478C450.244 375.085 451.572 375.402 452.918 375.405C454.265 375.408 455.593 375.096 456.798 374.494Z" fill="var(--fill-0, #37474F)" id="Vector_74"/>
<path d="M420.567 335.958C418.087 334.705 415.348 334.052 412.569 334.052C409.791 334.052 407.051 334.705 404.572 335.958C400.154 338.505 400.154 342.649 404.572 345.197C407.051 346.45 409.791 347.102 412.569 347.102C415.348 347.102 418.087 346.45 420.567 345.197C424.985 342.649 424.985 338.505 420.567 335.958Z" fill="var(--fill-0, white)" id="Vector_75"/>
<path d="M462.2 365.094C461.584 365.412 460.901 365.578 460.208 365.578C459.515 365.578 458.833 365.412 458.217 365.094L431.467 349.647C430.338 349.002 430.29 348.035 431.354 347.357C431.972 347.048 432.654 346.887 433.345 346.887C434.037 346.887 434.718 347.048 435.337 347.357L462.087 362.804C463.248 363.449 463.248 364.481 462.2 365.094Z" fill="var(--fill-0, white)" id="Vector_76"/>
<path d="M440.561 360.773C439.943 361.09 439.257 361.255 438.562 361.255C437.867 361.255 437.181 361.09 436.563 360.773L424.469 353.726C423.341 353.081 423.276 352.114 424.357 351.437C424.975 351.127 425.657 350.966 426.348 350.966C427.039 350.966 427.721 351.127 428.339 351.437L440.448 358.483C441.577 359.144 441.626 360.16 440.561 360.773Z" fill="var(--fill-0, white)" id="Vector_77"/>
<path d="M407.797 342.875L407.281 341.794C406.603 340.375 406.2 338.441 408.151 337.312C408.898 336.922 409.728 336.718 410.57 336.718C411.412 336.718 412.242 336.922 412.989 337.312C414.021 337.908 414.246 338.779 413.666 339.505C414.939 339.162 416.293 339.3 417.471 339.892C417.759 339.991 418.01 340.179 418.187 340.427C418.364 340.676 418.459 340.973 418.459 341.278C418.459 341.584 418.364 341.881 418.187 342.13C418.01 342.378 417.759 342.565 417.471 342.665C415.568 343.762 412.215 343.552 409.732 343.165L407.797 342.875Z" fill="var(--fill-0, #37474F)" id="Vector_78"/>
</g>
</svg>