<?xml version="1.0" encoding="utf-8"?>
<svg xmlns="http://www.w3.org/2000/svg" fill="none" height="100%" overflow="visible" preserveAspectRatio="none" style="display: block;" viewBox="0 0 63 63" width="100%">
<g id="Frame 2147257036">
<circle cx="31.5" cy="31.5" fill="var(--fill-0, #FFDFD1)" id="Ellipse 787" r="31.5"/>
<g clip-path="url(#clip0_0_14292)" id="streamline-ultimate:customer-relationship-management-lead-management-1-bold">
<path d="M44.2742 32.7042V33.7875C44.2793 34.0409 44.1954 34.2882 44.037 34.4861C43.8786 34.684 43.6559 34.8202 43.4075 34.8708L42.0642 35.1417C41.8084 36.2198 41.3764 37.2483 40.7858 38.1858L41.555 39.3342C41.6858 39.5387 41.7441 39.7813 41.7205 40.0229C41.6969 40.2645 41.5928 40.4913 41.425 40.6667L39.9408 42.1508C39.7632 42.3266 39.5303 42.4356 39.2815 42.4593C39.0328 42.483 38.7834 42.4199 38.5758 42.2808L37.4167 41.5008C36.486 42.1093 35.461 42.5596 34.3833 42.8333L34.1667 44.1225C34.116 44.3709 33.9799 44.5936 33.7819 44.752C33.584 44.9104 33.3368 44.9943 33.0833 44.9892H30.9167C30.6632 44.9943 30.416 44.9104 30.2181 44.752C30.0201 44.5936 29.884 44.3709 29.8333 44.1225L29.6167 42.8333C28.539 42.5596 27.514 42.1093 26.5833 41.5008L25.435 42.27C25.2274 42.4091 24.9781 42.4721 24.7293 42.4484C24.4805 42.4247 24.2476 42.3158 24.07 42.14L22.575 40.6667C22.3992 40.489 22.2903 40.2561 22.2666 40.0074C22.2429 39.7586 22.3059 39.5093 22.445 39.3017L23.2142 38.1533C22.6236 37.2158 22.1916 36.1873 21.9358 35.1092L20.5925 34.8383C20.3441 34.7877 20.1214 34.6515 19.963 34.4536C19.8046 34.2557 19.7207 34.0084 19.7258 33.755V32.6717H26.8325C26.8325 34.0422 27.3769 35.3565 28.346 36.3256C29.3151 37.2947 30.6295 37.8392 32 37.8392C33.3705 37.8392 34.6849 37.2947 35.654 36.3256C36.6231 35.3565 37.1675 34.0422 37.1675 32.6717L44.2742 32.7042ZM37.6008 23.1275C37.6008 23.7941 37.8656 24.4334 38.337 24.9047C38.8083 25.376 39.4476 25.6408 40.1142 25.6408C40.7807 25.6408 41.42 25.376 41.8914 24.9047C42.3627 24.4334 42.6275 23.7941 42.6275 23.1275C42.6275 22.4609 42.3627 21.8216 41.8914 21.3503C41.42 20.879 40.7807 20.6142 40.1142 20.6142C39.4476 20.6142 38.8083 20.879 38.337 21.3503C37.8656 21.8216 37.6008 22.4609 37.6008 23.1275ZM21.3833 23.1275C21.3833 23.7941 21.6481 24.4334 22.1195 24.9047C22.5908 25.376 23.2301 25.6408 23.8967 25.6408C24.5632 25.6408 25.2025 25.376 25.6739 24.9047C26.1452 24.4334 26.41 23.7941 26.41 23.1275C26.41 22.4609 26.1452 21.8216 25.6739 21.3503C25.2025 20.879 24.5632 20.6142 23.8967 20.6142C23.2301 20.6142 22.5908 20.879 22.1195 21.3503C21.6481 21.8216 21.3833 22.4609 21.3833 23.1275ZM26.3667 28.5333C25.978 28.2862 25.5593 28.0896 25.1208 27.9483C23.9594 27.6219 22.7216 27.6992 21.6097 28.1676C20.4979 28.6359 19.5778 29.4676 19 30.5267H25.2075C25.5285 29.8263 25.9168 29.1587 26.3667 28.5333ZM38.695 30.5592H45C44.4251 29.4939 43.5047 28.6561 42.3903 28.1835C41.2758 27.711 40.0337 27.6319 38.8683 27.9592C38.4218 28.1021 37.9958 28.3024 37.6008 28.555C38.0261 29.1882 38.3924 29.859 38.695 30.5592ZM37.4925 30.5592C37.06 29.436 36.3108 28.4625 35.3358 27.7568C34.3609 27.051 33.2021 26.6434 32 26.5833C30.788 26.6367 29.6178 27.0423 28.6327 27.7503C27.6476 28.4584 26.8903 29.4382 26.4533 30.57L37.4925 30.5592ZM28.7392 22.1525C28.7392 22.9886 29.0713 23.7904 29.6625 24.3817C30.2537 24.9729 31.0556 25.305 31.8917 25.305C32.7278 25.305 33.5296 24.9729 34.1208 24.3817C34.712 23.7904 35.0442 22.9886 35.0442 22.1525C35.0442 21.3164 34.712 20.5146 34.1208 19.9233C33.5296 19.3321 32.7278 19 31.8917 19C31.0556 19 30.2537 19.3321 29.6625 19.9233C29.0713 20.5146 28.7392 21.3164 28.7392 22.1525Z" fill="var(--fill-0, #FF7032)" id="Vector"/>
</g>
</g>
<defs>
<clipPath id="clip0_0_14292">
<rect fill="white" height="26" transform="translate(19 19)" width="26"/>
</clipPath>
</defs>
</svg>