<?xml version="1.0" encoding="utf-8"?>
<svg xmlns="http://www.w3.org/2000/svg" fill="none" height="100%" overflow="visible" preserveAspectRatio="none" style="display: block;" viewBox="0 0 751 706" width="100%">
<g data-figma-bg-blur-radius="15" filter="url(#filter0_dddd_0_4871)" id="Frame 1116608409">
<mask fill="white" id="path-1-inside-1_0_4871">
<path d="M31 81.4C31 53.9574 31 40.2361 36.3407 29.7545C41.0385 20.5345 48.5345 13.0385 57.7545 8.34068C68.2361 3 81.9574 3 109.4 3H664.6C692.043 3 705.764 3 716.246 8.34068C725.465 13.0385 732.962 20.5345 737.659 29.7545C743 40.2361 743 53.9574 743 81.4V566.6C743 594.043 743 607.764 737.659 618.246C732.962 627.465 725.465 634.962 716.246 639.659C705.764 645 692.043 645 664.6 645H109.4C81.9574 645 68.2361 645 57.7545 639.659C48.5345 634.962 41.0385 627.465 36.3407 618.246C31 607.764 31 594.043 31 566.6V81.4Z"/>
</mask>
<path d="M31 81.4C31 53.9574 31 40.2361 36.3407 29.7545C41.0385 20.5345 48.5345 13.0385 57.7545 8.34068C68.2361 3 81.9574 3 109.4 3H664.6C692.043 3 705.764 3 716.246 8.34068C725.465 13.0385 732.962 20.5345 737.659 29.7545C743 40.2361 743 53.9574 743 81.4V566.6C743 594.043 743 607.764 737.659 618.246C732.962 627.465 725.465 634.962 716.246 639.659C705.764 645 692.043 645 664.6 645H109.4C81.9574 645 68.2361 645 57.7545 639.659C48.5345 634.962 41.0385 627.465 36.3407 618.246C31 607.764 31 594.043 31 566.6V81.4Z" fill="var(--fill-0, white)" fill-opacity="0.1"/>
<g clip-path="url(#paint0_angular_0_4871_clip_path)" data-figma-skip-parse="true" mask="url(#path-1-inside-1_0_4871)">
      <g transform="matrix(0.37024 0.072225 -0.0699447 0.291515 406.58 251.775)"/>
    </g>
    <path d="M57.7545 639.659L58.2085 638.768L57.7545 639.659ZM36.3407 618.246L35.4497 618.7L36.3407 618.246ZM737.659 618.246L736.768 617.792L737.659 618.246ZM716.246 639.659L716.7 640.55L716.246 639.659ZM716.246 8.34068L716.7 7.44967L716.246 8.34068ZM737.659 29.7545L738.55 29.3005L737.659 29.7545ZM36.3407 29.7545L35.4497 29.3005L36.3407 29.7545ZM109.4 3V4H664.6V3V2H109.4V3ZM743 81.4H742V566.6H743H744V81.4H743ZM664.6 645V644H109.4V645V646H664.6V645ZM31 566.6H32V81.4H31H30V566.6H31ZM109.4 645V644C95.6622 644 85.419 643.999 77.2983 643.336C69.1893 642.673 63.2848 641.355 58.2085 638.768L57.7545 639.659L57.3005 640.55C62.7058 643.304 68.9028 644.656 77.1355 645.329C85.3565 646.001 95.6952 646 109.4 646V645ZM31 566.6H30C30 580.305 29.9992 590.643 30.6709 598.865C31.3435 607.097 32.6955 613.294 35.4497 618.7L36.3407 618.246L37.2317 617.792C34.6451 612.715 33.3268 606.811 32.6643 598.702C32.0008 590.581 32 580.338 32 566.6H31ZM57.7545 639.659L58.2085 638.768C49.1767 634.166 41.8336 626.823 37.2317 617.792L36.3407 618.246L35.4497 618.7C40.2433 628.108 47.8924 635.757 57.3005 640.55L57.7545 639.659ZM743 566.6H742C742 580.338 741.999 590.581 741.336 598.702C740.673 606.811 739.355 612.715 736.768 617.792L737.659 618.246L738.55 618.7C741.304 613.294 742.656 607.097 743.329 598.865C744.001 590.643 744 580.305 744 566.6H743ZM664.6 645V646C678.305 646 688.643 646.001 696.865 645.329C705.097 644.656 711.294 643.304 716.7 640.55L716.246 639.659L715.792 638.768C710.715 641.355 704.811 642.673 696.702 643.336C688.581 643.999 678.338 644 664.6 644V645ZM737.659 618.246L736.768 617.792C732.166 626.823 724.823 634.166 715.792 638.768L716.246 639.659L716.7 640.55C726.108 635.757 733.757 628.108 738.55 618.7L737.659 618.246ZM664.6 3V4C678.338 4 688.581 4.00078 696.702 4.66426C704.811 5.3268 710.715 6.64515 715.792 9.23169L716.246 8.34068L716.7 7.44967C711.294 4.69553 705.097 3.34354 696.865 2.67091C688.643 1.99922 678.305 2 664.6 2V3ZM743 81.4H744C744 67.6952 744.001 57.3565 743.329 49.1355C742.656 40.9028 741.304 34.7058 738.55 29.3005L737.659 29.7545L736.768 30.2085C739.355 35.2848 740.673 41.1893 741.336 49.2983C741.999 57.419 742 67.6622 742 81.4H743ZM716.246 8.34068L715.792 9.23169C724.823 13.8336 732.166 21.1767 736.768 30.2085L737.659 29.7545L738.55 29.3005C733.757 19.8924 726.108 12.2433 716.7 7.44967L716.246 8.34068ZM109.4 3V2C95.6952 2 85.3565 1.99922 77.1355 2.67091C68.9028 3.34354 62.7058 4.69553 57.3005 7.44967L57.7545 8.34068L58.2085 9.23169C63.2848 6.64515 69.1893 5.3268 77.2983 4.66426C85.419 4.00078 95.6622 4 109.4 4V3ZM31 81.4H32C32 67.6622 32.0008 57.419 32.6643 49.2983C33.3268 41.1893 34.6451 35.2848 37.2317 30.2085L36.3407 29.7545L35.4497 29.3005C32.6955 34.7058 31.3435 40.9028 30.6709 49.1355C29.9992 57.3565 30 67.6952 30 81.4H31ZM57.7545 8.34068L57.3005 7.44967C47.8924 12.2433 40.2433 19.8924 35.4497 29.3005L36.3407 29.7545L37.2317 30.2085C41.8336 21.1767 49.1767 13.8336 58.2085 9.23169L57.7545 8.34068Z" data-figma-gradient-fill="{&quot;type&quot;:&quot;GRADIENT_ANGULAR&quot;,&quot;stops&quot;:[{&quot;color&quot;:{&quot;r&quot;:0.25098040699958801,&quot;g&quot;:0.25098040699958801,&quot;b&quot;:0.25098040699958801,&quot;a&quot;:0.50},&quot;position&quot;:0.029223963618278503},{&quot;color&quot;:{&quot;r&quot;:0.25262922048568726,&quot;g&quot;:0.25262922048568726,&quot;b&quot;:0.25262922048568726,&quot;a&quot;:0.34999999403953552},&quot;position&quot;:0.089225620031356812},{&quot;color&quot;:{&quot;r&quot;:1.0,&quot;g&quot;:1.0,&quot;b&quot;:1.0,&quot;a&quot;:0.50},&quot;position&quot;:0.16744795441627502},{&quot;color&quot;:{&quot;r&quot;:1.0,&quot;g&quot;:1.0,&quot;b&quot;:1.0,&quot;a&quot;:0.50},&quot;position&quot;:0.29941025376319885},{&quot;color&quot;:{&quot;r&quot;:0.25098040699958801,&quot;g&quot;:0.25098040699958801,&quot;b&quot;:0.25098040699958801,&quot;a&quot;:0.34999999403953552},&quot;position&quot;:0.52108556032180786},{&quot;color&quot;:{&quot;r&quot;:0.97664386034011841,&quot;g&quot;:0.97664386034011841,&quot;b&quot;:0.97664386034011841,&quot;a&quot;:1.0},&quot;position&quot;:0.57661086320877075},{&quot;color&quot;:{&quot;r&quot;:1.0,&quot;g&quot;:1.0,&quot;b&quot;:1.0,&quot;a&quot;:0.50},&quot;position&quot;:0.79807692766189575},{&quot;color&quot;:{&quot;r&quot;:0.97647058963775635,&quot;g&quot;:0.97647058963775635,&quot;b&quot;:0.97647058963775635,&quot;a&quot;:0.50},&quot;position&quot;:0.90846514701843262}],&quot;stopsVar&quot;:[{&quot;color&quot;:{&quot;r&quot;:0.25098040699958801,&quot;g&quot;:0.25098040699958801,&quot;b&quot;:0.25098040699958801,&quot;a&quot;:0.50},&quot;position&quot;:0.029223963618278503},{&quot;color&quot;:{&quot;r&quot;:0.25262922048568726,&quot;g&quot;:0.25262922048568726,&quot;b&quot;:0.25262922048568726,&quot;a&quot;:0.34999999403953552},&quot;position&quot;:0.089225620031356812},{&quot;color&quot;:{&quot;r&quot;:1.0,&quot;g&quot;:1.0,&quot;b&quot;:1.0,&quot;a&quot;:0.50},&quot;position&quot;:0.16744795441627502},{&quot;color&quot;:{&quot;r&quot;:1.0,&quot;g&quot;:1.0,&quot;b&quot;:1.0,&quot;a&quot;:0.50},&quot;position&quot;:0.29941025376319885},{&quot;color&quot;:{&quot;r&quot;:0.25098040699958801,&quot;g&quot;:0.25098040699958801,&quot;b&quot;:0.25098040699958801,&quot;a&quot;:0.34999999403953552},&quot;position&quot;:0.52108556032180786},{&quot;color&quot;:{&quot;r&quot;:0.97664386034011841,&quot;g&quot;:0.97664386034011841,&quot;b&quot;:0.97664386034011841,&quot;a&quot;:1.0},&quot;position&quot;:0.57661086320877075},{&quot;color&quot;:{&quot;r&quot;:1.0,&quot;g&quot;:1.0,&quot;b&quot;:1.0,&quot;a&quot;:0.50},&quot;position&quot;:0.79807692766189575},{&quot;color&quot;:{&quot;r&quot;:0.97647058963775635,&quot;g&quot;:0.97647058963775635,&quot;b&quot;:0.97647058963775635,&quot;a&quot;:0.50},&quot;position&quot;:0.90846514701843262}],&quot;transform&quot;:{&quot;m00&quot;:740.48004150390625,&quot;m01&quot;:-139.88943481445312,&quot;m02&quot;:106.28470611572266,&quot;m10&quot;:144.45002746582031,&quot;m11&quot;:583.029785156250,&quot;m12&quot;:-111.96492004394531},&quot;opacity&quot;:0.50,&quot;blendMode&quot;:&quot;NORMAL&quot;,&quot;visible&quot;:true}" mask="url(#path-1-inside-1_0_4871)"/>
<g id="Play">
<g data-figma-bg-blur-radius="21.0931" filter="url(#filter1_d_0_4871)" id="BG">
<rect fill="var(--fill-0, black)" fill-opacity="0.71" height="65.7132" rx="22.7157" shape-rendering="crispEdges" width="65.7132" x="354.143" y="291.143"/>
<rect height="64.0906" rx="21.9044" shape-rendering="crispEdges" stroke="var(--stroke-0, white)" stroke-width="1.62255" width="64.0906" x="354.955" y="291.955"/>
</g>
<g id="button-play 1">
<g id="Group">
<path d="M382.153 317.97C382.153 316.696 383.555 315.919 384.636 316.594L395.206 323.201C396.223 323.836 396.223 325.317 395.206 325.953L384.636 332.559C383.555 333.234 382.153 332.457 382.153 331.183V317.97Z" fill="var(--fill-0, white)" id="Vector" stroke="var(--stroke-0, white)" stroke-linecap="round" stroke-linejoin="round" stroke-width="1.62255"/>
</g>
</g>
</g>
</g>
<defs>
<filter color-interpolation-filters="sRGB" filterUnits="userSpaceOnUse" height="718" id="filter0_dddd_0_4871" width="758" x="0" y="-12">
<feFlood flood-opacity="0" result="BackgroundImageFix"/>
<feColorMatrix in="SourceAlpha" result="hardAlpha" type="matrix" values="0 0 0 0 0 0 0 0 0 0 0 0 0 0 0 0 0 0 127 0"/>
<feOffset dx="-1" dy="3"/>
<feGaussianBlur stdDeviation="3"/>
<feColorMatrix type="matrix" values="0 0 0 0 0 0 0 0 0 0 0 0 0 0 0 0 0 0 0.08 0"/>
<feBlend in2="BackgroundImageFix" mode="normal" result="effect1_dropShadow_0_4871"/>
<feColorMatrix in="SourceAlpha" result="hardAlpha" type="matrix" values="0 0 0 0 0 0 0 0 0 0 0 0 0 0 0 0 0 0 127 0"/>
<feOffset dx="-3" dy="11"/>
<feGaussianBlur stdDeviation="5.5"/>
<feColorMatrix type="matrix" values="0 0 0 0 0 0 0 0 0 0 0 0 0 0 0 0 0 0 0.07 0"/>
<feBlend in2="effect1_dropShadow_0_4871" mode="normal" result="effect2_dropShadow_0_4871"/>
<feColorMatrix in="SourceAlpha" result="hardAlpha" type="matrix" values="0 0 0 0 0 0 0 0 0 0 0 0 0 0 0 0 0 0 127 0"/>
<feOffset dx="-7" dy="24"/>
<feGaussianBlur stdDeviation="7.5"/>
<feColorMatrix type="matrix" values="0 0 0 0 0 0 0 0 0 0 0 0 0 0 0 0 0 0 0.04 0"/>
<feBlend in2="effect2_dropShadow_0_4871" mode="normal" result="effect3_dropShadow_0_4871"/>
<feColorMatrix in="SourceAlpha" result="hardAlpha" type="matrix" values="0 0 0 0 0 0 0 0 0 0 0 0 0 0 0 0 0 0 127 0"/>
<feOffset dx="-13" dy="43"/>
<feGaussianBlur stdDeviation="9"/>
<feColorMatrix type="matrix" values="0 0 0 0 0 0 0 0 0 0 0 0 0 0 0 0 0 0 0.01 0"/>
<feBlend in2="effect3_dropShadow_0_4871" mode="normal" result="effect4_dropShadow_0_4871"/>
<feBlend in="SourceGraphic" in2="effect4_dropShadow_0_4871" mode="normal" result="shape"/>
</filter>
<clipPath id="bgblur_0_0_4871_clip_path" transform="translate(0 12)">
      <path d="M31 81.4C31 53.9574 31 40.2361 36.3407 29.7545C41.0385 20.5345 48.5345 13.0385 57.7545 8.34068C68.2361 3 81.9574 3 109.4 3H664.6C692.043 3 705.764 3 716.246 8.34068C725.465 13.0385 732.962 20.5345 737.659 29.7545C743 40.2361 743 53.9574 743 81.4V566.6C743 594.043 743 607.764 737.659 618.246C732.962 627.465 725.465 634.962 716.246 639.659C705.764 645 692.043 645 664.6 645H109.4C81.9574 645 68.2361 645 57.7545 639.659C48.5345 634.962 41.0385 627.465 36.3407 618.246C31 607.764 31 594.043 31 566.6V81.4Z"/>
</clipPath>
    <clipPath id="paint0_angular_0_4871_clip_path">
      <path d="M57.7545 639.659L58.2085 638.768L57.7545 639.659ZM36.3407 618.246L35.4497 618.7L36.3407 618.246ZM737.659 618.246L736.768 617.792L737.659 618.246ZM716.246 639.659L716.7 640.55L716.246 639.659ZM716.246 8.34068L716.7 7.44967L716.246 8.34068ZM737.659 29.7545L738.55 29.3005L737.659 29.7545ZM36.3407 29.7545L35.4497 29.3005L36.3407 29.7545ZM109.4 3V4H664.6V3V2H109.4V3ZM743 81.4H742V566.6H743H744V81.4H743ZM664.6 645V644H109.4V645V646H664.6V645ZM31 566.6H32V81.4H31H30V566.6H31ZM109.4 645V644C95.6622 644 85.419 643.999 77.2983 643.336C69.1893 642.673 63.2848 641.355 58.2085 638.768L57.7545 639.659L57.3005 640.55C62.7058 643.304 68.9028 644.656 77.1355 645.329C85.3565 646.001 95.6952 646 109.4 646V645ZM31 566.6H30C30 580.305 29.9992 590.643 30.6709 598.865C31.3435 607.097 32.6955 613.294 35.4497 618.7L36.3407 618.246L37.2317 617.792C34.6451 612.715 33.3268 606.811 32.6643 598.702C32.0008 590.581 32 580.338 32 566.6H31ZM57.7545 639.659L58.2085 638.768C49.1767 634.166 41.8336 626.823 37.2317 617.792L36.3407 618.246L35.4497 618.7C40.2433 628.108 47.8924 635.757 57.3005 640.55L57.7545 639.659ZM743 566.6H742C742 580.338 741.999 590.581 741.336 598.702C740.673 606.811 739.355 612.715 736.768 617.792L737.659 618.246L738.55 618.7C741.304 613.294 742.656 607.097 743.329 598.865C744.001 590.643 744 580.305 744 566.6H743ZM664.6 645V646C678.305 646 688.643 646.001 696.865 645.329C705.097 644.656 711.294 643.304 716.7 640.55L716.246 639.659L715.792 638.768C710.715 641.355 704.811 642.673 696.702 643.336C688.581 643.999 678.338 644 664.6 644V645ZM737.659 618.246L736.768 617.792C732.166 626.823 724.823 634.166 715.792 638.768L716.246 639.659L716.7 640.55C726.108 635.757 733.757 628.108 738.55 618.7L737.659 618.246ZM664.6 3V4C678.338 4 688.581 4.00078 696.702 4.66426C704.811 5.3268 710.715 6.64515 715.792 9.23169L716.246 8.34068L716.7 7.44967C711.294 4.69553 705.097 3.34354 696.865 2.67091C688.643 1.99922 678.305 2 664.6 2V3ZM743 81.4H744C744 67.6952 744.001 57.3565 743.329 49.1355C742.656 40.9028 741.304 34.7058 738.55 29.3005L737.659 29.7545L736.768 30.2085C739.355 35.2848 740.673 41.1893 741.336 49.2983C741.999 57.419 742 67.6622 742 81.4H743ZM716.246 8.34068L715.792 9.23169C724.823 13.8336 732.166 21.1767 736.768 30.2085L737.659 29.7545L738.55 29.3005C733.757 19.8924 726.108 12.2433 716.7 7.44967L716.246 8.34068ZM109.4 3V2C95.6952 2 85.3565 1.99922 77.1355 2.67091C68.9028 3.34354 62.7058 4.69553 57.3005 7.44967L57.7545 8.34068L58.2085 9.23169C63.2848 6.64515 69.1893 5.3268 77.2983 4.66426C85.419 4.00078 95.6622 4 109.4 4V3ZM31 81.4H32C32 67.6622 32.0008 57.419 32.6643 49.2983C33.3268 41.1893 34.6451 35.2848 37.2317 30.2085L36.3407 29.7545L35.4497 29.3005C32.6955 34.7058 31.3435 40.9028 30.6709 49.1355C29.9992 57.3565 30 67.6952 30 81.4H31ZM57.7545 8.34068L57.3005 7.44967C47.8924 12.2433 40.2433 19.8924 35.4497 29.3005L36.3407 29.7545L37.2317 30.2085C41.8336 21.1767 49.1767 13.8336 58.2085 9.23169L57.7545 8.34068Z"/>
    </clipPath>
    <filter color-interpolation-filters="sRGB" filterUnits="userSpaceOnUse" height="187.404" id="filter1_d_0_4871" width="187.404" x="293.298" y="242.467">
<feFlood flood-opacity="0" result="BackgroundImageFix"/>
<feColorMatrix in="SourceAlpha" result="hardAlpha" type="matrix" values="0 0 0 0 0 0 0 0 0 0 0 0 0 0 0 0 0 0 127 0"/>
<feOffset dy="12.1691"/>
<feGaussianBlur stdDeviation="30.4228"/>
<feComposite in2="hardAlpha" operator="out"/>
<feColorMatrix type="matrix" values="0 0 0 0 0.107338 0 0 0 0 0.0977778 0 0 0 0 0.266667 0 0 0 0.3 0"/>
<feBlend in2="BackgroundImageFix" mode="normal" result="effect1_dropShadow_0_4871"/>
<feBlend in="SourceGraphic" in2="effect1_dropShadow_0_4871" mode="normal" result="shape"/>
</filter>
<clipPath id="bgblur_1_0_4871_clip_path" transform="translate(-293.298 -242.467)">
      <rect height="65.7132" rx="22.7157" width="65.7132" x="354.143" y="291.143"/>
</clipPath>
  </defs>
</svg>