<?xml version="1.0" encoding="utf-8"?>
<svg xmlns="http://www.w3.org/2000/svg" fill="none" height="100%" overflow="visible" preserveAspectRatio="none" style="display: block;" viewBox="0 0 26 26" width="100%">
<g id="ix:certificate-success-filled">
<path clip-rule="evenodd" d="M14.4084 2.68724L15.9976 4.03873C16.3439 4.3332 16.7741 4.51138 17.2272 4.54807L19.3065 4.71611C20.3658 4.80172 21.2068 5.64266 21.2924 6.70196L21.4605 8.7813C21.4971 9.2344 21.6753 9.66453 21.9697 10.0109L23.3212 11.6C24.0097 12.4096 24.0097 13.5989 23.3212 14.4084L21.9697 15.9976C21.6753 16.3439 21.4971 16.7741 21.4604 17.2272L21.2923 19.3065C21.2068 20.3658 20.3658 21.2068 19.3065 21.2924L17.2272 21.4605C16.7741 21.4971 16.344 21.6753 15.9976 21.9697L14.4084 23.3212C13.5989 24.0097 12.4096 24.0097 11.6 23.3212L10.0109 21.9697C9.66453 21.6753 9.23441 21.4971 8.7813 21.4604L6.70196 21.2923C5.64266 21.2068 4.80172 20.3658 4.71611 19.3065L4.54802 17.2272C4.51133 16.7741 4.33315 16.3439 4.03868 15.9976L2.68724 14.4084C1.9988 13.5989 1.9988 12.4096 2.68724 11.6L4.03873 10.0109C4.3332 9.66453 4.51138 9.23441 4.54807 8.7813L4.71611 6.70196C4.80172 5.64266 5.64266 4.80172 6.70196 4.71611L8.7813 4.54802C9.23441 4.51133 9.66453 4.33315 10.0109 4.03868L11.6 2.68724C12.4096 1.9988 13.5989 1.9988 14.4084 2.68724ZM17.0795 9.1295L11.9167 14.3204L9.43267 11.8364L7.90075 13.3683L11.9167 17.3843L18.6115 10.6614L17.0795 9.1295Z" fill="var(--fill-0, #FF7032)" fill-rule="evenodd" id="Vector"/>
</g>
</svg>