<?xml version="1.0" encoding="utf-8"?>
<svg xmlns="http://www.w3.org/2000/svg" fill="none" height="100%" overflow="visible" preserveAspectRatio="none" style="display: block;" viewBox="0 0 355.286 355.286" width="100%">
<g filter="url(#filter0_d_0_17547)" id="Container">
<path d="M98.6904 138.166C98.6904 116.364 116.364 98.6904 138.166 98.6904H217.119C238.921 98.6904 256.595 116.364 256.595 138.166V217.119C256.595 238.921 238.921 256.595 217.119 256.595H138.166C116.364 256.595 98.6904 238.921 98.6904 217.119V138.166Z" fill="url(#paint0_linear_0_17547)" shape-rendering="crispEdges"/>
<g id="eos-icons:ai">
<path d="M205.118 174.59V168.485H199.012V162.379C199.007 160.761 198.362 159.211 197.218 158.067C196.075 156.923 194.524 156.278 192.907 156.274H186.801V150.168H180.696V156.274H174.59V150.168H168.485V156.274H162.379C160.761 156.278 159.211 156.923 158.067 158.067C156.923 159.211 156.278 160.761 156.274 162.379V168.485H150.168V174.59H156.274V180.696H150.168V186.801H156.274V192.907C156.278 194.524 156.923 196.075 158.067 197.218C159.211 198.362 160.761 199.007 162.379 199.012H168.485V205.118H174.59V199.012H180.696V205.118H186.801V199.012H192.907C194.524 199.007 196.075 198.362 197.218 197.218C198.362 196.075 199.007 194.524 199.012 192.907V186.801H205.118V180.696H199.012V174.59H205.118ZM192.907 192.907H162.379V162.379H192.907V192.907Z" fill="var(--fill-0, white)" id="Vector"/>
<path d="M175.691 165.432H171.585L165.449 189.854H168.585L170.001 184.13H177.071L178.451 189.854H181.693L175.691 165.432ZM170.413 181.685L173.521 168.332H173.661L176.662 181.685H170.413ZM184.492 165.432H187.545V189.854H184.492V165.432Z" fill="var(--fill-0, white)" id="Vector_2"/>
</g>
</g>
<defs>
<filter color-interpolation-filters="sRGB" filterUnits="userSpaceOnUse" height="355.286" id="filter0_d_0_17547" width="355.286" x="0" y="0">
<feFlood flood-opacity="0" result="BackgroundImageFix"/>
<feColorMatrix in="SourceAlpha" result="hardAlpha" type="matrix" values="0 0 0 0 0 0 0 0 0 0 0 0 0 0 0 0 0 0 127 0"/>
<feOffset/>
<feGaussianBlur stdDeviation="49.3452"/>
<feComposite in2="hardAlpha" operator="out"/>
<feColorMatrix type="matrix" values="0 0 0 0 0.956863 0 0 0 0 0.317647 0 0 0 0 0.117647 0 0 0 0.5 0"/>
<feBlend in2="BackgroundImageFix" mode="normal" result="effect1_dropShadow_0_17547"/>
<feBlend in="SourceGraphic" in2="effect1_dropShadow_0_17547" mode="normal" result="shape"/>
</filter>
<linearGradient gradientUnits="userSpaceOnUse" id="paint0_linear_0_17547" x1="98.6904" x2="256.595" y1="98.6904" y2="256.595">
<stop stop-color="#FF853C"/>
<stop offset="1" stop-color="#FF4D00"/>
</linearGradient>
</defs>
</svg>