<?xml version="1.0" encoding="utf-8"?>
<svg xmlns="http://www.w3.org/2000/svg" fill="none" height="100%" overflow="visible" preserveAspectRatio="none" style="display: block;" viewBox="0 0 24 24" width="100%">
<g id="majesticons:clock">
<path clip-rule="evenodd" d="M2 12C2 6.477 6.477 2 12 2C17.523 2 22 6.477 22 12C22 17.523 17.523 22 12 22C6.477 22 2 17.523 2 12ZM13 7C13 6.73478 12.8946 6.48043 12.7071 6.29289C12.5196 6.10536 12.2652 6 12 6C11.7348 6 11.4804 6.10536 11.2929 6.29289C11.1054 6.48043 11 6.73478 11 7V10.764C11 11.3211 11.1551 11.8671 11.448 12.341C11.7408 12.8148 12.1598 13.1978 12.658 13.447L15.553 14.894C15.6709 14.9576 15.8003 14.9968 15.9337 15.0094C16.067 15.022 16.2015 15.0077 16.3292 14.9673C16.4569 14.9269 16.5751 14.8613 16.677 14.7743C16.7788 14.6874 16.8622 14.5808 16.9221 14.461C16.982 14.3412 17.0172 14.2107 17.0256 14.077C17.0341 13.9433 17.0156 13.8094 16.9713 13.683C16.927 13.5566 16.8578 13.4404 16.7677 13.3413C16.6776 13.2422 16.5686 13.1622 16.447 13.106L13.553 11.658C13.3869 11.575 13.2472 11.4474 13.1496 11.2895C13.0519 11.1316 13.0001 10.9497 13 10.764V7Z" fill="var(--fill-0, white)" fill-rule="evenodd" id="Vector"/>
</g>
</svg>