<?xml version="1.0" encoding="utf-8"?>
<svg xmlns="http://www.w3.org/2000/svg" fill="none" height="100%" overflow="visible" preserveAspectRatio="none" style="display: block;" viewBox="0 0 63 63" width="100%">
<g id="Frame 35985">
<circle cx="31.5" cy="31.5" fill="var(--fill-0, #F2F2F2)" id="Ellipse 787" r="31.5"/>
<g id="hugeicons:school-report-card">
<g id="Group">
<path d="M22.25 30.9167C22.25 26.8542 22.25 24.8229 23.2846 23.3994C23.6183 22.9397 24.0223 22.5354 24.4817 22.2012C25.9063 21.1667 27.9386 21.1667 32 21.1667C36.0614 21.1667 38.0937 21.1667 39.5172 22.2012C39.977 22.5353 40.3814 22.9396 40.7154 23.3994C41.75 24.8229 41.75 26.8552 41.75 30.9167V33.0833C41.75 37.1458 41.75 39.1771 40.7154 40.6006C40.3814 41.0604 39.977 41.4647 39.5172 41.7988C38.0937 42.8333 36.0614 42.8333 32 42.8333C27.9386 42.8333 25.9063 42.8333 24.4827 41.7988C24.023 41.4647 23.6186 41.0604 23.2846 40.6006C22.25 39.1771 22.25 37.1448 22.25 33.0833V30.9167Z" id="Vector" stroke="var(--stroke-0, #656565)" stroke-width="1.625"/>
<path d="M29.6784 30.9167L31.3576 26.9972C31.4123 26.8728 31.5024 26.7673 31.6166 26.6938C31.7308 26.6202 31.8642 26.5818 32 26.5833C32.2817 26.5833 32.5341 26.7458 32.6413 26.9972L34.3216 30.9167L35.25 33.0833M34.3216 30.9167H29.6784M28.75 33.0833L29.6784 30.9167M27.6667 37.4167H36.3333" id="Vector_2" stroke="var(--stroke-0, #656565)" stroke-linecap="round" stroke-linejoin="round" stroke-width="1.625"/>
</g>
</g>
</g>
</svg>