<?xml version="1.0" encoding="utf-8"?>
<svg xmlns="http://www.w3.org/2000/svg" fill="none" height="100%" overflow="visible" preserveAspectRatio="none" style="display: block;" viewBox="0 0 63 63" width="100%">
<g id="Frame 35985">
<circle cx="31.5" cy="31.5" fill="var(--fill-0, white)" id="Ellipse 787" r="31.5"/>
<g clip-path="url(#clip0_0_7150)" id="fluent-mdl2:health-solid">
<path d="M38.0928 20.6244C39.0492 20.6244 39.9464 20.8021 40.7842 21.1576C41.6221 21.5131 42.35 22.004 42.9678 22.6303C43.5857 23.2566 44.0766 23.9887 44.4405 24.8265C44.8044 25.6644 44.9864 26.5616 44.9864 27.5179C44.9864 28.0088 44.9356 28.4955 44.8341 28.9779C44.7325 29.4603 44.5801 29.9258 44.377 30.3744H38.4991L36.0616 27.8353L31.9991 31.8978L26.3116 26.2103L22.2491 30.3744H19.6212C19.418 29.9258 19.2657 29.4603 19.1641 28.9779C19.0626 28.4955 19.0118 28.0088 19.0118 27.5179C19.0118 26.5616 19.1895 25.6644 19.545 24.8265C19.9005 23.9887 20.3913 23.2608 21.0176 22.6429C21.6439 22.0251 22.376 21.5342 23.2139 21.1703C24.0518 20.8064 24.949 20.6244 25.9053 20.6244C26.8279 20.6244 27.7081 20.7979 28.546 21.1449C29.3839 21.4919 30.1329 21.9913 30.793 22.6429L31.9991 23.8617L33.2051 22.6429C33.8568 21.9913 34.6016 21.4919 35.4395 21.1449C36.2774 20.7979 37.1619 20.6244 38.0928 20.6244ZM36.8741 31.9994H43.3487L43.171 32.2025C43.1117 32.2702 43.0482 32.3422 42.9805 32.4183L31.9991 43.3871L21.0176 32.4183C20.9499 32.3506 20.8865 32.2829 20.8272 32.2152C20.768 32.1475 20.7087 32.0756 20.6495 31.9994H23.8741L26.3116 29.6635L31.9991 35.351L36.0616 31.2885L36.8741 31.9994Z" fill="var(--fill-0, #FF853C)" id="Vector"/>
</g>
</g>
<defs>
<clipPath id="clip0_0_7150">
<rect fill="white" height="26" transform="translate(18.9998 18.9997)" width="26"/>
</clipPath>
</defs>
</svg>