<?xml version="1.0" encoding="utf-8"?>
<svg xmlns="http://www.w3.org/2000/svg" fill="none" height="100%" overflow="visible" preserveAspectRatio="none" style="display: block;" viewBox="0 0 63 63" width="100%">
<g id="Frame 35985">
<circle cx="31.5" cy="31.5" fill="var(--fill-0, #FF4F03)" id="Ellipse 787" r="31.5"/>
<g clip-path="url(#clip0_0_7543)" id="fluent-mdl2:health-solid">
<path d="M38.0935 20.6248C39.0499 20.6248 39.947 20.8026 40.7849 21.158C41.6228 21.5135 42.3507 22.0044 42.9685 22.6307C43.5863 23.257 44.0772 23.9891 44.4412 24.827C44.8051 25.6649 44.9871 26.562 44.9871 27.5184C44.9871 28.0093 44.9363 28.4959 44.8347 28.9783C44.7332 29.4608 44.5808 29.9263 44.3777 30.3748H38.4998L36.0623 27.8358L31.9998 31.8983L26.3123 26.2108L22.2498 30.3748H19.6218C19.4187 29.9263 19.2664 29.4608 19.1648 28.9783C19.0632 28.4959 19.0124 28.0093 19.0124 27.5184C19.0124 26.562 19.1902 25.6649 19.5457 24.827C19.9011 23.9891 20.392 23.2612 21.0183 22.6434C21.6446 22.0255 22.3767 21.5347 23.2146 21.1707C24.0525 20.8068 24.9496 20.6248 25.906 20.6248C26.8285 20.6248 27.7087 20.7983 28.5466 21.1453C29.3845 21.4923 30.1335 21.9917 30.7937 22.6434L31.9998 23.8621L33.2058 22.6434C33.8575 21.9917 34.6023 21.4923 35.4402 21.1453C36.2781 20.7983 37.1625 20.6248 38.0935 20.6248ZM36.8748 31.9998H43.3494L43.1716 32.203C43.1124 32.2707 43.0489 32.3426 42.9812 32.4188L31.9998 43.3875L21.0183 32.4188C20.9506 32.3511 20.8871 32.2834 20.8279 32.2156C20.7686 32.1479 20.7094 32.076 20.6501 31.9998H23.8748L26.3123 29.6639L31.9998 35.3514L36.0623 31.2889L36.8748 31.9998Z" fill="var(--fill-0, white)" id="Vector"/>
</g>
</g>
<defs>
<clipPath id="clip0_0_7543">
<rect fill="white" height="26" transform="translate(18.9998 18.9998)" width="26"/>
</clipPath>
</defs>
</svg>