<?xml version="1.0" encoding="utf-8"?>
<svg xmlns="http://www.w3.org/2000/svg" fill="none" height="100%" overflow="visible" preserveAspectRatio="none" style="display: block;" viewBox="0 0 24 24" width="100%">
<g id="mingcute:fire-fill">
<g id="Group">
<g id="Vector">
</g>
<path d="M11.5136 2.14172L10.2536 1.38672L10.0136 2.83572C9.6316 5.12372 8.0686 7.24972 6.3446 8.74372C2.9696 11.6697 2.2306 14.8497 3.2756 17.4747C4.2756 19.9867 6.8136 21.7067 9.3896 21.9937L9.9856 22.0597C8.5116 21.1587 7.5656 19.0537 7.8956 17.4807C8.2216 15.9347 9.3336 14.4867 11.4696 13.1507L12.5466 12.4787L12.9486 13.6837C13.1856 14.3957 13.5956 14.9677 14.0126 15.5487C14.2126 15.8287 14.4156 16.1117 14.6016 16.4127C15.2446 17.4577 15.4146 18.6197 14.9996 19.7727C14.6216 20.8207 13.9986 21.6447 13.1396 22.1017L14.1096 21.9937C16.5276 21.7247 18.3026 20.8977 19.4556 19.5147C20.5986 18.1437 20.9996 16.3787 20.9996 14.4997C20.9996 12.7497 20.2806 10.9457 19.4326 9.44472C18.4386 7.68672 17.1416 6.22672 15.7256 4.81172C15.4806 5.30172 15.4996 5.49972 14.9956 6.28672C14.3411 4.54868 13.1126 3.0863 11.5136 2.14172Z" fill="var(--fill-0, #E76F00)" id="Vector_2"/>
</g>
</g>
</svg>