<?xml version="1.0" encoding="utf-8"?>
<svg xmlns="http://www.w3.org/2000/svg" fill="none" height="100%" overflow="visible" preserveAspectRatio="none" style="display: block;" viewBox="0 0 67 67" width="100%">
<g id="Frame 35985">
<circle cx="33.5" cy="33.5" fill="var(--fill-0, white)" id="Ellipse 787" r="31.5" stroke="var(--stroke-0, #FF7032)" stroke-width="4"/>
<g id="fluent-mdl2:health-solid">
<path d="M40.0938 22.625C41.0501 22.625 41.9473 22.8027 42.7852 23.1582C43.623 23.5137 44.3509 24.0046 44.9688 24.6309C45.5866 25.2572 46.0775 25.9893 46.4414 26.8271C46.8053 27.665 46.9873 28.5622 46.9873 29.5186C46.9873 30.0094 46.9365 30.4961 46.835 30.9785C46.7334 31.4609 46.5811 31.9264 46.3779 32.375H40.5L38.0625 29.8359L34 33.8984L28.3125 28.2109L24.25 32.375H21.6221C21.4189 31.9264 21.2666 31.4609 21.165 30.9785C21.0635 30.4961 21.0127 30.0094 21.0127 29.5186C21.0127 28.5622 21.1904 27.665 21.5459 26.8271C21.9014 25.9893 22.3923 25.2614 23.0186 24.6436C23.6449 24.0257 24.377 23.5348 25.2148 23.1709C26.0527 22.807 26.9499 22.625 27.9062 22.625C28.8288 22.625 29.709 22.7985 30.5469 23.1455C31.3848 23.4925 32.1338 23.9919 32.7939 24.6436L34 25.8623L35.2061 24.6436C35.8577 23.9919 36.6025 23.4925 37.4404 23.1455C38.2783 22.7985 39.1628 22.625 40.0938 22.625ZM38.875 34H45.3496L45.1719 34.2031C45.1126 34.2708 45.0492 34.3428 44.9814 34.4189L34 45.3877L23.0186 34.4189C22.9508 34.3512 22.8874 34.2835 22.8281 34.2158C22.7689 34.1481 22.7096 34.0762 22.6504 34H25.875L28.3125 31.6641L34 37.3516L38.0625 33.2891L38.875 34Z" fill="var(--fill-0, #FF7032)" id="Vector"/>
</g>
</g>
</svg>