<?xml version="1.0" encoding="utf-8"?>
<svg xmlns="http://www.w3.org/2000/svg" fill="none" height="100%" overflow="visible" preserveAspectRatio="none" style="display: block;" viewBox="0 0 81.8001 81.8001" width="100%">
<g id="Frame 302" opacity="0.7">
<rect fill="var(--fill-0, white)" height="81.8001" rx="40.9001" width="81.8001"/>
<g clip-path="url(#clip0_0_7712)" id="AWS 1">
<path d="M29.4011 38.9156C29.4011 39.5859 29.4733 40.1295 29.6009 40.527C29.7453 40.9248 29.9266 41.3597 30.1797 41.8298C30.2687 41.9741 30.3056 42.1185 30.3056 42.2461C30.3056 42.4257 30.1965 42.6071 29.9619 42.788L28.8219 43.5485C28.6591 43.6559 28.4962 43.7114 28.3523 43.7114C28.1709 43.7114 27.9896 43.6207 27.8083 43.4579C27.5649 43.1953 27.3468 42.9105 27.1569 42.6071C26.9556 42.259 26.7686 41.9027 26.5966 41.5393C25.1863 43.2043 23.4126 44.0371 21.277 44.0371C19.7581 44.0371 18.5464 43.6022 17.6586 42.7343C16.7722 41.865 16.3206 40.707 16.3206 39.2598C16.3206 37.7224 16.8629 36.4737 17.9676 35.534C19.0702 34.5921 20.5354 34.122 22.4002 34.122C23.0147 34.122 23.6472 34.1757 24.3166 34.2664C24.987 34.3571 25.6749 34.5014 26.3985 34.6643V33.3434C26.3985 31.9684 26.108 31.0102 25.5477 30.4499C24.9676 29.8892 23.9909 29.6172 22.5979 29.6172C21.965 29.6172 21.314 29.6894 20.6441 29.8522C19.979 30.0107 19.3261 30.2165 18.6903 30.468C18.3998 30.5939 18.1833 30.6661 18.0574 30.703C17.9302 30.7382 17.8395 30.7567 17.7673 30.7567C17.5138 30.7567 17.3879 30.5754 17.3879 30.1964V29.31C17.3879 29.0195 17.4232 28.8029 17.5138 28.6757C17.6041 28.5498 17.7673 28.4239 18.0209 28.2963C18.6534 27.9706 19.4139 27.6991 20.2999 27.4821C21.1864 27.247 22.1278 27.1383 23.123 27.1383C25.2748 27.1383 26.8492 27.6264 27.8633 28.6036C28.8584 29.5802 29.3637 31.0639 29.3637 33.0547V38.9156H29.4011ZM22.0561 41.6669C22.652 41.6669 23.2678 41.5578 23.9192 41.3412C24.5706 41.1229 25.1494 40.7255 25.6379 40.1832C25.9267 39.8395 26.145 39.4596 26.2524 39.0252C26.3615 38.5904 26.4337 38.067 26.4337 37.4504V36.692C25.8856 36.5573 25.3303 36.4542 24.7704 36.383C24.2058 36.3119 23.6374 36.276 23.0684 36.2756C21.8567 36.2756 20.9702 36.5107 20.3725 36.9992C19.7766 37.4873 19.4865 38.174 19.4865 39.0789C19.4865 39.9297 19.7031 40.5626 20.156 40.997C20.5908 41.4486 21.2237 41.6669 22.0561 41.6669ZM36.5834 43.6207C36.2577 43.6207 36.0411 43.567 35.8967 43.4394C35.7506 43.3302 35.6247 43.0784 35.5156 42.7347L31.2643 28.7492C31.1568 28.387 31.101 28.152 31.101 28.0243C31.101 27.7356 31.2458 27.5732 31.5362 27.5732H33.3087C33.6525 27.5732 33.8875 27.6264 34.0151 27.7541C34.1595 27.8615 34.2686 28.115 34.3761 28.4588L37.4157 40.4367L40.2387 28.4592C40.3281 28.0982 40.4372 27.8619 40.5812 27.7545C40.7273 27.6449 40.9808 27.5727 41.3065 27.5727H42.7532C43.097 27.5727 43.3325 27.6264 43.4768 27.7541C43.6212 27.8615 43.7488 28.115 43.8206 28.4588L46.6793 40.5811L49.8096 28.4592C49.917 28.0982 50.0446 27.8619 50.1705 27.7545C50.3149 27.6449 50.5516 27.5727 50.8769 27.5727H52.5587C52.8492 27.5727 53.012 27.7171 53.012 28.0243C53.012 28.1146 52.9936 28.2057 52.9751 28.3148C52.9566 28.4239 52.9214 28.5683 52.8492 28.766L48.4887 42.7527C48.3796 43.1137 48.2537 43.3487 48.1076 43.4574C47.9632 43.567 47.7282 43.6392 47.4209 43.6392H45.8655C45.5213 43.6392 45.2863 43.5833 45.1419 43.4579C44.9958 43.3302 44.8699 43.0952 44.7977 42.7343L41.9931 31.0639L39.2066 42.7158C39.1164 43.0784 39.0089 43.3135 38.8629 43.4394C38.718 43.567 38.465 43.6207 38.1393 43.6207H36.5834ZM59.8316 44.1093C58.8919 44.1093 57.95 44.0001 57.0455 43.7836C56.1406 43.567 55.4359 43.3302 54.9658 43.06C54.6754 42.8971 54.4773 42.7162 54.4051 42.5529C54.3338 42.3934 54.2966 42.2207 54.2959 42.0459V41.1229C54.2959 40.7439 54.4403 40.5626 54.7127 40.5626C54.8202 40.5626 54.9289 40.5811 55.038 40.618C55.1454 40.6533 55.3083 40.7255 55.4892 40.7977C56.1287 41.0785 56.7962 41.2911 57.4804 41.4319C58.2035 41.5763 58.9086 41.6484 59.6335 41.6484C60.7735 41.6484 61.6595 41.4486 62.2739 41.0512C62.8897 40.6533 63.2154 40.0741 63.2154 39.3324C63.2154 38.8254 63.0525 38.4107 62.7273 38.0666C62.4016 37.7228 61.7854 37.4152 60.8994 37.1251L58.2757 36.3109C56.9548 35.8945 55.9777 35.2805 55.3822 34.4662C54.7849 33.6691 54.4773 32.7827 54.4773 31.843C54.4773 31.0824 54.6405 30.413 54.9658 29.8338C55.2888 29.2517 55.7329 28.7458 56.2682 28.35C56.8105 27.9354 57.4266 27.6264 58.1502 27.4099C58.8734 27.1933 59.6335 27.1027 60.4293 27.1027C60.8272 27.1027 61.2431 27.1211 61.641 27.1748C62.0574 27.2286 62.4368 27.3007 62.8175 27.3729C63.1784 27.4636 63.5226 27.5543 63.8483 27.6634C64.174 27.7725 64.4275 27.88 64.6089 27.9891C64.8624 28.1335 65.0433 28.2779 65.1507 28.4403C65.2598 28.5864 65.3136 28.7849 65.3136 29.038V29.8888C65.3136 30.2686 65.1692 30.468 64.8972 30.468C64.7528 30.468 64.5178 30.3945 64.211 30.2501C63.1784 29.78 62.0204 29.545 60.7365 29.545C59.7057 29.545 58.8919 29.7079 58.3311 30.052C57.7687 30.3945 57.4804 30.92 57.4804 31.6616C57.4804 32.1687 57.6613 32.6031 58.0222 32.9455C58.3848 33.2893 59.0547 33.6339 60.0129 33.9407L62.5825 34.755C63.8853 35.1713 64.8254 35.7501 65.3857 36.4922C65.9465 37.2343 66.2185 38.085 66.2185 39.0252C66.2185 39.8038 66.0552 40.5089 65.7484 41.1229C65.4227 41.7391 64.9879 42.2814 64.4275 42.7158C63.8668 43.1674 63.1969 43.4931 62.42 43.7298C61.6058 43.9816 60.755 44.1093 59.8316 44.1093Z" fill="var(--fill-0, #252F3E)" id="Vector"/>
<path d="M64.4727 47.3839C62.5683 47.411 60.3202 47.8359 58.6199 49.0305C58.0944 49.4099 58.185 49.9165 58.7643 49.8443C60.7013 49.6093 64.9689 49.1027 65.7295 50.0793C66.49 51.0375 64.8804 55.0723 64.1555 56.8641C63.939 57.4055 64.4091 57.6242 64.8972 57.2079C68.0812 54.5305 68.9139 48.9398 68.2625 48.1255C67.9372 47.7281 66.377 47.3564 64.4727 47.3839ZM14.4699 48.4629C14.0716 48.5127 13.8911 48.9939 14.3118 49.3742C21.4051 55.7774 30.7942 59.6317 41.2158 59.6317C48.6516 59.6317 57.299 57.2985 63.2506 52.9028C64.2273 52.1775 63.3782 51.0749 62.3827 51.5261C55.7079 54.3491 48.4518 55.7241 41.8487 55.7241C32.0613 55.7241 22.5988 53.0287 14.9275 48.5771C14.76 48.4779 14.6031 48.4465 14.4704 48.4629H14.4699Z" fill="var(--fill-0, #FF9900)" id="Vector_2"/>
</g>
</g>
<defs>
<clipPath id="clip0_0_7712">
<rect fill="white" height="55" transform="translate(13.7695 15.8672)" width="55"/>
</clipPath>
</defs>
</svg>