<?xml version="1.0" encoding="utf-8"?>
<svg xmlns="http://www.w3.org/2000/svg" fill="none" height="100%" overflow="visible" preserveAspectRatio="none" style="display: block;" viewBox="0 0 240.796 308.668" width="100%">
<g id="Computer">
<path d="M102.042 213.266L118.763 203.591C120.206 202.659 121.351 201.333 122.062 199.769C122.774 198.206 123.022 196.472 122.778 194.771L116.619 162.749L123.907 158.54L160.315 187.999C160.799 190.563 172.231 212.879 168.732 225.246C165.636 236.146 147.771 237.323 145.739 238.468L102.042 221.65V213.266Z" fill="var(--fill-0, #FF7032)" id="Vector"/>
<path d="M145.739 238.5L162.444 228.826C163.89 227.897 165.04 226.572 165.755 225.008C166.469 223.444 166.719 221.708 166.475 220.006L160.315 187.999L167.587 183.791L174.633 220.409C175.002 222.976 174.624 225.594 173.547 227.952C172.469 230.311 170.736 232.31 168.555 233.711L145.739 246.885V238.5Z" fill="var(--fill-0, #FF7032)" id="Vector_2"/>
<path d="M145.739 238.5L162.444 228.826C163.89 227.897 165.04 226.572 165.755 225.008C166.469 223.444 166.719 221.708 166.475 220.006L160.315 187.999L167.587 183.791L174.633 220.409C175.002 222.976 174.624 225.594 173.547 227.952C172.469 230.311 170.736 232.31 168.555 233.711L145.739 246.885V238.5Z" fill="var(--fill-0, black)" id="Vector_3" opacity="0.3"/>
<path d="M102.042 213.266L145.739 238.5V246.917L102.042 221.683V213.266Z" fill="var(--fill-0, #FF7032)" id="Vector_4"/>
<path d="M102.042 213.266L145.739 238.5V246.917L102.042 221.683V213.266Z" fill="var(--fill-0, white)" id="Vector_5" opacity="0.4"/>
<path d="M61.9409 0.829786C60.8575 1.5648 59.9628 2.54512 59.3296 3.69104C58.6964 4.83697 58.3425 6.11615 58.2968 7.42458V141.481C58.3726 142.828 58.7637 144.138 59.4387 145.306C60.1137 146.474 61.0536 147.467 62.1828 148.205L229.278 244.676C230.401 245.385 231.696 245.774 233.024 245.8C234.352 245.827 235.662 245.49 236.813 244.826C237.963 244.162 238.91 243.196 239.551 242.033C240.193 240.87 240.504 239.553 240.452 238.226V104.17C240.378 102.822 239.988 101.511 239.313 100.343C238.638 99.1745 237.697 98.182 236.566 97.4459L69.4709 0.97491C68.3156 0.360251 67.0316 0.0267598 65.7233 0.00154486C64.4149 -0.0236701 63.119 0.260096 61.9409 0.829786Z" fill="var(--fill-0, #FF7032)" id="Vector_6"/>
<path d="M229.278 244.676C230.401 245.385 231.697 245.774 233.025 245.8C234.353 245.827 235.663 245.49 236.813 244.826C237.964 244.162 238.911 243.196 239.552 242.033C240.193 240.869 240.505 239.553 240.452 238.226V104.17C240.406 102.821 240.018 101.506 239.324 100.348L109.298 175.406L229.278 244.676Z" fill="var(--fill-0, #FF7032)" id="Vector_7"/>
<path d="M229.666 244.385C230.788 245.082 232.078 245.46 233.399 245.48C234.719 245.499 236.02 245.16 237.163 244.498C238.306 243.835 239.247 242.875 239.886 241.719C240.525 240.563 240.838 239.256 240.791 237.936L240.066 103.863C240.005 102.512 239.606 101.198 238.905 100.042L109.283 175.825L229.666 244.385Z" fill="var(--fill-0, black)" id="Vector_8" opacity="0.2"/>
<path d="M58.2968 141.481V7.42469C58.2968 4.94156 60.0382 3.94186 62.1828 5.1673L229.278 101.654C230.409 102.391 231.35 103.383 232.025 104.551C232.7 105.72 233.09 107.031 233.164 108.378V242.435C233.164 244.918 231.422 245.917 229.278 244.676L62.1828 148.205C61.0536 147.467 60.1137 146.474 59.4387 145.306C58.7637 144.138 58.3726 142.828 58.2968 141.481Z" fill="var(--fill-0, #FF7032)" id="Vector_9"/>
<path d="M58.2968 141.481V7.42469C58.2968 4.94156 60.0382 3.94186 62.1828 5.1673L229.278 101.654C230.409 102.391 231.35 103.383 232.025 104.551C232.7 105.72 233.09 107.031 233.164 108.378V242.435C233.164 244.918 231.422 245.917 229.278 244.676L62.1828 148.205C61.0536 147.467 60.1137 146.474 59.4387 145.306C58.7637 144.138 58.3726 142.828 58.2968 141.481Z" fill="var(--fill-0, white)" id="Vector_10" opacity="0.4"/>
<path d="M65.0529 11.0365L226.424 104.202C227.327 104.793 228.077 105.589 228.615 106.525C229.153 107.46 229.463 108.51 229.519 109.587V228.6C229.519 230.583 228.133 231.39 226.424 230.406L65.0529 137.24C64.147 136.651 63.3931 135.856 62.8524 134.92C62.3116 133.984 61.9993 132.934 61.9409 131.855V12.8263C61.9409 10.843 63.3276 10.0368 65.0529 11.0365Z" fill="var(--fill-0, white)" id="Vector_11"/>
<path d="M39.8513 207.058L3.89434 227.81C2.71928 228.428 1.73547 229.356 1.04916 230.492C0.362843 231.629 0.000111528 232.932 0.000111528 234.259C0.000111528 235.587 0.362843 236.89 1.04916 238.027C1.73547 239.163 2.71928 240.091 3.89434 240.709L119.988 307.737C121.192 308.349 122.524 308.668 123.874 308.668C125.225 308.668 126.556 308.349 127.76 307.737L163.717 286.986C164.888 286.363 165.867 285.434 166.55 284.298C167.232 283.162 167.593 281.861 167.593 280.536C167.593 279.21 167.232 277.91 166.55 276.774C165.867 275.637 164.888 274.708 163.717 274.086L47.6231 207.058C46.4199 206.444 45.0882 206.123 43.7372 206.123C42.3862 206.123 41.0545 206.444 39.8513 207.058Z" fill="var(--fill-0, #37474F)" id="Vector_12"/>
<path d="M123.874 308.641C125.229 308.67 126.568 308.348 127.76 307.705L163.717 286.954C164.888 286.331 165.867 285.402 166.55 284.266C167.232 283.13 167.593 281.829 167.593 280.504C167.593 279.178 167.232 277.878 166.55 276.742C165.867 275.605 164.888 274.676 163.717 274.054L159.976 271.894H123.874V308.641Z" fill="var(--fill-0, #263238)" id="Vector_13"/>
<path d="M163.733 274.118L47.6387 207.09C46.4347 206.478 45.1033 206.16 43.7528 206.16C42.4022 206.16 41.0708 206.478 39.8668 207.09L3.90989 227.858C1.76537 229.084 1.76537 231.083 3.90989 232.341L120.004 299.369C121.207 299.973 122.535 300.288 123.882 300.288C125.228 300.288 126.556 299.973 127.76 299.369L163.717 278.601C165.893 277.376 165.893 275.36 163.733 274.118Z" fill="var(--fill-0, #455A64)" id="Vector_14"/>
<path d="M147.174 270.797C147.08 270.84 146.978 270.863 146.875 270.863C146.772 270.863 146.671 270.84 146.577 270.797L143.014 268.733C142.869 268.733 142.885 268.491 143.014 268.395L144.191 267.717C144.283 267.671 144.385 267.646 144.489 267.646C144.593 267.646 144.695 267.671 144.787 267.717L148.351 269.781C148.496 269.862 148.48 270.023 148.351 270.12L147.174 270.797Z" fill="var(--fill-0, #37474F)" id="Vector_15"/>
<path d="M141.966 267.798C141.873 267.841 141.771 267.864 141.668 267.864C141.565 267.864 141.463 267.841 141.37 267.798L137.806 265.734C137.661 265.734 137.677 265.492 137.806 265.395L138.983 264.718C139.074 264.675 139.173 264.653 139.273 264.653C139.374 264.653 139.473 264.675 139.564 264.718L143.143 266.782C143.288 266.863 143.272 267.024 143.143 267.121L141.966 267.798Z" fill="var(--fill-0, #37474F)" id="Vector_16"/>
<path d="M152.382 273.812C152.293 273.86 152.193 273.885 152.092 273.885C151.99 273.885 151.891 273.86 151.802 273.812L148.238 271.765C148.077 271.668 148.093 271.523 148.238 271.41L149.415 270.733C149.507 270.685 149.61 270.659 149.713 270.659C149.817 270.659 149.92 270.685 150.012 270.733L153.575 272.78C153.736 272.877 153.72 273.022 153.575 273.135L152.382 273.812Z" fill="var(--fill-0, #37474F)" id="Vector_17"/>
<path d="M157.606 276.827C157.512 276.871 157.411 276.893 157.308 276.893C157.204 276.893 157.103 276.871 157.009 276.827L153.446 274.78C153.285 274.699 153.317 274.538 153.446 274.441L154.623 273.764C154.714 273.721 154.813 273.698 154.913 273.698C155.013 273.698 155.113 273.721 155.203 273.764L158.783 275.828C158.928 275.924 158.912 276.07 158.783 276.166L157.606 276.827Z" fill="var(--fill-0, #37474F)" id="Vector_18"/>
<path d="M106.428 253.077L101.978 255.624C101.817 255.737 101.784 255.882 101.978 255.979L108.008 259.462C108.102 259.505 108.204 259.527 108.307 259.527C108.41 259.527 108.511 259.505 108.605 259.462L113.039 256.898C113.216 256.801 113.232 256.656 113.039 256.559L106.992 253.077C106.905 253.033 106.808 253.01 106.71 253.01C106.612 253.01 106.516 253.033 106.428 253.077Z" fill="var(--fill-0, #37474F)" id="Vector_19"/>
<path d="M38.6419 213.943L34.2078 216.507C34.0304 216.603 34.0143 216.765 34.2078 216.845L37.7712 218.909C37.8637 218.956 37.9659 218.98 38.0695 218.98C38.1731 218.98 38.2753 218.956 38.3678 218.909L42.802 216.345C42.9793 216.249 42.9954 216.104 42.802 216.007L39.2385 213.959C39.1477 213.909 39.046 213.881 38.9422 213.878C38.8383 213.875 38.7353 213.897 38.6419 213.943Z" fill="var(--fill-0, #37474F)" id="Vector_20"/>
<path d="M43.8662 216.958L39.4321 219.522C39.2547 219.619 39.2386 219.764 39.4321 219.861L42.9955 221.925C43.089 221.968 43.1908 221.99 43.2938 221.99C43.3968 221.99 43.4986 221.968 43.5921 221.925L48.0263 219.361C48.2036 219.264 48.2197 219.103 48.0263 219.022L44.4467 216.958C44.356 216.915 44.2569 216.893 44.1565 216.893C44.0561 216.893 43.9569 216.915 43.8662 216.958Z" fill="var(--fill-0, #37474F)" id="Vector_21"/>
<path d="M34.3044 231.244L38.7385 228.681C38.9159 228.568 38.932 228.423 38.7385 228.342L35.2879 226.214C35.1987 226.166 35.099 226.14 34.9977 226.14C34.8964 226.14 34.7967 226.166 34.7075 226.214L30.2733 228.777C30.096 228.874 30.0798 229.035 30.2733 229.116L33.6755 231.244C33.7716 231.298 33.8799 231.326 33.99 231.326C34.1 231.326 34.2083 231.298 34.3044 231.244Z" fill="var(--fill-0, #37474F)" id="Vector_22"/>
<path d="M39.5125 234.179L43.9466 231.615C44.124 231.519 44.1401 231.373 43.9466 231.277L40.3832 229.229C40.2911 229.181 40.1888 229.156 40.0849 229.156C39.9811 229.156 39.8787 229.181 39.7866 229.229L35.3525 231.793C35.1751 231.889 35.159 232.051 35.3525 232.131L38.932 234.195C39.023 234.239 39.1232 234.261 39.2242 234.258C39.3253 234.255 39.4242 234.228 39.5125 234.179Z" fill="var(--fill-0, #37474F)" id="Vector_23"/>
<path d="M44.7368 237.194L49.1709 234.63C49.3322 234.534 49.3644 234.372 49.1709 234.292L45.6075 232.228C45.515 232.181 45.4129 232.157 45.3092 232.157C45.2056 232.157 45.1034 232.181 45.0109 232.228L40.5768 234.792C40.3994 234.888 40.3833 235.033 40.5768 235.13L44.1402 237.178C44.231 237.229 44.3327 237.256 44.4365 237.259C44.5404 237.262 44.6434 237.24 44.7368 237.194Z" fill="var(--fill-0, #37474F)" id="Vector_24"/>
<path d="M49.9455 240.209L54.3797 237.646C54.557 237.533 54.5732 237.388 54.3797 237.307L50.8001 235.243C50.7109 235.195 50.6112 235.17 50.5099 235.17C50.4086 235.17 50.3089 235.195 50.2197 235.243L45.7855 237.807C45.6081 237.904 45.592 238.065 45.7855 238.145L49.3489 240.209C49.441 240.257 49.5434 240.282 49.6472 240.282C49.7511 240.282 49.8534 240.257 49.9455 240.209Z" fill="var(--fill-0, #37474F)" id="Vector_25"/>
<path d="M49.0738 219.958L44.6396 222.521C44.4622 222.634 44.4461 222.779 44.6396 222.86L48.2192 224.924C48.3084 224.972 48.4082 224.997 48.5095 224.997C48.6108 224.997 48.7105 224.972 48.7997 224.924L53.2338 222.36C53.4112 222.263 53.4273 222.102 53.2338 222.021L49.6704 219.958C49.5769 219.914 49.4751 219.892 49.3721 219.892C49.269 219.892 49.1672 219.914 49.0738 219.958Z" fill="var(--fill-0, #37474F)" id="Vector_26"/>
<path d="M54.2829 222.973L49.8003 225.537C49.623 225.633 49.6069 225.795 49.8003 225.875L53.3638 227.939C53.4563 227.986 53.5584 228.01 53.6621 228.01C53.7657 228.01 53.8679 227.986 53.9604 227.939L58.3945 225.375C58.5558 225.279 58.588 225.133 58.3945 225.037L54.8311 222.989C54.7465 222.946 54.6535 222.922 54.5588 222.92C54.464 222.917 54.3698 222.935 54.2829 222.973Z" fill="var(--fill-0, #37474F)" id="Vector_27"/>
<path d="M90.8684 258.655C91.0457 258.559 91.0619 258.414 90.8684 258.317L87.3049 256.269C87.2128 256.221 87.1105 256.196 87.0066 256.196C86.9028 256.196 86.8004 256.221 86.7084 256.269L82.2742 258.833C82.0968 258.93 82.0807 259.091 82.2742 259.171L85.8376 261.235C85.9301 261.282 86.0323 261.306 86.1359 261.306C86.2396 261.306 86.3417 261.282 86.4342 261.235L90.8684 258.655Z" fill="var(--fill-0, #37474F)" id="Vector_28"/>
<path d="M95.9955 247.046L91.5614 249.61C91.384 249.723 91.3679 249.868 91.5614 249.948L95.1248 252.012C95.2169 252.06 95.3193 252.085 95.4231 252.085C95.527 252.085 95.6293 252.06 95.7214 252.012L100.156 249.449C100.333 249.352 100.349 249.191 100.156 249.11L96.5599 247.03C96.4707 246.99 96.3736 246.97 96.2758 246.973C96.1781 246.976 96.0822 247.001 95.9955 247.046Z" fill="var(--fill-0, #37474F)" id="Vector_29"/>
<path d="M72.2127 260.381L76.6469 257.817C76.8243 257.72 76.8404 257.559 76.6469 257.479L73.1318 255.431C73.0393 255.384 72.9372 255.36 72.8335 255.36C72.7299 255.36 72.6277 255.384 72.5352 255.431L68.1011 257.978C67.9237 258.091 67.9076 258.236 68.1011 258.333L71.6807 260.381C71.7636 260.421 71.8545 260.442 71.9467 260.442C72.0388 260.442 72.1297 260.421 72.2127 260.381Z" fill="var(--fill-0, #37474F)" id="Vector_30"/>
<path d="M81.8704 260.832C82.0317 260.719 82.0639 260.574 81.8704 260.478L78.307 258.43C78.2149 258.382 78.1125 258.357 78.0087 258.357C77.9048 258.357 77.8025 258.382 77.7104 258.43L73.2762 260.994C73.0988 261.09 73.0827 261.252 73.2762 261.332L76.8396 263.396C76.9321 263.443 77.0343 263.467 77.1379 263.467C77.2416 263.467 77.3438 263.443 77.4363 263.396L81.8704 260.832Z" fill="var(--fill-0, #37474F)" id="Vector_31"/>
<path d="M90.787 244.047L86.3529 246.611C86.1755 246.707 86.1433 246.853 86.3529 246.949L89.9163 248.997C90.0084 249.045 90.1107 249.07 90.2146 249.07C90.3185 249.07 90.4208 249.045 90.5129 248.997L94.947 246.433C95.1244 246.337 95.1405 246.175 94.947 246.095L91.3836 244.031C91.2895 243.988 91.1869 243.967 91.0834 243.97C90.98 243.972 90.8786 243.999 90.787 244.047Z" fill="var(--fill-0, #37474F)" id="Vector_32"/>
<path d="M64.7143 228.987L60.2802 231.551C60.1028 231.664 60.0867 231.809 60.2802 231.889L63.8598 233.953C63.949 234.001 64.0487 234.026 64.15 234.026C64.2513 234.026 64.351 234.001 64.4402 233.953L68.8744 231.389C69.0517 231.293 69.0679 231.132 68.8744 231.051L65.3109 228.987C65.2175 228.944 65.1157 228.921 65.0126 228.921C64.9096 228.921 64.8078 228.944 64.7143 228.987Z" fill="var(--fill-0, #37474F)" id="Vector_33"/>
<path d="M85.5637 241.032L81.1295 243.595C80.9521 243.692 80.936 243.853 81.1295 243.934L84.693 245.998C84.7826 246.045 84.8822 246.069 84.9832 246.069C85.0843 246.069 85.1838 246.045 85.2734 245.998L89.7237 243.45C89.885 243.337 89.9172 243.192 89.7237 243.096L86.1602 241.048C86.0695 240.997 85.9678 240.969 85.864 240.967C85.7601 240.964 85.657 240.986 85.5637 241.032Z" fill="var(--fill-0, #37474F)" id="Vector_34"/>
<path d="M59.4744 225.988L55.0403 228.552C54.8629 228.648 54.8468 228.794 55.0403 228.89L58.6037 230.938C58.6958 230.986 58.7981 231.011 58.902 231.011C59.0059 231.011 59.1082 230.986 59.2003 230.938L63.6344 228.374C63.8118 228.278 63.8279 228.116 63.6344 228.036L60.0549 225.972C59.963 225.931 59.8632 225.912 59.7628 225.915C59.6624 225.917 59.5639 225.942 59.4744 225.988Z" fill="var(--fill-0, #37474F)" id="Vector_35"/>
<path d="M69.9231 232.002L65.4889 234.566C65.3116 234.663 65.2954 234.824 65.4889 234.905L69.0524 236.968C69.142 237.015 69.2415 237.039 69.3426 237.039C69.4436 237.039 69.5432 237.015 69.6328 236.968L74.0831 234.405C74.2443 234.308 74.2766 234.163 74.0831 234.066L70.5197 232.018C70.4289 231.968 70.3272 231.94 70.2233 231.937C70.1195 231.934 70.0165 231.957 69.9231 232.002Z" fill="var(--fill-0, #37474F)" id="Vector_36"/>
<path d="M75.147 235.017L70.7612 237.581C70.5839 237.678 70.5678 237.823 70.7612 237.92L74.3247 239.967C74.4168 240.015 74.5191 240.041 74.623 240.041C74.7268 240.041 74.8292 240.015 74.9213 239.967L79.3554 237.404C79.5328 237.307 79.5489 237.146 79.3554 237.065L75.7758 235.001C75.6775 234.953 75.569 234.929 75.4594 234.932C75.3499 234.935 75.2427 234.964 75.147 235.017Z" fill="var(--fill-0, #37474F)" id="Vector_37"/>
<path d="M80.4353 238.017L76.0012 240.58C75.8238 240.693 75.8077 240.838 76.0012 240.919L79.5646 242.983C79.6567 243.031 79.759 243.056 79.8629 243.056C79.9668 243.056 80.0691 243.031 80.1612 242.983L84.5953 240.419C84.7727 240.322 84.7888 240.161 84.5953 240.08L81.0319 238.017C80.9384 237.973 80.8366 237.951 80.7336 237.951C80.6306 237.951 80.5288 237.973 80.4353 238.017Z" fill="var(--fill-0, #37474F)" id="Vector_38"/>
<path d="M60.3775 246.224L64.8117 243.66C64.9729 243.563 65.0052 243.402 64.8117 243.321L61.2483 241.257C61.1558 241.211 61.0536 241.186 60.95 241.186C60.8463 241.186 60.7442 241.211 60.6517 241.257L56.2498 243.853C56.0724 243.95 56.0563 244.095 56.2498 244.192L59.8132 246.24C59.9023 246.28 59.9994 246.299 60.0972 246.297C60.195 246.294 60.2909 246.269 60.3775 246.224Z" fill="var(--fill-0, #37474F)" id="Vector_39"/>
<path d="M55.1527 243.209L59.5869 240.645C59.7642 240.548 59.7804 240.403 59.5869 240.306L56.0234 238.258C55.9313 238.21 55.829 238.185 55.7251 238.185C55.6212 238.185 55.5189 238.21 55.4268 238.258L51.041 240.919C50.8637 241.016 50.8475 241.177 51.041 241.258L54.6206 243.321C54.7121 243.344 54.8074 243.345 54.8995 243.325C54.9916 243.306 55.0781 243.266 55.1527 243.209Z" fill="var(--fill-0, #37474F)" id="Vector_40"/>
<path d="M45.0433 224.972L40.6092 227.52C40.4318 227.633 40.4157 227.778 40.6092 227.874L44.1727 229.922C44.2648 229.97 44.3671 229.995 44.471 229.995C44.5748 229.995 44.6772 229.97 44.7692 229.922L49.2034 227.358C49.3646 227.262 49.3969 227.1 49.2034 227.02L45.64 224.956C45.5462 224.912 45.4433 224.89 45.3397 224.893C45.2361 224.896 45.1345 224.923 45.0433 224.972Z" fill="var(--fill-0, #37474F)" id="Vector_41"/>
<path d="M39.8346 221.957L35.4005 224.521C35.2231 224.617 35.207 224.762 35.4005 224.859L38.98 226.923C39.0707 226.966 39.1699 226.988 39.2702 226.988C39.3706 226.988 39.4698 226.966 39.5605 226.923L43.9946 224.359C44.172 224.263 44.1881 224.101 43.9946 224.021L40.4312 221.957C40.3377 221.914 40.2359 221.891 40.1329 221.891C40.0299 221.891 39.9281 221.914 39.8346 221.957Z" fill="var(--fill-0, #37474F)" id="Vector_42"/>
<path d="M85.6605 255.705C85.8379 255.608 85.854 255.447 85.6605 255.366L82.0971 253.302C82.0079 253.254 81.9082 253.229 81.8069 253.229C81.7056 253.229 81.6059 253.254 81.5167 253.302L77.0825 255.866C76.9051 255.963 76.8729 256.124 77.0825 256.205L80.6459 258.269C80.738 258.317 80.8404 258.342 80.9442 258.342C81.0481 258.342 81.1504 258.317 81.2425 258.269L85.6605 255.705Z" fill="var(--fill-0, #37474F)" id="Vector_43"/>
<path d="M76.0012 255.253L80.4353 252.69C80.5966 252.593 80.6288 252.432 80.4353 252.351L76.8719 250.287C76.7794 250.24 76.6772 250.216 76.5736 250.216C76.47 250.216 76.3678 250.24 76.2753 250.287L71.8411 252.851C71.6638 252.948 71.6477 253.093 71.8411 253.189L75.4046 255.237C75.4944 255.291 75.5963 255.32 75.7008 255.323C75.8052 255.326 75.9086 255.302 76.0012 255.253Z" fill="var(--fill-0, #37474F)" id="Vector_44"/>
<path d="M70.761 252.206L75.1952 249.642C75.3725 249.545 75.3887 249.4 75.1952 249.304L71.7124 247.369C71.6203 247.321 71.5179 247.295 71.4141 247.295C71.3102 247.295 71.2079 247.321 71.1158 247.369L66.6816 249.932C66.5043 250.029 66.4881 250.19 66.6816 250.271L70.245 252.335C70.3353 252.35 70.4278 252.347 70.5166 252.325C70.6054 252.302 70.6886 252.262 70.761 252.206Z" fill="var(--fill-0, #37474F)" id="Vector_45"/>
<path d="M65.585 249.239L70.0191 246.675C70.1965 246.562 70.2126 246.417 70.0191 246.336L66.4395 244.273C66.3503 244.225 66.2506 244.199 66.1493 244.199C66.048 244.199 65.9483 244.225 65.859 244.273L61.4249 246.836C61.2475 246.949 61.2314 247.094 61.4249 247.175L64.9884 249.239C65.0805 249.287 65.1828 249.312 65.2867 249.312C65.3905 249.312 65.4929 249.287 65.585 249.239Z" fill="var(--fill-0, #37474F)" id="Vector_46"/>
<path d="M76.3245 243.031L71.8903 245.579C71.713 245.692 71.6969 245.837 71.8903 245.933L75.4538 247.981C75.543 248.029 75.6427 248.054 75.744 248.054C75.8453 248.054 75.945 248.029 76.0342 247.981L80.4845 245.417C80.6458 245.321 80.678 245.159 80.4845 245.079L76.9211 243.015C76.8273 242.971 76.7245 242.949 76.6209 242.952C76.5172 242.955 76.4157 242.982 76.3245 243.031Z" fill="var(--fill-0, #37474F)" id="Vector_47"/>
<path d="M55.4752 230.986L51.041 233.55C50.8637 233.647 50.8475 233.792 51.041 233.889L54.6206 235.953C54.7113 235.996 54.8105 236.018 54.9109 236.018C55.0113 236.018 55.1104 235.996 55.2011 235.953L59.6353 233.389C59.8126 233.292 59.8287 233.131 59.6353 233.05L56.0718 230.986C55.9783 230.943 55.8765 230.921 55.7735 230.921C55.6705 230.921 55.5687 230.943 55.4752 230.986Z" fill="var(--fill-0, #37474F)" id="Vector_48"/>
<path d="M60.6839 234.002L56.2498 236.549C56.0724 236.662 56.0563 236.807 56.2498 236.904L59.8132 238.952C59.9053 239 60.0076 239.025 60.1115 239.025C60.2154 239.025 60.3177 239 60.4098 238.952L64.8439 236.388C65.0052 236.291 65.0374 236.13 64.8439 236.049L61.2805 233.985C61.1868 233.941 61.0839 233.92 60.9803 233.922C60.8766 233.925 60.7751 233.952 60.6839 234.002Z" fill="var(--fill-0, #37474F)" id="Vector_49"/>
<path d="M50.2677 228.019L45.8335 230.583C45.6561 230.68 45.64 230.841 45.8335 230.922L49.3969 232.986C49.4894 233.032 49.5916 233.057 49.6952 233.057C49.7989 233.057 49.901 233.032 49.9935 232.986L54.4277 230.438C54.605 230.325 54.6212 230.18 54.4277 230.083L50.8481 228.019C50.7589 227.971 50.6592 227.946 50.5579 227.946C50.4566 227.946 50.3569 227.971 50.2677 228.019Z" fill="var(--fill-0, #37474F)" id="Vector_50"/>
<path d="M71.1158 240.016L66.6816 242.531C66.5043 242.628 66.4881 242.773 66.6816 242.87L70.245 244.934C70.3385 244.977 70.4403 245 70.5433 245C70.6464 245 70.7482 244.977 70.8416 244.934L75.2758 242.37C75.4532 242.273 75.4693 242.112 75.2758 242.031L71.7124 239.967C71.6154 239.932 71.5118 239.917 71.4087 239.926C71.3056 239.934 71.2057 239.965 71.1158 240.016Z" fill="var(--fill-0, #37474F)" id="Vector_51"/>
<path d="M65.9238 237.001L61.4897 239.564C61.3123 239.661 61.2962 239.822 61.4897 239.903L65.0531 241.967C65.1456 242.014 65.2478 242.038 65.3514 242.038C65.455 242.038 65.5572 242.014 65.6497 241.967L70.0839 239.419C70.2612 239.306 70.2773 239.161 70.0839 239.065L66.5043 237.017C66.4164 236.966 66.3174 236.938 66.2161 236.936C66.1148 236.933 66.0144 236.955 65.9238 237.001Z" fill="var(--fill-0, #37474F)" id="Vector_52"/>
<path d="M97.1889 254.979L92.7386 257.543C92.5774 257.64 92.5451 257.801 92.7386 257.882L96.302 259.945C96.3945 259.992 96.4967 260.017 96.6003 260.017C96.704 260.017 96.8061 259.992 96.8986 259.945L101.333 257.398C101.51 257.285 101.526 257.14 101.333 257.043L97.7694 254.995C97.6815 254.945 97.5824 254.917 97.4811 254.914C97.3798 254.911 97.2794 254.934 97.1889 254.979Z" fill="var(--fill-0, #37474F)" id="Vector_53"/>
<path d="M102.671 258.011L95.4478 262.187C95.2704 262.284 95.2543 262.445 95.4478 262.525L99.0112 264.589C99.1047 264.633 99.2065 264.655 99.3095 264.655C99.4126 264.655 99.5144 264.633 99.6079 264.589L106.831 260.413C107.009 260.316 107.041 260.171 106.831 260.075L103.268 258.011C103.175 257.967 103.073 257.945 102.97 257.945C102.867 257.945 102.765 257.967 102.671 258.011Z" fill="var(--fill-0, #37474F)" id="Vector_54"/>
<path d="M91.9651 259.333L87.5309 261.88C87.3536 261.977 87.3374 262.138 87.5309 262.219L95.2866 266.718C95.3801 266.761 95.4819 266.783 95.5849 266.783C95.688 266.783 95.7898 266.761 95.8832 266.718L100.317 264.154C100.495 264.057 100.511 263.896 100.317 263.815L92.5456 259.333C92.4555 259.287 92.3561 259.264 92.2553 259.264C92.1545 259.264 92.0551 259.287 91.9651 259.333Z" fill="var(--fill-0, #37474F)" id="Vector_55"/>
<path d="M81.5478 245.95L77.1137 248.513C76.9363 248.61 76.9041 248.771 77.1137 248.852L80.6771 250.916C80.7696 250.963 80.8718 250.987 80.9754 250.987C81.0791 250.987 81.1812 250.963 81.2737 250.916L85.7079 248.368C85.8852 248.255 85.9014 248.11 85.7079 248.013L82.1444 245.966C82.0546 245.912 81.9527 245.883 81.8483 245.88C81.7438 245.877 81.6404 245.901 81.5478 245.95Z" fill="var(--fill-0, #37474F)" id="Vector_56"/>
<path d="M91.9651 251.98L87.5309 254.528C87.3536 254.641 87.3374 254.786 87.5309 254.866L91.0944 256.93C91.1836 256.978 91.2833 257.003 91.3846 257.003C91.4859 257.003 91.5856 256.978 91.6748 256.93L96.109 254.366C96.2864 254.27 96.3186 254.108 96.109 254.028L92.5456 251.964C92.454 251.922 92.3541 251.902 92.2535 251.905C92.1529 251.908 92.0542 251.933 91.9651 251.98Z" fill="var(--fill-0, #37474F)" id="Vector_57"/>
<path d="M86.7563 248.981L82.3222 251.545C82.1448 251.642 82.1287 251.787 82.3222 251.883L85.8856 253.947C85.9791 253.991 86.0809 254.013 86.1839 254.013C86.2869 254.013 86.3887 253.991 86.4822 253.947L90.9164 251.384C91.0937 251.287 91.1099 251.126 90.9164 251.045L87.3529 248.981C87.2595 248.938 87.1577 248.915 87.0546 248.915C86.9516 248.915 86.8498 248.938 86.7563 248.981Z" fill="var(--fill-0, #37474F)" id="Vector_58"/>
<path d="M67.0044 257.365L71.4386 254.802C71.6159 254.705 71.6321 254.544 71.4386 254.463L67.859 252.399C67.7683 252.356 67.6691 252.334 67.5687 252.334C67.4683 252.334 67.3692 252.356 67.2785 252.399L62.8444 254.963C62.667 255.06 62.6509 255.205 62.8444 255.302L66.4078 257.365C66.5013 257.409 66.6031 257.431 66.7061 257.431C66.8091 257.431 66.911 257.409 67.0044 257.365Z" fill="var(--fill-0, #37474F)" id="Vector_59"/>
<path d="M96.7372 252.964L100.301 255.027C100.39 255.074 100.49 255.098 100.591 255.098C100.692 255.098 100.792 255.074 100.881 255.027L105.315 252.464C105.493 252.367 105.525 252.222 105.315 252.125L101.752 250.077C101.66 250.029 101.557 250.004 101.454 250.004C101.35 250.004 101.247 250.029 101.155 250.077L96.7212 252.641C96.5599 252.722 96.5599 252.883 96.7372 252.964Z" fill="var(--fill-0, #37474F)" id="Vector_60"/>
<path d="M28.2585 220.602L33.7407 223.827C33.8328 223.875 33.9352 223.9 34.0391 223.9C34.1429 223.9 34.2453 223.875 34.3373 223.827L38.7715 221.263C38.9327 221.167 38.965 221.005 38.7715 220.925L33.2893 217.7C33.1958 217.657 33.094 217.634 32.991 217.634C32.8879 217.634 32.7862 217.657 32.6927 217.7L28.2585 220.264C28.1134 220.36 28.0973 220.506 28.2585 220.602Z" fill="var(--fill-0, #37474F)" id="Vector_61"/>
<path d="M41.9155 212.427L46.3012 214.959C46.3937 215.006 46.496 215.03 46.5996 215.03C46.7032 215.03 46.8054 215.006 46.8979 214.959L51.4126 212.379C51.59 212.266 51.6061 212.121 51.4126 212.024L47.0107 209.493C46.92 209.45 46.8209 209.428 46.7205 209.428C46.6201 209.428 46.521 209.45 46.4303 209.493L41.9961 212.057C41.7381 212.186 41.7381 212.331 41.9155 212.427Z" fill="var(--fill-0, #37474F)" id="Vector_62"/>
<path d="M21.5015 224.134L28.3543 228.1C28.4478 228.143 28.5496 228.166 28.6526 228.166C28.7556 228.166 28.8574 228.143 28.9509 228.1L33.385 225.536C33.5624 225.424 33.5785 225.278 33.385 225.198L26.5161 221.231C26.4227 221.188 26.3209 221.165 26.2178 221.165C26.1148 221.165 26.013 221.188 25.9195 221.231L21.4854 223.795C21.3725 223.908 21.3403 224.053 21.5015 224.134Z" fill="var(--fill-0, #37474F)" id="Vector_63"/>
<path d="M84.5801 267.879L88.9659 270.426C89.0594 270.469 89.1612 270.492 89.2642 270.492C89.3672 270.492 89.469 270.469 89.5625 270.426L93.9966 267.862C94.174 267.766 94.1901 267.621 93.9966 267.524L89.5947 264.992C89.5043 264.948 89.4051 264.925 89.3045 264.925C89.2039 264.925 89.1047 264.948 89.0143 264.992L84.5801 267.556C84.4511 267.653 84.435 267.798 84.5801 267.879Z" fill="var(--fill-0, #37474F)" id="Vector_64"/>
<path d="M15.1655 227.81L19.5513 230.341C19.6448 230.385 19.7466 230.407 19.8496 230.407C19.9526 230.407 20.0544 230.385 20.1479 230.341L24.582 227.778C24.7594 227.665 24.7755 227.52 24.582 227.439L20.1963 224.891C20.1028 224.848 20.001 224.826 19.898 224.826C19.7949 224.826 19.6931 224.848 19.5997 224.891L15.1655 227.455C15.0365 227.568 15.0043 227.713 15.1655 227.81Z" fill="var(--fill-0, #37474F)" id="Vector_65"/>
<path d="M81.4517 229.761C81.629 229.664 81.6452 229.503 81.4517 229.422L77.8721 227.358C77.7825 227.312 77.6829 227.287 77.5819 227.287C77.4808 227.287 77.3812 227.312 77.2916 227.358L72.8575 229.906C72.6801 230.019 72.664 230.164 72.8575 230.261L76.4209 232.308C76.513 232.356 76.6154 232.382 76.7192 232.382C76.8231 232.382 76.9254 232.356 77.0175 232.308L81.4517 229.761Z" fill="var(--fill-0, #37474F)" id="Vector_66"/>
<path d="M91.8835 235.775C92.0448 235.678 92.077 235.533 91.8835 235.436L88.3201 233.373C88.2266 233.329 88.1248 233.307 88.0217 233.307C87.9187 233.307 87.8169 233.329 87.7235 233.373L83.2893 235.936C83.1119 236.033 83.0958 236.194 83.2893 236.275L86.8528 238.339C86.9463 238.382 87.0481 238.405 87.1511 238.405C87.2541 238.405 87.3559 238.382 87.4494 238.339L91.8835 235.775Z" fill="var(--fill-0, #37474F)" id="Vector_67"/>
<path d="M86.6591 232.857C86.8365 232.744 86.8526 232.599 86.6591 232.518L83.0957 230.454C83.0036 230.406 82.9013 230.381 82.7974 230.381C82.6936 230.381 82.5912 230.406 82.4991 230.454L78.065 233.018C77.8876 233.115 77.8715 233.276 78.065 233.357L81.6445 235.421C81.7349 235.465 81.8342 235.488 81.9348 235.488C82.0354 235.488 82.1346 235.465 82.225 235.421L86.6591 232.857Z" fill="var(--fill-0, #37474F)" id="Vector_68"/>
<path d="M97.0922 238.791C97.2696 238.694 97.2857 238.533 97.0922 238.452L93.5126 236.388C93.423 236.341 93.3235 236.317 93.2224 236.317C93.1214 236.317 93.0218 236.341 92.9322 236.388L88.498 238.984C88.3207 239.081 88.3045 239.226 88.498 239.323L92.0615 241.37C92.1536 241.418 92.2559 241.444 92.3598 241.444C92.4636 241.444 92.566 241.418 92.6581 241.37L97.0922 238.791Z" fill="var(--fill-0, #37474F)" id="Vector_69"/>
<path d="M77.2107 270.571C77.0333 270.668 77.0172 270.829 77.2107 270.91L82.6929 274.135C82.7864 274.178 82.8881 274.201 82.9912 274.201C83.0942 274.201 83.196 274.178 83.2895 274.135L87.7236 271.571C87.901 271.474 87.9171 271.313 87.7236 271.232L82.2253 268.008C82.136 267.96 82.0363 267.935 81.935 267.935C81.8337 267.935 81.734 267.96 81.6448 268.008L77.2107 270.571Z" fill="var(--fill-0, #37474F)" id="Vector_70"/>
<path d="M73.9863 225.504C74.1476 225.407 74.1798 225.262 73.9863 225.166L70.5197 223.182C70.4262 223.139 70.3244 223.116 70.2214 223.116C70.1183 223.116 70.0165 223.139 69.9231 223.182L65.4889 225.746C65.3116 225.843 65.2954 225.988 65.4889 226.085L69.0524 228.148C69.1431 228.192 69.2422 228.214 69.3426 228.214C69.443 228.214 69.5421 228.192 69.6328 228.148L73.9863 225.504Z" fill="var(--fill-0, #37474F)" id="Vector_71"/>
<path d="M68.8264 222.505C69.0037 222.392 69.0199 222.247 68.8264 222.15L65.2629 220.103C65.1708 220.055 65.0685 220.029 64.9646 220.029C64.8608 220.029 64.7584 220.055 64.6664 220.103L60.2322 222.666C60.0548 222.763 60.0387 222.924 60.2322 223.005L63.8118 225.069C63.9014 225.115 64.001 225.14 64.102 225.14C64.203 225.14 64.3026 225.115 64.3922 225.069L68.8264 222.505Z" fill="var(--fill-0, #37474F)" id="Vector_72"/>
<path d="M58.4107 216.475C58.5719 216.378 58.6041 216.233 58.4107 216.136L54.8472 214.072C54.7537 214.029 54.652 214.006 54.5489 214.006C54.4459 214.006 54.3441 214.029 54.2506 214.072L49.8003 216.733C49.623 216.829 49.6069 216.974 49.8003 217.071L53.3638 219.135C53.4573 219.178 53.559 219.201 53.6621 219.201C53.7651 219.201 53.8669 219.178 53.9604 219.135L58.4107 216.475Z" fill="var(--fill-0, #37474F)" id="Vector_73"/>
<path d="M63.6189 219.49C63.7963 219.393 63.8124 219.232 63.6189 219.151L60.0393 217.087C59.9497 217.041 59.8501 217.016 59.7491 217.016C59.6481 217.016 59.5485 217.041 59.4588 217.087L55.0247 219.635C54.8473 219.748 54.8312 219.893 55.0247 219.99L58.5882 222.037C58.6802 222.085 58.7826 222.11 58.8864 222.11C58.9903 222.11 59.0926 222.085 59.1847 222.037L63.6189 219.49Z" fill="var(--fill-0, #37474F)" id="Vector_74"/>
<path d="M61.7958 254.35L66.23 251.803C66.4073 251.69 66.4235 251.545 66.23 251.448L62.6988 249.4C62.6067 249.352 62.5043 249.327 62.4005 249.327C62.2966 249.327 62.1943 249.352 62.1022 249.4L57.668 251.964C57.4907 252.061 57.4745 252.222 57.668 252.303L61.2315 254.367C61.3209 254.406 61.4179 254.425 61.5154 254.422C61.613 254.419 61.7088 254.395 61.7958 254.35Z" fill="var(--fill-0, #37474F)" id="Vector_75"/>
<path d="M22.0337 238.726C21.8563 238.823 21.8402 238.984 22.0337 239.064L26.4194 241.612C26.5129 241.655 26.6147 241.678 26.7177 241.678C26.8208 241.678 26.9225 241.655 27.016 241.612L31.4502 239.048C31.6114 238.952 31.6437 238.79 31.4502 238.71L27.0644 236.082C26.9723 236.033 26.87 236.008 26.7661 236.008C26.6622 236.008 26.5599 236.033 26.4678 236.082L22.0337 238.726Z" fill="var(--fill-0, #37474F)" id="Vector_76"/>
<path d="M8.86022 231.131C8.69898 231.228 8.66673 231.373 8.86022 231.47L14.3424 234.695C14.4345 234.743 14.5369 234.768 14.6407 234.768C14.7446 234.768 14.8469 234.743 14.939 234.695L19.3732 232.131C19.5506 232.034 19.5667 231.873 19.3732 231.792L13.891 228.568C13.7985 228.521 13.6963 228.496 13.5927 228.496C13.489 228.496 13.3869 228.521 13.2944 228.568L8.86022 231.131Z" fill="var(--fill-0, #37474F)" id="Vector_77"/>
<path d="M28.0811 242.209C27.9037 242.322 27.8876 242.467 28.0811 242.547L57.4432 259.51C57.5339 259.553 57.6331 259.575 57.7335 259.575C57.8339 259.575 57.933 259.553 58.0237 259.51L62.4579 256.946C62.6352 256.85 62.6675 256.705 62.4579 256.608L33.0957 239.629C33.0054 239.585 32.9061 239.562 32.8055 239.562C32.7049 239.562 32.6056 239.585 32.5153 239.629L28.0811 242.209Z" fill="var(--fill-0, #37474F)" id="Vector_78"/>
<path d="M65.1182 263.606C64.9408 263.702 64.9247 263.847 65.1182 263.944L69.5039 266.476C69.5964 266.522 69.6986 266.547 69.8022 266.547C69.9059 266.547 70.008 266.522 70.1005 266.476L74.5347 263.928C74.712 263.815 74.7282 263.67 74.5347 263.573L70.1489 261.042C70.0554 260.999 69.9536 260.976 69.8506 260.976C69.7476 260.976 69.6458 260.999 69.5523 261.042L65.1182 263.606Z" fill="var(--fill-0, #37474F)" id="Vector_79"/>
<path d="M59.0709 260.107C58.9096 260.219 58.8774 260.365 59.0709 260.461L63.4566 262.993C63.5491 263.04 63.6513 263.064 63.7549 263.064C63.8586 263.064 63.9607 263.04 64.0532 262.993L68.4874 260.429C68.6647 260.332 68.6809 260.187 68.4874 260.09L64.1016 257.559C64.012 257.512 63.9124 257.488 63.8114 257.488C63.7103 257.488 63.6108 257.512 63.5212 257.559L59.0709 260.107Z" fill="var(--fill-0, #37474F)" id="Vector_80"/>
<path d="M71.1488 267.088C70.9714 267.185 70.9553 267.33 71.1488 267.427L75.5346 269.959C75.6238 270.007 75.7236 270.032 75.8249 270.032C75.9262 270.032 76.0259 270.007 76.1151 269.959L80.5653 267.395C80.7266 267.282 80.7588 267.137 80.5653 267.056L76.1795 264.509C76.0861 264.465 75.9843 264.443 75.8813 264.443C75.7782 264.443 75.6764 264.465 75.583 264.509L71.1488 267.088Z" fill="var(--fill-0, #37474F)" id="Vector_81"/>
<path d="M15.9394 235.243C15.762 235.34 15.7459 235.501 15.9394 235.582L20.3252 238.113C20.4173 238.161 20.5196 238.187 20.6235 238.187C20.7274 238.187 20.8297 238.161 20.9218 238.113L25.3559 235.55C25.5333 235.453 25.5494 235.292 25.3559 235.211L20.9702 232.68C20.8781 232.631 20.7757 232.606 20.6719 232.606C20.568 232.606 20.4657 232.631 20.3736 232.68L15.9394 235.243Z" fill="var(--fill-0, #37474F)" id="Vector_82"/>
<path d="M89.5946 270.41L94.0287 267.846C94.2061 267.75 94.2222 267.604 94.0287 267.508L83.6609 261.493C83.5688 261.445 83.4664 261.42 83.3626 261.42C83.2587 261.42 83.1564 261.445 83.0643 261.493L78.6301 264.057C78.4528 264.17 78.4366 264.315 78.6301 264.396L89.0625 270.426C89.2352 270.49 89.426 270.484 89.5946 270.41Z" fill="var(--fill-0, #37474F)" id="Vector_83"/>
<path d="M25.2914 233.292L29.7255 230.728C29.9029 230.632 29.919 230.47 29.7255 230.39L26.1621 228.326C26.0696 228.279 25.9674 228.255 25.8638 228.255C25.7602 228.255 25.658 228.279 25.5655 228.326L21.1313 230.873C20.954 230.986 20.9379 231.131 21.1313 231.228L24.7109 233.276C24.7988 233.326 24.8978 233.354 24.9991 233.357C25.1004 233.36 25.2008 233.338 25.2914 233.292Z" fill="var(--fill-0, #37474F)" id="Vector_84"/>
<path d="M51.4118 248.336L55.8459 245.772C56.0233 245.675 56.0394 245.53 55.8459 245.434L52.2664 243.37C52.1757 243.327 52.0765 243.304 51.9762 243.304C51.8758 243.304 51.7766 243.327 51.6859 243.37L47.2518 245.933C47.0744 246.03 47.0583 246.175 47.2518 246.272L50.8152 248.336C50.9087 248.379 51.0105 248.402 51.1135 248.402C51.2165 248.402 51.3183 248.379 51.4118 248.336Z" fill="var(--fill-0, #37474F)" id="Vector_85"/>
<path d="M46.1552 245.321L50.5894 242.773C50.7667 242.66 50.7829 242.515 50.5894 242.418L47.026 240.371C46.9339 240.322 46.8315 240.297 46.7277 240.297C46.6238 240.297 46.5215 240.322 46.4294 240.371L41.9952 242.934C41.834 243.031 41.8017 243.192 41.9952 243.273L45.5586 245.337C45.6524 245.381 45.7552 245.403 45.8589 245.4C45.9625 245.397 46.064 245.37 46.1552 245.321Z" fill="var(--fill-0, #37474F)" id="Vector_86"/>
<path d="M56.5722 251.351L61.0064 248.787C61.1837 248.691 61.1998 248.529 61.0064 248.449L57.4429 246.385C57.3504 246.338 57.2482 246.314 57.1446 246.314C57.0409 246.314 56.9388 246.338 56.8463 246.385L52.4605 248.981C52.2831 249.094 52.267 249.239 52.4605 249.336L56.0401 251.383C56.1255 251.418 56.2177 251.434 56.3098 251.428C56.402 251.422 56.4917 251.396 56.5722 251.351Z" fill="var(--fill-0, #37474F)" id="Vector_87"/>
<path d="M35.7232 239.306L40.1574 236.743C40.3347 236.646 40.3509 236.501 40.1574 236.404L36.5778 234.34C36.4871 234.297 36.388 234.275 36.2876 234.275C36.1872 234.275 36.0881 234.297 35.9973 234.34L31.5632 236.904C31.3858 237.001 31.3697 237.146 31.5632 237.243L35.1266 239.306C35.2201 239.35 35.3219 239.372 35.4249 239.372C35.528 239.372 35.6298 239.35 35.7232 239.306Z" fill="var(--fill-0, #37474F)" id="Vector_88"/>
<path d="M40.9314 242.322L45.3655 239.758C45.5429 239.661 45.559 239.5 45.3655 239.419L41.8021 237.355C41.7096 237.309 41.6074 237.284 41.5038 237.284C41.4002 237.284 41.298 237.309 41.2055 237.355L36.9003 239.935C36.7229 240.048 36.7068 240.193 36.9003 240.29L40.4799 242.338C40.6269 242.39 40.7884 242.384 40.9314 242.322Z" fill="var(--fill-0, #37474F)" id="Vector_89"/>
<path d="M30.4511 236.291L34.8852 233.744C35.0626 233.631 35.0787 233.486 34.8852 233.389L31.3218 231.341C31.2297 231.293 31.1274 231.268 31.0235 231.268C30.9196 231.268 30.8173 231.293 30.7252 231.341L26.291 233.905C26.1298 234.002 26.0975 234.163 26.291 234.243L29.8545 236.307C29.9482 236.352 30.0511 236.373 30.1547 236.37C30.2583 236.368 30.3599 236.34 30.4511 236.291Z" fill="var(--fill-0, #37474F)" id="Vector_90"/>
<path d="M113.651 269.668L118.086 267.104C118.263 267.008 118.279 266.846 118.086 266.766L114.506 264.702C114.415 264.659 114.316 264.637 114.216 264.637C114.115 264.637 114.016 264.659 113.925 264.702L109.491 267.266C109.314 267.362 109.298 267.508 109.491 267.604L113.055 269.668C113.148 269.711 113.25 269.734 113.353 269.734C113.456 269.734 113.558 269.711 113.651 269.668Z" fill="var(--fill-0, #37474F)" id="Vector_91"/>
<path d="M120.311 261.074L115.91 263.638C115.732 263.735 115.716 263.896 115.91 263.977L119.473 266.04C119.566 266.084 119.668 266.106 119.771 266.106C119.874 266.106 119.976 266.084 120.07 266.04L124.504 263.477C124.681 263.38 124.697 263.235 124.504 263.138L120.924 261.074C120.829 261.026 120.724 261.001 120.618 261.001C120.511 261.001 120.406 261.026 120.311 261.074Z" fill="var(--fill-0, #37474F)" id="Vector_92"/>
<path d="M125.583 264.089L121.085 266.718C120.907 266.83 120.891 266.976 121.085 267.072L124.664 269.12C124.753 269.168 124.853 269.193 124.954 269.193C125.056 269.193 125.156 269.168 125.245 269.12L129.679 266.556C129.856 266.46 129.872 266.298 129.679 266.218L126.115 264.154C126.036 264.106 125.948 264.076 125.856 264.065C125.765 264.054 125.672 264.062 125.583 264.089Z" fill="var(--fill-0, #37474F)" id="Vector_93"/>
<path d="M118.86 272.684L123.294 270.12C123.472 270.023 123.488 269.862 123.294 269.781L119.731 267.717C119.638 267.671 119.536 267.646 119.433 267.646C119.329 267.646 119.227 267.671 119.134 267.717L114.7 270.265C114.523 270.378 114.507 270.523 114.7 270.62L118.28 272.667C118.368 272.718 118.467 272.746 118.568 272.749C118.669 272.751 118.77 272.729 118.86 272.684Z" fill="var(--fill-0, #37474F)" id="Vector_94"/>
<path d="M115.087 258.059L110.653 260.622C110.475 260.719 110.459 260.88 110.653 260.961L114.216 263.025C114.31 263.068 114.412 263.091 114.515 263.091C114.618 263.091 114.719 263.068 114.813 263.025L119.247 260.461C119.424 260.348 119.441 260.203 119.247 260.123L115.684 258.059C115.591 258.011 115.489 257.986 115.385 257.986C115.281 257.986 115.179 258.011 115.087 258.059Z" fill="var(--fill-0, #37474F)" id="Vector_95"/>
<path d="M85.2729 275.263C85.1117 275.36 85.0794 275.505 85.2729 275.602L88.8363 277.666C88.9298 277.709 89.0316 277.732 89.1346 277.732C89.2376 277.732 89.3394 277.709 89.4329 277.666L93.8671 275.102C94.0444 275.005 94.0605 274.86 93.8671 274.764L90.3036 272.7C90.2102 272.656 90.1084 272.634 90.0053 272.634C89.9023 272.634 89.8005 272.656 89.707 272.7L85.2729 275.263Z" fill="var(--fill-0, #37474F)" id="Vector_96"/>
<path d="M95.7382 281.229C95.5608 281.326 95.5447 281.487 95.7382 281.568L99.3178 283.632C99.4074 283.678 99.507 283.703 99.608 283.703C99.7091 283.703 99.8086 283.678 99.8982 283.632L104.332 281.084C104.51 280.971 104.526 280.826 104.332 280.729L100.769 278.682C100.677 278.634 100.574 278.608 100.471 278.608C100.367 278.608 100.264 278.634 100.172 278.682L95.7382 281.229Z" fill="var(--fill-0, #37474F)" id="Vector_97"/>
<path d="M90.5294 278.262C90.3521 278.375 90.336 278.52 90.5294 278.617L94.0929 280.665C94.185 280.713 94.2873 280.738 94.3912 280.738C94.495 280.738 94.5974 280.713 94.6895 280.665L99.1236 278.101C99.301 278.004 99.3171 277.843 99.1236 277.762L95.544 275.699C95.4544 275.652 95.3549 275.628 95.2538 275.628C95.1528 275.628 95.0532 275.652 94.9636 275.699L90.5294 278.262Z" fill="var(--fill-0, #37474F)" id="Vector_98"/>
<path d="M108.444 266.717L112.878 264.17C113.055 264.057 113.071 263.912 112.878 263.815L109.315 261.767C109.222 261.719 109.12 261.694 109.016 261.694C108.912 261.694 108.81 261.719 108.718 261.767L104.284 264.331C104.106 264.428 104.09 264.589 104.284 264.67L107.847 266.717C107.94 266.764 108.042 266.789 108.146 266.789C108.249 266.789 108.351 266.764 108.444 266.717Z" fill="var(--fill-0, #37474F)" id="Vector_99"/>
<path d="M105.412 274.425C105.59 274.328 105.606 274.167 105.412 274.086L101.833 272.022C101.743 271.976 101.644 271.951 101.542 271.951C101.441 271.951 101.342 271.976 101.252 272.022L96.8181 274.57C96.6407 274.683 96.6246 274.828 96.8181 274.925L100.382 276.973C100.474 277.021 100.576 277.046 100.68 277.046C100.784 277.046 100.886 277.021 100.978 276.973L105.412 274.425Z" fill="var(--fill-0, #37474F)" id="Vector_100"/>
<path d="M137.322 262.025C137.499 261.912 137.515 261.767 137.322 261.671L133.759 259.623C133.666 259.575 133.564 259.55 133.46 259.55C133.356 259.55 133.254 259.575 133.162 259.623L128.808 262.203C128.631 262.299 128.615 262.461 128.808 262.541L132.372 264.605C132.464 264.652 132.566 264.676 132.67 264.676C132.774 264.676 132.876 264.652 132.968 264.605L137.322 262.025Z" fill="var(--fill-0, #37474F)" id="Vector_101"/>
<path d="M126.906 255.995C127.067 255.898 127.099 255.753 126.906 255.656L123.342 253.593C123.249 253.549 123.147 253.527 123.044 253.527C122.941 253.527 122.839 253.549 122.746 253.593L118.312 256.156C118.134 256.253 118.118 256.414 118.312 256.495L121.875 258.656C121.969 258.699 122.07 258.721 122.174 258.721C122.277 258.721 122.378 258.699 122.472 258.656L126.906 255.995Z" fill="var(--fill-0, #37474F)" id="Vector_102"/>
<path d="M132.113 259.01C132.291 258.913 132.307 258.752 132.113 258.672L128.534 256.608C128.444 256.561 128.345 256.537 128.244 256.537C128.143 256.537 128.043 256.561 127.953 256.608L123.519 259.155C123.342 259.268 123.326 259.413 123.519 259.51L127.083 261.558C127.175 261.606 127.277 261.631 127.381 261.631C127.485 261.631 127.587 261.606 127.679 261.558L132.113 259.01Z" fill="var(--fill-0, #37474F)" id="Vector_103"/>
<path d="M141.95 273.538L137.516 276.086C137.339 276.198 137.323 276.344 137.516 276.44L141.079 278.488C141.172 278.536 141.274 278.561 141.378 278.561C141.482 278.561 141.584 278.536 141.676 278.488L146.11 275.924C146.288 275.828 146.304 275.666 146.11 275.586L142.547 273.522C142.453 273.478 142.35 273.456 142.247 273.459C142.143 273.462 142.041 273.489 141.95 273.538Z" fill="var(--fill-0, #37474F)" id="Vector_104"/>
<path d="M132.307 273.167C132.13 273.264 132.114 273.409 132.307 273.506L135.871 275.57C135.964 275.613 136.066 275.636 136.169 275.636C136.272 275.636 136.374 275.613 136.467 275.57L140.901 273.006C141.079 272.909 141.095 272.764 140.901 272.668L137.322 270.604C137.231 270.561 137.132 270.538 137.032 270.538C136.931 270.538 136.832 270.561 136.741 270.604L132.307 273.167Z" fill="var(--fill-0, #37474F)" id="Vector_105"/>
<path d="M123.745 282.842L128.179 280.278C128.356 280.181 128.372 280.02 128.179 279.939L124.599 277.876C124.51 277.829 124.41 277.805 124.309 277.805C124.208 277.805 124.109 277.829 124.019 277.876L119.585 280.439C119.407 280.536 119.391 280.681 119.585 280.778L123.148 282.826C123.239 282.876 123.341 282.904 123.445 282.907C123.548 282.91 123.651 282.887 123.745 282.842Z" fill="var(--fill-0, #37474F)" id="Vector_106"/>
<path d="M135.258 282.132L139.692 279.568C139.869 279.472 139.885 279.31 139.692 279.23L136.129 277.166C136.035 277.123 135.933 277.1 135.83 277.1C135.727 277.1 135.625 277.123 135.532 277.166L131.098 279.73C130.92 279.843 130.904 279.988 131.098 280.068L134.661 282.132C134.753 282.18 134.856 282.205 134.959 282.205C135.063 282.205 135.166 282.18 135.258 282.132Z" fill="var(--fill-0, #37474F)" id="Vector_107"/>
<path d="M125.971 276.747C125.793 276.843 125.777 276.988 125.971 277.085L129.534 279.149C129.628 279.192 129.729 279.215 129.832 279.215C129.935 279.215 130.037 279.192 130.131 279.149L134.565 276.585C134.742 276.489 134.758 276.327 134.565 276.247L130.985 274.183C130.895 274.14 130.795 274.118 130.695 274.118C130.595 274.118 130.495 274.14 130.405 274.183L125.971 276.747Z" fill="var(--fill-0, #37474F)" id="Vector_108"/>
<path d="M133.388 283.229C133.565 283.116 133.581 282.971 133.388 282.89L129.824 280.826C129.732 280.778 129.63 280.753 129.526 280.753C129.422 280.753 129.32 280.778 129.228 280.826L124.794 283.39C124.616 283.487 124.6 283.648 124.794 283.728L128.357 285.792C128.45 285.836 128.552 285.858 128.655 285.858C128.758 285.858 128.86 285.836 128.954 285.792L133.388 283.229Z" fill="var(--fill-0, #37474F)" id="Vector_109"/>
<path d="M101.736 284.712C101.559 284.809 101.543 284.954 101.736 285.051L110.508 290.114C110.6 290.162 110.702 290.187 110.806 290.187C110.91 290.187 111.012 290.162 111.105 290.114L115.539 287.55C115.716 287.453 115.732 287.292 115.539 287.211L106.751 282.132C106.658 282.089 106.556 282.067 106.453 282.067C106.35 282.067 106.248 282.089 106.154 282.132L101.736 284.712Z" fill="var(--fill-0, #37474F)" id="Vector_110"/>
<path d="M112.168 290.726C111.991 290.823 111.975 290.984 112.168 291.065L115.748 293.129C115.837 293.175 115.937 293.2 116.038 293.2C116.139 293.2 116.239 293.175 116.328 293.129L120.763 290.581C120.94 290.468 120.956 290.323 120.763 290.226L117.199 288.179C117.107 288.131 117.005 288.106 116.901 288.106C116.797 288.106 116.695 288.131 116.602 288.179L112.168 290.726Z" fill="var(--fill-0, #37474F)" id="Vector_111"/>
<path d="M122.617 289.437L127.051 286.889C127.228 286.776 127.244 286.631 127.051 286.534L123.536 284.454C123.444 284.406 123.341 284.381 123.237 284.381C123.134 284.381 123.031 284.406 122.939 284.454L118.505 287.018C118.328 287.115 118.311 287.276 118.505 287.357L122.084 289.42C122.167 289.462 122.257 289.485 122.349 289.488C122.441 289.49 122.532 289.473 122.617 289.437Z" fill="var(--fill-0, #37474F)" id="Vector_112"/>
<path d="M131.517 267.508L127.083 270.071C126.906 270.168 126.889 270.329 127.083 270.41L130.646 272.474C130.736 272.521 130.836 272.545 130.937 272.545C131.038 272.545 131.137 272.521 131.227 272.474L135.677 269.926C135.838 269.813 135.871 269.668 135.677 269.571L132.114 267.524C132.023 267.473 131.921 267.445 131.817 267.442C131.714 267.44 131.61 267.462 131.517 267.508Z" fill="var(--fill-0, #37474F)" id="Vector_113"/>
<path d="M125.18 271.168L120.746 273.732C120.569 273.828 120.553 273.99 120.746 274.07L124.31 276.134C124.402 276.181 124.504 276.205 124.608 276.205C124.712 276.205 124.814 276.181 124.906 276.134L129.34 273.586C129.502 273.474 129.534 273.328 129.34 273.232L125.777 271.184C125.686 271.133 125.585 271.106 125.481 271.103C125.377 271.1 125.274 271.122 125.18 271.168Z" fill="var(--fill-0, #37474F)" id="Vector_114"/>
<path d="M116.635 280.859C116.796 280.762 116.828 280.617 116.635 280.52L113.071 278.456C112.978 278.413 112.876 278.39 112.773 278.39C112.67 278.39 112.568 278.413 112.475 278.456L108.041 281.02C107.863 281.117 107.847 281.262 108.041 281.358L111.604 283.422C111.698 283.466 111.799 283.488 111.902 283.488C112.005 283.488 112.107 283.466 112.201 283.422L116.635 280.859Z" fill="var(--fill-0, #37474F)" id="Vector_115"/>
<path d="M118.537 279.762L122.972 277.198C123.133 277.102 123.165 276.956 122.972 276.86L119.44 274.78C119.347 274.736 119.245 274.714 119.142 274.714C119.039 274.714 118.937 274.736 118.844 274.78L114.41 277.343C114.232 277.44 114.216 277.601 114.41 277.682L117.973 279.746C118.06 279.79 118.156 279.814 118.254 279.817C118.351 279.82 118.448 279.801 118.537 279.762Z" fill="var(--fill-0, #37474F)" id="Vector_116"/>
<path d="M144.932 282.229L141.369 280.181C141.277 280.133 141.174 280.108 141.07 280.108C140.966 280.108 140.864 280.133 140.772 280.181L130.001 286.405C129.824 286.502 129.808 286.663 130.001 286.744L133.565 288.808C133.658 288.851 133.76 288.873 133.863 288.873C133.966 288.873 134.068 288.851 134.161 288.808L144.932 282.584C145.109 282.471 145.142 282.326 144.932 282.229Z" fill="var(--fill-0, #37474F)" id="Vector_117"/>
<path d="M117.344 294.129L120.907 296.193C121.001 296.236 121.102 296.258 121.205 296.258C121.308 296.258 121.41 296.236 121.504 296.193L132.275 289.969C132.452 289.872 132.468 289.727 132.275 289.63L128.808 287.486C128.714 287.442 128.613 287.42 128.51 287.42C128.407 287.42 128.305 287.442 128.211 287.486L117.44 293.71C117.199 293.839 117.182 293.984 117.344 294.129Z" fill="var(--fill-0, #37474F)" id="Vector_118"/>
<path d="M151.285 278.924C151.447 278.811 151.479 278.666 151.285 278.569L147.722 276.521C147.63 276.473 147.527 276.448 147.424 276.448C147.32 276.448 147.217 276.473 147.125 276.521L142.691 279.085C142.514 279.182 142.498 279.343 142.691 279.424L146.255 281.487C146.347 281.534 146.449 281.559 146.553 281.559C146.657 281.559 146.759 281.534 146.851 281.487L151.285 278.924Z" fill="var(--fill-0, #37474F)" id="Vector_119"/>
<path d="M117.408 286.438L121.842 283.874C122.02 283.777 122.036 283.616 121.842 283.535L118.263 281.471C118.173 281.425 118.074 281.4 117.973 281.4C117.872 281.4 117.772 281.425 117.682 281.471L113.248 284.019C113.071 284.132 113.055 284.277 113.248 284.374L116.812 286.421C116.902 286.472 117.004 286.5 117.108 286.503C117.212 286.505 117.315 286.483 117.408 286.438Z" fill="var(--fill-0, #37474F)" id="Vector_120"/>
<path d="M105.058 243.386C105.235 243.289 105.251 243.144 105.058 243.047L101.526 240.919C101.436 240.876 101.336 240.854 101.236 240.854C101.136 240.854 101.037 240.876 100.946 240.919L96.5601 243.579C96.3827 243.676 96.3666 243.821 96.5601 243.918L100.124 245.982C100.217 246.025 100.319 246.048 100.422 246.048C100.525 246.048 100.627 246.025 100.72 245.982L105.058 243.386Z" fill="var(--fill-0, #37474F)" id="Vector_121"/>
<path d="M115.49 249.416C115.651 249.303 115.684 249.158 115.49 249.061L111.927 247.014C111.835 246.966 111.732 246.941 111.628 246.941C111.525 246.941 111.422 246.966 111.33 247.014L106.896 249.577C106.719 249.674 106.702 249.835 106.896 249.916L110.459 251.98C110.552 252.027 110.654 252.051 110.758 252.051C110.861 252.051 110.963 252.027 111.056 251.98L115.49 249.416Z" fill="var(--fill-0, #37474F)" id="Vector_122"/>
<path d="M110.266 246.401C110.443 246.304 110.459 246.143 110.266 246.062L106.702 243.999C106.61 243.952 106.508 243.927 106.404 243.927C106.3 243.927 106.198 243.952 106.106 243.999L101.672 246.546C101.494 246.659 101.478 246.804 101.672 246.901L105.251 248.949C105.34 248.997 105.44 249.022 105.541 249.022C105.643 249.022 105.742 248.997 105.832 248.949L110.266 246.401Z" fill="var(--fill-0, #37474F)" id="Vector_123"/>
<path d="M120.747 252.415C120.924 252.319 120.94 252.174 120.747 252.077L117.167 250.013C117.077 249.97 116.977 249.948 116.877 249.948C116.777 249.948 116.678 249.97 116.587 250.013L112.153 252.577C111.975 252.673 111.959 252.818 112.153 252.915L115.716 254.979C115.81 255.022 115.911 255.045 116.014 255.045C116.117 255.045 116.219 255.022 116.313 254.979L120.747 252.415Z" fill="var(--fill-0, #37474F)" id="Vector_124"/>
</g>
</svg>