<?xml version="1.0" encoding="utf-8"?>
<svg xmlns="http://www.w3.org/2000/svg" fill="none" height="100%" overflow="visible" preserveAspectRatio="none" style="display: block;" viewBox="0 0 65.5914 43.6713" width="100%">
<path d="M25.2565 0.930654L3.87587 13.2818C2.70539 13.904 1.72629 14.8329 1.04351 15.9691C0.360728 17.1053 0 18.4059 0 19.7315C0 21.057 0.360728 22.3576 1.04351 23.4938C1.72629 24.63 2.70539 25.5589 3.87587 26.1811L32.5447 42.7406C33.7487 43.3524 35.0801 43.6713 36.4306 43.6713C37.7811 43.6713 39.1125 43.3524 40.3165 42.7406L61.6972 30.3895C62.8722 29.7712 63.856 28.8436 64.5423 27.7069C65.2287 26.5703 65.5914 25.2677 65.5914 23.9398C65.5914 22.612 65.2287 21.3095 64.5423 20.1728C63.856 19.0361 62.8722 18.1085 61.6972 17.4902L33.0284 0.930654C31.8244 0.318863 30.493 0 29.1425 0C27.7919 0 26.4605 0.318863 25.2565 0.930654Z" fill="var(--fill-0, #37474F)" id="Vector"/>
</svg>