<?xml version="1.0" encoding="utf-8"?>
<svg xmlns="http://www.w3.org/2000/svg" fill="none" height="100%" overflow="visible" preserveAspectRatio="none" style="display: block;" viewBox="0 0 103 51.3031" width="100%">
<g id="Frame 2147256933">
<g id="solar:code-outline">
<path d="M53.0192 2.91755C53.1503 2.95258 53.2621 3.03827 53.3301 3.15575C53.398 3.27323 53.4165 3.4129 53.3815 3.54402L50.6702 13.6646C50.635 13.7958 50.5491 13.9077 50.4314 13.9756C50.3137 14.0435 50.1739 14.0619 50.0427 14.0266C49.9115 13.9914 49.7996 13.9056 49.7317 13.7879C49.6638 13.6702 49.6455 13.5304 49.6807 13.3991L52.3927 3.27856C52.4101 3.21362 52.4401 3.15275 52.4811 3.09943C52.522 3.0461 52.5731 3.00137 52.6313 2.96778C52.6896 2.93419 52.7539 2.91241 52.8205 2.90367C52.8872 2.89494 52.9549 2.89942 53.0198 2.91686M54.5635 5.00035C54.6543 4.89947 54.7814 4.83877 54.917 4.8316C55.0525 4.82444 55.1853 4.87139 55.2862 4.96214L56.4716 6.02947C56.9746 6.48125 57.3909 6.85659 57.6775 7.19644C57.9778 7.55473 58.1921 7.93894 58.1921 8.41392C58.1921 8.88821 57.9784 9.27243 57.6775 9.63003C57.3909 9.97056 56.9746 10.3459 56.4716 10.7977L55.2862 11.865C55.1853 11.9559 55.0525 12.0029 54.9169 11.9958C54.7813 11.9887 54.654 11.928 54.5632 11.8271C54.4723 11.7262 54.4253 11.5934 54.4324 11.4578C54.4395 11.3222 54.5001 11.195 54.6011 11.1041L55.7592 10.062C56.2969 9.57816 56.6593 9.24991 56.894 8.97147C57.1193 8.70327 57.1684 8.54699 57.1684 8.41324C57.1684 8.27948 57.1193 8.12388 56.894 7.85568C56.6593 7.57656 56.2969 7.24831 55.7592 6.76514L54.6011 5.72306C54.551 5.6781 54.5103 5.62371 54.4813 5.56301C54.4523 5.5023 54.4355 5.43647 54.432 5.36929C54.4284 5.3021 54.4381 5.23487 54.4606 5.17145C54.4831 5.10803 54.5178 5.04965 54.5628 4.99967M48.4618 5.72306C48.5627 5.6322 48.6234 5.50498 48.6305 5.36938C48.6376 5.23378 48.5906 5.10092 48.4997 5.00001C48.4088 4.89911 48.2816 4.83843 48.146 4.83133C48.0104 4.82422 47.8776 4.87128 47.7766 4.96214L46.5913 6.02947C46.0883 6.48125 45.672 6.85659 45.3854 7.19644C45.0851 7.55473 44.8708 7.93894 44.8708 8.41392C44.8708 8.88821 45.0844 9.27243 45.3854 9.63003C45.672 9.97056 46.0883 10.3459 46.5913 10.7977L47.7766 11.865C47.8776 11.9559 48.0104 12.0029 48.146 11.9958C48.2816 11.9887 48.4088 11.928 48.4997 11.8271C48.5906 11.7262 48.6376 11.5934 48.6305 11.4578C48.6234 11.3222 48.5627 11.195 48.4618 11.1041L47.3037 10.062C46.766 9.57816 46.4036 9.24991 46.1688 8.97147C45.9436 8.70327 45.8945 8.54699 45.8945 8.41324C45.8945 8.27948 45.9436 8.12388 46.1688 7.85568C46.4036 7.57656 46.766 7.24831 47.3037 6.76514L48.4618 5.72306Z" fill="var(--fill-0, white)" id="Vector"/>
</g>
<g clip-path="url(#clip0_0_4826)" id="eos-icons:big-data-outlined">
<path d="M22.1315 17.3439C22.033 17.3752 21.9366 17.413 21.8431 17.4571C21.3549 16.9135 20.7098 16.5352 19.9971 16.3744C19.2844 16.2135 18.5394 16.2782 17.8651 16.5594C17.1908 16.8405 16.6205 17.3243 16.2332 17.9438C15.8459 18.5633 15.6607 19.2878 15.7032 20.0172C15.5303 20.1507 15.3734 20.3037 15.2357 20.4734C14.862 20.9205 14.6363 21.4727 14.5899 22.0536C14.5435 22.6346 14.6787 23.2155 14.9768 23.7163C15.2749 24.2171 15.7212 24.6129 16.254 24.8491C16.7868 25.0852 17.3798 25.1501 17.951 25.0347L17.4207 24.1438C17.0913 24.1494 16.7663 24.0679 16.4785 23.9075C16.1907 23.7471 15.9504 23.5136 15.7819 23.2305C15.6134 22.9474 15.5226 22.6248 15.5188 22.2954C15.515 21.966 15.5983 21.6414 15.7603 21.3545C15.8858 21.1262 16.0585 20.9273 16.2669 20.771L16.6729 20.4691L16.6464 19.9648C16.6141 19.43 16.749 18.8984 17.0324 18.4437C17.3158 17.989 17.7337 17.6337 18.2281 17.4273C18.7225 17.2208 19.2689 17.1733 19.7916 17.2914C20.3142 17.4095 20.7871 17.6873 21.1447 18.0863L21.6269 18.6204L22.2717 18.2967C22.3847 18.2415 22.5046 18.2016 22.6282 18.1782C22.9123 18.1188 23.2079 18.1497 23.4737 18.2665C23.7394 18.3833 23.9621 18.5801 24.1106 18.8296C24.259 19.079 24.3259 19.3686 24.3019 19.6579C24.2779 19.9471 24.1641 20.2217 23.9765 20.4432L24.478 21.2856C24.8797 20.9233 25.1434 20.4331 25.2242 19.8983C25.3051 19.3635 25.1981 18.8172 24.9214 18.3524C24.6447 17.8876 24.2155 17.5331 23.7068 17.3492C23.1981 17.1653 22.6414 17.1635 22.1315 17.3439Z" fill="var(--fill-0, white)" fill-opacity="0.5" id="Vector_2"/>
<path d="M20.0662 21.23C18.523 22.1486 17.8235 22.98 18.1625 23.5495L20.2476 27.0522C20.5866 27.6217 22.0167 27.1853 23.1941 26.4845C24.3715 25.7836 25.4369 24.7344 25.0979 24.1649L23.0127 20.6622C22.6737 20.0927 21.6094 20.3113 20.0662 21.23ZM20.3068 21.6342C21.4026 20.9819 22.4863 20.7802 22.7023 21.1431C22.9184 21.5061 22.2041 22.3293 21.1088 22.9813C20.0134 23.6334 18.9493 23.8689 18.7332 23.5059C18.5171 23.143 19.2115 22.2862 20.3068 21.6342ZM20.2288 26.0184L19.9538 25.5564C20.736 25.439 21.4847 25.1585 22.1516 24.7331C22.8434 24.3497 23.4469 23.8252 23.923 23.1936L24.2066 23.6701C23.7141 24.2846 23.1041 24.7948 22.4121 25.1708C21.7469 25.5935 21.0051 25.8815 20.2288 26.0184Z" fill="var(--fill-0, white)" fill-opacity="0.5" id="Vector_3"/>
</g>
<g clip-path="url(#clip1_0_4826)" id="mingcute:mic-ai-fill">
<g id="Group">
<g id="Vector_4">
</g>
<path d="M7.54603 44.5842C7.58666 44.5672 7.63024 44.5584 7.67428 44.5582C7.71832 44.5581 7.76197 44.5666 7.80271 44.5833C7.84345 44.6001 7.88049 44.6247 7.9117 44.6557C7.94292 44.6868 7.96771 44.7237 7.98464 44.7644C8.20961 45.3064 8.2505 45.9073 8.10105 46.4749C7.9516 47.0424 7.62005 47.5452 7.1573 47.9062L7.33926 48.2118C7.3847 48.2882 7.39796 48.3794 7.37611 48.4655C7.35427 48.5516 7.29911 48.6256 7.22277 48.671C7.14644 48.7164 7.05517 48.7297 6.96906 48.7078C6.88295 48.686 6.80905 48.6308 6.7636 48.5545L6.58164 48.2488C6.04375 48.4834 5.44377 48.5351 4.8737 48.3959C4.30363 48.2567 3.79497 47.9343 3.42572 47.4783C3.36989 47.4091 3.34381 47.3207 3.35321 47.2323C3.36261 47.144 3.40672 47.063 3.47584 47.0071C3.54496 46.9513 3.63343 46.9252 3.72178 46.9346C3.81013 46.944 3.89113 46.9881 3.94696 47.0573C4.25109 47.4327 4.68029 47.6861 5.15597 47.7709C5.63165 47.8558 6.12198 47.7664 6.53717 47.5193C6.95236 47.2721 7.26463 46.8837 7.41681 46.4251C7.56898 45.9665 7.55087 45.4684 7.36579 45.0221C7.34888 44.9815 7.34013 44.9379 7.34005 44.8939C7.33997 44.8499 7.34855 44.8063 7.36532 44.7657C7.38208 44.725 7.4067 44.688 7.43775 44.6568C7.46881 44.6257 7.50541 44.6011 7.54603 44.5842ZM3.79596 42.9144C4.03169 42.7741 4.28794 42.6983 4.54403 42.6819C4.4683 42.8511 4.44084 43.038 4.46471 43.2218C4.48857 43.4057 4.56281 43.5793 4.67923 43.7236C4.79565 43.8678 4.94971 43.9771 5.12436 44.0392C5.29901 44.1014 5.48745 44.114 5.66883 44.0757L5.7999 44.0484C5.84991 44.0378 5.90168 44.0388 5.95123 44.0514C6.00078 44.0639 6.04681 44.0876 6.08579 44.1207L6.18769 44.2073C6.32229 44.3221 6.48093 44.3961 6.64627 44.4283L6.94851 44.936C7.17572 45.3177 7.24201 45.774 7.13278 46.2046C7.02355 46.6351 6.74775 47.0046 6.36607 47.2319C5.98438 47.4591 5.52807 47.5253 5.09752 47.4161C4.66696 47.3069 4.29743 47.0311 4.07022 46.6494L3.21352 45.2103C2.98631 44.8286 2.92002 44.3723 3.02925 43.9417C3.13848 43.5112 3.41427 43.1416 3.79596 42.9144ZM5.63942 41.4272C5.69327 41.3951 5.75503 41.3788 5.81768 41.3801C5.88033 41.3814 5.94137 41.4003 5.99384 41.4345L6.02771 41.46L6.12989 41.5465C6.23829 41.6388 6.36505 41.7069 6.50178 41.7465C6.63851 41.7861 6.78209 41.7961 6.92301 41.7761L6.98825 41.7645L7.11915 41.7369C7.18397 41.7232 7.2514 41.729 7.3129 41.7536C7.37441 41.7783 7.42722 41.8206 7.46468 41.8752C7.50213 41.9299 7.52254 41.9944 7.52332 42.0607C7.5241 42.1269 7.50522 42.1919 7.46907 42.2474L7.44333 42.2814L7.3568 42.3836C7.26455 42.492 7.19638 42.6188 7.15681 42.7555C7.11723 42.8922 7.10716 43.0358 7.12725 43.1767L7.1388 43.242L7.16644 43.3729C7.18009 43.4377 7.17421 43.5051 7.14955 43.5666C7.12488 43.6281 7.08254 43.6809 7.02788 43.7183C6.97322 43.7557 6.90868 43.7761 6.84244 43.7769C6.7762 43.7776 6.71122 43.7587 6.65573 43.7225L6.62186 43.6971L6.51968 43.6105C6.41128 43.5183 6.28452 43.4501 6.14779 43.4105C6.01106 43.371 5.86748 43.3609 5.72656 43.381L5.66132 43.3925L5.53042 43.4202C5.4656 43.4339 5.39817 43.428 5.33667 43.4034C5.27516 43.3788 5.22235 43.3365 5.18489 43.2818C5.14744 43.2272 5.12703 43.1626 5.12625 43.0964C5.12546 43.0301 5.14435 42.9651 5.1805 42.9096L5.20624 42.8756L5.29277 42.7734C5.38502 42.665 5.45319 42.5382 5.49276 42.4015C5.53234 42.2648 5.54241 42.1212 5.52232 41.9803L5.51077 41.9151L5.48313 41.7842C5.4687 41.7158 5.47601 41.6446 5.50403 41.5806C5.53206 41.5166 5.5794 41.463 5.63942 41.4272Z" fill="var(--fill-0, white)" fill-opacity="0.23" id="Vector_5"/>
</g>
</g>
<g clip-path="url(#clip2_0_4826)" id="mingcute:file-ai-line">
<g id="Group_2">
<g id="Vector_6">
</g>
<path d="M98.7479 42.6436C98.5952 42.5528 98.4127 42.5263 98.2405 42.57L96.2137 43.0842C96.0415 43.1278 95.8937 43.2381 95.8028 43.3908L93.8176 46.7255C93.7268 46.8782 93.7002 47.0607 93.7439 47.233C93.7876 47.4052 93.8979 47.553 94.0506 47.6439L97.5046 49.7C97.6572 49.7909 97.8398 49.8174 98.012 49.7737C98.1842 49.73 98.332 49.6197 98.4229 49.467L99.7936 47.1644C99.8391 47.088 99.8523 46.9968 99.8305 46.9107C99.8086 46.8245 99.7535 46.7506 99.6771 46.7052C99.6008 46.6597 99.5095 46.6465 99.4234 46.6683C99.3373 46.6902 99.2634 46.7453 99.218 46.8217L97.8473 49.1243L94.3933 47.0682L96.1067 44.1899L97.4019 44.961C97.5164 45.0291 97.6533 45.049 97.7825 45.0162C97.9117 44.9835 98.0225 44.9007 98.0907 44.7862L98.8617 43.491L99.1496 43.6623C99.2259 43.7078 99.3172 43.721 99.4033 43.6992C99.4894 43.6774 99.5633 43.6222 99.6087 43.5459C99.6542 43.4695 99.6674 43.3783 99.6456 43.2921C99.6237 43.206 99.5686 43.1321 99.4922 43.0867L98.7479 42.6436ZM101.391 43.8269C101.331 43.7912 101.261 43.7751 101.191 43.781C101.122 43.7869 101.055 43.8144 101.002 43.8597L100.9 43.9462C100.663 44.1478 100.346 44.2285 100.041 44.164L99.9108 44.1366C99.8425 44.1222 99.7714 44.1296 99.7074 44.1577C99.6435 44.1857 99.5899 44.2331 99.5542 44.2931C99.5185 44.3531 99.5024 44.4227 99.5082 44.4923C99.5141 44.5619 99.5415 44.6279 99.5866 44.6811L99.6732 44.7833C99.8748 45.0203 99.9554 45.3373 99.891 45.642L99.8635 45.7726C99.8492 45.8409 99.8566 45.912 99.8846 45.976C99.9127 46.0399 99.96 46.0935 100.02 46.1292C100.08 46.1649 100.15 46.181 100.219 46.1752C100.289 46.1694 100.355 46.1419 100.408 46.0968L100.51 46.0102C100.627 45.9107 100.765 45.8394 100.914 45.8016C101.063 45.7638 101.219 45.7607 101.369 45.7924L101.5 45.8199C101.568 45.8342 101.639 45.8268 101.703 45.7988C101.767 45.7707 101.82 45.7234 101.856 45.6634C101.892 45.6034 101.908 45.5337 101.902 45.4641C101.896 45.3946 101.869 45.3285 101.824 45.2753L101.737 45.1731C101.536 44.9362 101.455 44.6192 101.519 44.3145L101.554 44.1312C101.557 44.0704 101.543 44.01 101.515 43.9564C101.486 43.9027 101.443 43.858 101.391 43.8269ZM97.6007 44.2996L96.5686 43.6852L98.2151 43.2675L97.6007 44.2996ZM100.843 44.7468C100.86 44.873 100.891 44.9969 100.937 45.116C100.81 45.1328 100.687 45.1639 100.568 45.2093C100.55 45.0829 100.519 44.96 100.474 44.8406C100.6 44.8235 100.724 44.792 100.843 44.7468Z" fill="var(--fill-0, white)" fill-opacity="0.23" id="Vector_7"/>
</g>
</g>
<g clip-path="url(#clip3_0_4826)" id="si:ai-search-line">
<path d="M77.5357 23.1059L80.1149 22.4516M80.7502 19.5453C80.2396 20.4028 80.0907 21.4281 80.3361 22.3955C80.5816 23.3629 81.2012 24.1931 82.0588 24.7037C82.9164 25.2142 83.9416 25.3631 84.909 25.1177C85.8764 24.8722 86.7067 24.2526 87.2172 23.395C87.7277 22.5374 87.8766 21.5122 87.6312 20.5448C87.3858 19.5774 86.7661 18.7471 85.9085 18.2366C85.051 17.7261 84.0257 17.5772 83.0583 17.8226C82.0909 18.068 81.2607 18.6877 80.7502 19.5453ZM84.5972 20.6179L84.3867 21.3181C84.3819 21.3344 84.3815 21.3517 84.3857 21.3681C84.3899 21.3846 84.3984 21.3996 84.4105 21.4116L84.9293 21.9268C84.9989 21.9956 84.9296 22.1121 84.8359 22.0837L84.1357 21.8732C84.1194 21.8683 84.1021 21.868 84.0857 21.8722C84.0692 21.8763 84.0542 21.8849 84.0422 21.8969L83.527 22.4157C83.4582 22.4853 83.3418 22.4161 83.3701 22.3224L83.5806 21.6221C83.5855 21.6059 83.5858 21.5886 83.5816 21.5721C83.5775 21.5557 83.5689 21.5406 83.5569 21.5287L83.0381 21.0134C82.9685 20.9446 83.0378 20.8282 83.1314 20.8566L83.8317 21.0671C83.8479 21.0719 83.8652 21.0723 83.8817 21.0681C83.8981 21.0639 83.9132 21.0554 83.9252 21.0433L84.4404 20.5245C84.5092 20.4549 84.6256 20.5242 84.5972 20.6179Z" id="Vector_8" stroke="var(--stroke-0, white)" stroke-linecap="round" stroke-linejoin="round" stroke-miterlimit="10" stroke-opacity="0.5" stroke-width="0.705577"/>
</g>
</g>
<defs>
<clipPath id="clip0_0_4826">
<rect fill="white" height="11.2892" transform="translate(12.5685 19.6711) rotate(-30.7648)" width="11.2892"/>
</clipPath>
<clipPath id="clip1_0_4826">
<rect fill="white" height="8.03922" transform="translate(0 44.3951) rotate(-30.7648)" width="8.03922"/>
</clipPath>
<clipPath id="clip2_0_4826">
<rect fill="white" height="8.03922" transform="matrix(-0.859275 -0.511514 -0.511514 0.859275 103 44.3951)" width="8.03922"/>
</clipPath>
<clipPath id="clip3_0_4826">
<rect fill="white" height="11.2892" transform="matrix(-0.859275 -0.511514 -0.511514 0.859275 91.0762 19.6711)" width="11.2892"/>
</clipPath>
</defs>
</svg>