<?xml version="1.0" encoding="utf-8"?>
<svg xmlns="http://www.w3.org/2000/svg" fill="none" height="100%" overflow="visible" preserveAspectRatio="none" style="display: block;" viewBox="0 0 24 24" width="100%">
<g id="majesticons:clock" opacity="0.8">
<path clip-rule="evenodd" d="M2 11.5C2 5.977 6.477 1.5 12 1.5C17.523 1.5 22 5.977 22 11.5C22 17.023 17.523 21.5 12 21.5C6.477 21.5 2 17.023 2 11.5ZM13 6.5C13 6.23478 12.8946 5.98043 12.7071 5.79289C12.5196 5.60536 12.2652 5.5 12 5.5C11.7348 5.5 11.4804 5.60536 11.2929 5.79289C11.1054 5.98043 11 6.23478 11 6.5V10.264C11 10.8211 11.1551 11.3671 11.448 11.841C11.7408 12.3148 12.1598 12.6978 12.658 12.947L15.553 14.394C15.6709 14.4576 15.8003 14.4968 15.9337 14.5094C16.067 14.522 16.2015 14.5077 16.3292 14.4673C16.4569 14.4269 16.5751 14.3613 16.677 14.2743C16.7788 14.1874 16.8622 14.0808 16.9221 13.961C16.982 13.8412 17.0172 13.7107 17.0256 13.577C17.0341 13.4433 17.0156 13.3094 16.9713 13.183C16.927 13.0566 16.8578 12.9404 16.7677 12.8413C16.6776 12.7422 16.5686 12.6622 16.447 12.606L13.553 11.158C13.3869 11.075 13.2472 10.9474 13.1496 10.7895C13.0519 10.6316 13.0001 10.4497 13 10.264V6.5Z" fill="var(--fill-0, white)" fill-rule="evenodd" id="Vector"/>
</g>
</svg>