<?xml version="1.0" encoding="utf-8"?>
<svg xmlns="http://www.w3.org/2000/svg" fill="none" height="100%" overflow="visible" preserveAspectRatio="none" style="display: block;" viewBox="0 0 63 63" width="100%">
<g id="Frame 35985">
<circle cx="31.5" cy="31.5" fill="var(--fill-0, white)" id="Ellipse 787" r="31.5"/>
<g clip-path="url(#clip0_0_7550)" id="fluent-mdl2:health-solid">
<path d="M38.0937 20.6247C39.0501 20.6247 39.9473 20.8024 40.7852 21.1579C41.623 21.5133 42.3509 22.0042 42.9687 22.6305C43.5866 23.2568 44.0775 23.9889 44.4414 24.8268C44.8053 25.6647 44.9873 26.5618 44.9873 27.5182C44.9873 28.0091 44.9365 28.4957 44.835 28.9782C44.7334 29.4606 44.5811 29.9261 44.3779 30.3747H38.5L36.0625 27.8356L32 31.8981L26.3125 26.2106L22.25 30.3747H19.6221C19.4189 29.9261 19.2666 29.4606 19.165 28.9782C19.0635 28.4957 19.0127 28.0091 19.0127 27.5182C19.0127 26.5618 19.1904 25.6647 19.5459 24.8268C19.9014 23.9889 20.3922 23.261 21.0186 22.6432C21.6449 22.0254 22.3769 21.5345 23.2148 21.1705C24.0527 20.8066 24.9499 20.6247 25.9062 20.6247C26.8288 20.6247 27.709 20.7982 28.5469 21.1452C29.3848 21.4922 30.1338 21.9915 30.7939 22.6432L32 23.862L33.2061 22.6432C33.8577 21.9915 34.6025 21.4922 35.4404 21.1452C36.2783 20.7982 37.1628 20.6247 38.0937 20.6247ZM36.875 31.9997H43.3496L43.1719 32.2028C43.1126 32.2705 43.0491 32.3424 42.9814 32.4186L32 43.3873L21.0186 32.4186C20.9508 32.3509 20.8874 32.2832 20.8281 32.2155C20.7689 32.1478 20.7096 32.0758 20.6504 31.9997H23.875L26.3125 29.6637L32 35.3512L36.0625 31.2887L36.875 31.9997Z" fill="var(--fill-0, #FF853C)" id="Vector"/>
</g>
</g>
<defs>
<clipPath id="clip0_0_7550">
<rect fill="white" height="26" transform="translate(19.0004 19.0001)" width="26"/>
</clipPath>
</defs>
</svg>