<?xml version="1.0" encoding="utf-8"?>
<svg xmlns="http://www.w3.org/2000/svg" fill="none" height="100%" overflow="visible" preserveAspectRatio="none" style="display: block;" viewBox="0 0 60.2733 66.9137" width="100%">
<g id="Plants">
<path d="M49.9804 36.4742C49.9804 36.4742 49.1742 18.2862 39.2095 7.7087C29.2447 -2.86876 17.9739 -0.20827 14.0235 2.06524C10.0731 4.33875 7.68669 10.3692 14.862 14.2229C22.0372 18.0765 37.2907 25.7517 40.1447 33.1527L49.9804 36.4742Z" fill="var(--fill-0, #37474F)" id="Vector"/>
<path d="M18.3932 3.87115C24.5365 5.33845 42.4182 14.1261 45.3528 32.2981" id="Vector_2" stroke="var(--stroke-0, white)" stroke-linecap="round" stroke-miterlimit="10" stroke-width="0.996699"/>
<path d="M45.3526 32.2981C44.4981 27.735 39.9188 24.8004 32.3404 26.4773C24.7621 28.1542 25.8908 27.8962 16.3452 25.9936C6.79973 24.0909 0.511302 28.2993 0.0275767 31.9434C-0.520645 35.9099 7.23508 37.2321 13.0882 39.4895C18.9412 41.7469 23.0529 44.7944 21.9565 50.0186C21.0213 54.485 21.9565 58.1774 28.8415 59.4351C34.9526 60.5477 41.2249 56.7101 44.0144 62.3697C44.6075 63.416 45.405 64.3323 46.3596 65.0639C47.3141 65.7956 48.4061 66.3277 49.5706 66.6286C50.735 66.9295 51.9481 66.993 53.1376 66.8153C54.3271 66.6377 55.4687 66.2225 56.4945 65.5945C69.3293 50.8893 45.3526 32.2981 45.3526 32.2981Z" fill="var(--fill-0, #455A64)" id="Vector_3"/>
<path d="M28.8418 50.3089C32.7035 46.7427 37.5234 44.3832 42.7086 43.5207" id="Vector_4" stroke="var(--stroke-0, white)" stroke-linecap="round" stroke-miterlimit="10" stroke-width="0.996699"/>
<path d="M6.83223 29.5893C16.7002 29.7828 46.0462 40.0217 54.2051 55.6782" id="Vector_5" stroke="var(--stroke-0, white)" stroke-linecap="round" stroke-miterlimit="10" stroke-width="0.996699"/>
</g>
</svg>