<?xml version="1.0" encoding="utf-8"?>
<svg xmlns="http://www.w3.org/2000/svg" fill="none" height="100%" overflow="visible" preserveAspectRatio="none" style="display: block;" viewBox="0 0 81.8001 81.8001" width="100%">
<g id="Frame 323" opacity="0.7">
<rect fill="var(--fill-0, white)" height="81.8001" rx="40.9001" width="81.8001"/>
<g id="MySQL 1">
<g clip-path="url(#clip0_0_14637)" id="Azure 1">
<path d="M47.3895 23.2423H36.6544L47.7983 56.8396C47.9127 57.185 48.1307 57.4851 48.4217 57.6976C48.7126 57.9102 49.0618 58.0245 49.4199 58.0244H57.7742C58.0456 58.0244 58.313 57.9586 58.5544 57.8326C58.7958 57.7066 59.0043 57.524 59.1627 57.2998C59.321 57.0756 59.4245 56.8162 59.4647 56.5432C59.5049 56.2701 59.4806 55.9913 59.3938 55.7297L49.0112 24.4269C48.8967 24.0816 48.6787 23.7815 48.3877 23.5689C48.0968 23.3563 47.7477 23.2419 47.3895 23.2418V23.2423Z" fill="url(#paint0_linear_0_14637)" id="Vector"/>
<path d="M31.79 45.7772H48.8132C48.9714 45.7769 49.1262 45.8251 49.2571 45.9156C49.3881 46.0061 49.4892 46.1346 49.5473 46.2845C49.6054 46.4343 49.6177 46.5985 49.5827 46.7556C49.5478 46.9127 49.4671 47.0554 49.3512 47.1651L38.4126 57.5542C38.0941 57.8565 37.6747 58.0246 37.2392 58.0245H27.6L31.79 45.7772Z" fill="var(--fill-0, #0078D4)" id="Vector_2"/>
<path d="M47.3895 23.2423C47.7516 23.2409 48.1046 23.3574 48.3971 23.5747C48.6895 23.7919 48.906 24.0986 49.0149 24.45L59.3809 55.7012C59.4734 55.9638 59.5025 56.2451 59.4656 56.5215C59.4286 56.7978 59.3269 57.0611 59.1688 57.289C59.0108 57.5169 58.8012 57.7027 58.5576 57.8307C58.3141 57.9587 58.0439 58.0252 57.7698 58.0244H49.1996C48.8804 57.9664 48.5821 57.8232 48.3351 57.6095C48.0881 57.3958 47.9013 57.1192 47.7938 56.8079L45.7267 50.6088L38.3426 57.6166C38.0332 57.8771 37.6451 58.0211 37.2436 58.0244H27.6402L31.8522 45.7771L44.1303 45.78L36.6156 23.2423H47.3895Z" fill="url(#paint1_linear_0_14637)" id="Vector_3"/>
<path d="M33.6781 24.4253C33.7924 24.0804 34.0102 23.7808 34.3008 23.5686C34.5913 23.3563 34.94 23.2422 35.2977 23.2423H47.2616C46.904 23.2424 46.5554 23.3565 46.2649 23.5687C45.9744 23.781 45.7566 24.0805 45.6423 24.4253L35.2594 55.7294C35.1725 55.991 35.1481 56.27 35.1882 56.5431C35.2283 56.8163 35.3317 57.0758 35.49 57.3001C35.6483 57.5245 35.8568 57.7073 36.0983 57.8333C36.3398 57.9594 36.6073 58.0251 36.8787 58.025H24.9143C24.643 58.0248 24.3756 57.9589 24.1343 57.8328C23.8929 57.7066 23.6845 57.5239 23.5264 57.2996C23.3682 57.0753 23.2647 56.8159 23.2245 56.5429C23.1843 56.2699 23.2086 55.991 23.2952 55.7294L33.6781 24.4253Z" fill="url(#paint2_linear_0_14637)" id="Vector_4"/>
</g>
</g>
</g>
<defs>
<linearGradient gradientUnits="userSpaceOnUse" id="paint0_linear_0_14637" x1="43.4768" x2="54.9781" y1="25.8198" y2="59.2113">
<stop stop-color="#114A8B"/>
<stop offset="1" stop-color="#0669BC"/>
</linearGradient>
<linearGradient gradientUnits="userSpaceOnUse" id="paint1_linear_0_14637" x1="39.9944" x2="42.5821" y1="41.4378" y2="42.2976">
<stop stop-opacity="0.3"/>
<stop offset="0.071" stop-opacity="0.2"/>
<stop offset="0.321" stop-opacity="0.1"/>
<stop offset="0.623" stop-opacity="0.05"/>
<stop offset="1" stop-opacity="0"/>
</linearGradient>
<linearGradient gradientUnits="userSpaceOnUse" id="paint2_linear_0_14637" x1="41.4126" x2="28.7968" y1="24.8423" y2="57.8734">
<stop stop-color="#3CCBF4"/>
<stop offset="1" stop-color="#2892DF"/>
</linearGradient>
<clipPath id="clip0_0_14637">
<rect fill="white" height="37.3939" transform="matrix(-1 0 0 1 59.7193 21.9365)" width="36.7492"/>
</clipPath>
</defs>
</svg>