<?xml version="1.0" encoding="utf-8"?>
<svg xmlns="http://www.w3.org/2000/svg" fill="none" height="100%" overflow="visible" preserveAspectRatio="none" style="display: block;" viewBox="0 0 33 34" width="100%">
<g clip-path="url(#clip0_0_4514)" id="proicons:arrow-up">
<g id="7269995 1 [Vectorized]">
<path d="M2.76447 27.1669C2.73417 26.6033 2.98068 25.9693 3.42995 25.6337C3.63278 25.4822 3.83289 25.3758 4.04759 25.2451L5.35138 24.466C5.80796 24.1934 6.25782 23.9226 6.71982 23.6543C7.19392 23.3825 7.68269 23.0334 8.18898 22.8325C8.71556 22.6236 9.45188 22.8683 9.8405 23.2619C10.1024 23.5271 10.3035 23.9195 10.4927 24.2443L11.3481 25.6828C11.4635 25.8739 11.6178 26.1634 11.7413 26.3311L11.7573 26.3526C12.3481 26.251 12.9602 26.051 13.5345 25.835C16.6826 24.6508 19.8573 22.7439 22.3585 20.4426C22.5633 20.2543 23.095 19.7563 23.194 19.5446C23.1771 19.3311 22.7382 18.5925 22.6209 18.3756L21.8075 16.8366C21.3792 16.0332 21.4415 15.1176 22.1565 14.5066C22.5483 14.1717 23.1208 13.9096 23.5645 13.637C24.5646 13.0226 25.5861 12.4392 26.5915 11.8336C26.9839 11.5974 27.504 11.5629 27.9355 11.6879C28.8719 11.9591 29.1154 12.9972 29.5159 13.7913C29.6982 14.1411 29.8427 14.5339 30.017 14.8905C30.4517 15.7796 30.8319 16.6952 31.2708 17.5823C31.0501 18.3249 30.7194 19.2058 30.3198 19.8694C27.9562 23.7939 23.7821 26.9469 19.9206 29.156C16.3204 31.2156 10.2275 33.7365 6.10192 32.5374C5.93631 32.3563 5.78669 32.0755 5.64675 31.8733C5.42424 31.5518 5.21385 31.2217 4.99595 30.8978L3.59544 28.8107C3.3806 28.4866 3.1462 28.142 2.94717 27.8085C2.85034 27.6462 2.79306 27.3518 2.76447 27.1669Z" fill="var(--fill-0, white)" id="Vector"/>
<path d="M8.4414 1.24268C8.4408 1.19803 8.43256 1.21683 8.46256 1.18373C8.54746 1.16512 8.6344 1.16473 8.72124 1.16434C9.8137 1.15984 10.9074 1.1616 11.9998 1.1616L18.2052 1.16258L21.3906 1.16238C21.8637 1.1616 22.3374 1.15768 22.8104 1.16179C23.2071 1.16532 23.528 1.22467 23.8211 1.51394C24.3085 1.99495 24.227 2.68925 24.2262 3.32264L24.2243 5.05123L24.2319 11.4115C23.8795 11.5739 23.3178 11.9458 22.9724 12.1525L22.0183 12.7173C21.7518 12.8744 21.4317 13.0538 21.1948 13.2528C20.5249 13.816 20.1027 14.633 20.0233 15.5201C19.9187 16.6474 20.3124 17.3532 20.8253 18.2834C20.9901 18.5821 21.152 18.9815 21.36 19.2416C21.2832 19.2955 21.2189 19.3529 21.1515 19.4186C20.1103 20.4342 18.9226 21.183 17.7294 21.9809C17.3394 22.2591 16.8714 22.4895 16.4572 22.7305C15.184 23.4712 13.8667 24.0366 12.4882 24.5359C11.9768 23.8312 11.6201 23.0191 11.0881 22.2912C11.2035 22.0826 11.4112 21.7919 11.5488 21.5857C11.8238 21.1647 12.102 20.7459 12.3832 20.3293L15.4536 15.7139C15.8122 15.1689 16.2506 14.5893 16.5309 14.0076C16.739 13.5755 16.1401 12.8612 15.8976 12.5052L15.0052 11.1679L10.7978 4.83286L9.34138 2.65106C9.14265 2.35571 8.59621 1.57034 8.45359 1.26873L8.4414 1.24268Z" fill="var(--fill-0, white)" id="Vector_2"/>
<path d="M7.40209 21.4157C7.38639 20.3097 7.39749 19.1782 7.39742 18.0709L7.39721 12.0792L7.3973 6.25494C7.39257 5.02675 7.39605 3.79856 7.40774 2.57056C7.58677 2.78776 7.92394 3.31049 8.08319 3.55316L8.8145 4.65463C9.37934 5.51795 9.97826 6.37382 10.5329 7.24263L13.3735 11.5075L14.2683 12.8565C14.4722 13.1621 14.6834 13.4537 14.8715 13.7712C14.7437 13.9901 14.5288 14.2914 14.3826 14.5095L13.5713 15.7316L11.1931 19.3041C10.9007 19.7372 10.6112 20.1957 10.3145 20.6274C10.1993 20.7951 9.93593 21.2426 9.81739 21.3693C9.66999 21.3671 9.43665 21.2884 9.28644 21.2577C8.76492 21.1511 8.25125 21.1941 7.73688 21.3142C7.62657 21.3399 7.50877 21.4138 7.40209 21.4157Z" fill="var(--fill-0, white)" id="Vector_3"/>
</g>
</g>
<defs>
<clipPath id="clip0_0_4514">
<rect fill="white" height="34" width="33"/>
</clipPath>
</defs>
</svg>