<?xml version="1.0" encoding="utf-8"?>
<svg xmlns="http://www.w3.org/2000/svg" fill="none" height="100%" overflow="visible" preserveAspectRatio="none" style="display: block;" viewBox="0 0 22 22" width="100%">
<g clip-path="url(#clip0_0_4552)" id="ix:light-dark">
<path clip-rule="evenodd" d="M11.916 17.417V21.0836H10.0827V17.417H11.916ZM16.1848 14.8894L18.7775 17.4821L17.4812 18.7785L14.8884 16.1858L16.1848 14.8894ZM5.81389 14.8894L7.11026 16.1858L4.51753 18.7785L3.22116 17.4821L5.81389 14.8894ZM10.9994 5.98816C13.7675 5.98816 16.0115 8.23216 16.0115 11.0003C16.0115 13.7685 13.7675 16.0125 10.9994 16.0125C10.3408 16.0138 9.68847 15.885 9.0798 15.6335C8.47113 15.3821 7.91809 15.0129 7.45241 14.5473C6.98674 14.0816 6.61759 13.5286 6.36614 12.9199C6.11469 12.3112 5.9859 11.6589 5.98714 11.0003C5.98714 8.23216 8.23119 5.98816 10.9994 5.98816ZM10.9994 7.82147C9.2437 7.82147 7.82049 9.24472 7.82049 11.0038C7.8197 11.421 7.90129 11.8343 8.06058 12.2199C8.21987 12.6055 8.45373 12.9559 8.74875 13.2509C9.34459 13.8468 10.1532 14.1808 10.9994 14.1792V7.82147ZM21.0827 10.0836V11.917H17.416V10.0836H21.0827ZM4.58267 10.0836V11.917H0.916016V10.0836H4.58267ZM4.51753 3.22214L7.11026 5.81487L5.81389 7.11124L3.22116 4.5185L4.51753 3.22214ZM17.4812 3.22214L18.7775 4.5185L16.1848 7.11124L14.8884 5.81487L17.4812 3.22214ZM11.916 0.916992V4.58364H10.0826V0.916992H11.916Z" fill="var(--fill-0, white)" fill-rule="evenodd" id="Vector"/>
</g>
<defs>
<clipPath id="clip0_0_4552">
<rect fill="white" height="22" width="22"/>
</clipPath>
</defs>
</svg>