<?xml version="1.0" encoding="utf-8"?>
<svg xmlns="http://www.w3.org/2000/svg" fill="none" height="100%" overflow="visible" preserveAspectRatio="none" style="display: block;" viewBox="0 0 24 24" width="100%">
<g id="basil:calendar-outline" opacity="0.8">
<path clip-rule="evenodd" d="M6.99912 3.25C7.19803 3.25 7.3888 3.32902 7.52945 3.46967C7.67011 3.61032 7.74912 3.80109 7.74912 4V5.668C10.5769 5.41664 13.4214 5.41664 16.2491 5.668V4C16.2491 3.80109 16.3281 3.61032 16.4688 3.46967C16.6094 3.32902 16.8002 3.25 16.9991 3.25C17.198 3.25 17.3888 3.32902 17.5295 3.46967C17.6701 3.61032 17.7491 3.80109 17.7491 4V5.816C18.4787 5.91945 19.1543 6.25882 19.6729 6.78228C20.1915 7.30573 20.5245 7.98452 20.6211 8.715L20.7081 9.368C21.0721 12.114 21.0401 14.898 20.6141 17.636C20.5114 18.2951 20.1927 18.9015 19.7079 19.3598C19.2232 19.8181 18.6 20.1024 17.9361 20.168L16.7431 20.286C13.5881 20.5967 10.4102 20.5967 7.25512 20.286L6.06212 20.168C5.39827 20.1024 4.77503 19.8181 4.2903 19.3598C3.80557 18.9015 3.48682 18.2951 3.38412 17.636C2.95804 14.8986 2.92638 12.1143 3.29012 9.368L3.37712 8.715C3.47375 7.98452 3.80677 7.30573 4.32536 6.78228C4.84394 6.25882 5.51958 5.91945 6.24912 5.816V4C6.24912 3.80109 6.32814 3.61032 6.46879 3.46967C6.60944 3.32902 6.80021 3.25 6.99912 3.25ZM7.44412 7.203C10.4741 6.904 13.5241 6.904 16.5541 7.203L17.4591 7.293C18.3261 7.378 19.0191 8.049 19.1341 8.912L19.2211 9.565C19.2511 9.793 19.2785 10.0213 19.3031 10.25H4.69512C4.71979 10.0213 4.74712 9.793 4.77712 9.565L4.86412 8.912C4.91962 8.49261 5.11531 8.10431 5.41941 7.8102C5.7235 7.5161 6.11811 7.33347 6.53912 7.292L7.44412 7.203ZM4.57612 11.75C4.47795 13.64 4.57513 15.535 4.86612 17.405C4.91766 17.7356 5.07752 18.0396 5.3206 18.2695C5.56367 18.4994 5.87621 18.642 6.20912 18.675L7.40212 18.793C10.4591 19.095 13.5391 19.095 16.5961 18.793L17.7891 18.675C18.122 18.642 18.4346 18.4994 18.6776 18.2695C18.9207 18.0396 19.0806 17.7356 19.1321 17.405C19.4241 15.533 19.5201 13.638 19.4221 11.75H4.57612Z" fill="var(--fill-0, white)" fill-rule="evenodd" id="Vector"/>
</g>
</svg>