<?xml version="1.0" encoding="utf-8"?>
<svg xmlns="http://www.w3.org/2000/svg" fill="none" height="100%" overflow="visible" preserveAspectRatio="none" style="display: block;" viewBox="0 0 81.8001 81.8001" width="100%">
<g id="Frame 302" opacity="0.7">
<rect fill="var(--fill-0, white)" height="81.8001" rx="40.9001" width="81.8001"/>
<g clip-path="url(#clip0_0_8079)" id="llamaindex-color 1">
<path d="M47.8991 50.2868C44.1509 51.9808 40.091 51.286 38.5286 50.7268C38.5286 51.1118 38.5107 52.298 38.4426 53.9902C38.3746 55.6842 37.8478 56.753 37.5916 57.0775C37.6203 58.1353 37.6436 60.4453 37.5074 61.2208C37.3768 61.8481 37.082 62.4273 36.6546 62.8965H34.3541C34.5583 61.8387 35.3484 61.1622 35.7175 60.9568C35.9218 58.7697 35.5204 56.8703 35.2911 56.1957C35.0654 57.0188 34.5081 58.9273 34.0996 59.987C33.7651 60.8286 33.3364 61.6278 32.8222 62.3685H31.1183C31.0323 61.3088 31.6021 60.9568 31.9694 60.9568C32.1396 60.6323 32.5481 59.6167 32.8222 58.1335C33.0945 56.654 32.7075 53.8728 32.4818 52.6683V48.877C29.7549 47.3773 28.7336 45.8777 28.051 44.202C27.5063 42.8637 27.6532 40.8232 27.7966 39.9707C27.6246 39.648 27.1283 38.8248 26.9437 37.679C26.6893 36.0913 26.8309 34.9455 26.9437 34.3277C26.7735 34.1517 26.4331 33.2515 26.4331 31.0643C26.4331 28.879 27.0584 27.7442 27.3701 27.449V26.4792C26.1769 26.3912 24.9854 25.8632 24.3028 25.1573C23.622 24.4515 24.1326 23.3937 24.559 23.0417C24.9854 22.6878 25.4101 22.9518 26.0067 22.7758C26.6033 22.5998 27.1139 22.4238 27.3684 21.8958C27.5762 21.4687 27.1731 19.7178 26.9455 18.8965C27.9668 19.0377 28.6207 19.9543 28.8196 20.3962V18.8965C30.0971 19.5143 32.3976 21.0122 33.1644 24.2755C33.7771 26.8862 34.2143 32.3587 34.3559 34.7677C37.6221 34.797 41.768 34.291 45.5161 35.1215C48.9221 35.8768 50.4558 37.4132 52.2439 37.4132C54.0337 37.4132 55.0568 36.3553 56.3324 37.2372C57.6117 38.119 58.2925 40.5885 58.1223 42.4402C57.9861 43.9215 56.8735 44.4092 56.3342 44.4678C55.6534 46.7962 56.3342 49.0237 56.7589 49.8468V53.1963C56.9577 53.4897 57.3555 54.3972 57.3555 55.6658C57.3555 56.9363 56.9577 57.7815 56.7589 58.0473C57.0993 60.0218 56.6155 62.044 56.3324 62.8085H54.0337C54.3061 62.1027 54.7719 61.9267 54.9708 61.9267C55.3793 59.7395 55.0836 57.7228 54.8848 56.9895C53.5912 56.2122 52.7563 54.8445 52.5001 54.256C52.5287 54.7547 52.4481 56.1425 51.9034 57.6935C51.3588 59.2463 50.5418 60.163 50.2014 60.427V62.2787H47.9009C47.9009 61.1512 48.5244 60.9275 48.8379 60.9568C49.2356 60.2235 50.1996 59.1052 50.1996 56.9015C50.1996 55.0407 48.9221 54.1662 47.9851 52.4923C47.5407 51.6967 47.7575 50.6993 47.9009 50.2868H47.8991Z" fill="url(#paint0_linear_0_8079)" id="Vector"/>
</g>
</g>
<defs>
<linearGradient gradientUnits="userSpaceOnUse" id="paint0_linear_0_8079" x1="26.6965" x2="64.2874" y1="22.5998" y2="53.3867">
<stop offset="0.062" stop-color="#F6DCD9"/>
<stop offset="0.326" stop-color="#FFA5EA"/>
<stop offset="0.589" stop-color="#45DFF8"/>
<stop offset="1" stop-color="#BC8DEB"/>
</linearGradient>
<clipPath id="clip0_0_8079">
<rect fill="white" height="44" transform="translate(19.4922 18.8965)" width="43"/>
</clipPath>
</defs>
</svg>