<?xml version="1.0" encoding="utf-8"?>
<svg xmlns="http://www.w3.org/2000/svg" fill="none" height="100%" overflow="visible" preserveAspectRatio="none" style="display: block;" viewBox="0 0 36 36" width="100%">
<g id="solar:arrow-up-outline">
<path clip-rule="evenodd" d="M15.0634 7.9968C15.2238 7.82922 15.4411 7.73509 15.6677 7.73509C15.8942 7.73509 16.1116 7.82922 16.2719 7.9968L23.1121 15.156C23.1961 15.2379 23.2635 15.3367 23.3102 15.4465C23.357 15.5563 23.3821 15.6748 23.3841 15.7949C23.3862 15.9151 23.365 16.0345 23.322 16.1459C23.279 16.2573 23.215 16.3585 23.1338 16.4435C23.0526 16.5285 22.9559 16.5955 22.8495 16.6405C22.743 16.6855 22.629 16.7076 22.5142 16.7055C22.3993 16.7034 22.2861 16.6771 22.1812 16.6282C22.0764 16.5792 21.982 16.5087 21.9037 16.4208L16.5227 10.7889L16.5227 27.7204C16.5227 27.9578 16.4326 28.1854 16.2723 28.3532C16.1119 28.521 15.8944 28.6153 15.6677 28.6153C15.4409 28.6153 15.2234 28.521 15.0631 28.3532C14.9027 28.1854 14.8126 27.9578 14.8126 27.7204L14.8126 10.7889L9.43163 16.4208C9.35336 16.5087 9.25896 16.5792 9.15408 16.6282C9.04919 16.6771 8.93597 16.7034 8.82117 16.7055C8.70636 16.7076 8.59232 16.6855 8.48586 16.6405C8.37939 16.5955 8.28268 16.5285 8.20149 16.4435C8.12029 16.3585 8.05629 16.2573 8.01328 16.1459C7.97028 16.0345 7.94916 15.9151 7.95119 15.7949C7.95321 15.6748 7.97834 15.5563 8.02507 15.4465C8.07181 15.3367 8.13918 15.2379 8.22319 15.156L15.0634 7.9968Z" fill="var(--fill-0, white)" fill-rule="evenodd" id="Vector"/>
</g>
</svg>