<?xml version="1.0" encoding="utf-8"?>
<svg xmlns="http://www.w3.org/2000/svg" fill="none" height="100%" overflow="visible" preserveAspectRatio="none" style="display: block;" viewBox="0 0 61.0381 35.2482" width="100%">
<path d="M26.875 1.82341C27.9104 1.79543 28.9361 2.02828 29.8579 2.5006L58.5267 19.0602C59.1072 19.3988 59.2362 19.689 59.2362 19.7535C59.2362 19.818 59.1072 20.0921 58.5267 20.4307L37.1461 32.7818C36.215 33.2281 35.1956 33.4598 34.1631 33.4598C33.1306 33.4598 32.1112 33.2281 31.1801 32.7818L2.57584 16.2223C1.99536 15.8837 1.86637 15.5935 1.86637 15.5451C1.86637 15.4967 1.99536 15.1903 2.57584 14.8517L23.9565 2.5006C24.8783 2.02828 25.9041 1.79543 26.9395 1.82341M26.875 0.00137004C25.5217 -0.0180099 24.1853 0.303586 22.989 0.936551L1.60839 13.2877C-0.536129 14.5131 -0.536129 16.5125 1.60839 17.7702L30.2772 34.3136C31.4804 34.9279 32.8121 35.2482 34.1631 35.2482C35.5141 35.2482 36.8458 34.9279 38.049 34.3136L59.4297 21.9786C61.5742 20.7371 61.5742 18.7538 59.4297 17.48L30.8254 0.952691C29.6114 0.303499 28.2514 -0.0240057 26.875 0.00137004Z" fill="var(--fill-0, white)" id="Vector"/>
</svg>