<?xml version="1.0" encoding="utf-8"?>
<svg xmlns="http://www.w3.org/2000/svg" fill="none" height="100%" overflow="visible" preserveAspectRatio="none" style="display: block;" viewBox="0 0 34 34" width="100%">
<g id="Frame 2147256907">
<g id="hugeicons:developer">
<g id="Group">
<path d="M12.4773 23.0682C11.6985 22.8172 10.9592 22.4572 10.2814 21.9989C7.9598 20.4389 6.43555 17.8118 6.43555 14.8327C6.43555 10.0465 10.3702 6.16602 15.2235 6.16602C19.831 6.16602 23.6096 9.66193 23.9823 14.1112C24.0159 14.5153 24.0343 14.7189 24.0885 14.8619C24.1426 15.0049 24.2455 15.1393 24.4514 15.4101L26.5184 18.1271C26.8835 18.6092 27.0665 18.8497 27.007 19.0967C26.9485 19.3426 26.6765 19.478 26.1295 19.7467L25.1111 20.2493L24.5478 23.0227L24.537 23.079C24.2206 24.5762 22.8881 25.653 21.3368 25.666H21.2555C20.9696 25.6665 20.6952 25.7794 20.4916 25.9801C20.288 26.1809 20.1713 26.4537 20.1668 26.7396V27.8327M10.2814 21.9989V27.8327" id="Vector" stroke="var(--stroke-0, white)" stroke-linecap="round" stroke-linejoin="round" stroke-width="1.5"/>
<path d="M18.8939 13.7493L19.8905 14.6084C20.3098 14.9692 20.5189 15.1501 20.5189 15.3743C20.5189 15.5986 20.3098 15.7795 19.8905 16.1403L18.8939 16.9993M11.3105 13.7493L10.3139 14.6084C9.89463 14.9692 9.68555 15.1501 9.68555 15.3743C9.68555 15.5986 9.89463 15.7795 10.3139 16.1403L11.3105 16.9993M16.1855 12.666L14.0189 18.0827" id="Vector_2" stroke="var(--stroke-0, white)" stroke-linecap="round" stroke-linejoin="round" stroke-width="1.5"/>
</g>
</g>
</g>
</svg>