<?xml version="1.0" encoding="utf-8"?>
<svg xmlns="http://www.w3.org/2000/svg" fill="none" height="100%" overflow="visible" preserveAspectRatio="none" style="display: block;" viewBox="0 0 132.352 132.352" width="100%">
<g id="Frame 315">
<rect fill="var(--fill-0, white)" height="132.352" rx="66.1759" width="132.352"/>
<path d="M36.669 60.2541C35.8869 57.8971 35.6164 55.4002 35.8756 52.9302C36.1348 50.4602 36.9177 48.074 38.1721 45.931C40.0317 42.6918 42.8712 40.1273 46.2812 38.6071C49.6912 37.087 53.4955 36.6897 57.1456 37.4727C59.2193 35.1643 61.8635 33.4426 64.8126 32.4805C67.7616 31.5185 70.9118 31.3498 73.9466 31.9916C76.9814 32.6334 79.794 34.063 82.102 36.1368C84.4099 38.2106 86.132 40.8556 87.0952 43.8062C89.5269 44.3052 91.8242 45.3179 93.8336 46.7765C95.8429 48.2351 97.518 50.1061 98.7469 52.2645C100.627 55.4983 101.43 59.2465 101.041 62.9673C100.652 66.6881 99.0903 70.1886 96.5822 72.9628C97.3672 75.3187 97.6404 77.8152 97.3836 80.2853C97.1267 82.7553 96.3457 85.142 95.0928 87.2857C93.2309 90.526 90.3889 93.0911 86.9765 94.6113C83.5641 96.1315 79.7575 96.5282 76.1054 95.7443C74.4578 97.6009 72.4335 99.0844 70.1674 100.096C67.9014 101.107 65.4458 101.623 62.9646 101.609C59.2233 101.613 55.5777 100.426 52.554 98.2214C49.5303 96.0165 47.285 92.9072 46.1421 89.3422C43.7106 88.8423 41.4136 87.8293 39.4044 86.3707C37.3952 84.9121 35.7199 83.0415 34.4904 80.8836C32.6328 77.6546 31.8432 73.9204 32.2345 70.2152C32.6258 66.51 34.178 63.0232 36.669 60.2541ZM62.9646 97.0276C66.0287 97.0325 68.9966 95.9578 71.3481 93.992L70.9346 93.7575L57.0077 85.7127C56.6611 85.5093 56.3733 85.2191 56.1727 84.8707C55.972 84.5224 55.8653 84.1277 55.8632 83.7256V64.0764L49.9757 67.4848C49.9466 67.4995 49.9214 67.521 49.9021 67.5473C49.8829 67.5737 49.8701 67.6042 49.8649 67.6364V83.919C49.8723 87.3934 51.2548 90.7234 53.7099 93.1801C56.165 95.6369 59.4926 97.0203 62.9646 97.0276ZM91.1217 84.9952C92.6583 82.34 93.2101 79.2275 92.6798 76.2053L92.266 76.4538L78.3254 84.4985C77.9805 84.7011 77.5878 84.8079 77.1878 84.8079C76.7879 84.8079 76.3952 84.7011 76.0503 84.4985L59.0208 74.6738V81.4766C59.0224 81.5118 59.032 81.5463 59.0487 81.5773C59.0655 81.6084 59.089 81.6353 59.1176 81.6559L73.2237 89.7972C76.2341 91.5327 79.8097 92.0017 83.1654 91.1014C86.5211 90.2011 89.3826 88.005 91.1217 84.9952ZM94.7894 54.6381C93.2421 51.9657 90.7998 49.9275 87.8949 48.8841V65.4425C87.9002 65.8426 87.798 66.2367 87.5992 66.5837C87.4003 66.9308 87.112 67.2181 86.7644 67.4157L69.8177 77.199L75.7055 80.6071C75.7373 80.624 75.7729 80.6329 75.8089 80.6329C75.845 80.6329 75.8805 80.624 75.9124 80.6071L89.9908 72.4799C92.9956 70.7369 95.1877 67.8734 96.0871 64.5164C96.9865 61.1595 96.5199 57.5826 94.7894 54.5692V54.6381ZM46.4178 65.8841L63.4196 56.0042L57.5455 52.6092C57.5136 52.5923 57.4781 52.5835 57.442 52.5835C57.4059 52.5835 57.3704 52.5923 57.3385 52.6092L43.2601 60.7505C41.1075 61.9935 39.3527 63.8235 38.2005 66.0271C37.0483 68.2306 36.5462 70.7167 36.753 73.195C36.9597 75.6734 37.8667 78.0417 39.368 80.0236C40.8694 82.0055 42.9031 83.5191 45.2319 84.3877V67.8292C45.2441 67.4299 45.3598 67.0406 45.5678 66.6995C45.7758 66.3584 46.0685 66.0776 46.4178 65.8841ZM40.5574 57.0668L40.9713 56.8183L54.8841 48.7047C55.2312 48.5009 55.6263 48.3935 56.0287 48.3935C56.4311 48.3935 56.8262 48.5009 57.1733 48.7047L74.1884 58.5292V51.7267C74.192 51.6921 74.1863 51.6572 74.1717 51.6256C74.1571 51.594 74.1343 51.567 74.1057 51.5473L60.0272 43.4197C57.8695 42.1758 55.4025 41.5724 52.9147 41.6801C50.4268 41.7878 48.0211 42.6021 45.9788 44.0278C43.9364 45.4535 42.342 47.4316 41.3819 49.7309C40.4218 52.0301 40.1357 54.5554 40.5571 57.0114L40.5574 57.0668ZM77.4018 69.1263L83.2893 65.7319C83.3187 65.7141 83.3439 65.6901 83.3631 65.6615C83.3822 65.6329 83.3948 65.6005 83.4 65.5665V49.3257C83.3968 46.8342 82.6848 44.3951 81.3474 42.2936C80.01 40.1921 78.1024 38.515 75.8476 37.4585C73.5928 36.4019 71.0841 36.0096 68.6146 36.3272C66.1452 36.6449 63.8172 37.6595 61.9028 39.2524L62.3167 39.4872L76.2432 47.5313C76.5898 47.7348 76.8776 48.0249 77.0783 48.3733C77.279 48.7217 77.3856 49.1163 77.3878 49.5185L77.4018 69.1263ZM74.2027 62.2272L66.6189 57.8528L59.0208 62.2272V70.9754L66.5912 75.3496L74.1887 70.9754L74.2027 62.2272Z" fill="var(--fill-0, black)" id="Vector"/>
</g>
</svg>