<?xml version="1.0" encoding="utf-8"?>
<svg xmlns="http://www.w3.org/2000/svg" fill="none" height="100%" overflow="visible" preserveAspectRatio="none" style="display: block;" viewBox="0 0 63 63" width="100%">
<g id="Frame 35985">
<circle cx="31.5" cy="31.5" fill="var(--fill-0, #F2F2F2)" id="Ellipse 787" r="31.5"/>
<g id="ph:clock-user">
<path d="M32.8125 26.3125V30.6848L36.5114 28.8353C36.7041 28.7389 36.9273 28.723 37.1317 28.7911C37.3362 28.8591 37.5052 29.0057 37.6017 29.1984C37.6981 29.3911 37.714 29.6143 37.6459 29.8187C37.5778 30.0232 37.4313 30.1922 37.2386 30.2887L32.3636 32.7262C32.2398 32.7881 32.1021 32.8174 31.9638 32.8113C31.8254 32.8051 31.691 32.7637 31.5731 32.6909C31.4553 32.6181 31.358 32.5165 31.2905 32.3956C31.223 32.2746 31.1876 32.1385 31.1875 32V26.3125C31.1875 26.097 31.2731 25.8904 31.4255 25.738C31.5779 25.5856 31.7845 25.5 32 25.5C32.2155 25.5 32.4222 25.5856 32.5745 25.738C32.7269 25.8904 32.8125 26.097 32.8125 26.3125ZM32 40.9375C30.2323 40.9375 28.5044 40.4133 27.0346 39.4313C25.5648 38.4492 24.4193 37.0533 23.7428 35.4202C23.0664 33.7871 22.8894 31.9901 23.2342 30.2564C23.5791 28.5227 24.4303 26.9302 25.6802 25.6802C26.9302 24.4303 28.5227 23.5791 30.2564 23.2342C31.9901 22.8894 33.7871 23.0664 35.4202 23.7428C37.0533 24.4193 38.4492 25.5648 39.4313 27.0346C40.4133 28.5044 40.9375 30.2323 40.9375 32C40.9375 32.2155 41.0231 32.4222 41.1755 32.5745C41.3278 32.7269 41.5345 32.8125 41.75 32.8125C41.9655 32.8125 42.1722 32.7269 42.3245 32.5745C42.4769 32.4222 42.5625 32.2155 42.5625 32C42.5625 29.9109 41.943 27.8688 40.7824 26.1318C39.6218 24.3948 37.9721 23.041 36.0421 22.2415C34.112 21.4421 31.9883 21.2329 29.9394 21.6405C27.8904 22.048 26.0084 23.054 24.5312 24.5312C23.054 26.0084 22.048 27.8904 21.6405 29.9394C21.2329 31.9883 21.4421 34.112 22.2415 36.0421C23.041 37.9721 24.3948 39.6218 26.1318 40.7824C27.8688 41.943 29.9109 42.5625 32 42.5625C32.2155 42.5625 32.4222 42.4769 32.5745 42.3245C32.7269 42.1722 32.8125 41.9655 32.8125 41.75C32.8125 41.5345 32.7269 41.3278 32.5745 41.1755C32.4222 41.0231 32.2155 40.9375 32 40.9375ZM42.5351 41.5408C42.5649 41.6446 42.5736 41.7534 42.5609 41.8606C42.5481 41.9679 42.5141 42.0715 42.4608 42.1655C42.4075 42.2595 42.336 42.3419 42.2505 42.4079C42.165 42.4739 42.0672 42.5222 41.9628 42.5499C41.8584 42.5777 41.7495 42.5844 41.6425 42.5695C41.5355 42.5547 41.4325 42.5187 41.3396 42.4636C41.2467 42.4085 41.1657 42.3354 41.1014 42.2486C41.037 42.1619 40.9906 42.0631 40.9649 41.9582C40.6775 40.8786 39.6639 40.125 38.5 40.125C37.3361 40.125 36.3225 40.8786 36.0351 41.9582C35.9892 42.1314 35.8873 42.2846 35.7453 42.3939C35.6033 42.5031 35.4292 42.5624 35.25 42.5625C35.1794 42.5623 35.1091 42.5531 35.0408 42.5351C34.8326 42.4796 34.6549 42.3437 34.5469 42.1572C34.4389 41.9707 34.4094 41.749 34.4649 41.5408C34.7285 40.5622 35.3483 39.7174 36.2027 39.1723C35.7478 38.718 35.4379 38.1389 35.3122 37.5083C35.1865 36.8778 35.2507 36.2242 35.4965 35.6301C35.7424 35.036 36.159 34.5282 36.6935 34.171C37.2281 33.8137 37.8566 33.623 38.4995 33.623C39.1424 33.623 39.7709 33.8137 40.3055 34.171C40.84 34.5282 41.2566 35.036 41.5024 35.6301C41.7483 36.2242 41.8125 36.8778 41.6868 37.5083C41.5611 38.1389 41.2512 38.718 40.7963 39.1723C41.6511 39.7172 42.2713 40.562 42.5351 41.5408ZM36.875 36.875C36.875 37.1964 36.9703 37.5106 37.1489 37.7778C37.3274 38.045 37.5812 38.2533 37.8781 38.3763C38.1751 38.4993 38.5018 38.5315 38.817 38.4688C39.1322 38.4061 39.4218 38.2513 39.649 38.024C39.8763 37.7968 40.0311 37.5072 40.0938 37.192C40.1565 36.8768 40.1243 36.5501 40.0013 36.2531C39.8783 35.9562 39.67 35.7024 39.4028 35.5239C39.1356 35.3453 38.8214 35.25 38.5 35.25C38.069 35.25 37.6557 35.4212 37.351 35.726C37.0462 36.0307 36.875 36.444 36.875 36.875Z" fill="var(--fill-0, #656565)" id="Vector"/>
</g>
</g>
</svg>