<?xml version="1.0" encoding="utf-8"?>
<svg xmlns="http://www.w3.org/2000/svg" fill="none" height="100%" overflow="visible" preserveAspectRatio="none" style="display: block;" viewBox="0 0 354.119 336.574" width="100%">
<g id="Group 1171275352">
<path d="M140.498 28.3584C147.962 28.0343 157.195 27.9752 164.597 28.1621C192.576 28.8688 227.775 42.5506 251.128 61.6C256.875 66.288 256.259 75.0446 250.786 80.0499C246.386 84.0738 239.949 84.2629 235.367 80.4482C234.948 80.0996 234.536 79.7609 234.133 79.4365C229.677 75.8418 224.955 72.5907 220.007 69.7119C190.002 52.159 154.225 47.3226 120.635 56.2793C87.2898 65.1594 58.8339 86.9091 41.5156 116.75C23.8427 146.885 19.1461 182.9 28.5 216.559C37.7157 249.807 59.6689 278.082 89.5986 295.25C119.774 312.466 155.57 316.942 189.056 307.686C222.715 298.283 251.201 275.783 268.143 245.224C279.543 224.698 285.236 201.496 284.628 178.028C284.51 173.841 284.466 170.521 283.701 166.379C282.903 162.057 281.298 155.933 280.824 151.727C277.343 137.267 272.201 125.685 264.956 113.956C261.485 108.336 262.275 100.904 267.191 96.492C272.454 91.7686 280.456 92.6766 284.314 98.6039C296.321 117.054 303.797 138.829 307.071 160.325C312.829 200.471 302.564 241.268 278.492 273.914C228.035 342.339 130.843 357.069 62.3945 306.459C28.9782 281.844 6.89763 244.8 1.14551 203.701C-0.154275 194.863 -0.0738628 184.862 0.0898452 175.945C1.33892 107.914 52.7079 46.5467 118.861 31.6777C126.571 29.945 132.839 29.4228 140.498 28.3584ZM143.642 63.8232C151.057 63.5114 161.985 63.3008 169.22 64.1973C187.805 66.5008 205.168 73.109 220.384 83.385C228.64 88.9607 229.058 100.614 221.152 106.676C218.29 108.87 215.895 110.283 215.109 109.644C206.656 102.754 198.323 97.7713 188.073 93.8379C164.463 84.68 138.159 85.4134 115.097 95.873C92.1619 106.38 74.3215 125.539 65.4756 149.16C56.5738 172.545 57.4892 198.536 68.0146 221.237C78.4939 244.372 97.8521 262.311 121.719 271.007C145.278 279.561 171.263 278.473 194.024 267.979C216.679 257.48 234.271 238.466 242.97 215.065C247.772 202.003 250.391 185.399 248.35 171.573C247.251 164.134 245.421 154.938 242.373 147.736C241.808 146.402 241.323 145.027 240.745 143.698C240.068 142.141 239.019 140.123 237.86 138.043C234.65 132.28 235.289 124.944 240.219 120.561C245.652 115.732 253.759 116.915 257.374 123.222C265.519 137.431 270.397 151.635 272.341 169.05C279.796 235.837 230.089 295.599 163.045 300.781C99.5822 305.683 42.1683 258.19 35.9307 194.966C32.5495 163.075 42.1492 131.166 62.5654 106.434C82.4889 82.1465 111.292 66.8229 142.57 63.8701L143.642 63.8232ZM157.615 99.0107C169.46 99.1589 185.286 103.57 197.189 110.515C203.625 114.271 203.642 122.636 198.052 127.565C193.121 131.913 185.913 132.009 180.022 129.088C178.256 128.213 176.392 127.41 174.326 126.648C159.746 121.299 143.635 121.98 129.559 128.54C115.095 135.154 103.93 147.346 98.6094 162.331C93.2693 177.166 94.1326 193.53 101.006 207.722C107.922 222.003 120.26 232.936 135.276 238.08C149.94 242.966 166.839 241.905 180.642 234.857C194.89 227.713 205.648 215.117 210.476 199.931C214.712 186.57 214.025 174.819 209.791 162.971C207.439 156.39 208.726 148.864 213.922 144.19C219.028 139.56 226.862 140.655 229.776 146.901C231.99 151.647 233.75 156.601 235.025 161.699C238.962 177.682 238.157 194.465 232.706 209.999C229.765 218.411 225.091 226.909 219.548 233.893C205.594 251.446 185.178 262.662 162.878 265.028C141.083 267.335 119.258 260.945 102.146 247.254C84.7728 233.417 73.6604 213.202 71.29 191.122C68.9447 169.109 75.4375 147.062 89.3408 129.834C104.498 111.196 124.133 101.382 147.829 99.0283C151.091 98.998 154.353 98.992 157.615 99.0107ZM150.464 134.537C155.707 134.384 160.544 134.638 165.166 135.623C174.078 137.522 174.799 148.493 167.936 154.487C163.978 157.944 158.565 158.585 153.312 158.754C139.51 159.2 128.46 171.894 131.295 186.812C132.481 192.849 136.03 198.166 141.155 201.579C146.429 205.045 152.869 206.267 159.046 204.97C168.486 203.052 175.365 195.629 177.068 186.717C178.165 180.975 179.632 174.875 183.925 170.908C184.191 170.662 184.458 170.415 184.726 170.167C190.93 164.443 200.185 166.463 201.259 174.836C201.451 176.327 201.75 177.63 201.902 179.127C202.084 180.913 202.052 183.066 201.945 184.291C201.071 194.341 198.188 203.363 191.968 211.435C184.317 221.327 173.05 227.776 160.645 229.361C147.554 230.954 134.717 227.791 124.348 219.514C114.262 211.479 107.862 199.698 106.609 186.867C104.059 162.547 121.002 139.865 144.759 135.308C146.665 134.941 148.537 134.724 150.464 134.537Z" fill="url(#paint0_linear_0_4803)" id="Union"/>
<path d="M319.2 0L319.843 0.3832C321.559 9.86707 322.361 20.5731 323.913 30.3624C333.148 32.9231 344.765 35.7929 354.119 37.7601C351.584 40.415 339.462 51.2971 336.674 53.3179C329.422 51.1988 320.759 49.1758 313.384 47.4635C311.192 49.4936 308.949 51.4695 306.659 53.3885C313.265 54.9068 324.059 58.1157 330.206 58.9883C326.809 62.6799 316.925 71.3042 312.87 74.6466C305.993 72.2086 297.04 70.9019 289.685 68.5604C284.921 73.1982 279.071 78.1946 274.063 82.6634L246.611 107.14L166.174 178.852C165.319 179.521 165.619 182.46 165.411 183.791C163.782 194.229 149.649 197.519 144.199 187.511C142.624 184.639 142.307 181.248 143.324 178.134C145.396 171.745 151.757 168.731 158.042 171.001C194.572 139.166 230.227 106.122 266.648 74.1456C271.732 69.682 276.701 65.0001 281.901 60.6838C281.736 57.0831 280.978 53.276 280.526 49.6682C279.958 45.1309 279.477 40.557 278.862 36.0318C284.248 31.0717 290.467 25.522 296.046 20.8255C296.184 23.791 298.585 42.0327 299.338 44.8139C301.435 43.1319 303.797 40.929 305.838 39.1199C305.476 33.4024 303.409 20.9795 302.517 15.0283C307.222 10.3366 314.092 4.54435 319.2 0Z" fill="var(--fill-0, #FF7032)" id="Vector"/>
</g>
<defs>
<linearGradient gradientUnits="userSpaceOnUse" id="paint0_linear_0_4803" x1="66.5" x2="111.83" y1="292.547" y2="105.764">
<stop stop-color="#FF7032"/>
<stop offset="1" stop-color="#FF4D00"/>
</linearGradient>
</defs>
</svg>