<?xml version="1.0" encoding="utf-8"?>
<svg xmlns="http://www.w3.org/2000/svg" fill="none" height="100%" overflow="visible" preserveAspectRatio="none" style="display: block;" viewBox="0 0 592 801" width="100%">
<g id="Vector" opacity="0.13">
<path d="M521.757 3.14C524.448 2.31302 528.851 1.22195 531.542 0.707692C534.296 0.179534 539.034 -0.112343 542.375 0.0405446C546.017 0.214281 549.805 0.86753 552.161 1.73621C554.278 2.5215 557.549 4.18937 559.443 5.44027C561.331 6.69812 564.308 9.60299 566.055 11.8963C567.796 14.1896 570.137 18.0952 571.249 20.5831C572.367 23.0641 574.016 27.9148 574.918 31.3548C575.827 34.7948 577.196 41.362 577.965 45.9486C578.741 50.5353 580.174 60.5425 581.166 68.1869C582.152 75.8313 584.521 94.7477 586.422 110.231C588.331 125.708 590.364 141.58 590.945 145.5C591.525 149.419 592 153.172 592 153.839C592.007 154.888 590.148 155.312 578.196 156.987C570.606 158.043 563.84 158.905 563.169 158.898C562.183 158.884 561.82 157.911 561.275 153.839C560.911 151.066 559.513 140.044 558.164 129.342C556.823 118.64 554.907 102.844 553.908 94.2473C552.908 85.6439 551.147 72.0438 549.987 64.0172C548.827 55.9906 547.233 46.6088 546.443 43.1689C545.66 39.7289 544.339 35.3855 542.026 30.1178L538.182 30.4722C536.064 30.6668 531.039 31.9524 526.999 33.3284C522.959 34.6975 514.942 37.8178 509.176 40.257C503.41 42.6963 488.313 49.1523 475.627 54.6077C462.941 60.056 443.909 67.9228 433.341 72.0855C422.766 76.2552 414.085 79.584 414.037 79.4867C413.995 79.3825 412.373 75.0877 410.43 69.9242C408.494 64.7608 406.097 58.4299 403.287 51.1607L408.354 49.34C411.143 48.3392 423.64 43.3704 436.137 38.2903C448.627 33.2172 460.893 28.1302 463.396 26.9975C465.898 25.8647 476.745 21.1877 487.509 16.608C498.272 12.0284 509.281 7.46256 511.972 6.46184C514.663 5.45417 519.066 3.96004 521.757 3.14Z" fill="var(--fill-0, white)"/>
<path d="M170.373 660.28C172.889 653.783 175.328 647.486 175.797 646.284L176.635 644.102L190.537 649.606C198.184 652.636 204.523 655.179 204.635 655.263C204.74 655.346 202.44 661.517 199.526 668.967C196.611 676.417 191.397 690.337 187.944 699.892C184.492 709.448 181.067 718.829 180.326 720.741C179.585 722.652 176.412 731.561 173.267 740.546C170.128 749.525 165.543 761.569 163.076 767.302C160.609 773.035 157.212 779.915 155.521 782.591C153.836 785.266 150.467 789.387 148.042 791.757C145.617 794.12 142.059 796.837 140.137 797.789C138.215 798.741 135.23 799.853 133.497 800.249C131.764 800.645 128.618 800.986 126.508 801C124.397 801.014 120.147 800.381 117.072 799.603C113.997 798.825 108.964 796.969 105.889 795.489C102.814 794.002 96.684 790.478 92.2597 787.664C87.8355 784.849 79.8186 779.436 74.4368 775.641C69.055 771.84 58.6758 764.369 51.3719 759.032C44.068 753.695 32.7452 745.536 26.2102 740.901C19.6751 736.273 11.1061 730.227 0 722.478L7.09421 712.227C10.9943 706.591 14.8524 701.108 15.6562 700.052C16.467 698.989 17.4385 698.141 17.8229 698.162C18.2073 698.183 21.6671 700.441 25.5112 703.172C29.3554 705.91 40.811 714.104 50.9665 721.394C61.1221 728.677 73.3884 737.523 78.2251 741.047C83.0617 744.57 92.3646 751.138 98.8996 755.641C105.435 760.137 113.689 765.307 117.247 767.128C120.804 768.942 124.502 770.429 125.459 770.429C126.578 770.429 127.689 769.741 128.549 768.518C129.282 767.469 131.463 763.327 133.392 759.31C135.314 755.293 140.249 742.631 144.352 731.165C148.454 719.698 153.221 706.251 154.933 701.282C156.653 696.313 159.805 687.71 161.93 682.171C164.055 676.632 167.857 666.778 170.373 660.28Z" fill="var(--fill-0, white)"/>
</g>
</svg>