<?xml version="1.0" encoding="utf-8"?>
<svg xmlns="http://www.w3.org/2000/svg" fill="none" height="100%" overflow="visible" preserveAspectRatio="none" style="display: block;" viewBox="0 0 81.8001 81.8001" width="100%">
<g id="Frame 308" opacity="0.7">
<rect fill="var(--fill-0, white)" height="81.8001" rx="40.9001" width="81.8001"/>
<g id="PostgresSQL 1">
<path d="M53.1099 54.4205C53.4288 51.7665 53.3333 51.3769 55.3102 51.8071L55.8119 51.851C57.3321 51.92 59.3207 51.6064 60.489 51.0637C63.0041 49.8965 64.4951 47.9485 62.0157 48.46C56.3591 49.6272 55.9703 47.7117 55.9703 47.7117C61.9434 38.8493 64.4402 27.5991 62.2847 24.8451C56.4062 17.3339 46.2309 20.8858 46.0607 20.9776L46.0062 20.9877C44.8886 20.7558 43.6378 20.6172 42.2326 20.5945C39.6728 20.5522 37.7305 21.2656 36.257 22.3828C36.257 22.3828 18.1046 14.9042 18.9492 31.7879C19.1287 35.3796 24.0972 58.9652 30.0235 51.8412C32.1897 49.2363 34.2827 47.0337 34.2827 47.0337C35.3218 47.7239 36.5666 48.0765 37.8715 47.9497L37.9726 47.8636C37.9409 48.187 37.9548 48.5035 38.0128 48.878C36.4866 50.5839 36.9351 50.8833 33.8829 51.5113C30.7946 52.1475 32.6089 53.2806 33.7931 53.5767C35.2292 53.9358 38.5511 54.4445 40.7961 51.3025L40.7067 51.6608C41.3055 52.1402 41.2653 55.1046 41.3498 57.2224C41.4347 59.3406 41.5765 61.317 42.0083 62.4825C42.4402 63.6477 42.9496 66.649 46.9609 65.7894C50.3133 65.0728 52.8763 64.0389 53.1099 54.4205Z" fill="var(--fill-0, black)" id="Vector"/>
<path d="M45.6548 67.8853C43.8807 67.8853 42.7253 67.1991 42.0237 66.5365C40.9647 65.5371 40.5446 64.2497 40.2935 63.4807L40.1851 63.1598C39.6797 61.7956 39.5083 59.8313 39.4067 57.302C39.3913 56.9222 39.3807 56.531 39.3689 56.1162C39.3604 55.8127 39.3498 55.4321 39.3344 55.0339C38.6952 55.3387 38.0168 55.5531 37.3186 55.6709C36.0677 55.8846 34.723 55.8156 33.3211 55.465C32.3318 55.2176 31.304 54.7049 30.7182 53.9131C29.0108 55.4085 27.3821 55.2058 26.4948 54.9096C24.9296 54.3876 23.5288 52.9206 22.2122 50.4258C21.2741 48.6485 20.367 46.3329 19.5155 43.5427C18.0327 38.684 17.0906 33.5665 17.0069 31.8862C16.7436 26.6273 18.1594 22.8663 21.214 20.7087C26.0325 17.3051 33.3333 19.3067 35.995 20.2155C37.7833 19.1377 39.8873 18.6132 42.2647 18.651C43.5415 18.6717 44.7574 18.7838 45.8868 18.9853C47.0649 18.6148 49.3919 18.0831 52.0557 18.1164C56.9636 18.1749 61.0306 20.0875 63.8162 23.6475C65.8044 26.1873 64.8213 31.521 64.0588 34.4744C62.9854 38.6288 61.1049 43.0471 58.795 46.8935C59.4222 46.898 60.331 46.8228 61.6229 46.5559C64.1717 46.0298 64.9172 47.3964 65.1195 48.0083C65.9299 50.4628 62.4069 52.3178 61.308 52.828C59.9 53.4817 57.6043 53.8798 55.7241 53.7937L55.6421 53.7884L55.1481 53.7449L55.0993 54.1568L55.0522 54.5594C54.9258 59.434 54.2295 62.5211 52.7967 64.5609C51.2948 66.6994 49.2075 67.2986 47.3688 67.6927C46.7415 67.8268 46.1716 67.8853 45.6548 67.8853ZM41.9214 50.1439C43.0666 51.0604 43.1669 52.7849 43.2567 56.0077C43.2681 56.4099 43.2787 56.7906 43.2929 57.146C43.3359 58.2226 43.4371 60.7434 43.832 61.8086C43.8876 61.9593 43.9376 62.112 43.9904 62.2741C44.4304 63.6213 44.651 64.2968 46.5534 63.8902C48.1504 63.5477 48.9714 63.2406 49.6141 62.3257C50.5481 60.9957 51.0705 58.3201 51.1664 54.3734L53.1095 54.4205L51.1798 54.1889L51.2367 53.7071C51.4215 52.1187 51.5548 50.9714 52.6163 50.2126C53.4682 49.604 54.4388 49.6629 55.2118 49.8023C54.3624 49.1604 54.1276 48.4076 54.065 48.0988L53.9029 47.3006L54.3583 46.625C56.9815 42.7331 59.1443 37.9499 60.2932 33.5015C61.4738 28.9307 61.1138 26.5034 60.7539 26.0443C55.989 19.9559 47.7263 22.4698 46.8634 22.7549L46.7176 22.8338L45.9863 22.9698L45.6117 22.8923C44.5791 22.6778 43.4318 22.5591 42.2021 22.5392C40.27 22.5067 38.7112 22.9633 37.4331 23.9331L36.5463 24.6054L35.5173 24.1817C33.3186 23.2827 26.8609 21.4753 23.4533 23.8888C21.5618 25.2286 20.7001 27.8538 20.8918 31.6916C20.9552 32.9587 21.8161 37.7553 23.2363 42.4073C25.1989 48.8362 26.9823 50.9718 27.727 51.2201C27.857 51.2639 28.1942 51.0019 28.5298 50.5989C29.9289 48.9217 31.3777 47.2864 32.8742 45.6955L33.9995 44.5113L35.36 45.4152C35.9085 45.7796 36.5134 45.9863 37.1345 46.0253L40.3793 43.258L39.9092 48.055C39.8987 48.1626 39.8934 48.3093 39.9356 48.5815L40.077 49.4907L39.4636 50.1764L39.3929 50.256L41.1755 51.0787L41.9214 50.1439Z" fill="var(--fill-0, black)" id="Vector_2"/>
<path d="M62.0157 48.46C56.3587 49.6272 55.9699 47.7117 55.9699 47.7117C61.943 38.8489 64.4398 27.5983 62.2851 24.8451C56.4066 17.3343 46.2305 20.8862 46.0607 20.9784L46.0058 20.9882C44.8882 20.7562 43.6374 20.6181 42.2313 20.5953C39.6716 20.5535 37.7301 21.2664 36.2566 22.3836C36.2566 22.3836 18.1037 14.9054 18.9479 31.7887C19.1275 35.3808 24.0959 58.9664 30.0223 51.8424C32.1884 49.2376 34.281 47.0349 34.281 47.0349C35.3206 47.7251 36.565 48.0777 37.8694 47.951L37.971 47.8648C37.9393 48.1882 37.9539 48.5047 38.0116 48.8793C36.4849 50.5851 36.9334 50.8845 33.8813 51.5126C30.793 52.1488 32.6073 53.2818 33.7919 53.5779C35.2276 53.9371 38.5499 54.4457 40.7944 51.3038L40.7047 51.6621C41.3031 52.1414 41.7231 54.7788 41.6528 57.1696C41.5822 59.5604 41.535 61.202 42.0067 62.4842C42.4779 63.7663 42.9476 66.6507 46.9597 65.791C50.3121 65.0728 52.0492 63.2109 52.2913 60.1056C52.4627 57.8976 52.8507 58.2242 52.8755 56.2503L53.1871 55.3159C53.5462 52.323 53.244 51.3578 55.3097 51.8067L55.8115 51.8506C57.3317 51.9196 59.3211 51.606 60.489 51.0633C63.0037 49.8969 64.4951 47.9485 62.0157 48.46Z" fill="var(--fill-0, #336791)" id="Vector_3"/>
<path d="M45.8575 66.6872C42.5133 66.6872 41.4538 64.0389 41.0203 62.9558C40.3858 61.3686 40.2488 55.209 40.3902 50.1577C40.3923 50.0725 40.4113 49.9886 40.4459 49.9108C40.4806 49.8329 40.5303 49.7627 40.5923 49.7042C40.6542 49.6457 40.7271 49.6 40.8068 49.5697C40.8864 49.5395 40.9713 49.5253 41.0565 49.528C41.1416 49.5303 41.2253 49.5494 41.3031 49.5841C41.3808 49.6189 41.4509 49.6686 41.5093 49.7304C41.5678 49.7923 41.6136 49.865 41.6439 49.9445C41.6742 50.0241 41.6886 50.1088 41.6862 50.1939C41.5233 56.0199 41.7544 61.2995 42.224 62.4744C42.9569 64.3062 44.0684 65.9084 47.2108 65.2353C50.1938 64.5954 51.311 63.4644 51.8087 60.5797C52.1906 58.366 52.9458 52.0683 53.0388 50.8256C53.045 50.7407 53.068 50.6578 53.1063 50.5818C53.1446 50.5057 53.1975 50.438 53.262 50.3824C53.3266 50.3269 53.4014 50.2846 53.4823 50.258C53.5632 50.2315 53.6486 50.2211 53.7335 50.2276C53.9049 50.2406 54.0641 50.321 54.1762 50.4513C54.2883 50.5815 54.3442 50.7509 54.3315 50.9223C54.2344 52.2162 53.4828 58.5017 53.0863 60.8003C52.4989 64.2075 50.9799 65.7528 47.4825 66.5028C46.8882 66.6299 46.3483 66.6868 45.8575 66.6872ZM27.7242 53.7518C27.4318 53.7508 27.1416 53.7028 26.8645 53.6096C24.6923 52.8849 22.6233 49.3473 20.7147 43.0938C19.262 38.3338 18.3414 33.3654 18.2606 31.7505C18.0213 26.9633 19.2538 23.5764 21.9249 21.6845C27.209 17.9405 36.0982 21.5057 36.474 21.6593C36.6332 21.7243 36.76 21.8499 36.8266 22.0084C36.8932 22.167 36.8941 22.3455 36.829 22.5047C36.764 22.6639 36.6384 22.7907 36.4799 22.8573C36.3213 22.9239 36.1428 22.9248 35.9836 22.8598C35.8979 22.8248 27.374 19.4099 22.6716 22.744C20.3877 24.3633 19.3392 27.372 19.5549 31.6859C19.6227 33.0465 20.4827 37.8955 21.9542 42.7152C23.658 48.2979 25.597 51.8205 27.2744 52.3799C27.5377 52.4677 28.3388 52.7346 29.484 51.3574C30.8196 49.7534 32.2051 48.1919 33.6388 46.6749C33.7587 46.5553 33.9207 46.4873 34.0902 46.4857C34.2596 46.484 34.4229 46.5487 34.5452 46.6659C34.6676 46.7831 34.7391 46.9436 34.7447 47.1129C34.7502 47.2822 34.6892 47.447 34.5747 47.5719C34.5552 47.5923 32.6057 49.6304 30.481 52.1865C29.4747 53.3968 28.5102 53.7518 27.7242 53.7518ZM55.9297 48.2898C55.8122 48.2896 55.6969 48.2575 55.5962 48.1969C55.4955 48.1363 55.4132 48.0495 55.358 47.9457C55.3029 47.842 55.277 47.7252 55.2831 47.6078C55.2891 47.4904 55.327 47.3769 55.3926 47.2794C61.4307 38.3196 63.5501 27.4934 61.735 25.1738C59.4503 22.2544 56.2242 20.7298 52.1459 20.6416C49.1262 20.5766 46.7261 21.3477 46.3337 21.4822L46.2349 21.5224C45.8405 21.6463 45.5378 21.4302 45.4237 21.1775C45.3586 21.0327 45.3487 20.8691 45.3959 20.7176C45.4431 20.566 45.5442 20.437 45.68 20.3548C45.6987 20.3438 45.758 20.3187 45.8543 20.2833C46.5209 20.0392 48.9576 19.3079 51.9757 19.3424C56.4883 19.3904 60.216 21.1303 62.7551 24.3751C63.9564 25.9103 63.9592 29.4471 62.7628 34.0792C61.5432 38.8018 59.2483 43.8771 56.4672 48.0042C56.3428 48.1898 56.1381 48.2898 55.9297 48.2898ZM56.2384 52.4376C55.2074 52.4376 54.2832 52.2922 53.7298 51.9607C53.1611 51.6198 53.0526 51.1567 53.0384 50.9109C52.8832 48.185 54.3872 47.7105 55.1542 47.4939C55.0473 47.3323 54.8954 47.1421 54.7382 46.9459C54.2909 46.3869 53.6782 45.6215 53.2062 44.4767C53.1322 44.298 52.9007 43.8824 52.6326 43.401C51.1786 40.7937 48.1532 35.3682 50.0967 32.5898C50.9962 31.3041 52.7873 30.7979 55.4263 31.0802C54.65 28.715 50.9531 21.3164 42.181 21.1726C39.5428 21.1287 37.3791 21.94 35.7533 23.5817C32.1133 27.2578 32.2449 33.9093 32.2469 33.976C32.2492 34.0611 32.2346 34.1458 32.2041 34.2252C32.1736 34.3047 32.1278 34.3774 32.0692 34.4391C32.0106 34.5009 31.9405 34.5505 31.8627 34.5851C31.7849 34.6198 31.7011 34.6388 31.616 34.641C31.5309 34.6432 31.4462 34.6287 31.3668 34.5982C31.2873 34.5677 31.2146 34.5219 31.1529 34.4633C31.0911 34.4047 31.0415 34.3345 31.0069 34.2568C30.9722 34.179 30.9532 34.0952 30.951 34.0101C30.9429 33.7147 30.8072 26.7346 34.8323 22.6692C36.7161 20.7668 39.1958 19.8275 42.2025 19.8767C47.8144 19.9689 51.4268 22.822 53.4686 25.1989C55.6945 27.7896 56.7857 30.6472 56.8754 31.601C56.9425 32.3103 56.4334 32.4521 56.3307 32.4733L56.0967 32.4785C53.5068 32.0638 51.8452 32.3518 51.1583 33.3333C49.6799 35.4462 52.542 40.5783 53.764 42.7701C54.076 43.3291 54.301 43.7333 54.4042 43.9827C54.8056 44.9561 55.3292 45.6102 55.7497 46.1358C56.1198 46.5982 56.4403 46.9991 56.5549 47.4696C56.6081 47.563 57.3633 48.6802 61.8447 47.7552C62.968 47.5236 63.6415 47.7214 63.8475 48.3442C64.2525 49.5691 61.98 50.9978 60.7218 51.582C59.5945 52.1061 57.7952 52.4376 56.2384 52.4376ZM54.3307 50.8041C54.4729 50.9475 55.1842 51.1949 56.6573 51.1315C57.967 51.0754 59.3483 50.7907 60.177 50.4059C61.2369 49.9136 61.9446 49.3631 62.3111 48.9873L62.1079 49.0247C59.2427 49.6162 57.2159 49.5374 56.0841 48.7903C56.008 48.74 55.9348 48.6856 55.8647 48.6274C55.742 48.6757 55.6287 48.7074 55.5478 48.7302C54.9059 48.9101 54.2421 49.0966 54.3307 50.8041ZM35.8211 54.4258C35.1094 54.4258 34.3602 54.3287 33.5953 54.1373C32.8027 53.9391 31.4665 53.3423 31.4868 52.362C31.51 51.2623 33.1094 50.9324 33.7115 50.8085C35.8865 50.3604 36.0283 50.1809 36.708 49.3176C36.9062 49.0661 37.1528 48.7529 37.4892 48.3775C37.9885 47.8185 38.5341 47.5354 39.1109 47.5354C39.5127 47.5354 39.8422 47.6715 40.0599 47.7621C40.7538 48.0497 41.3327 48.7452 41.5708 49.5768C41.7857 50.3271 41.6829 51.0494 41.2823 51.6105C39.9673 53.452 38.0787 54.4258 35.8211 54.4258ZM32.8872 52.4177C33.0826 52.5688 33.4742 52.7707 33.9101 52.8796C34.5727 53.0453 35.2154 53.1294 35.8215 53.1294C37.6683 53.1294 39.1512 52.3649 40.2281 50.8569C40.4528 50.5424 40.3853 50.1431 40.3252 49.9331C40.1993 49.4931 39.8865 49.0929 39.5643 48.9593C39.3896 48.887 39.2446 48.8317 39.1113 48.8317C39.0398 48.8317 38.8221 48.8317 38.4557 49.2416C38.2028 49.526 37.9597 49.819 37.7268 50.1199C36.8802 51.1949 36.4922 51.5597 33.9735 52.0785C33.3588 52.2044 33.0436 52.3328 32.8872 52.4177ZM37.8715 49.4277C37.7167 49.4274 37.5672 49.3719 37.4498 49.271C37.3325 49.1701 37.2551 49.0306 37.2316 48.8776C37.2155 48.77 37.2047 48.6617 37.1991 48.553C35.5481 48.5222 33.9552 47.8137 32.7458 46.5518C31.2167 44.9565 30.5208 42.7461 30.8368 40.4878C31.1801 38.0352 31.0517 35.8703 30.9827 34.7072C30.9636 34.3838 30.9498 34.1503 30.9506 33.9886C30.9518 33.7834 30.9559 33.2394 32.7742 32.3177C33.421 31.9898 34.7177 31.4178 36.1343 31.2712C38.4812 31.0286 40.0283 32.0739 40.4914 34.2148C41.7414 39.995 40.5905 42.5515 39.75 44.4186C39.5936 44.7664 39.4457 45.0946 39.3275 45.4127L39.2231 45.693C38.779 46.8838 38.3951 47.9124 38.5129 48.6806C38.5259 48.7647 38.5221 48.8506 38.5018 48.9333C38.4816 49.0159 38.4452 49.0938 38.3949 49.1624C38.3445 49.2311 38.2811 49.2891 38.2083 49.3332C38.1355 49.3773 38.0547 49.4067 37.9706 49.4196L37.8715 49.4277ZM32.251 34.1681L32.2762 34.6308C32.3477 35.839 32.4809 38.0872 32.1202 40.6677C31.8598 42.5304 32.4285 44.3483 33.6814 45.6548C34.6714 46.6875 35.9743 47.2575 37.3133 47.2575H37.3409C37.4908 46.6258 37.7398 45.9587 38.008 45.2401L38.1116 44.9614C38.2452 44.6023 38.4016 44.2545 38.5674 43.8864C39.3762 42.0892 40.3833 39.852 39.2235 34.4891C38.9939 33.4267 38.437 32.8121 37.5217 32.6093C35.6416 32.1942 32.8397 33.6083 32.251 34.1681ZM36.1632 33.8931C36.1307 34.1222 36.5828 34.734 37.1727 34.8157C37.7614 34.8982 38.2651 34.4196 38.2972 34.1905C38.3293 33.9613 37.8776 33.7087 37.2877 33.6266C36.6982 33.5445 36.1945 33.664 36.1632 33.8931ZM37.308 35.0412L37.1427 35.0298C36.777 34.979 36.4073 34.7487 36.1542 34.4131C36.0653 34.2953 35.9203 34.067 35.9491 33.863C35.9901 33.564 36.3549 33.3849 36.9241 33.3849C37.0512 33.3849 37.1837 33.3942 37.3169 33.4129C37.6281 33.456 37.917 33.5458 38.1303 33.6648C38.4999 33.8712 38.5272 34.1015 38.5105 34.2205C38.465 34.5508 37.9397 35.0412 37.308 35.0412ZM36.3781 33.9313C36.3964 34.0727 36.7466 34.539 37.2024 34.602L37.3084 34.6093C37.7293 34.6093 38.0437 34.2782 38.0807 34.1698C38.0417 34.0958 37.7711 33.9122 37.258 33.8407C37.1476 33.8248 37.0361 33.8168 36.9245 33.8167C36.5946 33.8167 36.4195 33.8911 36.3781 33.9313ZM54.0926 33.4255C54.1247 33.6546 53.673 34.2664 53.0835 34.3485C52.4944 34.4306 51.9903 33.9524 51.9578 33.7233C51.9269 33.4942 52.3787 33.2411 52.9677 33.1594C53.5568 33.0769 54.0601 33.1968 54.0926 33.4255ZM52.9474 34.4655C52.3803 34.4655 51.8907 34.0243 51.8505 33.7379C51.8038 33.3942 52.3697 33.133 52.9523 33.0522C53.0807 33.0343 53.2078 33.0253 53.3301 33.0253C53.833 33.0253 54.1662 33.1728 54.1995 33.4109C54.221 33.5648 54.1028 33.8025 53.8992 34.017C53.7648 34.158 53.4824 34.4021 53.0977 34.4553L52.9474 34.4655ZM53.3305 33.2415C53.2184 33.2415 53.1014 33.25 52.9828 33.2663C52.3973 33.3479 52.048 33.5827 52.065 33.7087C52.0845 33.8472 52.4583 34.2498 52.9478 34.2498L53.0685 34.2413C53.3882 34.197 53.6283 33.9882 53.7428 33.8679C53.9228 33.679 53.9943 33.5011 53.9858 33.4405C53.9744 33.3601 53.7583 33.2415 53.3305 33.2415ZM54.9413 46.5839C54.8238 46.584 54.7086 46.5521 54.6079 46.4917C54.5072 46.4313 54.4248 46.3447 54.3695 46.2411C54.3142 46.1374 54.2882 46.0207 54.2942 45.9034C54.3002 45.7862 54.3379 45.6727 54.4034 45.5752C55.7838 43.5135 55.5312 41.4112 55.287 39.3779C55.1826 38.5118 55.0753 37.616 55.103 36.7563C55.1314 35.8719 55.2439 35.1423 55.3524 34.4367C55.4812 33.6006 55.6031 32.8108 55.5527 31.8732C55.5481 31.7882 55.5603 31.7032 55.5886 31.6229C55.6169 31.5426 55.6607 31.4687 55.7175 31.4054C55.7744 31.342 55.8431 31.2905 55.9199 31.2538C55.9967 31.217 56.0799 31.1957 56.1649 31.1911C56.2499 31.1865 56.3349 31.1987 56.4152 31.227C56.4955 31.2553 56.5694 31.2991 56.6327 31.356C56.6961 31.4128 56.7476 31.4816 56.7844 31.5583C56.8211 31.6351 56.8424 31.7184 56.847 31.8033C56.9047 32.875 56.767 33.7688 56.6337 34.6337C56.5309 35.3012 56.4245 35.9914 56.3989 36.7978C56.3741 37.5591 56.4712 38.3675 56.574 39.2231C56.834 41.3852 57.1285 43.8357 55.4808 46.2963C55.4214 46.3849 55.3412 46.4575 55.2471 46.5077C55.153 46.5579 55.0479 46.5841 54.9413 46.5839Z" fill="var(--fill-0, white)" id="Vector_4"/>
</g>
</g>
</svg>