<?xml version="1.0" encoding="utf-8"?>
<svg xmlns="http://www.w3.org/2000/svg" fill="none" height="100%" overflow="visible" preserveAspectRatio="none" style="display: block;" viewBox="0 0 336 112.626" width="100%">
<g id="image 1_layerstyle">
<g id="Group">
<path d="M7.45722 31.7187C9.38569 29.7576 11.5364 27.5512 12.2376 26.8173C12.9388 26.0825 13.5563 25.4767 13.6104 25.4709C13.6645 25.465 14.3057 26.0151 15.0364 26.6923C15.7661 27.3704 16.4525 28.0065 16.5607 28.1062C16.7554 28.287 16.7514 28.2958 16.007 29.0999C15.594 29.5455 13.342 31.8457 11.0024 34.2104C8.6619 36.575 6.31154 39.0159 5.77755 39.6335C5.24454 40.252 4.67515 41.0103 4.21884 41.8809L4.58762 42.2327C4.79021 42.4261 5.31043 42.817 5.74313 43.1023C6.17583 43.3867 7.34806 44.058 8.34917 44.5934C9.3493 45.1299 11.2748 46.1529 12.627 46.8682C13.9792 47.5835 16.125 48.7492 17.3966 49.4596C18.6671 50.169 19.9839 50.9087 20.9368 51.4568L20.688 51.8721C20.5513 52.1008 20.0754 52.9128 19.6309 53.6779C19.1864 54.443 18.7783 55.0683 18.7242 55.0683C18.6701 55.0683 17.8735 54.6355 16.954 54.1059C16.0345 53.5763 14.3529 52.6382 13.2171 52.0216C12.0812 51.4041 9.86854 50.2257 8.3 49.4009C6.73146 48.5772 4.9387 47.5981 4.31718 47.2258C3.69468 46.8545 2.92074 46.362 2.59621 46.1324C2.27169 45.9018 1.73769 45.4338 1.40923 45.0918C1.07979 44.7498 0.696261 44.2729 0.555633 44.0306C0.415989 43.7892 0.225207 43.3271 0.132766 43.0046C0.0118065 42.5825 -0.0216295 42.1985 0.01279 41.6366C0.0393421 41.194 0.152434 40.6008 0.273394 40.2686C0.39042 39.9462 0.656925 39.397 0.866391 39.0472C1.07487 38.6984 1.58625 37.9948 2.00322 37.4838C2.42018 36.9737 3.02891 36.2702 3.35639 35.9204C3.68387 35.5715 5.52875 33.6808 7.45722 31.7187Z" fill="var(--fill-0, #F48120)" id="Vector"/>
<g id="Vector_2">
<path d="M89.8255 0.441504C90.2042 0.325225 90.8237 0.171814 91.2023 0.099506C91.5898 0.0252436 92.2565 -0.0157962 92.7266 0.00570083C93.239 0.0301293 93.772 0.12198 94.1034 0.244122C94.4014 0.354539 94.8616 0.589052 95.1281 0.764937C95.3936 0.941798 95.8126 1.35024 96.0584 1.6727C96.3033 1.99515 96.6327 2.5443 96.7891 2.89412C96.9464 3.24296 97.1785 3.925 97.3054 4.40868C97.4332 4.89236 97.626 5.81576 97.7341 6.46067C97.8433 7.10558 98.0449 8.51266 98.1845 9.58751C98.3232 10.6624 98.6566 13.3221 98.9241 15.4992C99.1925 17.6753 99.4787 19.9071 99.5603 20.4582C99.642 21.0093 99.7088 21.5369 99.7088 21.6307C99.7098 21.7783 99.4482 21.8379 97.7666 22.0734C96.6986 22.2219 95.7467 22.3431 95.6523 22.3421C95.5136 22.3401 95.4625 22.2033 95.3858 21.6307C95.3346 21.2408 95.1379 19.6911 94.9481 18.1863C94.7593 16.6815 94.4899 14.4605 94.3492 13.2518C94.2086 12.0421 93.9608 10.1298 93.7975 9.00123C93.6343 7.87263 93.4101 6.5535 93.299 6.06982C93.1888 5.58613 93.0029 4.97542 92.6774 4.23475L92.1366 4.28458C91.8386 4.31194 91.1315 4.49272 90.5631 4.68619C89.9947 4.87868 88.8667 5.31742 88.0554 5.66039C87.2441 6.00337 85.1199 6.91113 83.335 7.67818C81.5501 8.44426 78.8723 9.55038 77.3854 10.1357C75.8975 10.722 74.6761 11.19 74.6692 11.1763C74.6633 11.1617 74.4351 10.5578 74.1618 9.83179C73.8893 9.10578 73.552 8.21561 73.1567 7.19352L73.8697 6.93751C74.2621 6.79681 76.0204 6.09815 77.7787 5.38386C79.5361 4.67055 81.262 3.95529 81.614 3.79602C81.9661 3.63674 83.4924 2.97913 85.0068 2.3352C86.5213 1.69126 88.0702 1.04928 88.4488 0.908576C88.8274 0.766891 89.4469 0.556806 89.8255 0.441504Z" fill="var(--fill-0, #A5CD39)"/>
<path d="M40.3855 92.8396C40.7395 91.926 41.0827 91.0407 41.1486 90.8717L41.2666 90.5648L43.2226 91.3387C44.2985 91.7648 45.1904 92.1224 45.2062 92.1341C45.2209 92.1458 44.8974 93.0135 44.4873 94.061C44.0772 95.1085 43.3436 97.0657 42.8578 98.4093C42.372 99.7529 41.8901 101.072 41.7859 101.341C41.6816 101.609 41.2352 102.862 40.7926 104.126C40.3511 105.388 39.706 107.081 39.3588 107.888C39.0117 108.694 38.5337 109.661 38.2957 110.037C38.0587 110.413 37.5847 110.993 37.2435 111.326C36.9022 111.658 36.4017 112.04 36.1312 112.174C35.8608 112.308 35.4409 112.464 35.197 112.52C34.9531 112.576 34.5106 112.624 34.2136 112.626C33.9166 112.628 33.3187 112.539 32.886 112.429C32.4533 112.32 31.7452 112.059 31.3125 111.851C30.8798 111.642 30.0174 111.146 29.3949 110.751C28.7724 110.355 27.6444 109.594 26.8872 109.06C26.1299 108.526 24.6696 107.475 23.6419 106.725C22.6143 105.974 21.0211 104.827 20.1016 104.175C19.1821 103.525 17.9765 102.674 16.4138 101.585L17.412 100.144C17.9607 99.3512 18.5036 98.5803 18.6167 98.4318C18.7308 98.2823 18.8675 98.1631 18.9215 98.166C18.9756 98.1689 19.4624 98.4865 20.0033 98.8705C20.5442 99.2555 22.156 100.408 23.5849 101.433C25.0138 102.457 26.7397 103.7 27.4202 104.196C28.1007 104.691 29.4096 105.615 30.3291 106.248C31.2486 106.88 32.41 107.607 32.9106 107.863C33.4111 108.118 33.9314 108.327 34.0661 108.327C34.2234 108.327 34.3798 108.23 34.5008 108.059C34.604 107.911 34.9108 107.329 35.1823 106.764C35.4527 106.199 36.147 104.419 36.7242 102.806C37.3015 101.194 37.9722 99.3034 38.2131 98.6047C38.4551 97.9061 38.8986 96.6964 39.1975 95.9176C39.4965 95.1388 40.0315 93.7532 40.3855 92.8396Z" fill="var(--fill-0, #A5CD39)"/>
</g>
<path d="M101.306 69.9856C101.32 69.965 102.128 69.5498 103.101 69.0632C104.075 68.5756 104.937 68.1749 105.019 68.172C105.111 68.1681 105.381 68.5941 105.742 69.3143C106.058 69.9465 107.006 71.761 107.847 73.3459C108.689 74.9318 109.752 76.932 110.21 77.7919C110.668 78.6518 111.363 79.9934 111.754 80.7722C112.146 81.5519 112.669 82.6942 112.916 83.3127C113.162 83.9313 113.434 84.7775 113.518 85.1937C113.603 85.61 113.673 86.1709 113.673 86.4396C113.673 86.7083 113.625 87.1588 113.565 87.4412C113.506 87.7235 113.309 88.218 113.129 88.5404C112.949 88.8629 112.588 89.3309 112.328 89.5801C112.067 89.8293 111.654 90.1547 111.411 90.3032C111.168 90.4527 110.614 90.7243 110.182 90.9071C109.749 91.0908 108.82 91.3907 108.117 91.5735C107.413 91.7562 105.622 92.147 104.134 92.4412C102.647 92.7353 100.08 93.261 98.43 93.6098C96.7798 93.9577 94.6783 94.4199 93.7588 94.6368C92.8393 94.8547 91.9876 95.055 91.8657 95.0843C91.6769 95.1283 91.6307 95.0824 91.549 94.7697C91.4969 94.5684 91.2737 93.6557 91.0544 92.7421C90.8351 91.8285 90.6669 91.0712 90.6827 91.0595C90.6974 91.0478 91.0416 90.9452 91.4478 90.8318C91.8529 90.7185 92.915 90.4556 93.8079 90.2485C94.7009 90.0413 96.8467 89.585 98.5775 89.2342C100.308 88.8834 102.698 88.3958 103.888 88.1506C105.078 87.9053 106.538 87.5789 107.133 87.4245C107.728 87.2702 108.47 87.0288 108.78 86.8891C109.3 86.6555 109.346 86.6086 109.347 86.3174C109.348 86.1425 109.244 85.6921 109.116 85.3159C108.988 84.9397 108.392 83.643 107.79 82.4333C107.189 81.2246 106.161 79.2459 105.506 78.0362C104.85 76.8275 103.631 74.5293 102.797 72.9307C101.964 71.3321 101.293 70.0071 101.306 69.9856Z" fill="var(--fill-0, #F48120)" id="Vector_3"/>
<path clip-rule="evenodd" d="M47.0881 6.1212C47.1196 6.12316 47.9309 6.61759 50.6353 8.31683L50.4484 8.60997C50.3461 8.7712 49.9262 9.50796 49.5151 10.2467C49.1041 10.9854 48.2426 12.6348 47.5995 13.9109C46.9573 15.1871 45.9208 17.3749 45.2963 18.7722C44.6718 20.1695 43.7189 22.412 43.179 23.7556C42.6391 25.0992 41.8229 27.2313 41.3656 28.4947C40.9083 29.7582 40.3852 31.217 40.2013 31.7369C40.0183 32.2567 39.8905 32.7013 39.917 32.7238C39.9446 32.7462 40.5641 32.7091 41.2938 32.6397C42.0235 32.5713 43.6176 32.4453 44.8341 32.3603C46.0516 32.2753 48.0204 32.1629 49.2103 32.1101C50.4002 32.0574 53.3652 32.0144 55.7992 32.0144C58.2331 32.0144 61.2207 32.0583 62.4372 32.1111C63.6546 32.1648 65.6461 32.2753 66.8625 32.3583C68.08 32.4404 70.0262 32.5967 71.1896 32.7042C72.3529 32.8117 74.2332 33.011 75.3691 33.1449C76.5049 33.2798 77.4785 33.3726 77.5326 33.3501C77.5866 33.3286 77.6909 33.1176 77.7637 32.8811C77.8364 32.6456 78.3626 31.2209 78.9329 29.7161C79.5033 28.2113 80.4238 25.9033 80.9784 24.5862C81.5331 23.269 82.3709 21.3567 82.841 20.3356C83.3111 19.3145 84.2502 17.3798 84.9278 16.0362C85.6064 14.6927 86.5544 12.9006 87.9076 10.5154L88.7189 11.0196C89.1653 11.2971 89.9285 11.7671 90.4153 12.0622C90.902 12.3583 91.3446 12.6348 91.3987 12.6758C91.4587 12.7218 91.2325 13.1976 90.8145 13.9051C90.4389 14.5392 89.5066 16.2903 88.7425 17.7951C87.9784 19.2999 86.9959 21.3225 86.5583 22.2899C86.1197 23.2573 85.3438 25.0386 84.8324 26.2473C84.321 27.456 83.4301 29.6986 82.8528 31.2307C82.2746 32.7629 81.8153 34.0224 81.831 34.0302C81.8468 34.039 82.8774 34.2247 84.1214 34.4426C85.3654 34.6614 87.3795 35.0415 88.5959 35.2878C89.8134 35.534 91.8491 35.9806 93.1196 36.2796C94.3912 36.5796 96.2498 37.0417 97.25 37.3065C98.2511 37.5723 99.8885 38.0316 100.889 38.3277C101.89 38.6227 103.527 39.1318 104.527 39.4572C105.528 39.7836 107.099 40.3239 108.018 40.6601C108.938 40.9952 109.924 41.3744 110.21 41.5024C110.497 41.6304 110.73 41.7574 110.729 41.7838C110.728 41.8102 110.369 42.6466 109.932 43.6403C109.495 44.6341 109.13 45.4617 109.119 45.4783C109.109 45.494 108.149 45.1588 106.986 44.7308C105.823 44.3038 104.119 43.7117 103.2 43.4146C102.28 43.1176 100.864 42.6749 100.053 42.4326C99.2414 42.1893 97.9138 41.8082 97.1025 41.5864C96.2911 41.3636 94.5653 40.9249 93.2671 40.6102C91.969 40.2966 89.9776 39.8403 88.8418 39.5979C87.706 39.3556 86.0469 39.0244 85.154 38.8621C84.262 38.6999 82.8676 38.4557 82.0563 38.3198C81.2449 38.184 80.5477 38.0726 80.5074 38.0716C80.4671 38.0716 80.2143 38.7635 79.9449 39.6097C79.6764 40.4559 79.167 42.16 78.813 43.3961C78.4589 44.6321 77.9279 46.5884 77.6338 47.7443C77.3398 48.9003 76.8796 50.8125 76.6111 51.9949C76.3426 53.1772 75.9394 55.068 75.7152 56.1966C75.491 57.3252 75.135 59.2824 74.9245 60.5448C74.7141 61.8073 74.4083 63.786 74.246 64.9419C74.0827 66.0979 73.8389 68.0326 73.7022 69.2413C73.5665 70.451 73.4258 71.8571 73.3255 73.2965L74.6423 73.5241C75.3671 73.6502 76.9995 73.9463 78.2701 74.1827C79.5417 74.4192 81.4003 74.7905 82.4004 75.0084C83.4016 75.2253 85.3703 75.6865 86.7766 76.0324C88.1829 76.3784 90.1969 76.906 91.2512 77.206C92.3054 77.505 94.0322 78.017 95.0865 78.3424C96.1407 78.6678 98.0219 79.302 99.266 79.7495C100.51 80.198 101.793 80.6748 102.118 80.8097C102.472 80.9562 102.695 81.1048 102.676 81.181C102.66 81.2513 102.31 82.079 101.9 83.019C101.489 83.96 101.128 84.7602 101.095 84.7984C101.063 84.8365 100.351 84.6039 99.5118 84.2805C98.673 83.958 97.0808 83.3913 95.9715 83.0209C94.8622 82.6516 93.0488 82.079 91.9395 81.7507C90.8303 81.4214 89.1053 80.9357 88.1042 80.6719C87.1041 80.4081 85.2455 79.9469 83.9739 79.6469C82.7033 79.3459 80.468 78.8642 79.0077 78.574C77.5473 78.2848 75.6346 77.9242 74.7564 77.7727C73.6936 77.5897 73.1298 77.5307 73.0649 77.5959C73.0089 77.6525 72.9174 79.4221 72.8466 81.7976C72.7512 85.0153 72.7502 86.7135 72.8417 89.6635C72.9066 91.7321 73.0266 94.4368 73.1092 95.6729C73.1918 96.909 73.3472 98.8437 73.4553 99.9723C73.5625 101.101 73.7612 102.925 73.8969 104.027C74.0326 105.13 74.1319 106.034 74.1172 106.04C74.1024 106.045 73.2055 106.167 72.1238 106.311C71.042 106.455 70.1235 106.571 70.0832 106.57C70.0429 106.569 69.9898 106.469 69.9662 106.348C69.9416 106.227 69.8098 105.183 69.6731 104.027C69.5364 102.871 69.3348 100.959 69.2247 99.7769C69.1155 98.5946 68.9552 96.5934 68.8697 95.3309C68.7733 93.9082 68.6936 90.9533 68.6612 87.5627C68.6287 84.173 68.6504 81.1057 68.7192 79.5013C68.7812 78.0766 68.8195 76.9041 68.8058 76.8943C68.792 76.8835 68.0721 76.7868 67.2067 76.6774C66.3413 76.5679 64.7482 76.3901 63.6664 76.2826C62.5847 76.1751 60.8146 76.0217 59.7328 75.9416C58.651 75.8624 56.7924 75.7403 55.6025 75.6709C54.2965 75.5947 51.2165 75.5449 47.8335 75.5449C44.4535 75.5449 41.3686 75.5947 40.0646 75.6709C38.8746 75.7403 37.0386 75.8605 35.9834 75.9386C34.9292 76.0178 33.6232 76.1292 33.0823 76.1868C32.5415 76.2445 32.0773 76.3148 32.0498 76.3422C32.0232 76.3686 32.0035 78.9492 32.0075 82.0751C32.0134 86.31 32.0576 88.3932 32.1815 90.2498C32.274 91.6197 32.4382 93.7089 32.5474 94.8912C32.6565 96.0735 32.8355 97.7884 32.9437 98.702C33.0519 99.6157 33.1777 100.627 33.223 100.949C33.2682 101.272 33.2997 101.545 33.2918 101.556C33.2849 101.567 32.3497 101.71 31.2139 101.872C30.078 102.035 29.1438 102.157 29.1389 102.144C29.133 102.133 29.0326 101.331 28.9156 100.363C28.7986 99.3958 28.6176 97.7689 28.5124 96.7478C28.4082 95.7267 28.2558 94.0333 28.1731 92.9858C28.0905 91.9373 27.9696 90.113 27.9037 88.9307C27.8378 87.7483 27.7817 84.5257 27.7719 76.7565L27.4277 76.8083C27.2389 76.8376 26.0431 77.0184 24.7725 77.2109C23.5019 77.4034 21.3994 77.7542 20.1013 77.9897C18.8032 78.2251 17.0999 78.5535 16.3152 78.7196C15.5314 78.8847 13.7612 79.2883 12.3815 79.6146C11.0028 79.942 8.94449 80.4638 7.80865 80.7755C6.67281 81.0862 5.71595 81.3119 5.68252 81.2767C5.6481 81.2406 5.39143 80.4198 5.11214 79.4524C4.83186 78.4851 4.58306 77.6164 4.55848 77.5226C4.52307 77.3848 4.64207 77.3145 5.17803 77.1601C5.54287 77.0545 6.59414 76.7682 7.51363 76.5249C8.43312 76.2816 10.3144 75.8146 11.6931 75.4872C13.0729 75.1608 15.3957 74.6566 16.856 74.3664C18.3164 74.0762 20.5517 73.6658 21.8223 73.4528C23.0928 73.2408 24.9967 72.9476 27.9686 72.5372L28.1456 70.1814C28.243 68.8847 28.4337 66.7477 28.5695 65.4305C28.7052 64.1133 28.9697 61.8933 29.1575 60.496C29.3454 59.0987 29.6768 56.9001 29.8951 55.6103C30.1124 54.3205 30.5127 52.1434 30.7841 50.7735C31.0565 49.4035 31.4548 47.5118 31.6702 46.5718C31.8855 45.6318 32.3054 43.8944 32.6034 42.7121C32.9014 41.5297 33.3203 39.9253 33.5337 39.1455C33.7471 38.3658 33.9094 37.7189 33.8956 37.7062C33.8809 37.6945 32.6526 37.8831 31.1647 38.1264C29.6778 38.3697 27.2438 38.8104 25.7559 39.1055C24.269 39.4015 22.1222 39.8627 20.9864 40.1305C19.8505 40.3982 18.3243 40.7715 17.5936 40.961C16.8639 41.1506 15.7025 41.4682 15.0141 41.6665C14.3257 41.8659 13.7416 42.0056 13.717 41.9792C13.6924 41.9528 13.4141 41.0636 13.1004 40.0034C12.7857 38.9442 12.5516 38.056 12.5782 38.0296C12.6057 38.0042 13.5351 37.7345 14.6434 37.4316C15.7527 37.1277 17.8326 36.5971 19.2654 36.2522C20.6992 35.9063 23.0663 35.3845 24.5267 35.0923C25.987 34.8002 28.2223 34.3849 29.4929 34.169C30.7635 33.954 32.4461 33.6882 33.2298 33.5788C34.0146 33.4703 34.7994 33.3589 34.9754 33.3315C35.2891 33.2837 35.3019 33.2612 35.6559 32.1346C35.8546 31.5033 36.3433 30.063 36.7426 28.9344C37.1419 27.8058 37.6473 26.3988 37.8657 25.8076C38.084 25.2164 38.6957 23.6559 39.2247 22.3388C39.7548 21.0216 40.574 19.0653 41.047 17.9905C41.519 16.9156 42.4002 15.0034 43.005 13.7399C43.6098 12.4765 44.4948 10.7177 44.9708 9.83139C45.4468 8.94513 46.1057 7.74618 46.4331 7.16869C46.7616 6.59121 47.0566 6.11925 47.0881 6.1212V6.1212ZM46.8501 36.4076C45.8224 36.4682 43.9638 36.603 42.7198 36.7066C41.4758 36.8102 40.0154 36.944 39.4745 37.0036L38.4911 37.1111C37.6129 40.1647 37.1114 42.0183 36.8095 43.2006C36.5076 44.383 36.0906 46.0754 35.8831 46.9626C35.6766 47.8499 35.3285 49.4543 35.1101 50.5292C34.8918 51.604 34.5378 53.4508 34.3224 54.6331C34.1071 55.8155 33.7963 57.6847 33.633 58.786C33.4688 59.8882 33.2249 61.6685 33.0912 62.7434C32.9565 63.8182 32.7362 65.8849 32.6005 67.3359C32.4648 68.787 32.3192 70.453 32.2759 71.0383L32.1973 72.1014C32.9594 72.0066 33.7117 71.9343 34.3608 71.8806C35.0098 71.8259 36.5144 71.7164 37.7044 71.6373C38.8943 71.5581 41.638 71.4409 43.8015 71.3783C46.8019 71.2914 48.692 71.2914 51.7672 71.3783C53.9848 71.4409 56.7727 71.5572 57.9627 71.6373C59.1526 71.7164 60.9227 71.8493 61.8963 71.9304C62.8699 72.0125 64.8839 72.2118 66.3708 72.375C67.8587 72.5372 69.088 72.6574 69.1027 72.6408C69.1185 72.6252 69.2365 71.5787 69.3663 70.3162C69.4961 69.0537 69.7174 67.1405 69.857 66.0656C69.9977 64.9908 70.2681 63.1 70.4599 61.864C70.6516 60.6279 71.0056 58.5397 71.2476 57.2226C71.4895 55.9064 71.933 53.7078 72.2339 52.3369C72.5349 50.9669 73.061 48.7244 73.4042 47.3535C73.7474 45.9835 74.4279 43.4772 74.9157 41.7838C75.4044 40.0914 75.8942 38.442 76.0043 38.1195C76.1155 37.7971 76.1725 37.5049 76.1312 37.4707C76.0909 37.4365 75.017 37.2938 73.7464 37.1551C72.4759 37.0154 70.395 36.815 69.1244 36.7095C67.8538 36.604 65.9726 36.4701 64.9449 36.4125C63.9172 36.3548 61.8147 36.2659 60.2737 36.2141C58.7327 36.1623 56.52 36.1252 55.3566 36.133C54.1932 36.1408 52.2244 36.1809 50.9804 36.2219C49.7364 36.2639 47.8778 36.347 46.8501 36.4076V36.4076Z" fill="var(--fill-0, black)" fill-rule="evenodd" id="Vector_4"/>
<g id="Group 8155">
<path d="M322.304 19.8055C322.791 19.7459 323.322 19.6795 323.484 19.657C323.646 19.6345 324.576 19.6355 325.549 19.6589C326.523 19.6814 327.552 19.7332 328.355 19.8456L328.353 22.6548C328.352 25.2804 328.341 25.4612 328.18 25.4231C328.085 25.4006 327.277 25.3283 326.385 25.2638C325.13 25.172 324.528 25.171 323.73 25.2599C323.161 25.3234 322.322 25.4651 321.861 25.5755C321.401 25.6859 320.583 25.9468 320.042 26.154C319.501 26.3621 318.704 26.7422 318.27 26.9992C317.836 27.2572 317.172 27.693 316.795 27.9695C316.417 28.2451 315.733 28.8616 315.272 29.3394C314.812 29.8163 314.216 30.5364 313.948 30.938C313.678 31.3396 313.271 32.0422 313.043 32.4995C312.815 32.9568 312.496 33.7258 312.335 34.2095C312.174 34.6932 311.972 35.4299 311.887 35.8462C311.802 36.2625 311.704 37.0979 311.669 37.7028C311.632 38.3711 311.654 39.2046 311.728 39.828C311.795 40.3918 311.928 41.1618 312.025 41.538C312.122 41.9142 312.337 42.5523 312.504 42.9549C312.671 43.3584 313.083 44.105 313.419 44.616C313.802 45.1994 314.397 45.9068 315.021 46.5214C315.566 47.0589 316.521 47.8552 317.143 48.291C317.763 48.7278 319.953 50.1955 322.009 51.5547C324.064 52.9129 326.562 54.6004 327.559 55.3049C328.735 56.1365 329.769 56.9631 330.5 57.6608C331.12 58.252 331.935 59.1314 332.312 59.6151C332.689 60.0988 333.231 60.8902 333.519 61.3739C333.807 61.8576 334.193 62.5836 334.379 62.9862C334.565 63.3898 334.875 64.2027 335.068 64.7939C335.259 65.3851 335.506 66.3309 335.615 66.8947C335.724 67.4586 335.866 68.4924 335.93 69.191C336 69.9542 336.019 70.988 335.981 71.7804C335.945 72.5055 335.847 73.5618 335.765 74.1256C335.682 74.6894 335.466 75.7232 335.285 76.4218C335.104 77.1205 334.794 78.1094 334.596 78.6204C334.399 79.1314 333.977 80.0539 333.658 80.6724C333.34 81.2909 332.822 82.1791 332.51 82.6462C332.197 83.1143 331.61 83.8999 331.204 84.3923C330.799 84.8848 330.002 85.7291 329.434 86.2675C328.865 86.8059 327.98 87.5602 327.467 87.9442C326.953 88.3283 326.112 88.9018 325.598 89.2194C325.085 89.537 324.111 90.0715 323.435 90.4066C322.759 90.7418 321.653 91.2343 320.976 91.502C320.301 91.7688 319.304 92.1215 318.764 92.2847C318.223 92.4488 317.249 92.7136 316.6 92.8749C315.951 93.0351 314.933 93.2589 314.338 93.3722C313.743 93.4856 312.836 93.641 312.322 93.7172C311.809 93.7934 310.703 93.9224 309.864 94.0025C309.025 94.0826 307.818 94.1833 306.023 94.3035L306.078 88.8315L307.553 88.7113C308.364 88.6449 309.692 88.5002 310.503 88.3898C311.314 88.2784 312.686 88.0322 313.551 87.8407C314.417 87.6501 315.634 87.3492 316.256 87.1713C316.877 86.9935 317.829 86.6857 318.37 86.4864C318.911 86.288 319.951 85.8414 320.681 85.4946C321.412 85.1477 322.496 84.5399 323.091 84.1451C323.686 83.7494 324.482 83.166 324.861 82.8494C325.239 82.5319 325.875 81.9016 326.272 81.4482C326.669 80.9948 327.227 80.2718 327.512 79.8418C327.797 79.4119 328.253 78.6204 328.525 78.083C328.796 77.5455 329.175 76.6436 329.366 76.0798C329.556 75.516 329.814 74.5487 329.938 73.9301C330.122 73.0204 330.165 72.481 330.168 71.0964C330.17 69.8262 330.124 69.1353 329.987 68.4093C329.885 67.8719 329.674 67.0364 329.517 66.5527C329.361 66.0691 329.013 65.2336 328.745 64.6962C328.477 64.1588 327.974 63.3448 327.628 62.8885C327.282 62.4322 326.628 61.7042 326.176 61.2723C325.723 60.8404 324.733 60.0499 323.976 59.5154C323.218 58.9799 321.094 57.5807 319.255 56.4052C317.416 55.2297 315.425 53.936 314.83 53.5295C314.235 53.122 313.394 52.5259 312.961 52.2035C312.529 51.881 311.597 51.0426 310.891 50.3401C309.951 49.405 309.405 48.761 308.856 47.9383C308.442 47.3198 307.886 46.3524 307.62 45.7886C307.354 45.2248 307.02 44.4108 306.878 43.9809C306.735 43.5509 306.534 42.8034 306.429 42.3197C306.324 41.8361 306.185 40.9781 306.12 40.4143C306.046 39.7743 306.023 38.7815 306.059 37.7761C306.09 36.8898 306.183 35.768 306.265 35.2844C306.347 34.8007 306.53 33.9652 306.671 33.4278C306.811 32.8904 307.146 31.923 307.414 31.2781C307.682 30.6332 308.154 29.6658 308.461 29.1284C308.768 28.591 309.35 27.7115 309.755 27.1741C310.16 26.6367 311.002 25.6908 311.628 25.0723C312.253 24.4538 313.119 23.6848 313.551 23.3642C313.984 23.0437 314.802 22.5053 315.371 22.1682C315.939 21.8301 316.934 21.3377 317.583 21.0719C318.232 20.8061 319.36 20.4367 320.091 20.2511C320.822 20.0654 321.817 19.8651 322.304 19.8055Z" fill="var(--fill-0, #245583)" id="Vector_5"/>
<path clip-rule="evenodd" d="M167.121 19.9561C167.987 19.9786 168.972 20.0294 169.926 20.1398L169.924 25.7583L169.604 25.7114C169.428 25.686 168.643 25.6186 167.859 25.5639C166.914 25.4965 166.102 25.4945 165.45 25.557C164.909 25.6098 164.134 25.7222 163.729 25.8082C163.322 25.8932 162.659 26.0749 162.253 26.2108C161.847 26.3466 161.183 26.6114 160.778 26.798C160.372 26.9846 159.598 27.4283 159.057 27.7839C158.429 28.1983 157.701 28.8041 157.041 29.4646C156.473 30.0323 155.802 30.8053 155.55 31.1815C155.298 31.5576 154.914 32.2172 154.698 32.6472C154.482 33.0771 154.144 33.8911 153.949 34.4549C153.753 35.0187 153.517 35.8326 153.425 36.2626C153.301 36.8391 153.259 37.4928 153.265 38.7543C153.27 39.9786 153.318 40.6655 153.436 41.1727C153.526 41.5626 153.692 42.1557 153.804 42.4918C153.916 42.828 154.186 43.4543 154.402 43.8842C154.618 44.3142 155 44.9513 155.251 45.3011C155.501 45.6509 156.084 46.3144 156.546 46.7766C157.008 47.2388 157.817 47.9315 158.344 48.3156C158.871 48.6996 161.107 50.2073 163.311 51.6662C165.514 53.125 168.137 54.8946 169.137 55.5982C170.602 56.6281 171.226 57.1459 172.337 58.2472C173.16 59.0631 173.975 59.9816 174.353 60.521C174.702 61.0183 175.175 61.7659 175.404 62.1821C175.632 62.5984 176.003 63.4006 176.228 63.9644C176.453 64.5282 176.737 65.3197 176.859 65.7233C176.981 66.1258 177.184 67.0277 177.308 67.7264C177.501 68.7993 177.537 69.3308 177.538 71.1464C177.539 72.7323 177.492 73.5902 177.363 74.4198C177.265 75.0383 177.061 76.0272 176.907 76.6183C176.754 77.2095 176.446 78.1769 176.223 78.768C176 79.3592 175.594 80.2826 175.323 80.82C175.052 81.3575 174.461 82.3463 174.011 83.0186C173.561 83.6899 172.863 84.6143 172.46 85.0706C172.057 85.5269 171.332 86.2705 170.85 86.7229C170.368 87.1744 169.642 87.7939 169.236 88.0977C168.83 88.4026 168.167 88.8736 167.761 89.1443C167.355 89.4149 166.58 89.881 166.04 90.179C165.499 90.4771 164.447 90.9881 163.704 91.3155C162.96 91.6428 161.743 92.1128 161 92.359C160.256 92.6063 158.851 93 157.877 93.2346C156.904 93.4691 155.576 93.7495 154.927 93.858C154.278 93.9664 153.149 94.1218 152.419 94.2029C151.69 94.284 150.472 94.3944 149.715 94.4491C148.958 94.5039 148.172 94.5478 147.601 94.5488L147.65 89.1257L149.125 89.0055C149.936 88.9391 151.264 88.7935 152.075 88.6821C152.886 88.5707 154.148 88.3538 154.878 88.2003C155.608 88.0469 156.759 87.7665 157.435 87.5779C158.111 87.3883 159.195 87.0454 159.844 86.8167C160.493 86.5871 161.666 86.0829 162.45 85.695C163.234 85.307 164.253 84.7393 164.712 84.4325C165.171 84.1247 165.88 83.6 166.285 83.2648C166.692 82.9297 167.263 82.3962 167.556 82.0796C167.85 81.763 168.352 81.1523 168.672 80.7223C168.993 80.2924 169.466 79.5664 169.723 79.11C169.981 78.6537 170.395 77.7743 170.642 77.1558C170.89 76.5372 171.187 75.6578 171.302 75.2015C171.418 74.7452 171.575 73.9537 171.652 73.4426C171.729 72.9316 171.792 71.9867 171.791 71.3418C171.791 70.6969 171.721 69.707 171.635 69.1432C171.55 68.5794 171.371 67.743 171.237 67.2867C171.103 66.8304 170.821 66.0604 170.608 65.5767C170.397 65.093 169.95 64.28 169.615 63.769C169.231 63.1817 168.625 62.4606 167.966 61.8059C167.281 61.1239 166.43 60.4233 165.477 59.7539C164.68 59.194 162.689 57.8837 161.052 56.8411C159.414 55.7985 157.344 54.449 156.451 53.8413C155.558 53.2345 154.475 52.4547 154.042 52.1098C153.609 51.7649 152.813 51.0242 152.272 50.4653C151.731 49.9054 151.001 49.0425 150.649 48.5462C150.297 48.0498 149.822 47.3042 149.592 46.888C149.363 46.4717 149.001 45.6919 148.789 45.1545C148.576 44.6171 148.284 43.7152 148.14 43.1514C147.997 42.5876 147.818 41.6632 147.742 41.0994C147.666 40.5356 147.604 39.4686 147.603 38.7298C147.602 37.9911 147.666 36.8918 147.747 36.287C147.828 35.6821 148.002 34.748 148.134 34.2106C148.266 33.6732 148.514 32.8377 148.684 32.354C148.855 31.8703 149.209 31.0349 149.471 30.4975C149.732 29.96 150.251 29.0581 150.623 28.4943C150.995 27.9305 151.634 27.0726 152.042 26.5889C152.451 26.1052 153.133 25.3841 153.561 24.9874C153.988 24.5897 154.669 24.0132 155.075 23.7064C155.481 23.3995 156.122 22.9598 156.5 22.7302C156.879 22.4996 157.565 22.1234 158.025 21.8938C158.484 21.6632 159.215 21.3358 159.647 21.1648C160.08 20.9948 161.009 20.7095 161.713 20.5316C162.416 20.3538 163.389 20.1593 163.876 20.0988C164.363 20.0392 164.938 19.9727 165.154 19.9522C165.371 19.9317 166.256 19.9326 167.121 19.9561ZM245.401 51.1776C246.104 51.1707 247.078 51.2098 247.564 51.2636C248.051 51.3173 248.803 51.4297 249.236 51.5128C249.669 51.5958 250.465 51.7971 251.006 51.9603C251.547 52.1235 252.388 52.4479 252.875 52.6804C253.362 52.914 254.092 53.3234 254.497 53.5901C254.904 53.8569 255.523 54.3367 255.874 54.6562C256.225 54.9757 256.764 55.562 257.071 55.9607C257.379 56.3594 257.808 57.015 258.026 57.4176C258.243 57.8211 258.538 58.4582 258.681 58.8344C258.824 59.2106 259.035 59.8927 259.149 60.349C259.356 61.1766 259.357 61.2441 259.415 94.2557H254.006V92.4968C254.006 91.5295 253.984 90.738 253.957 90.738C253.929 90.738 253.675 90.908 253.391 91.1151C253.107 91.3223 252.477 91.719 251.99 91.9965C251.503 92.274 250.641 92.6825 250.072 92.9033C249.504 93.1241 248.464 93.4486 247.761 93.6235C247.058 93.7993 245.863 94.0133 245.106 94.0984C244.349 94.1843 243.132 94.2547 242.401 94.2547C241.671 94.2557 240.477 94.1863 239.746 94.1013C239.016 94.0172 237.932 93.8228 237.337 93.6713C236.742 93.5189 235.834 93.2346 235.321 93.0382C234.808 92.8418 233.923 92.4392 233.354 92.1431C232.786 91.848 231.969 91.3555 231.54 91.0497C231.11 90.7438 230.274 90.0315 229.683 89.4677C229.092 88.9039 228.258 87.9795 227.83 87.4157C227.335 86.763 226.824 85.9285 226.426 85.1194C226.082 84.4208 225.665 83.4319 225.5 82.9209C225.334 82.4098 225.099 81.5304 224.978 80.9666C224.785 80.0667 224.757 79.6475 224.753 77.5466C224.75 75.4468 224.776 75.0207 224.969 74.0778C225.089 73.4866 225.327 72.5857 225.497 72.0747C225.667 71.5636 225.99 70.7506 226.216 70.2669C226.442 69.7833 226.885 68.9918 227.202 68.5081C227.518 68.0244 228.029 67.3209 228.338 66.9447C228.647 66.5685 229.319 65.8649 229.833 65.3813C230.347 64.8976 231.183 64.2048 231.692 63.8423C232.201 63.4788 233.192 62.8984 233.895 62.5524C234.598 62.2065 235.527 61.8098 235.96 61.6691C236.393 61.5294 237.101 61.3261 237.534 61.2167C237.966 61.1082 238.741 60.9568 239.255 60.8806C239.768 60.8043 240.764 60.7145 241.467 60.6803C242.197 60.6441 243.274 60.6656 243.975 60.7281C244.652 60.7897 245.668 60.9314 246.237 61.0437C246.805 61.1561 247.8 61.4219 248.449 61.6339C249.099 61.846 250.072 62.2329 250.613 62.4928C251.154 62.7537 252.083 63.2902 252.678 63.6849C253.273 64.0807 253.823 64.4481 253.901 64.5018C254.021 64.5859 254.033 64.3973 253.989 63.1827C253.944 61.9642 253.897 61.6496 253.654 60.9353C253.498 60.479 253.193 59.8438 252.975 59.5253C252.758 59.2067 252.337 58.7299 252.039 58.467C251.741 58.2042 251.1 57.7967 250.613 57.5612C250.126 57.3257 249.307 57.0258 248.794 56.8938C248.28 56.7619 247.328 56.6007 246.679 56.5343C245.983 56.4639 245.096 56.4414 244.516 56.4795C243.975 56.5147 243.112 56.6134 242.598 56.6984C242.085 56.7834 241.288 56.9603 240.828 57.0922C240.368 57.2231 239.616 57.4958 239.156 57.6961C238.696 57.8974 238.032 58.255 237.681 58.4915C237.33 58.7289 236.541 59.3865 235.929 59.9533C235.259 60.5728 234.784 60.9451 234.737 60.8864C234.694 60.8327 233.988 59.8321 233.17 58.6634C232.352 57.4948 231.684 56.5049 231.687 56.4649C231.69 56.4248 232.179 55.9959 232.774 55.5122C233.369 55.0285 234.153 54.4403 234.515 54.2048C234.877 53.9702 235.726 53.5129 236.403 53.1885C237.079 52.8651 238.141 52.4352 238.763 52.2329C239.384 52.0306 240.491 51.7492 241.221 51.6085C241.952 51.4688 242.903 51.3163 243.336 51.2714C243.768 51.2264 244.698 51.1844 245.401 51.1776V51.1776ZM238.935 66.203C238.462 66.3154 237.71 66.5528 237.263 66.7297C236.817 66.9075 236.084 67.2701 235.634 67.5358C235.184 67.8016 234.433 68.3488 233.966 68.7524C233.499 69.155 232.849 69.8204 232.522 70.2308C232.196 70.6412 231.7 71.4102 231.422 71.9408C231.142 72.4714 230.804 73.257 230.669 73.6869C230.535 74.1169 230.378 74.7764 230.322 75.1526C230.265 75.5288 230.19 76.2324 230.156 76.7161C230.121 77.1997 230.14 78.0577 230.199 78.6215C230.258 79.1853 230.4 80.0217 230.515 80.478C230.629 80.9344 230.884 81.6828 231.08 82.1392C231.278 82.5955 231.702 83.3655 232.023 83.8492C232.344 84.3328 233.007 85.1292 233.497 85.6188C234.034 86.1552 234.757 86.7473 235.321 87.1099C235.834 87.4411 236.565 87.8398 236.944 87.9961C237.322 88.1534 238.008 88.3899 238.468 88.5218C238.928 88.6547 239.746 88.8179 240.287 88.8853C240.928 88.9645 241.835 88.9869 242.893 88.9488C243.785 88.9166 244.826 88.8218 245.204 88.7368C245.583 88.6528 246.181 88.4915 246.532 88.3782C246.883 88.2648 247.547 87.9893 248.007 87.7655C248.467 87.5408 249.086 87.1988 249.384 87.0034C249.682 86.8079 250.268 86.3594 250.687 86.0067C251.106 85.653 251.738 85.0012 252.09 84.5576C252.443 84.114 252.927 83.3772 253.165 82.9209C253.402 82.4646 253.709 81.76 253.845 81.3575C253.982 80.9539 254.162 80.2074 254.246 79.6963C254.33 79.1853 254.399 78.1739 254.399 77.4489C254.4 76.6711 254.334 75.7487 254.241 75.2015C254.152 74.6904 253.971 73.9429 253.839 73.5404C253.706 73.1368 253.441 72.4997 253.25 72.1235C253.06 71.7473 252.69 71.1317 252.428 70.7555C252.167 70.3793 251.63 69.7442 251.234 69.3436C250.838 68.9439 250.183 68.3713 249.777 68.0713C249.372 67.7723 248.619 67.3228 248.105 67.0737C247.592 66.8245 246.817 66.5108 246.384 66.376C245.952 66.2411 245.133 66.0613 244.565 65.9773C243.979 65.8894 242.98 65.8278 242.254 65.8347C241.551 65.8405 240.71 65.8806 240.385 65.9216C240.061 65.9636 239.408 66.0907 238.935 66.203V66.203ZM285.278 51.201C287.207 51.2264 287.768 51.2685 288.671 51.4512C289.266 51.5724 290.151 51.802 290.638 51.9613C291.125 52.1205 291.877 52.4156 292.31 52.6169C292.742 52.8182 293.493 53.2442 293.977 53.5638C294.461 53.8833 295.214 54.4969 295.648 54.9278C296.084 55.3588 296.647 56.0183 296.9 56.3935C297.154 56.7688 297.537 57.4498 297.754 57.9062C297.97 58.3625 298.257 59.111 298.391 59.5673C298.525 60.0236 298.682 60.7389 298.741 61.1551C298.816 61.6799 298.849 66.8831 298.849 94.2557H293.539L293.544 90.4937L293.321 90.7028C293.197 90.8181 292.698 91.1679 292.211 91.4806C291.725 91.7923 290.928 92.233 290.441 92.4587C289.954 92.6854 289.135 93.0088 288.622 93.1789C288.108 93.3479 287.323 93.5717 286.876 93.6762C286.43 93.7798 285.523 93.9361 284.86 94.0231C284.138 94.1179 282.947 94.1814 281.885 94.1824C280.813 94.1824 279.65 94.1218 278.935 94.027C278.286 93.941 277.334 93.7622 276.821 93.6293C276.308 93.4974 275.488 93.2502 275.002 93.0802C274.515 92.9101 273.607 92.5115 272.986 92.1939C272.364 91.8754 271.39 91.2705 270.822 90.8503C270.254 90.4292 269.454 89.7589 269.045 89.3612C268.635 88.9625 268.064 88.3518 267.774 88.002C267.484 87.6522 267.017 87.0151 266.735 86.5851C266.454 86.1552 266.046 85.4517 265.829 85.0217C265.612 84.5918 265.28 83.8003 265.091 83.2629C264.902 82.7254 264.657 81.8685 264.546 81.3575C264.436 80.8464 264.297 80.0002 264.24 79.4765C264.182 78.9527 264.135 78.0293 264.136 77.4245C264.136 76.8196 264.181 75.9295 264.235 75.4458C264.289 74.9621 264.404 74.2146 264.49 73.7846C264.576 73.3547 264.78 72.5857 264.943 72.0747C265.106 71.5636 265.426 70.7506 265.654 70.2669C265.882 69.7833 266.259 69.0797 266.491 68.7035C266.723 68.3273 267.189 67.6678 267.528 67.2378C267.865 66.8079 268.624 65.9939 269.214 65.4301C269.805 64.8663 270.684 64.1256 271.169 63.7846C271.655 63.4446 272.405 62.9746 272.838 62.7401C273.271 62.5055 274.089 62.1323 274.657 61.9085C275.226 61.6857 276.199 61.374 276.821 61.2157C277.442 61.0584 278.449 60.864 279.058 60.7858C279.667 60.7066 280.873 60.6421 281.738 60.6421C282.603 60.6421 283.809 60.7066 284.418 60.7858C285.026 60.864 286.055 61.0652 286.704 61.2314C287.353 61.3975 288.348 61.7189 288.917 61.9456C289.485 62.1714 290.37 62.5886 290.884 62.871C291.397 63.1534 292.183 63.6468 292.629 63.9673C293.076 64.2878 293.462 64.5507 293.49 64.5507C293.517 64.5507 293.539 64.2204 293.539 63.8178C293.539 63.4143 293.492 62.744 293.434 62.3277C293.375 61.9114 293.216 61.2402 293.081 60.8376C292.945 60.434 292.627 59.7999 292.376 59.4266C292.123 59.0543 291.673 58.554 291.375 58.3156C291.077 58.0781 290.546 57.7391 290.195 57.5642C289.844 57.3883 289.18 57.1274 288.72 56.9828C288.26 56.8391 287.442 56.6544 286.901 56.5724C286.193 56.4649 285.463 56.4356 284.295 56.4688C283.209 56.5001 282.33 56.5831 281.64 56.7209C281.071 56.8333 280.231 57.0531 279.771 57.2095C279.311 57.3658 278.714 57.5905 278.444 57.7078C278.173 57.826 277.598 58.1553 277.165 58.4397C276.732 58.724 275.902 59.4022 274.264 60.9353L273.314 59.5917C272.792 58.853 272.1 57.8739 271.776 57.4176C271.452 56.9613 271.171 56.5431 271.151 56.4893C271.13 56.4356 271.567 56.0174 272.12 55.561C272.674 55.1047 273.483 54.494 273.917 54.2057C274.352 53.9175 275.193 53.4485 275.788 53.1641C276.383 52.8788 277.268 52.5085 277.755 52.3394C278.242 52.1713 279.083 51.9212 279.624 51.7854C280.164 51.6495 281.138 51.4551 281.787 51.3545C282.75 51.2049 283.393 51.1766 285.278 51.201ZM278.739 66.0692C278.306 66.1581 277.642 66.3418 277.263 66.4776C276.885 66.6134 276.199 66.9115 275.739 67.1401C275.279 67.3678 274.549 67.8192 274.117 68.1417C273.684 68.4641 273.042 69.0309 272.69 69.4002C272.338 69.7696 271.843 70.3568 271.591 70.7067C271.338 71.0565 270.955 71.6936 270.738 72.1235C270.521 72.5534 270.234 73.2795 270.1 73.7358C269.968 74.1921 269.803 74.9406 269.736 75.3969C269.659 75.9304 269.633 76.804 269.667 77.8398C269.708 79.1247 269.768 79.6406 269.963 80.3803C270.097 80.8914 270.355 81.6604 270.536 82.0903C270.717 82.5203 271.126 83.2678 271.446 83.7514C271.779 84.2547 272.432 85.0315 272.974 85.5679C273.494 86.0829 274.208 86.6965 274.559 86.931C274.91 87.1646 275.574 87.5418 276.034 87.7675C276.494 87.9932 277.18 88.2717 277.558 88.387C277.937 88.5023 278.623 88.6616 279.083 88.7407C279.543 88.8199 280.405 88.9117 281 88.944C281.614 88.9782 282.55 88.9547 283.164 88.8892C283.759 88.8267 284.611 88.6889 285.057 88.5834C285.503 88.4788 286.256 88.2375 286.729 88.0479C287.202 87.8583 287.899 87.5212 288.278 87.2994C288.656 87.0766 289.231 86.6936 289.555 86.4464C289.879 86.2002 290.454 85.6862 290.834 85.3041C291.212 84.9211 291.729 84.3055 291.981 83.9361C292.234 83.5658 292.62 82.8886 292.842 82.4323C293.063 81.976 293.355 81.162 293.492 80.6246C293.628 80.0872 293.785 79.1423 293.839 78.5238C293.904 77.7762 293.904 77.0239 293.839 76.2763C293.785 75.6578 293.629 74.7129 293.493 74.1755C293.356 73.6381 293.053 72.8026 292.82 72.3189C292.586 71.8353 292.2 71.1542 291.962 70.8044C291.725 70.4546 291.196 69.8233 290.788 69.4002C290.381 68.9781 289.716 68.383 289.31 68.0801C288.905 67.7772 288.219 67.3453 287.786 67.1215C287.353 66.8978 286.601 66.5812 286.114 66.419C285.627 66.2558 284.808 66.0574 284.295 65.9763C283.781 65.8962 282.896 65.8102 282.328 65.7848C281.76 65.7594 280.897 65.777 280.41 65.8239C279.924 65.8698 279.171 65.9812 278.739 66.0692ZM182.069 51.8469L182.546 53.1915C182.809 53.9302 183.479 55.8317 184.036 57.4176C184.594 59.0035 185.988 62.9609 187.135 66.2118C188.282 69.4628 189.662 73.3772 190.201 74.9083C190.741 76.4395 191.667 79.0778 192.261 80.7712C192.854 82.4646 193.36 83.8716 193.384 83.898C193.408 83.9244 193.443 83.9244 193.463 83.898C193.483 83.8716 194.063 82.3102 194.752 80.4292C195.442 78.5482 196.529 75.5806 197.17 73.8335C197.812 72.0874 198.859 69.2292 200.664 64.3064L204.688 64.2566L205.293 65.9431C205.628 66.8704 206.903 70.3549 208.129 73.6869C209.355 77.019 210.67 80.6021 211.051 81.6506C211.433 82.6991 211.787 83.6664 211.839 83.8003C211.922 84.0153 211.998 83.8619 212.469 82.53C212.763 81.6975 213.399 79.8937 213.88 78.5238C214.36 77.1538 215.336 74.3836 216.048 72.3678C216.759 70.3529 217.806 67.3844 218.374 65.7721C218.942 64.1598 219.872 61.5216 220.44 59.9093C221.007 58.297 221.878 55.8239 223.274 51.8469L226.101 51.8479C227.656 51.8479 228.93 51.8811 228.931 51.9212C228.932 51.9613 228.581 53.0058 228.151 54.2419C227.721 55.478 226.788 58.1387 226.076 60.1536C225.365 62.1694 224.319 65.137 223.751 66.7493C223.184 68.3615 222.232 71.0653 221.636 72.7586C221.039 74.452 220.117 77.0678 219.586 78.5726C219.055 80.0774 218.126 82.7157 217.52 84.4354C216.914 86.1552 215.955 88.8814 215.387 90.4937C214.82 92.106 214.278 93.645 214.011 94.4022L209.998 94.457L208.534 90.4722C207.728 88.2805 206.431 84.7511 205.651 82.6277C204.872 80.5044 203.893 77.8349 203.477 76.6955C203.061 75.5552 202.69 74.6543 202.654 74.6924C202.617 74.7305 201.651 77.3121 200.508 80.4292C199.365 83.5462 198.017 87.2183 197.513 88.5883C197.008 89.9582 196.314 91.8412 195.345 94.4609L191.34 94.4022L190.672 92.4968C190.305 91.4484 189.407 88.898 188.679 86.8294C187.95 84.7608 186.082 79.4618 184.528 75.0549C182.974 70.648 181.106 65.349 180.378 63.2804C179.649 61.2118 178.706 58.5296 178.281 57.3199C177.857 56.1112 177.264 54.4285 176.962 53.5823C176.661 52.7361 176.415 51.9994 176.415 51.9456C176.415 51.8831 177.423 51.8479 182.069 51.8469V51.8469Z" fill="var(--fill-0, #245583)" fill-rule="evenodd" id="Vector_6"/>
</g>
</g>
</g>
</svg>