<?xml version="1.0" encoding="utf-8"?>
<svg xmlns="http://www.w3.org/2000/svg" fill="none" height="100%" overflow="visible" preserveAspectRatio="none" style="display: block;" viewBox="0 0 218.676 131.999" width="100%">
<g id="Tablet">
<path d="M135.048 0.930399L214.718 46.9166C215.893 47.5349 216.877 48.4625 217.563 49.5992C218.249 50.7358 218.612 52.0385 218.612 53.3663C218.612 54.6941 218.249 55.9966 217.563 57.1333C216.877 58.27 215.893 59.1976 214.718 59.8159L91.3196 131.069C90.1156 131.68 88.7842 131.999 87.4337 131.999C86.0832 131.999 84.7517 131.68 83.5477 131.069L3.89428 85.0664C2.71923 84.448 1.73544 83.5205 1.04913 82.3838C0.362814 81.2471 8.25415e-05 79.9445 8.25415e-05 78.6167C8.25415e-05 77.2889 0.362814 75.9863 1.04913 74.8496C1.73544 73.713 2.71923 72.7853 3.89428 72.167L127.357 0.930399C128.55 0.329334 129.867 0.0162292 131.203 0.0162292C132.538 0.0162292 133.856 0.329334 135.048 0.930399Z" fill="var(--fill-0, #FF7032)" id="Vector"/>
<path d="M135.048 0.930399L214.718 46.9166C215.893 47.5349 216.877 48.4625 217.563 49.5992C218.249 50.7358 218.612 52.0385 218.612 53.3663C218.612 54.6941 218.249 55.9966 217.563 57.1333C216.877 58.27 215.893 59.1976 214.718 59.8159L91.3196 131.069C90.1156 131.68 88.7842 131.999 87.4337 131.999C86.0832 131.999 84.7517 131.68 83.5477 131.069L3.89428 85.0664C2.71923 84.448 1.73544 83.5205 1.04913 82.3838C0.362814 81.2471 8.25415e-05 79.9445 8.25415e-05 78.6167C8.25415e-05 77.2889 0.362814 75.9863 1.04913 74.8496C1.73544 73.713 2.71923 72.7853 3.89428 72.167L127.357 0.930399C128.55 0.329334 129.867 0.0162292 131.203 0.0162292C132.538 0.0162292 133.856 0.329334 135.048 0.930399Z" fill="var(--fill-0, #FF7032)" id="Vector_2"/>
<path d="M135.048 0.930399L214.718 46.9166C215.893 47.5349 216.877 48.4625 217.563 49.5992C218.249 50.7358 218.612 52.0385 218.612 53.3663C218.612 54.6941 218.249 55.9966 217.563 57.1333C216.877 58.27 215.893 59.1976 214.718 59.8159L91.3196 131.069C90.1156 131.68 88.7842 131.999 87.4337 131.999C86.0832 131.999 84.7517 131.68 83.5477 131.069L3.89428 85.0664C2.71923 84.448 1.73544 83.5205 1.04913 82.3838C0.362814 81.2471 8.25415e-05 79.9445 8.25415e-05 78.6167C8.25415e-05 77.2889 0.362814 75.9863 1.04913 74.8496C1.73544 73.713 2.71923 72.7853 3.89428 72.167L127.357 0.930399C128.55 0.329334 129.867 0.0162292 131.203 0.0162292C132.538 0.0162292 133.856 0.329334 135.048 0.930399Z" fill="var(--fill-0, black)" id="Vector_3" opacity="0.2"/>
<path d="M58.2968 40.7573L127.357 0.930537C128.558 0.318888 129.887 3.06559e-05 131.235 3.06559e-05C132.582 3.06559e-05 133.911 0.318888 135.112 0.930537L214.782 46.9167C215.957 47.5351 216.941 48.4626 217.627 49.5993C218.313 50.736 218.676 52.0386 218.676 53.3664C218.676 54.6942 218.313 55.9968 217.627 57.1335C216.941 58.2701 215.957 59.1977 214.782 59.8161L91.3836 131.069C90.1859 131.696 88.8495 132.012 87.4977 131.988V116.476L58.2968 40.7573Z" fill="var(--fill-0, #FF7032)" id="Vector_4"/>
<path d="M91.3196 122.652L214.718 51.3993C216.862 50.1738 216.862 48.1744 214.718 46.9167L135.048 0.930537C133.847 0.318888 132.518 3.06559e-05 131.17 3.06559e-05C129.823 3.06559e-05 128.494 0.318888 127.293 0.930537L3.89426 72.1833C1.74975 73.4087 1.74975 75.4081 3.89426 76.6658L83.5477 122.652C84.7517 123.264 86.0831 123.583 87.4336 123.583C88.7842 123.583 90.1156 123.264 91.3196 122.652Z" fill="var(--fill-0, #FF7032)" id="Vector_5"/>
<path d="M91.3196 122.652L214.718 51.3993C216.862 50.1738 216.862 48.1744 214.718 46.9167L135.048 0.930537C133.847 0.318888 132.518 3.06559e-05 131.17 3.06559e-05C129.823 3.06559e-05 128.494 0.318888 127.293 0.930537L3.89426 72.1833C1.74975 73.4087 1.74975 75.4081 3.89426 76.6658L83.5477 122.652C84.7517 123.264 86.0831 123.583 87.4336 123.583C88.7842 123.583 90.1156 123.264 91.3196 122.652Z" fill="var(--fill-0, black)" id="Vector_6" opacity="0.1"/>
<path d="M202.48 52.4796L125.438 7.99299C124.954 7.7541 124.422 7.62984 123.882 7.62984C123.343 7.62984 122.81 7.7541 122.326 7.99299L16.1324 69.2649C15.9483 69.3313 15.7892 69.4528 15.6767 69.613C15.5642 69.7731 15.5039 69.9641 15.5039 70.1598C15.5039 70.3555 15.5642 70.5464 15.6767 70.7065C15.7892 70.8667 15.9483 70.9883 16.1324 71.0547L93.1737 115.541C93.6577 115.78 94.1901 115.904 94.7298 115.904C95.2694 115.904 95.8018 115.78 96.2857 115.541L202.48 54.2694C202.664 54.203 202.823 54.0814 202.935 53.9213C203.048 53.7611 203.108 53.5702 203.108 53.3745C203.108 53.1788 203.048 52.9878 202.935 52.8277C202.823 52.6675 202.664 52.546 202.48 52.4796Z" fill="var(--fill-0, #FAFAFA)" id="Vector_7"/>
<path d="M47.0911 97.7564C47.8642 98.1539 48.721 98.3612 49.5903 98.3612C50.4596 98.3612 51.3164 98.1539 52.0896 97.7564C52.3952 97.6583 52.6617 97.4656 52.8508 97.2063C53.04 96.9469 53.1419 96.6342 53.1419 96.3132C53.1419 95.9923 53.04 95.6796 52.8508 95.4202C52.6617 95.1609 52.3952 94.9683 52.0896 94.8701C51.3164 94.4727 50.4596 94.2653 49.5903 94.2653C48.721 94.2653 47.8642 94.4727 47.0911 94.8701C46.7854 94.9683 46.5188 95.1609 46.3297 95.4202C46.1406 95.6796 46.0387 95.9923 46.0387 96.3132C46.0387 96.6342 46.1406 96.9469 46.3297 97.2063C46.5188 97.4656 46.7854 97.6583 47.0911 97.7564Z" fill="var(--fill-0, #FF7032)" id="Vector_8"/>
<g id="Group" opacity="0.3">
<path d="M47.0902 97.7565C47.8633 98.154 48.7201 98.3613 49.5894 98.3613C50.4588 98.3613 51.3156 98.154 52.0887 97.7565C52.3943 97.6584 52.6609 97.4658 52.85 97.2064C53.0391 96.9471 53.1411 96.6344 53.1411 96.3134C53.1411 95.9924 53.0391 95.6797 52.85 95.4204C52.6609 95.161 52.3943 94.9684 52.0887 94.8703C51.3156 94.4728 50.4588 94.2654 49.5894 94.2654C48.7201 94.2654 47.8633 94.4728 47.0902 94.8703C46.7846 94.9684 46.518 95.161 46.3289 95.4204C46.1398 95.6797 46.0379 95.9924 46.0379 96.3134C46.0379 96.6344 46.1398 96.9471 46.3289 97.2064C46.518 97.4658 46.7846 97.6584 47.0902 97.7565Z" fill="var(--fill-0, black)" id="Vector_9"/>
</g>
<path d="M170.537 26.4874C170.734 26.5905 170.952 26.6444 171.174 26.6444C171.396 26.6444 171.615 26.5905 171.811 26.4874C171.885 26.4599 171.949 26.4104 171.994 26.3455C172.039 26.2807 172.063 26.2036 172.063 26.1246C172.063 26.0456 172.039 25.9685 171.994 25.9036C171.949 25.8388 171.885 25.7893 171.811 25.7618C171.615 25.6587 171.396 25.6048 171.174 25.6048C170.952 25.6048 170.734 25.6587 170.537 25.7618C170.463 25.7893 170.399 25.8388 170.354 25.9036C170.309 25.9685 170.285 26.0456 170.285 26.1246C170.285 26.2036 170.309 26.2807 170.354 26.3455C170.399 26.4104 170.463 26.4599 170.537 26.4874Z" fill="var(--fill-0, #FF7032)" id="Vector_10"/>
<path d="M172.504 32.2922C172.897 32.4906 173.33 32.5939 173.77 32.5939C174.21 32.5939 174.643 32.4906 175.036 32.2922C175.19 32.2406 175.323 32.142 175.418 32.0103C175.512 31.8787 175.563 31.7207 175.563 31.5585C175.563 31.3964 175.512 31.2384 175.418 31.1068C175.323 30.9751 175.19 30.8765 175.036 30.8249C174.643 30.6265 174.21 30.5232 173.77 30.5232C173.33 30.5232 172.897 30.6265 172.504 30.8249C172.351 30.8765 172.217 30.9751 172.122 31.1068C172.028 31.2384 171.977 31.3964 171.977 31.5585C171.977 31.7207 172.028 31.8787 172.122 32.0103C172.217 32.142 172.351 32.2406 172.504 32.2922Z" fill="var(--fill-0, #FF7032)" id="Vector_11"/>
<path d="M170.78 29.7121C171.248 29.438 171.215 28.9865 170.78 28.6962L162.428 23.859C162.158 23.7204 161.86 23.6481 161.557 23.6481C161.254 23.6481 160.956 23.7204 160.686 23.859C160.219 24.117 160.235 24.5684 160.686 24.8587L169.039 29.6959C169.307 29.837 169.604 29.9122 169.907 29.915C170.21 29.9178 170.509 29.8482 170.78 29.7121Z" fill="var(--fill-0, #FF7032)" id="Vector_12"/>
<g id="Group_2" opacity="0.3">
<path d="M170.54 26.4872C170.736 26.5903 170.955 26.6442 171.177 26.6442C171.399 26.6442 171.617 26.5903 171.814 26.4872C171.888 26.4597 171.951 26.4102 171.997 26.3454C172.042 26.2805 172.066 26.2034 172.066 26.1244C172.066 26.0454 172.042 25.9683 171.997 25.9035C171.951 25.8386 171.888 25.7891 171.814 25.7616C171.617 25.6585 171.399 25.6046 171.177 25.6046C170.955 25.6046 170.736 25.6585 170.54 25.7616C170.466 25.7891 170.402 25.8386 170.357 25.9035C170.312 25.9683 170.287 26.0454 170.287 26.1244C170.287 26.2034 170.312 26.2805 170.357 26.3454C170.402 26.4102 170.466 26.4597 170.54 26.4872Z" fill="var(--fill-0, black)" id="Vector_13"/>
<path d="M172.507 32.292C172.899 32.4904 173.333 32.5938 173.772 32.5938C174.212 32.5938 174.646 32.4904 175.038 32.292C175.192 32.2404 175.326 32.1418 175.42 32.0102C175.515 31.8786 175.566 31.7205 175.566 31.5584C175.566 31.3962 175.515 31.2382 175.42 31.1066C175.326 30.975 175.192 30.8764 175.038 30.8247C174.646 30.6264 174.212 30.523 173.772 30.523C173.333 30.523 172.899 30.6264 172.507 30.8247C172.353 30.8764 172.219 30.975 172.125 31.1066C172.03 31.2382 171.979 31.3962 171.979 31.5584C171.979 31.7205 172.03 31.8786 172.125 32.0102C172.219 32.1418 172.353 32.2404 172.507 32.292Z" fill="var(--fill-0, black)" id="Vector_14"/>
<path d="M170.781 29.7122C171.249 29.4381 171.216 28.9866 170.781 28.6964L162.429 23.8591C162.16 23.7205 161.861 23.6482 161.558 23.6482C161.255 23.6482 160.957 23.7205 160.687 23.8591C160.22 24.1171 160.236 24.5686 160.687 24.8588L169.04 29.6961C169.308 29.8372 169.606 29.9123 169.908 29.9151C170.211 29.9179 170.511 29.8483 170.781 29.7122Z" fill="var(--fill-0, black)" id="Vector_15"/>
</g>
</g>
</svg>