<?xml version="1.0" encoding="utf-8"?>
<svg xmlns="http://www.w3.org/2000/svg" fill="none" height="100%" overflow="visible" preserveAspectRatio="none" style="display: block;" viewBox="0 0 32 32" width="100%">
<g id="tdesign:secured-filled">
<path d="M29.3327 5.25358L15.9993 0.586914L2.66602 5.25358V16.0002C2.66602 21.5029 6.04468 25.3496 9.19402 27.7376C11.0955 29.1648 13.181 30.3287 15.394 31.1976C15.5451 31.2545 15.6971 31.3087 15.85 31.3602L15.9993 31.4136L16.1513 31.3602C16.4429 31.259 16.7319 31.1505 17.018 31.0349C19.079 30.1858 21.0235 29.0778 22.8047 27.7376C25.9553 25.3496 29.3327 21.5029 29.3327 16.0002V5.25358ZM14.6673 20.5536L9.01268 14.8962L10.898 13.0096L14.6687 16.7816L22.2114 9.23891L24.098 11.1242L14.6673 20.5536Z" fill="var(--fill-0, #FF7032)" id="Vector"/>
</g>
</svg>