<?xml version="1.0" encoding="utf-8"?>
<svg xmlns="http://www.w3.org/2000/svg" fill="none" height="100%" overflow="visible" preserveAspectRatio="none" style="display: block;" viewBox="0 0 63 63" width="100%">
<g id="Frame 2147257035">
<circle cx="31.5" cy="31.5" fill="var(--fill-0, #FFDFD1)" id="Ellipse 787" r="31.5"/>
<g id="eos-icons:project">
<path d="M39.5833 23.3333H35.055C34.8332 22.7001 34.42 22.1514 33.8727 21.7632C33.3254 21.375 32.671 21.1664 32 21.1664C31.329 21.1664 30.6746 21.375 30.1273 21.7632C29.58 22.1514 29.1668 22.7001 28.945 23.3333H24.4167C23.8426 23.335 23.2925 23.5639 22.8865 23.9698C22.4805 24.3758 22.2517 24.9259 22.25 25.5V40.6667C22.2517 41.2408 22.4805 41.7909 22.8865 42.1968C23.2925 42.6028 23.8426 42.8316 24.4167 42.8333H39.5833C40.1574 42.8316 40.7075 42.6028 41.1135 42.1968C41.5195 41.7909 41.7483 41.2408 41.75 40.6667V25.5C41.7483 24.9259 41.5195 24.3758 41.1135 23.9698C40.7075 23.5639 40.1574 23.335 39.5833 23.3333ZM32 23.3333C32.2143 23.3333 32.4237 23.3969 32.6019 23.5159C32.78 23.6349 32.9189 23.8041 33.0009 24.0021C33.0829 24.2 33.1043 24.4179 33.0625 24.628C33.0207 24.8382 32.9175 25.0312 32.766 25.1827C32.6145 25.3342 32.4215 25.4374 32.2113 25.4792C32.0012 25.521 31.7834 25.4995 31.5854 25.4175C31.3875 25.3355 31.2183 25.1967 31.0992 25.0185C30.9802 24.8404 30.9167 24.6309 30.9167 24.4167C30.9175 24.1296 31.0319 23.8546 31.2349 23.6516C31.4379 23.4486 31.7129 23.3342 32 23.3333ZM29.8333 28.75L32.8558 31.7768L35.5858 29.0468L34.1667 27.6667H38.5V32L37.1177 30.5797L32.858 34.8427L29.8333 31.8158L27.0318 34.6152L25.5 33.0833L29.8333 28.75ZM39.5833 39.5833H24.4167V37.4167H39.5833V39.5833Z" fill="var(--fill-0, #FF7032)" id="Vector"/>
</g>
</g>
</svg>