<?xml version="1.0" encoding="utf-8"?>
<svg xmlns="http://www.w3.org/2000/svg" fill="none" height="100%" overflow="visible" preserveAspectRatio="none" style="display: block;" viewBox="0 0 155 60" width="100%">
<g id="button">
<g clip-path="url(#clip0_0_13997)" id="devicon:linkedin">
<path d="M62.1562 9.98437H28.8438C28.0879 9.9765 27.3599 10.2761 26.8194 10.8174C26.279 11.3588 25.9702 12.0976 25.9609 12.8719V47.1347C25.9719 47.9078 26.2814 48.645 26.8217 49.1849C27.3619 49.7248 28.089 50.0235 28.8438 50.0156H62.1562C62.9121 50.0218 63.6397 49.7212 64.1798 49.1795C64.72 48.6378 65.0289 47.8991 65.0391 47.1248V12.862C65.0256 12.09 64.7152 11.3547 64.1754 10.8159C63.6356 10.277 62.9099 9.9782 62.1562 9.98437Z" fill="var(--fill-0, black)" id="Vector"/>
<path d="M31.7464 24.9883H37.5473V44.1081H31.7464V24.9883ZM34.6484 15.4727C35.3138 15.4727 35.9642 15.6748 36.5173 16.0535C37.0705 16.4322 37.5015 16.9705 37.756 17.6003C38.0105 18.23 38.0769 18.9229 37.9469 19.5913C37.8168 20.2597 37.4962 20.8736 37.0255 21.3553C36.5548 21.837 35.9552 22.1649 35.3026 22.2975C34.65 22.43 33.9736 22.3613 33.3591 22.1001C32.7446 21.8388 32.2196 21.3967 31.8504 20.8297C31.4812 20.2627 31.2845 19.5962 31.2852 18.9147C31.286 18.0015 31.6407 17.126 32.2714 16.4806C32.902 15.8352 33.757 15.4727 34.6484 15.4727ZM41.186 24.9883H46.7466V27.6133H46.8235C47.5987 26.1105 49.4885 24.5256 52.3105 24.5256C58.185 24.5125 59.2741 28.473 59.2741 33.6081V44.1081H53.4732V34.8058C53.4732 32.5909 53.4348 29.7395 50.4591 29.7395C47.4834 29.7395 46.9773 32.1545 46.9773 34.6614V44.1081H41.186V24.9883Z" fill="var(--fill-0, white)" id="Vector_2"/>
</g>
<g id="iconoir:mail-solid">
<path clip-rule="evenodd" d="M121.333 13.208C122.913 13.208 124.428 13.8358 125.546 14.9532C126.663 16.0706 127.291 17.5861 127.291 19.1663V40.833C127.291 42.4133 126.663 43.9288 125.546 45.0462C124.428 46.1636 122.913 46.7913 121.333 46.7913H86.666C85.0858 46.7913 83.5702 46.1636 82.4528 45.0462C81.3354 43.9288 80.7077 42.4133 80.7077 40.833V19.1663C80.7077 17.5861 81.3354 16.0706 82.4528 14.9532C83.5702 13.8358 85.0858 13.208 86.666 13.208H121.333ZM113.901 22.1693C114.254 21.9389 114.683 21.8547 115.097 21.9347C115.511 22.0147 115.878 22.2526 116.12 22.5981C116.362 22.9435 116.46 23.3695 116.394 23.786C116.327 24.2025 116.102 24.5769 115.764 24.83L104.931 32.4133C104.658 32.6044 104.333 32.7069 103.999 32.7069C103.666 32.7069 103.341 32.6044 103.068 32.4133L92.2344 24.83C92.0519 24.7109 91.8952 24.5564 91.7737 24.3756C91.6522 24.1947 91.5682 23.9913 91.5269 23.7774C91.4856 23.5634 91.4877 23.3434 91.5331 23.1303C91.5786 22.9172 91.6664 22.7154 91.7914 22.537C91.9163 22.3585 92.0759 22.207 92.2607 22.0914C92.4454 21.9759 92.6514 21.8987 92.8666 21.8644C93.0818 21.8301 93.3016 21.8394 93.5131 21.8918C93.7246 21.9442 93.9234 22.0386 94.0977 22.1693L103.999 29.1005L113.901 22.1693Z" fill="var(--fill-0, #141414)" fill-rule="evenodd" id="Vector_3"/>
</g>
</g>
<defs>
<clipPath id="clip0_0_13997">
<rect fill="white" height="42" transform="translate(25 9)" width="41"/>
</clipPath>
</defs>
</svg>