<?xml version="1.0" encoding="utf-8"?>
<svg xmlns="http://www.w3.org/2000/svg" fill="none" height="100%" overflow="visible" preserveAspectRatio="none" style="display: block;" viewBox="0 0 20.479 20.479" width="100%">
<g id="gridicons:thumbs-up">
<path d="M5.71652 18.7709H1.70605V11.0913H3.41264L5.71652 18.7709ZM17.0644 7.67812H11.9456V4.26495C11.9456 3.58603 11.6759 2.93492 11.1958 2.45485C10.7157 1.97478 10.0646 1.70508 9.38568 1.70508H8.53239V5.11824L6.05784 8.21142C5.45041 8.97073 5.1194 9.91412 5.11922 10.8865V11.9446L6.91113 17.9176H14.025C14.7863 17.9177 15.5257 17.6633 16.1258 17.1948C16.7258 16.7263 17.152 16.0707 17.3366 15.3321L18.7198 9.79855C18.7827 9.54697 18.7874 9.28437 18.7337 9.03069C18.6799 8.77701 18.569 8.53893 18.4094 8.33453C18.2498 8.13012 18.0458 7.96477 17.8127 7.85103C17.5797 7.73729 17.3238 7.67816 17.0644 7.67812Z" fill="var(--fill-0, #FF8237)" id="Vector"/>
</g>
</svg>