<?xml version="1.0" encoding="utf-8"?>
<svg xmlns="http://www.w3.org/2000/svg" fill="none" height="100%" overflow="visible" preserveAspectRatio="none" style="display: block;" viewBox="0 0 28 28" width="100%">
<g id="cif:us">
<g id="Group">
<path d="M0.00195312 7.05176H27.9968V21.7859H0.00195312V7.05176Z" fill="var(--fill-0, white)" id="Vector"/>
<path d="M1.16415e-10 7H27.9948V8.13342H1.16415e-10V7ZM1.16415e-10 9.26683H27.9948V10.4002H1.16415e-10V9.26683ZM1.16415e-10 11.5336H27.9948V12.667H1.16415e-10V11.5336ZM1.16415e-10 13.8004H27.9948V14.9338H1.16415e-10V13.8004ZM1.16415e-10 16.0671H27.9948V17.2006H1.16415e-10V16.0671ZM1.16415e-10 18.334H27.9948V19.4674H1.16415e-10V18.334ZM1.16415e-10 20.6007H27.9948V21.7341H1.16415e-10V20.6007Z" fill="var(--fill-0, #B22234)" id="Vector_2"/>
<path d="M0.00195312 7.05176H11.1999V14.9855H0.00195312V7.05176Z" fill="var(--fill-0, #3C3B6E)" id="Vector_3"/>
<path d="M0.527344 7.69538L0.794134 7.8892L0.692233 8.20283L0.95893 8.00901L1.22572 8.20283L1.12382 7.8892L1.39052 7.69538H1.06083L0.95893 7.38184L0.857029 7.69538H0.527344ZM2.38387 7.69538L2.65056 7.8892L2.54866 8.20283L2.81545 8.00901L3.08224 8.20283L2.98034 7.8892L3.24704 7.69538H2.91735L2.81545 7.38184L2.71355 7.69538H2.38387ZM4.24039 7.69538L4.50708 7.8892L4.40518 8.20283L4.67197 8.00901L4.93867 8.20283L4.83677 7.8892L5.10356 7.69538H4.77388L4.67197 7.38184L4.57007 7.69538H4.24039ZM6.09691 7.69538L6.36361 7.8892L6.26171 8.20283L6.5285 8.00901L6.79519 8.20283L6.69329 7.8892L6.96008 7.69538H6.6303L6.5285 7.38184L6.4266 7.69538H6.09691ZM7.95334 7.69538L8.22013 7.8892L8.11823 8.20283L8.38492 8.00901L8.65171 8.20283L8.54981 7.8892L8.81651 7.69538H8.48683L8.38492 7.38184L8.28302 7.69538H7.95334ZM9.80986 7.69538L10.0766 7.8892L9.97466 8.20283L10.2414 8.00901L10.5081 8.20283L10.4062 7.8892L10.673 7.69538H10.3433L10.2414 7.38184L10.1395 7.69538H9.80986ZM1.45556 8.49108L1.72235 8.6849L1.62045 8.99844L1.88724 8.80463L2.15393 8.99844L2.05203 8.6849L2.31882 8.49108H1.98905L1.88724 8.17745L1.78534 8.49108H1.45556ZM3.31208 8.49108L3.57887 8.6849L3.47697 8.99844L3.74367 8.80463L4.01046 8.99844L3.90856 8.6849L4.17525 8.49108H3.84557L3.74367 8.17745L3.64177 8.49108H3.31208ZM5.1686 8.49108L5.43539 8.6849L5.33349 8.99844L5.60019 8.80463L5.86698 8.99844L5.76508 8.6849L6.03177 8.49108H5.70209L5.60019 8.17745L5.49829 8.49108H5.1686ZM7.02512 8.49108L7.29182 8.6849L7.18992 8.99844L7.45671 8.80463L7.72341 8.99844L7.62151 8.6849L7.8883 8.49108H7.55861L7.45671 8.17745L7.35481 8.49108H7.02512ZM8.88155 8.49108L9.14834 8.6849L9.04644 8.99844L9.31314 8.80463L9.57993 8.99844L9.47803 8.6849L9.74473 8.49108H9.41504L9.31314 8.17745L9.21133 8.49108H8.88155ZM0.527344 9.2867L0.794134 9.48051L0.692233 9.79415L0.95893 9.60033L1.22572 9.79415L1.12382 9.48051L1.39052 9.2867H1.06083L0.95893 8.97315L0.857029 9.2867H0.527344ZM2.38387 9.2867L2.65056 9.48051L2.54866 9.79415L2.81545 9.60033L3.08224 9.79415L2.98034 9.48051L3.24704 9.2867H2.91735L2.81545 8.97315L2.71355 9.2867H2.38387ZM4.24039 9.2867L4.50708 9.48051L4.40518 9.79415L4.67197 9.60033L4.93867 9.79415L4.83677 9.48051L5.10356 9.2867H4.77388L4.67197 8.97315L4.57007 9.2867H4.24039ZM6.09691 9.2867L6.36361 9.48051L6.26171 9.79415L6.5285 9.60033L6.79519 9.79415L6.69329 9.48051L6.96008 9.2867H6.6303L6.5285 8.97315L6.4266 9.2867H6.09691ZM7.95334 9.2867L8.22013 9.48051L8.11823 9.79415L8.38492 9.60033L8.65171 9.79415L8.54981 9.48051L8.81651 9.2867H8.48683L8.38492 8.97315L8.28302 9.2867H7.95334ZM9.80986 9.2867L10.0766 9.48051L9.97466 9.79415L10.2414 9.60033L10.5081 9.79415L10.4062 9.48051L10.673 9.2867H10.3433L10.2414 8.97315L10.1395 9.2867H9.80986ZM1.47851 10.085L1.74521 10.2788L1.6434 10.5924L1.9101 10.3986L2.17689 10.5924L2.07499 10.2787L2.34169 10.085H2.012L1.9101 9.77138L1.8082 10.085H1.47851ZM3.33504 10.085L3.60173 10.2788L3.49983 10.5924L3.76662 10.3986L4.03332 10.5924L3.93142 10.2787L4.19821 10.085H3.86852L3.76662 9.77138L3.66472 10.085H3.33504ZM5.19156 10.085L5.45825 10.2788L5.35635 10.5924L5.62314 10.3986L5.88984 10.5924L5.78794 10.2787L6.05473 10.085H5.72495L5.62314 9.77138L5.52124 10.085H5.19156ZM7.04799 10.085L7.31478 10.2788L7.21288 10.5924L7.47957 10.3986L7.74636 10.5924L7.64446 10.2787L7.91116 10.085H7.58147L7.47957 9.77138L7.37767 10.085H7.04799ZM8.90451 10.085L9.1712 10.2788L9.0693 10.5924L9.33609 10.3986L9.60279 10.5924L9.50089 10.2787L9.76768 10.085H9.438L9.33609 9.77138L9.23419 10.085H8.90451ZM0.555525 10.874L0.822316 11.0677L0.720415 11.3814L0.987112 11.1875L1.2539 11.3814L1.152 11.0677L1.4187 10.874H1.08901L0.987112 10.5604L0.885211 10.874H0.555525ZM2.41205 10.874L2.67874 11.0677L2.57684 11.3814L2.84363 11.1875L3.11033 11.3814L3.00852 11.0677L3.27522 10.874H2.94553L2.84363 10.5604L2.74173 10.874H2.41205ZM4.26857 10.874L4.53527 11.0677L4.43336 11.3814L4.70016 11.1875L4.96685 11.3814L4.86495 11.0677L5.13174 10.874H4.80206L4.70016 10.5604L4.59825 10.874H4.26857ZM6.125 10.874L6.39179 11.0677L6.28989 11.3814L6.55658 11.1875L6.82337 11.3814L6.72147 11.0677L6.98826 10.874H6.65849L6.55658 10.5604L6.45478 10.874H6.125ZM7.98152 10.874L8.24822 11.0677L8.14641 11.3814L8.41311 11.1875L8.6799 11.3814L8.578 11.0677L8.84469 10.874H8.51501L8.41311 10.5604L8.31121 10.874H7.98152ZM9.83804 10.874L10.1047 11.0677L10.0028 11.3814L10.2696 11.1875L10.5363 11.3814L10.4344 11.0677L10.7012 10.874H10.3715L10.2696 10.5604L10.1677 10.874H9.83804ZM0.572975 12.44L0.839672 12.6338L0.737771 12.9475L1.00456 12.7537L1.27126 12.9475L1.16936 12.6338L1.43615 12.44H1.10646L1.00456 12.1265L0.902661 12.44H0.572975ZM2.4294 12.44L2.69619 12.6338L2.59429 12.9475L2.86099 12.7537L3.12778 12.9475L3.02588 12.6338L3.29258 12.44H2.96289L2.86099 12.1265L2.75909 12.44H2.4294ZM4.28593 12.44L4.55262 12.6338L4.45081 12.9475L4.71751 12.7537L4.9843 12.9475L4.8824 12.6338L5.1491 12.44H4.81941L4.71751 12.1265L4.61561 12.44H4.28593ZM6.14245 12.44L6.40914 12.6338L6.30724 12.9475L6.57403 12.7537L6.84073 12.9475L6.73892 12.6338L7.00562 12.44H6.67594L6.57403 12.1265L6.47213 12.44H6.14245ZM7.99888 12.44L8.26567 12.6338L8.16377 12.9475L8.43046 12.7537L8.69725 12.9475L8.59535 12.6338L8.86214 12.44H8.53236L8.43046 12.1265L8.32865 12.44H7.99888ZM9.8554 12.44L10.1221 12.6338L10.0203 12.9475L10.287 12.7537L10.5538 12.9475L10.4519 12.6338L10.7186 12.44H10.3889L10.287 12.1265L10.1851 12.44H9.8554ZM0.550299 14.0245L0.816997 14.2184L0.715096 14.532L0.981886 14.3382L1.24858 14.532L1.14668 14.2184L1.41347 14.0245H1.08369L0.981886 13.711L0.879985 14.0245H0.550299ZM2.40673 14.0245L2.67352 14.2184L2.57162 14.532L2.83831 14.3382L3.10511 14.532L3.0032 14.2184L3.2699 14.0245H2.94022L2.83831 13.711L2.73641 14.0245H2.40673ZM4.26325 14.0245L4.52995 14.2184L4.42814 14.532L4.69484 14.3382L4.96163 14.532L4.85973 14.2184L5.12642 14.0245H4.79674L4.69484 13.711L4.59294 14.0245H4.26325ZM6.11977 14.0245L6.38647 14.2184L6.28457 14.532L6.55136 14.3382L6.81806 14.532L6.71625 14.2184L6.98294 14.0245H6.65326L6.55136 13.711L6.44946 14.0245H6.11977ZM7.9762 14.0245L8.24299 14.2184L8.14109 14.532L8.40779 14.3382L8.67458 14.532L8.57268 14.2184L8.83947 14.0245H8.50969L8.40779 13.711L8.30598 14.0245H7.9762ZM9.83272 14.0245L10.0994 14.2184L9.99761 14.532L10.2643 14.3382L10.5311 14.532L10.4292 14.2184L10.6959 14.0245H10.3662L10.2643 13.711L10.1624 14.0245H9.83272ZM1.48402 11.6492L1.75072 11.843L1.64891 12.1565L1.91561 11.9627L2.1824 12.1565L2.0805 11.843L2.34719 11.6492H2.01751L1.91561 11.3355L1.8137 11.6492H1.48402ZM3.34054 11.6492L3.60724 11.843L3.50534 12.1565L3.77213 11.9627L4.03883 12.1565L3.93702 11.843L4.20371 11.6492H3.87403L3.77213 11.3355L3.67023 11.6492H3.34054ZM5.19706 11.6492L5.46376 11.843L5.36186 12.1565L5.62865 11.9627L5.89535 12.1565L5.79345 11.843L6.06024 11.6492H5.73055L5.62865 11.3355L5.52675 11.6492H5.19706ZM7.05349 11.6492L7.32028 11.843L7.21838 12.1565L7.48508 11.9627L7.75187 12.1565L7.64997 11.843L7.91666 11.6492H7.58698L7.48508 11.3355L7.38318 11.6492H7.05349ZM8.91001 11.6492L9.17671 11.843L9.07481 12.1565L9.3416 11.9627L9.6083 12.1565L9.50649 11.843L9.77319 11.6492H9.4435L9.3416 11.3355L9.2397 11.6492H8.91001ZM1.47851 13.2312L1.7453 13.425L1.6434 13.7386L1.9101 13.5448L2.17689 13.7386L2.07499 13.425L2.34169 13.2312H2.012L1.9101 12.9176L1.8082 13.2312H1.47851ZM3.33504 13.2312L3.60173 13.425L3.49983 13.7386L3.76662 13.5448L4.03341 13.7386L3.93151 13.425L4.19821 13.2312H3.86852L3.76662 12.9176L3.66472 13.2312H3.33504ZM5.19156 13.2312L5.45825 13.425L5.35635 13.7386L5.62314 13.5448L5.88984 13.7386L5.78794 13.425L6.05473 13.2312H5.72505L5.62314 12.9176L5.52124 13.2312H5.19156ZM7.04799 13.2312L7.31478 13.425L7.21288 13.7386L7.47957 13.5448L7.74636 13.7386L7.64446 13.425L7.91116 13.2312H7.58147L7.47957 12.9176L7.37767 13.2312H7.04799ZM8.90451 13.2312L9.1712 13.425L9.0693 13.7386L9.33609 13.5448L9.60279 13.7386L9.50098 13.425L9.76768 13.2312H9.438L9.33609 12.9176L9.23419 13.2312H8.90451Z" fill="var(--fill-0, white)" id="Vector_4"/>
</g>
</g>
</svg>