<?xml version="1.0" encoding="utf-8"?>
<svg xmlns="http://www.w3.org/2000/svg" fill="none" height="100%" overflow="visible" preserveAspectRatio="none" style="display: block;" viewBox="0 0 44 44" width="100%">
<g id="mingcute:head-ai-fill">
<g id="Group">
<g id="Vector">
</g>
<path d="M23.8333 3.66667C25.014 3.66667 26.1617 3.80967 27.2635 4.07367C26.2252 4.4953 25.3405 5.22415 24.728 6.16257C24.1154 7.101 23.8043 8.2042 23.8362 9.32439C23.8681 10.4446 24.2416 11.5283 24.9065 12.4303C25.5715 13.3323 26.4962 14.0097 27.5568 14.3715L28.248 14.608C28.7852 14.7913 29.2068 15.213 29.3902 15.752L29.6285 16.445C29.9206 17.3044 30.4212 18.078 31.0855 18.6965C31.7498 19.315 32.5571 19.7592 33.4351 19.9894C34.3131 20.2195 35.2345 20.2284 36.1168 20.0152C36.9991 19.802 37.8147 19.3735 38.4908 18.7678C38.4176 21.2679 37.7062 23.7078 36.4243 25.8554C35.1423 28.0031 33.3325 29.7873 31.1667 31.0383V37.5833C31.1667 38.3127 30.8769 39.0122 30.3612 39.5279C29.8455 40.0436 29.146 40.3333 28.4167 40.3333H21.0833C20.354 40.3333 19.6545 40.0436 19.1388 39.5279C18.6231 39.0122 18.3333 38.3127 18.3333 37.5833V34.8333H16.071C14.7304 34.8334 13.4359 34.3438 12.4308 33.4566C11.4258 32.5694 10.7794 31.3456 10.6132 30.0153L10.3565 27.9565L8.98517 27.6852C8.58622 27.6053 8.20998 27.4379 7.88355 27.195C7.55713 26.9521 7.28866 26.6399 7.0975 26.2807C6.90635 25.9216 6.79727 25.5245 6.77813 25.118C6.75899 24.7116 6.83027 24.306 6.98683 23.9305L9.1685 18.689L9.16667 18.3333C9.16667 14.4435 10.7119 10.713 13.4624 7.96243C16.213 5.2119 19.9435 3.66667 23.8333 3.66667ZM34.8333 1.83333C35.2158 1.83349 35.5886 1.95322 35.8995 2.17578C36.2105 2.39834 36.4441 2.71258 36.5677 3.0745L36.806 3.7675C37.356 5.379 38.621 6.64583 40.2343 7.19583L40.9255 7.43233C41.287 7.55622 41.6008 7.78998 41.823 8.10094C42.0451 8.4119 42.1645 8.78451 42.1645 9.16667C42.1645 9.54883 42.0451 9.92144 41.823 10.2324C41.6008 10.5434 41.287 10.7771 40.9255 10.901L40.2325 11.1393C38.621 11.6893 37.3542 12.9543 36.8042 14.5677L36.5677 15.2588C36.4438 15.6204 36.21 15.9341 35.8991 16.1563C35.5881 16.3784 35.2155 16.4979 34.8333 16.4979C34.4512 16.4979 34.0786 16.3784 33.7676 16.1563C33.4566 15.9341 33.2229 15.6204 33.099 15.2588L32.8607 14.5658C32.5892 13.7704 32.139 13.0478 31.5446 12.4535C30.9503 11.8592 30.2277 11.409 29.4323 11.1375L28.7412 10.901C28.3796 10.7771 28.0659 10.5434 27.8437 10.2324C27.6216 9.92144 27.5021 9.54883 27.5021 9.16667C27.5021 8.78451 27.6216 8.4119 27.8437 8.10094C28.0659 7.78998 28.3796 7.55622 28.7412 7.43233L29.4342 7.194C31.0457 6.644 32.3125 5.379 32.8625 3.76567L33.099 3.0745C33.2225 2.71258 33.4561 2.39834 33.7671 2.17578C34.0781 1.95322 34.4509 1.83349 34.8333 1.83333Z" fill="var(--fill-0, white)" id="Vector_2"/>
</g>
</g>
</svg>