<?xml version="1.0" encoding="utf-8"?>
<svg xmlns="http://www.w3.org/2000/svg" fill="none" height="100%" overflow="visible" preserveAspectRatio="none" style="display: block;" viewBox="0 0 24 24" width="100%">
<g id="mynaui:eye">
<g id="Group">
<path d="M2.048 12.486C2.142 12.846 2.278 13.033 2.55 13.406C4.039 15.45 7.303 19 12 19C16.697 19 19.961 15.45 21.45 13.405C21.722 13.033 21.858 12.846 21.952 12.485C22.0155 12.1644 22.0155 11.8346 21.952 11.514C21.858 11.154 21.722 10.967 21.45 10.594C19.961 8.55 16.697 5 12 5C7.303 5 4.039 8.55 2.55 10.595C2.278 10.967 2.142 11.154 2.048 11.515C1.98454 11.8356 1.98454 12.1654 2.048 12.486Z" id="Vector" stroke="var(--stroke-0, white)" stroke-linecap="round" stroke-linejoin="round" stroke-width="1.5"/>
<path d="M12 14C12.5304 14 13.0391 13.7893 13.4142 13.4142C13.7893 13.0391 14 12.5304 14 12C14 11.4696 13.7893 10.9609 13.4142 10.5858C13.0391 10.2107 12.5304 10 12 10C11.4696 10 10.9609 10.2107 10.5858 10.5858C10.2107 10.9609 10 11.4696 10 12C10 12.5304 10.2107 13.0391 10.5858 13.4142C10.9609 13.7893 11.4696 14 12 14Z" id="Vector_2" stroke="var(--stroke-0, white)" stroke-linecap="round" stroke-linejoin="round" stroke-width="1.5"/>
</g>
</g>
</svg>