<?xml version="1.0" encoding="utf-8"?>
<svg xmlns="http://www.w3.org/2000/svg" fill="none" height="100%" overflow="visible" preserveAspectRatio="none" style="display: block;" viewBox="0 0 254.819 270.899" width="100%">
<g id="Laptop">
<path d="M148.925 127.215L18.3193 202.66C17.1443 203.278 16.1605 204.206 15.4742 205.343C14.7878 206.479 14.4251 207.782 14.4251 209.11C14.4251 210.438 14.7878 211.74 15.4742 212.877C16.1605 214.013 17.1443 214.941 18.3193 215.559L112.565 269.962C113.769 270.574 115.101 270.893 116.451 270.893C117.802 270.893 119.133 270.574 120.337 269.962L250.943 194.517C252.113 193.895 253.092 192.966 253.775 191.83C254.458 190.694 254.819 189.393 254.819 188.068C254.819 186.742 254.458 185.442 253.775 184.305C253.092 183.169 252.113 182.24 250.943 181.618L156.697 127.215C155.493 126.603 154.162 126.284 152.811 126.284C151.461 126.284 150.129 126.603 148.925 127.215Z" fill="var(--fill-0, #FF7032)" id="Vector"/>
<path d="M148.925 127.215L18.3193 202.66C17.1443 203.278 16.1605 204.206 15.4742 205.343C14.7878 206.479 14.4251 207.782 14.4251 209.11C14.4251 210.438 14.7878 211.74 15.4742 212.877C16.1605 214.013 17.1443 214.941 18.3193 215.559L112.565 269.962C113.769 270.574 115.101 270.893 116.451 270.893C117.802 270.893 119.133 270.574 120.337 269.962L250.943 194.517C252.113 193.895 253.092 192.966 253.775 191.83C254.458 190.694 254.819 189.393 254.819 188.068C254.819 186.742 254.458 185.442 253.775 184.305C253.092 183.169 252.113 182.24 250.943 181.618L156.697 127.215C155.493 126.603 154.162 126.284 152.811 126.284C151.461 126.284 150.129 126.603 148.925 127.215Z" fill="var(--fill-0, black)" id="Vector_2" opacity="0.2"/>
<path d="M116.386 146L18.2545 202.66C17.0795 203.278 16.0957 204.206 15.4094 205.343C14.723 206.479 14.3603 207.782 14.3603 209.11C14.3603 210.438 14.723 211.74 15.4094 212.877C16.0957 214.014 17.0795 214.941 18.2545 215.559L112.5 269.963C113.697 270.595 115.033 270.917 116.386 270.898V146Z" fill="var(--fill-0, #FF7032)" id="Vector_3"/>
<path d="M116.386 146L18.2545 202.66C17.0795 203.278 16.0957 204.206 15.4094 205.343C14.723 206.479 14.3603 207.782 14.3603 209.11C14.3603 210.438 14.723 211.74 15.4094 212.877C16.0957 214.014 17.0795 214.941 18.2545 215.559L112.5 269.963C113.697 270.595 115.033 270.917 116.386 270.898V146Z" fill="var(--fill-0, black)" id="Vector_4" opacity="0.1"/>
<path d="M18.2545 202.66L148.86 127.215C150.064 126.603 151.396 126.284 152.746 126.284C154.097 126.284 155.428 126.603 156.632 127.215L250.878 181.618C253.023 182.86 253.023 184.843 250.878 186.101L120.272 261.546C119.068 262.157 117.737 262.476 116.386 262.476C115.036 262.476 113.704 262.157 112.5 261.546L18.2545 207.143C16.11 205.901 16.11 203.885 18.2545 202.66Z" fill="var(--fill-0, white)" id="Vector_5" opacity="0.7"/>
<path d="M79.9457 124.974L0.93719 79.3908C0.294243 80.5483 -0.0285733 81.8563 0.00198455 83.18L6.75802 196.21C6.88594 197.528 7.30353 198.801 7.98089 199.938C8.65825 201.076 9.57865 202.049 10.6762 202.789C11.8513 203.357 13.1434 203.642 14.4485 203.619C15.7536 203.597 17.0352 203.268 18.1901 202.66L81.3162 166.268L79.9457 124.974Z" fill="var(--fill-0, #FF7032)" id="Vector_6"/>
<path d="M79.9457 124.974L0.93719 79.3908C0.294243 80.5483 -0.0285733 81.8563 0.00198455 83.18L6.75802 196.21C6.88594 197.528 7.30353 198.801 7.98089 199.938C8.65825 201.076 9.57865 202.049 10.6762 202.789C11.8513 203.357 13.1434 203.642 14.4485 203.619C15.7536 203.597 17.0352 203.268 18.1901 202.66L81.3162 166.268L79.9457 124.974Z" fill="var(--fill-0, black)" id="Vector_7" opacity="0.2"/>
<path d="M32.8308 202.66L148.925 135.632C150.129 135.02 151.46 134.701 152.811 134.701C154.161 134.701 155.493 135.02 156.697 135.632L159.922 137.454C162.066 138.696 162.066 140.679 159.922 141.936L43.8274 208.965C42.6235 209.576 41.292 209.895 39.9415 209.895C38.591 209.895 37.2596 209.576 36.0556 208.965L32.8308 207.143C30.6862 205.901 30.6862 203.886 32.8308 202.66Z" fill="var(--fill-0, #FF7032)" id="Vector_8"/>
<path d="M32.8308 202.66L148.925 135.632C150.129 135.02 151.46 134.701 152.811 134.701C154.161 134.701 155.493 135.02 156.697 135.632L159.922 137.454C162.066 138.696 162.066 140.679 159.922 141.936L43.8274 208.965C42.6235 209.576 41.292 209.895 39.9415 209.895C38.591 209.895 37.2596 209.576 36.0556 208.965L32.8308 207.143C30.6862 205.901 30.6862 203.886 32.8308 202.66Z" fill="var(--fill-0, black)" id="Vector_9" opacity="0.1"/>
<path d="M47.4553 211.061L163.549 144.033C164.756 143.428 166.086 143.114 167.435 143.114C168.784 143.114 170.115 143.428 171.321 144.033L207.262 164.801C209.407 166.026 209.407 168.026 207.262 169.283L91.168 236.311C89.964 236.923 88.6325 237.242 87.282 237.242C85.9315 237.242 84.6001 236.923 83.3961 236.311L47.4553 215.544C45.2624 214.318 45.2624 212.303 47.4553 211.061Z" fill="var(--fill-0, #FF7032)" id="Vector_10"/>
<path d="M47.4553 211.061L163.549 144.033C164.756 143.428 166.086 143.114 167.435 143.114C168.784 143.114 170.115 143.428 171.321 144.033L207.262 164.801C209.407 166.026 209.407 168.026 207.262 169.283L91.168 236.311C89.964 236.923 88.6325 237.242 87.282 237.242C85.9315 237.242 84.6001 236.923 83.3961 236.311L47.4553 215.544C45.2624 214.318 45.2624 212.303 47.4553 211.061Z" fill="var(--fill-0, black)" id="Vector_11" opacity="0.1"/>
<path d="M142.12 215.269L178.061 194.518C179.265 193.906 180.596 193.587 181.947 193.587C183.297 193.587 184.629 193.906 185.833 194.518L199.909 202.66C202.054 203.886 202.054 205.885 199.909 207.143L163.968 227.895C162.764 228.506 161.433 228.825 160.082 228.825C158.732 228.825 157.4 228.506 156.196 227.895L142.104 219.752C139.976 218.526 139.976 216.511 142.12 215.269Z" fill="var(--fill-0, #FF7032)" id="Vector_12"/>
<path d="M142.12 215.269L178.061 194.518C179.265 193.906 180.596 193.587 181.947 193.587C183.297 193.587 184.629 193.906 185.833 194.518L199.909 202.66C202.054 203.886 202.054 205.885 199.909 207.143L163.968 227.895C162.764 228.506 161.433 228.825 160.082 228.825C158.732 228.825 157.4 228.506 156.196 227.895L142.104 219.752C139.976 218.526 139.976 216.511 142.12 215.269Z" fill="var(--fill-0, black)" id="Vector_13" opacity="0.1"/>
<path d="M153.247 174.782L156.858 172.685C157.02 172.589 157.004 172.444 156.858 172.347L152.263 169.735C152.168 169.687 152.063 169.661 151.957 169.661C151.85 169.661 151.745 169.687 151.65 169.735L148.038 171.815C147.877 171.912 147.91 172.073 148.038 172.17L152.537 174.765C152.644 174.83 152.765 174.866 152.89 174.869C153.014 174.871 153.137 174.841 153.247 174.782ZM145.297 166.091L141.669 168.171C141.524 168.267 141.54 168.413 141.669 168.525L146.168 171.121C146.26 171.169 146.363 171.195 146.466 171.195C146.57 171.195 146.673 171.169 146.765 171.121L150.393 169.041C150.538 168.945 150.522 168.8 150.393 168.687L145.894 166.091C145.802 166.043 145.7 166.018 145.596 166.018C145.492 166.018 145.389 166.043 145.297 166.091ZM133.607 172.831L127.48 176.378C127.319 176.378 127.335 176.62 127.48 176.717L131.979 179.313C132.074 179.359 132.179 179.384 132.285 179.384C132.391 179.384 132.496 179.359 132.592 179.313L138.719 175.765C138.864 175.685 138.848 175.523 138.719 175.427L134.22 172.831C134.132 172.768 134.03 172.728 133.924 172.714C133.817 172.7 133.708 172.712 133.607 172.75V172.831ZM140.057 169.138L136.429 171.234C136.284 171.315 136.3 171.476 136.429 171.573L140.976 174.153C141.069 174.2 141.171 174.224 141.274 174.224C141.378 174.224 141.48 174.2 141.573 174.153L145.201 172.057C145.346 171.976 145.33 171.815 145.201 171.718L140.702 169.122C140.604 169.048 140.487 169.002 140.365 168.991C140.242 168.98 140.119 169.003 140.009 169.058L140.057 169.138ZM125.852 177.329L122.24 179.425C122.079 179.506 122.095 179.667 122.24 179.764L126.738 182.376C126.833 182.424 126.938 182.449 127.045 182.449C127.151 182.449 127.256 182.424 127.351 182.376L130.963 180.296C131.124 180.199 131.092 180.038 130.963 179.941L126.464 177.281C126.365 177.222 126.253 177.189 126.138 177.183C126.023 177.177 125.908 177.2 125.803 177.249L125.852 177.329ZM120.563 180.393L116.951 182.473C116.79 182.57 116.806 182.731 116.951 182.828L121.45 185.424C121.546 185.467 121.65 185.49 121.756 185.49C121.862 185.49 121.966 185.467 122.062 185.424L125.674 183.327C125.835 183.231 125.803 183.086 125.674 182.973L121.176 180.377C121.082 180.307 120.97 180.264 120.854 180.253C120.738 180.241 120.62 180.262 120.515 180.312L120.563 180.393ZM138.299 190.938L141.927 188.858C142.073 188.761 142.056 188.616 141.927 188.503L137.429 185.907C137.337 185.859 137.234 185.834 137.13 185.834C137.027 185.834 136.924 185.859 136.832 185.907L133.204 187.987C133.059 188.084 133.075 188.229 133.204 188.342L137.703 190.938C137.792 190.964 137.886 190.97 137.978 190.956C138.07 190.942 138.157 190.908 138.235 190.857L138.299 190.938ZM133.011 194.002L136.639 191.905C136.784 191.825 136.768 191.664 136.639 191.567L132.14 188.971C132.049 188.92 131.946 188.893 131.842 188.893C131.737 188.893 131.635 188.92 131.543 188.971L127.915 191.067C127.77 191.148 127.787 191.309 127.915 191.406L132.414 194.002C132.499 194.022 132.586 194.025 132.672 194.011C132.758 193.997 132.84 193.967 132.914 193.921L133.011 194.002ZM127.722 197.049L131.35 194.969C131.495 194.872 131.479 194.711 131.35 194.614L126.738 191.889C126.645 191.846 126.543 191.824 126.44 191.824C126.337 191.824 126.235 191.846 126.142 191.889L122.514 193.986C122.369 194.066 122.385 194.227 122.514 194.324L127.013 196.936C127.108 196.998 127.217 197.033 127.331 197.039C127.444 197.045 127.557 197.02 127.658 196.968L127.722 197.049ZM122.433 200.113L126.061 198.017C126.206 197.92 126.19 197.775 126.061 197.662L121.563 195.066C121.47 195.018 121.368 194.993 121.264 194.993C121.16 194.993 121.058 195.018 120.966 195.066L117.338 197.146C117.193 197.243 117.209 197.388 117.338 197.501L121.837 200.097C122.016 200.145 122.207 200.122 122.369 200.032L122.433 200.113ZM148.022 177.91L151.634 175.814C151.795 175.814 151.779 175.572 151.634 175.475L147.136 172.879C147.04 172.832 146.935 172.808 146.829 172.808C146.723 172.808 146.618 172.832 146.523 172.879L142.911 174.975C142.75 175.056 142.782 175.217 142.911 175.314L147.41 177.91C147.501 177.937 147.598 177.944 147.693 177.93C147.787 177.916 147.878 177.881 147.958 177.829L148.022 177.91ZM143.588 187.891L151.65 183.231C151.812 183.134 151.779 182.989 151.65 182.876L140.718 176.571C140.626 176.523 140.524 176.498 140.42 176.498C140.316 176.498 140.214 176.523 140.122 176.571L135.945 178.974C135.8 179.071 135.816 179.216 135.945 179.329L141.734 182.666C141.911 182.763 141.927 182.924 141.734 183.005L138.396 184.94C138.251 185.02 138.267 185.182 138.396 185.278L142.895 187.874C142.997 187.917 143.108 187.934 143.218 187.922C143.327 187.911 143.433 187.872 143.524 187.81L143.588 187.891ZM115.177 183.36L111.566 185.456C111.404 185.536 111.42 185.698 111.566 185.794L116.064 188.39C116.16 188.437 116.264 188.462 116.371 188.462C116.477 188.462 116.582 188.437 116.677 188.39L120.289 186.294C120.45 186.214 120.418 186.052 120.289 185.956L115.79 183.36C115.696 183.31 115.59 183.284 115.484 183.284C115.377 183.284 115.272 183.31 115.177 183.36ZM109.889 186.423L106.277 188.503C106.116 188.6 106.132 188.745 106.277 188.858L110.776 191.454C110.87 191.502 110.975 191.527 111.082 191.527C111.188 191.527 111.293 191.502 111.388 191.454L115 189.374C115.161 189.277 115.129 189.132 115 189.019L110.501 186.423C110.413 186.38 110.317 186.358 110.219 186.358C110.121 186.358 110.025 186.38 109.937 186.423H109.889ZM84.7027 221.381C84.7948 221.429 84.8971 221.454 85.001 221.454C85.1049 221.454 85.2072 221.429 85.2993 221.381L88.9111 219.3C89.0724 219.204 89.0562 219.059 88.9111 218.946L84.4125 216.35C84.3175 216.302 84.2126 216.277 84.1061 216.277C83.9997 216.277 83.8947 216.302 83.7997 216.35L80.1879 218.43C80.0267 218.527 80.0589 218.672 80.1879 218.784L84.7027 221.381ZM67.5788 210.851L63.9509 212.931C63.8058 213.028 63.8219 213.173 63.9509 213.286L68.4495 215.882C68.5416 215.93 68.644 215.955 68.7478 215.955C68.8517 215.955 68.954 215.93 69.0461 215.882L72.6741 213.802C72.8192 213.705 72.8031 213.56 72.6741 213.447L68.1754 210.851C68.0896 210.811 67.9961 210.79 67.9013 210.79C67.8066 210.79 67.713 210.811 67.6272 210.851H67.5788ZM76.8825 218.462C76.975 218.509 77.0771 218.533 77.1808 218.533C77.2844 218.533 77.3866 218.509 77.4791 218.462L81.0909 216.366C81.2521 216.366 81.236 216.124 81.0909 216.027L76.5761 213.431C76.4836 213.385 76.3815 213.36 76.2778 213.36C76.1742 213.36 76.072 213.385 75.9795 213.431L72.3677 215.527C72.2065 215.608 72.2226 215.769 72.3677 215.866L76.8825 218.462ZM94.5062 223.509L98.1341 221.413C98.2793 221.332 98.2631 221.171 98.1341 221.074L93.6355 218.478C93.543 218.431 93.4408 218.407 93.3372 218.407C93.2336 218.407 93.1314 218.431 93.0389 218.478L89.411 220.574C89.2658 220.655 89.282 220.816 89.411 220.913L93.9096 223.509C94.0082 223.564 94.1192 223.593 94.2321 223.593C94.345 223.593 94.456 223.564 94.5546 223.509H94.5062ZM88.6209 226.54C88.713 226.588 88.8153 226.613 88.9192 226.613C89.023 226.613 89.1254 226.588 89.2175 226.54L92.8454 224.46C92.9905 224.363 92.9744 224.202 92.8454 224.106L88.3468 221.509C88.2533 221.466 88.1515 221.444 88.0485 221.444C87.9454 221.444 87.8436 221.466 87.7502 221.509L84.1222 223.606C83.9771 223.702 83.9932 223.848 84.1222 223.944L88.6209 226.54ZM72.8676 207.788L69.2396 209.884C69.0945 209.965 69.1106 210.126 69.2396 210.223L73.7383 212.835C73.8304 212.883 73.9327 212.908 74.0366 212.908C74.1404 212.908 74.2428 212.883 74.3349 212.835L77.9628 210.739C78.1079 210.739 78.0918 210.497 77.9628 210.4L73.4641 207.804C73.3784 207.765 73.2858 207.744 73.1917 207.741C73.0975 207.738 73.0038 207.754 72.9159 207.788H72.8676ZM99.3112 192.518L95.6833 194.614C95.5382 194.695 95.5543 194.856 95.6833 194.953L100.182 197.565C100.274 197.613 100.376 197.638 100.48 197.638C100.584 197.638 100.686 197.613 100.779 197.565L104.406 195.485C104.552 195.388 104.535 195.227 104.406 195.13L99.9078 192.534C99.8221 192.495 99.7294 192.474 99.6353 192.471C99.5412 192.468 99.4475 192.484 99.3596 192.518H99.3112ZM78.2047 204.789L74.5767 206.885C74.4316 206.885 74.4477 207.127 74.5767 207.223L79.0754 209.819C79.1678 209.866 79.27 209.891 79.3737 209.891C79.4773 209.891 79.5795 209.866 79.672 209.819L83.2999 207.723C83.445 207.643 83.4289 207.481 83.2999 207.385L78.8013 204.789C78.7092 204.741 78.6068 204.716 78.503 204.716C78.3991 204.716 78.2968 204.741 78.2047 204.789ZM104.648 189.519L101.036 191.615C100.875 191.615 100.891 191.857 101.036 191.954L105.535 194.55C105.628 194.597 105.73 194.621 105.833 194.621C105.937 194.621 106.039 194.597 106.132 194.55L109.76 192.454C109.905 192.373 109.889 192.212 109.76 192.115L105.261 189.519C105.172 189.458 105.069 189.421 104.961 189.413C104.854 189.404 104.746 189.424 104.648 189.471V189.519ZM94.0709 195.63L90.4429 197.71C90.2978 197.807 90.3139 197.952 90.4429 198.065L94.9416 200.661C95.035 200.704 95.1368 200.727 95.2399 200.727C95.3429 200.727 95.4447 200.704 95.5382 200.661L99.1661 198.565C99.3112 198.468 99.2951 198.323 99.1661 198.21L94.6674 195.614C94.578 195.561 94.477 195.53 94.3731 195.525C94.2692 195.519 94.1655 195.539 94.0709 195.582V195.63ZM88.7821 198.678L85.1542 200.774C85.0091 200.854 85.0252 201.016 85.1542 201.112L89.6528 203.708C89.7453 203.755 89.8475 203.78 89.9511 203.78C90.0548 203.78 90.1569 203.755 90.2494 203.708L93.8774 201.612C94.0225 201.532 94.0064 201.37 93.8774 201.274L89.3787 198.662C89.2888 198.61 89.1879 198.58 89.0843 198.574C88.9806 198.569 88.8771 198.587 88.7821 198.629V198.678ZM83.4934 201.741L79.8654 203.821C79.7203 203.918 79.7365 204.063 79.8654 204.176L84.3641 206.772C84.4562 206.82 84.5585 206.845 84.6624 206.845C84.7663 206.845 84.8686 206.82 84.9607 206.772L88.5886 204.692C88.7338 204.595 88.7176 204.45 88.5886 204.337L84.09 201.741C84.0019 201.686 83.9015 201.652 83.7976 201.644C83.6937 201.635 83.5893 201.652 83.4934 201.693V201.741ZM111.791 206.175L115.403 204.095C115.564 203.999 115.548 203.854 115.403 203.741L110.905 201.145C110.812 201.097 110.71 201.072 110.606 201.072C110.502 201.072 110.4 201.097 110.308 201.145L106.648 203.176C106.503 203.273 106.519 203.418 106.648 203.531L111.146 206.127C111.244 206.184 111.356 206.213 111.469 206.213C111.582 206.213 111.693 206.184 111.791 206.127V206.175ZM156.939 159.302L153.311 161.399C153.166 161.479 153.182 161.64 153.311 161.737L157.81 164.333C157.902 164.38 158.004 164.404 158.108 164.404C158.212 164.404 158.314 164.38 158.406 164.333L162.034 162.237C162.179 162.237 162.163 161.995 162.034 161.898L157.536 159.302C157.454 159.252 157.362 159.222 157.267 159.213C157.172 159.205 157.076 159.219 156.987 159.254L156.939 159.302ZM150.489 162.995L146.861 165.091C146.716 165.172 146.732 165.333 146.861 165.43L151.36 168.026C151.453 168.072 151.555 168.097 151.658 168.097C151.762 168.097 151.864 168.072 151.957 168.026L155.585 165.929C155.73 165.929 155.714 165.688 155.585 165.591L151.086 162.995C150.951 162.93 150.797 162.913 150.651 162.946L150.489 162.995ZM162.179 156.255L158.713 158.287C158.568 158.383 158.584 158.528 158.713 158.641L163.211 161.237C163.303 161.285 163.406 161.31 163.51 161.31C163.614 161.31 163.716 161.285 163.808 161.237L167.436 159.157C167.581 159.061 167.565 158.915 167.436 158.803L162.937 156.207C162.837 156.147 162.723 156.115 162.607 156.115C162.49 156.115 162.376 156.147 162.276 156.207L162.179 156.255ZM135.607 184.956L139.235 182.86C139.38 182.763 139.364 182.618 139.235 182.505L134.736 179.909C134.644 179.861 134.542 179.836 134.438 179.836C134.334 179.836 134.232 179.861 134.139 179.909L130.511 181.989C130.366 182.086 130.383 182.247 130.511 182.344L135.01 184.94C135.119 184.994 135.24 185.02 135.361 185.014C135.482 185.009 135.6 184.972 135.703 184.908L135.607 184.956ZM168.161 153.191C168.069 153.145 167.967 153.12 167.863 153.12C167.76 153.12 167.657 153.145 167.565 153.191L163.937 155.287C163.792 155.287 163.808 155.529 163.937 155.626L168.436 158.222C168.528 158.269 168.63 158.293 168.734 158.293C168.838 158.293 168.94 158.269 169.032 158.222L172.66 156.126C172.805 156.045 172.789 155.884 172.66 155.787L168.161 153.191ZM117.08 203.096L120.708 201C120.853 201 120.837 200.758 120.708 200.661L116.209 198.065C116.117 198.018 116.015 197.994 115.911 197.994C115.807 197.994 115.705 198.018 115.613 198.065L111.953 200.113C111.807 200.193 111.824 200.355 111.953 200.451L116.451 203.047C116.545 203.105 116.652 203.137 116.762 203.143C116.871 203.149 116.981 203.127 117.08 203.08V203.096ZM181.948 165.639L185.559 163.559C185.721 163.462 185.705 163.317 185.559 163.204L181.061 160.608C180.966 160.56 180.861 160.535 180.754 160.535C180.648 160.535 180.543 160.56 180.448 160.608L176.836 162.688C176.675 162.785 176.707 162.93 176.836 163.043L181.287 165.607C181.385 165.669 181.498 165.703 181.615 165.706C181.731 165.709 181.846 165.68 181.948 165.623V165.639ZM170.225 164.994L173.853 162.898C173.998 162.801 173.982 162.656 173.853 162.543L169.355 159.947C169.263 159.899 169.16 159.874 169.056 159.874C168.952 159.874 168.85 159.899 168.758 159.947L165.162 161.995C165.017 162.092 165.033 162.237 165.162 162.35L169.661 164.946C169.748 164.99 169.843 165.015 169.94 165.021C170.037 165.026 170.134 165.012 170.225 164.978V164.994ZM174.595 156.932C174.502 156.889 174.4 156.866 174.297 156.866C174.194 156.866 174.092 156.889 173.998 156.932L170.37 159.028C170.225 159.109 170.241 159.27 170.37 159.367L174.869 161.979C174.961 162.027 175.064 162.052 175.167 162.052C175.271 162.052 175.374 162.027 175.466 161.979L179.094 159.899C179.239 159.802 179.223 159.641 179.094 159.544L174.595 156.932ZM175.708 156.287L186.64 162.592C186.732 162.638 186.834 162.663 186.938 162.663C187.042 162.663 187.144 162.638 187.236 162.592L190.848 160.496C191.009 160.415 190.993 160.254 190.848 160.157L179.916 153.852C179.825 153.802 179.722 153.775 179.618 153.775C179.513 153.775 179.411 153.802 179.319 153.852L175.691 155.949C175.514 155.981 175.53 156.142 175.708 156.239V156.287ZM163.421 163.011L159.793 165.107C159.648 165.107 159.664 165.349 159.793 165.446L164.292 168.042C164.384 168.088 164.486 168.113 164.59 168.113C164.694 168.113 164.796 168.088 164.888 168.042L168.516 165.946C168.661 165.865 168.645 165.704 168.516 165.607L164.018 163.011C163.929 162.957 163.829 162.924 163.725 162.915C163.621 162.907 163.517 162.923 163.421 162.963V163.011ZM123.61 186.004L120.015 188.036C119.87 188.132 119.886 188.278 120.015 188.39L124.513 190.986C124.605 191.034 124.708 191.06 124.812 191.06C124.915 191.06 125.018 191.034 125.11 190.986L128.738 188.906C128.883 188.81 128.867 188.665 128.738 188.552L124.239 185.956C124.143 185.902 124.035 185.874 123.925 185.874C123.815 185.874 123.706 185.902 123.61 185.956V186.004ZM176.062 168.703C176.155 168.75 176.257 168.774 176.361 168.774C176.464 168.774 176.566 168.75 176.659 168.703L180.271 166.607C180.432 166.526 180.416 166.365 180.271 166.268L175.772 163.672C175.678 163.621 175.573 163.595 175.466 163.595C175.359 163.595 175.253 163.621 175.159 163.672L171.548 165.768C171.386 165.768 171.419 166.01 171.548 166.107L176.062 168.703ZM128.899 182.94L125.271 185.037C125.126 185.117 125.142 185.278 125.271 185.375L129.77 187.971C129.862 188.018 129.964 188.042 130.068 188.042C130.172 188.042 130.274 188.018 130.366 187.971L133.994 185.875C134.139 185.875 134.123 185.633 133.994 185.536L129.496 182.94C129.407 182.886 129.307 182.853 129.203 182.845C129.1 182.836 128.995 182.853 128.899 182.892V182.94ZM90.0398 218.414C90.1323 218.46 90.2345 218.485 90.3381 218.485C90.4417 218.485 90.5439 218.46 90.6364 218.414L94.2482 216.317C94.4095 216.237 94.3933 216.076 94.2482 215.979L89.7496 213.383C89.6543 213.336 89.5495 213.312 89.4432 213.312C89.337 213.312 89.2322 213.336 89.1368 213.383L85.525 215.479C85.3638 215.56 85.396 215.721 85.525 215.818L90.0398 218.414ZM81.3166 210.384L77.7048 212.464C77.5436 212.561 77.5758 212.706 77.7048 212.819L82.2035 215.415C82.2956 215.463 82.3979 215.488 82.5018 215.488C82.6056 215.488 82.708 215.463 82.8 215.415L86.4119 213.335C86.5731 213.238 86.557 213.093 86.4119 212.98L81.9132 210.384C81.8204 210.338 81.7183 210.315 81.6149 210.315C81.5115 210.315 81.4095 210.338 81.3166 210.384ZM95.9574 215.221L99.5692 213.141C99.7305 213.044 99.7143 212.899 99.5692 212.786L95.0705 210.19C94.9756 210.142 94.8706 210.117 94.7642 210.117C94.6577 210.117 94.5528 210.142 94.4578 210.19L90.846 212.27C90.6848 212.367 90.717 212.512 90.846 212.625L95.3447 215.221C95.4295 215.277 95.5263 215.312 95.6272 215.323C95.728 215.334 95.8301 215.321 95.9251 215.286L95.9574 215.221ZM101.246 212.174L104.858 210.094C105.019 209.997 105.003 209.836 104.858 209.739L100.359 207.143C100.263 207.099 100.159 207.077 100.053 207.077C99.9472 207.077 99.8428 207.099 99.7466 207.143L96.1348 209.239C95.9735 209.32 96.0058 209.481 96.1348 209.578L100.633 212.19C100.72 212.243 100.817 212.275 100.918 212.283C101.019 212.292 101.12 212.276 101.214 212.238L101.246 212.174ZM106.535 209.126L110.147 207.03C110.308 206.949 110.292 206.788 110.147 206.691L105.648 204.079C105.553 204.031 105.448 204.006 105.342 204.006C105.235 204.006 105.13 204.031 105.035 204.079L101.423 206.175C101.262 206.256 101.294 206.417 101.423 206.514L105.922 209.11C106.008 209.164 106.104 209.199 106.204 209.213C106.304 209.227 106.406 209.219 106.503 209.191L106.535 209.126ZM86.6054 207.256L82.9935 209.352C82.8323 209.352 82.8645 209.594 82.9935 209.69L87.4922 212.303C87.5843 212.351 87.6866 212.376 87.7905 212.376C87.8944 212.376 87.9967 212.351 88.0888 212.303L91.7006 210.223C91.8618 210.126 91.8457 209.965 91.7006 209.868L87.202 207.272C87.1 207.233 86.9908 207.217 86.8821 207.226C86.7734 207.234 86.6679 207.266 86.5731 207.32L86.6054 207.256ZM91.8941 204.208L88.25 206.401C88.0888 206.482 88.121 206.643 88.25 206.74L92.7487 209.336C92.8411 209.383 92.9433 209.407 93.047 209.407C93.1506 209.407 93.2528 209.383 93.3453 209.336L96.9571 207.24C97.1183 207.159 97.1022 206.998 96.9571 206.901L92.4584 204.305C92.369 204.252 92.268 204.221 92.1641 204.216C92.0602 204.21 91.9565 204.23 91.8618 204.273L91.8941 204.208ZM113.065 191.986L109.437 194.082C109.292 194.082 109.308 194.324 109.437 194.421L113.936 197.033C114.028 197.081 114.13 197.106 114.234 197.106C114.338 197.106 114.44 197.081 114.532 197.033L118.16 194.953C118.306 194.856 118.289 194.695 118.16 194.598L113.565 192.083C113.399 192.003 113.208 191.992 113.033 192.051L113.065 191.986ZM107.776 195.05L104.148 197.13C104.003 197.226 104.019 197.388 104.148 197.484L108.647 200.08C108.741 200.124 108.842 200.146 108.945 200.146C109.048 200.146 109.15 200.124 109.244 200.08L112.856 197.984C113.017 197.888 113.001 197.742 112.856 197.63L108.341 195.114C108.249 195.066 108.146 195.041 108.042 195.041C107.939 195.041 107.836 195.066 107.744 195.114L107.776 195.05ZM118.354 188.939L114.726 191.035C114.581 191.115 114.597 191.277 114.726 191.373L119.225 193.969C119.317 194.016 119.419 194.041 119.523 194.041C119.627 194.041 119.729 194.016 119.821 193.969L123.449 191.873C123.594 191.793 123.578 191.631 123.449 191.535L118.95 188.939C118.86 188.909 118.764 188.9 118.669 188.911C118.575 188.922 118.484 188.954 118.402 189.003L118.354 188.939ZM97.1828 201.161L93.571 203.241C93.4098 203.338 93.442 203.483 93.571 203.596L98.0696 206.192C98.1617 206.24 98.2641 206.265 98.3679 206.265C98.4718 206.265 98.5741 206.24 98.6662 206.192L102.278 204.112C102.439 204.015 102.423 203.87 102.278 203.757L97.7794 201.161C97.6773 201.12 97.5666 201.104 97.457 201.115C97.3474 201.126 97.2423 201.164 97.1506 201.225L97.1828 201.161ZM102.472 198.097L98.8597 200.193C98.6985 200.274 98.7307 200.435 98.8597 200.532L103.358 203.128C103.451 203.175 103.553 203.199 103.657 203.199C103.76 203.199 103.862 203.175 103.955 203.128L107.567 201.032C107.728 201.032 107.712 200.79 107.567 200.693L103.068 198.097C102.966 198.057 102.855 198.042 102.746 198.054C102.637 198.065 102.532 198.102 102.439 198.162L102.472 198.097ZM99.8755 220.381L103.503 218.301C103.649 218.204 103.632 218.059 103.503 217.946L99.0049 215.35C98.9128 215.302 98.8104 215.277 98.7066 215.277C98.6027 215.277 98.5004 215.302 98.4083 215.35L94.7803 217.43C94.6352 217.527 94.6513 217.672 94.7803 217.785L99.279 220.381C99.3619 220.434 99.4558 220.467 99.5537 220.478C99.6515 220.49 99.7506 220.478 99.8433 220.445L99.8755 220.381ZM67.466 216.463L62.9673 213.867C62.8748 213.82 62.7726 213.796 62.669 213.796C62.5654 213.796 62.4632 213.82 62.3707 213.867L58.7428 216.076C58.5977 216.156 58.6138 216.318 58.7428 216.414L63.2414 219.01C63.3339 219.057 63.4361 219.081 63.5397 219.081C63.6433 219.081 63.7455 219.057 63.838 219.01L67.466 216.914C67.6272 216.785 67.6111 216.624 67.4337 216.527L67.466 216.463ZM75.8505 219.042L71.3358 216.446C71.2437 216.398 71.1413 216.373 71.0375 216.373C70.9336 216.373 70.8313 216.398 70.7392 216.446L65.1763 219.671C65.0151 219.752 65.0473 219.913 65.1763 220.01L69.675 222.622C69.7671 222.67 69.8694 222.695 69.9733 222.695C70.0771 222.695 70.1795 222.67 70.2716 222.622L75.8344 219.397C76.0118 219.3 75.9956 219.3 75.8183 219.107L75.8505 219.042ZM60.5003 211.464L56.0017 208.868C55.9096 208.82 55.8072 208.795 55.7034 208.795C55.5995 208.795 55.4972 208.82 55.4051 208.868L50.9387 211.432C50.7936 211.529 50.8097 211.674 50.9387 211.787L55.5179 214.463C55.61 214.511 55.7124 214.536 55.8162 214.536C55.9201 214.536 56.0224 214.511 56.1145 214.463L60.5809 211.899C60.6615 211.787 60.6454 211.641 60.4681 211.529L60.5003 211.464ZM63.9186 209.497C64.0111 209.544 64.1133 209.568 64.2169 209.568C64.3206 209.568 64.4227 209.544 64.5152 209.497L68.127 207.401C68.2883 207.32 68.2722 207.159 68.127 207.062L63.6123 204.466C63.5198 204.419 63.4176 204.395 63.314 204.395C63.2103 204.395 63.1082 204.419 63.0157 204.466L59.4039 206.562C59.2426 206.643 59.2588 206.804 59.4039 206.901L63.9186 209.497ZM83.6708 221.961L79.156 219.349C79.0639 219.301 78.9616 219.276 78.8577 219.276C78.7538 219.276 78.6515 219.301 78.5594 219.349L71.6421 223.412C71.4809 223.509 71.497 223.654 71.6421 223.767L76.1408 226.363C76.2357 226.411 76.3407 226.436 76.4471 226.436C76.5536 226.436 76.6585 226.411 76.7535 226.363L83.703 222.348C83.832 222.283 83.8159 222.122 83.6385 222.025L83.6708 221.961ZM87.5889 227.121L83.0903 224.509C82.9982 224.461 82.8959 224.435 82.792 224.435C82.6881 224.435 82.5858 224.461 82.4937 224.509L78.0273 227.072C77.8822 227.169 77.8983 227.314 78.0273 227.427L82.5259 230.023C82.618 230.071 82.7204 230.096 82.8242 230.096C82.9281 230.096 83.0304 230.071 83.1225 230.023L87.5889 227.459C87.7663 227.363 87.7663 227.363 87.5567 227.185L87.5889 227.121ZM103.246 186.81C103.339 186.854 103.441 186.876 103.544 186.876C103.647 186.876 103.749 186.854 103.842 186.81L107.454 184.714C107.615 184.714 107.599 184.472 107.454 184.375L102.955 181.763C102.86 181.715 102.755 181.69 102.649 181.69C102.542 181.69 102.437 181.715 102.343 181.763L98.7307 183.843C98.5695 183.94 98.6018 184.101 98.7307 184.198L103.246 186.81ZM92.6036 192.97C92.6956 193.018 92.798 193.043 92.9018 193.043C93.0057 193.043 93.1081 193.018 93.2002 192.97L96.812 190.89C96.9732 190.793 96.9571 190.648 96.812 190.535L92.2972 187.939C92.2051 187.891 92.1028 187.866 91.9989 187.866C91.895 187.866 91.7927 187.891 91.7006 187.939L88.0888 190.019C87.9275 190.116 87.9437 190.261 88.0888 190.374L92.6036 192.97ZM69.1429 206.514C69.235 206.562 69.3373 206.587 69.4412 206.587C69.545 206.587 69.6474 206.562 69.7395 206.514L73.3513 204.434C73.5125 204.337 73.4964 204.192 73.3513 204.079L68.8526 201.564C68.7577 201.516 68.6527 201.491 68.5463 201.491C68.4398 201.491 68.3349 201.516 68.2399 201.564L64.6281 203.644C64.4669 203.741 64.4991 203.886 64.6281 203.999L69.1429 206.514ZM97.8923 189.906C97.9835 189.957 98.0862 189.984 98.1906 189.984C98.295 189.984 98.3977 189.957 98.4889 189.906L102.101 187.81C102.262 187.729 102.246 187.568 102.101 187.471L97.5859 184.875C97.4934 184.829 97.3913 184.804 97.2876 184.804C97.184 184.804 97.0818 184.829 96.9893 184.875L93.3775 186.971C93.2163 187.052 93.2324 187.213 93.3775 187.31L97.8923 189.906ZM87.2987 196.017C87.394 196.064 87.4988 196.089 87.6051 196.089C87.7113 196.089 87.8161 196.064 87.9114 196.017L91.5232 193.921C91.6845 193.84 91.6522 193.679 91.5232 193.582L87.0246 190.986C86.9321 190.94 86.8299 190.915 86.7263 190.915C86.6227 190.915 86.5205 190.94 86.428 190.986L82.8162 193.083C82.6549 193.083 82.6711 193.324 82.8162 193.421L87.2987 196.017ZM90.5235 227.653C90.4282 227.606 90.3234 227.581 90.2172 227.581C90.1109 227.581 90.0061 227.606 89.9108 227.653L84.348 230.878C84.2028 230.878 84.219 231.12 84.348 231.216L88.8466 233.812C88.9401 233.856 89.0419 233.878 89.1449 233.878C89.2479 233.878 89.3497 233.856 89.4432 233.812L95.0061 230.587C95.1673 230.507 95.1512 230.346 95.0061 230.249L90.5235 227.653ZM79.7042 200.403C79.7977 200.446 79.8995 200.469 80.0025 200.469C80.1055 200.469 80.2073 200.446 80.3008 200.403L83.9126 198.307C84.0739 198.21 84.0577 198.065 83.9126 197.968L79.414 195.356C79.319 195.308 79.2141 195.283 79.1076 195.283C79.0011 195.283 78.8962 195.308 78.8013 195.356L75.1894 197.436C75.0282 197.533 75.0604 197.694 75.1894 197.791L79.7042 200.403ZM74.4155 203.45C74.508 203.497 74.6101 203.522 74.7138 203.522C74.8174 203.522 74.9196 203.497 75.0121 203.45L78.6239 201.354C78.7851 201.354 78.769 201.112 78.6239 201.016L74.1252 198.42C74.0299 198.373 73.9251 198.348 73.8189 198.348C73.7126 198.348 73.6078 198.373 73.5125 198.42L69.9007 200.516C69.7395 200.596 69.7717 200.758 69.9007 200.854L74.4155 203.45ZM188.542 171.073C188.449 171.03 188.347 171.007 188.244 171.007C188.141 171.007 188.039 171.03 187.946 171.073L179.029 176.217C178.884 176.313 178.9 176.459 179.029 176.571L183.528 179.167C183.621 179.211 183.723 179.233 183.826 179.233C183.929 179.233 184.031 179.211 184.124 179.167L193.041 174.024C193.186 173.927 193.17 173.766 193.041 173.669L188.542 171.073ZM176.852 177.829C176.76 177.782 176.658 177.758 176.554 177.758C176.45 177.758 176.348 177.782 176.256 177.829L172.628 179.925C172.483 180.006 172.499 180.167 172.628 180.264L177.127 182.86C177.219 182.907 177.321 182.931 177.425 182.931C177.528 182.931 177.631 182.907 177.723 182.86L181.351 180.764C181.496 180.764 181.48 180.522 181.351 180.425L176.852 177.829ZM105.084 217.398L108.712 215.302C108.857 215.221 108.841 215.06 108.712 214.963L104.213 212.367C104.12 212.32 104.018 212.296 103.915 212.296C103.811 212.296 103.709 212.32 103.616 212.367L99.9884 214.463C99.8433 214.544 99.8594 214.705 99.9884 214.802L104.487 217.398C104.584 217.458 104.696 217.49 104.81 217.49C104.924 217.49 105.035 217.458 105.132 217.398H105.084ZM166.275 183.924C166.183 183.876 166.081 183.851 165.977 183.851C165.873 183.851 165.77 183.876 165.678 183.924L162.05 186.004C161.905 186.101 161.921 186.262 162.05 186.359L166.549 188.955C166.643 188.998 166.744 189.021 166.847 189.021C166.95 189.021 167.052 188.998 167.146 188.955L170.774 186.859C170.919 186.859 170.903 186.617 170.774 186.52L166.275 183.924ZM193.831 168.026C193.74 167.975 193.637 167.948 193.533 167.948C193.428 167.948 193.326 167.975 193.235 168.026L189.607 170.122C189.462 170.202 189.478 170.364 189.607 170.46L194.186 173.024C194.278 173.071 194.381 173.095 194.484 173.095C194.588 173.095 194.69 173.071 194.782 173.024L198.41 170.928C198.556 170.847 198.539 170.686 198.41 170.589L193.831 168.026ZM203.619 167.558L192.735 161.253C192.641 161.21 192.539 161.188 192.436 161.188C192.333 161.188 192.232 161.21 192.138 161.253L188.526 163.35C188.365 163.43 188.381 163.591 188.526 163.688L199.459 170.009C199.551 170.057 199.653 170.082 199.757 170.082C199.861 170.082 199.963 170.057 200.055 170.009L203.683 167.929C203.86 167.816 203.86 167.703 203.667 167.558H203.619ZM146.507 195.34C146.415 195.292 146.312 195.267 146.208 195.267C146.105 195.267 146.002 195.292 145.91 195.34L141.444 197.904C141.299 198 141.315 198.146 141.444 198.258L145.942 200.854C146.034 200.902 146.137 200.928 146.241 200.928C146.345 200.928 146.447 200.902 146.539 200.854L151.005 198.291C151.15 198.194 151.134 198.049 151.005 197.936L146.507 195.34ZM159.874 187.633C159.778 187.586 159.674 187.561 159.567 187.561C159.461 187.561 159.356 187.586 159.261 187.633L153.698 190.857C153.553 190.954 153.569 191.115 153.698 191.212L158.197 193.808C158.29 193.851 158.392 193.874 158.495 193.874C158.598 193.874 158.7 193.851 158.793 193.808L164.356 190.583C164.517 190.503 164.501 190.341 164.356 190.245L159.874 187.633ZM134.252 202.418C134.16 202.372 134.058 202.347 133.954 202.347C133.85 202.347 133.748 202.372 133.656 202.418L103.89 219.591C103.729 219.671 103.745 219.833 103.89 219.929L108.389 222.525C108.484 222.572 108.589 222.597 108.695 222.597C108.802 222.597 108.907 222.572 109.002 222.525L138.783 205.321C138.944 205.321 138.912 205.079 138.783 204.982L134.252 202.418ZM102.794 220.574C102.702 220.526 102.6 220.501 102.496 220.501C102.392 220.501 102.29 220.526 102.197 220.574L97.7472 223.138C97.5859 223.235 97.6021 223.38 97.7472 223.493L102.262 226.089C102.354 226.137 102.456 226.162 102.56 226.162C102.664 226.162 102.766 226.137 102.859 226.089L107.309 223.525C107.47 223.428 107.438 223.283 107.309 223.17L102.794 220.574ZM140.38 198.871C140.287 198.823 140.185 198.798 140.081 198.798C139.977 198.798 139.875 198.823 139.783 198.871L135.333 201.435C135.171 201.532 135.188 201.677 135.333 201.79L139.831 204.386C139.928 204.429 140.032 204.452 140.138 204.452C140.243 204.452 140.348 204.429 140.444 204.386L144.894 201.806C145.039 201.806 145.023 201.564 144.894 201.467L140.38 198.871ZM96.7152 224.138C96.6231 224.09 96.5208 224.065 96.4169 224.065C96.3131 224.065 96.2107 224.09 96.1186 224.138L91.6683 226.701C91.5071 226.798 91.5394 226.943 91.6683 227.056L96.167 229.652C96.2605 229.696 96.3623 229.718 96.4653 229.718C96.5683 229.718 96.6701 229.696 96.7636 229.652L101.214 227.072C101.375 226.992 101.359 226.83 101.214 226.734L96.7152 224.138ZM152.682 191.889C152.59 191.843 152.488 191.818 152.384 191.818C152.28 191.818 152.178 191.843 152.086 191.889L147.619 194.469C147.474 194.55 147.49 194.711 147.619 194.808L152.118 197.404C152.21 197.451 152.313 197.475 152.416 197.475C152.52 197.475 152.622 197.451 152.714 197.404L157.181 194.824C157.326 194.743 157.31 194.582 157.181 194.485L152.682 191.889ZM171.612 180.877C171.519 180.833 171.417 180.811 171.314 180.811C171.211 180.811 171.109 180.833 171.015 180.877L167.388 182.973C167.242 183.069 167.259 183.215 167.388 183.311L171.886 185.923C171.978 185.971 172.081 185.997 172.184 185.997C172.288 185.997 172.391 185.971 172.483 185.923L176.111 183.843C176.256 183.747 176.24 183.585 176.111 183.489L171.612 180.877ZM183.092 172.395L186.704 170.299C186.866 170.218 186.833 170.057 186.704 169.96L182.206 167.364C182.113 167.318 182.011 167.293 181.907 167.293C181.804 167.293 181.702 167.318 181.609 167.364L177.997 169.461C177.836 169.541 177.852 169.702 177.997 169.799L182.496 172.395C182.589 172.44 182.691 172.463 182.794 172.463C182.897 172.463 182.999 172.44 183.092 172.395ZM158.535 171.718L162.147 169.638C162.308 169.541 162.292 169.38 162.147 169.283L157.648 166.687C157.552 166.644 157.448 166.621 157.342 166.621C157.236 166.621 157.132 166.644 157.036 166.687L153.424 168.783C153.263 168.88 153.295 169.025 153.424 169.122L157.923 171.734C158.018 171.782 158.124 171.806 158.231 171.804C158.338 171.801 158.443 171.771 158.535 171.718ZM147.426 192.97L158.003 186.859C158.148 186.859 158.132 186.617 158.003 186.52L153.505 183.908C153.412 183.86 153.31 183.835 153.206 183.835C153.102 183.835 153 183.86 152.908 183.908L142.331 190.019C142.169 190.019 142.185 190.261 142.331 190.358L146.829 192.954C146.921 193.001 147.022 193.026 147.126 193.029C147.229 193.032 147.331 193.012 147.426 192.97ZM177.159 175.427C177.254 175.475 177.359 175.5 177.465 175.5C177.572 175.5 177.677 175.475 177.771 175.427L181.383 173.347C181.545 173.25 181.512 173.105 181.383 172.992L176.885 170.396C176.793 170.348 176.69 170.323 176.586 170.323C176.482 170.323 176.38 170.348 176.288 170.396L172.66 172.54C172.499 172.637 172.515 172.782 172.66 172.895L177.159 175.427ZM171.338 171.734L174.95 169.654C175.111 169.557 175.095 169.396 174.95 169.299L170.435 166.703C170.342 166.66 170.24 166.638 170.137 166.638C170.034 166.638 169.932 166.66 169.838 166.703L166.227 168.8C166.065 168.88 166.081 169.041 166.227 169.138L170.725 171.75C170.825 171.804 170.937 171.831 171.05 171.829C171.163 171.826 171.274 171.793 171.37 171.734H171.338ZM142.137 196.017L145.749 193.937C145.91 193.84 145.878 193.695 145.749 193.582L141.25 190.986C141.157 190.943 141.055 190.921 140.952 190.921C140.849 190.921 140.747 190.943 140.654 190.986L137.042 193.083C136.881 193.179 136.897 193.324 137.042 193.437L141.54 196.033C141.639 196.082 141.747 196.105 141.857 196.103C141.966 196.1 142.074 196.071 142.169 196.017H142.137ZM165.501 182.215C165.592 182.266 165.695 182.292 165.799 182.292C165.904 182.292 166.006 182.266 166.098 182.215L169.726 180.119C169.871 180.038 169.855 179.877 169.726 179.78L165.162 177.168C165.07 177.121 164.968 177.097 164.864 177.097C164.76 177.097 164.658 177.121 164.566 177.168L160.938 179.264C160.793 179.264 160.809 179.506 160.938 179.603L165.501 182.215ZM115.71 211.238L119.337 209.158C119.483 209.062 119.466 208.917 119.337 208.804L114.839 206.208C114.745 206.164 114.644 206.142 114.54 206.142C114.437 206.142 114.336 206.164 114.242 206.208L110.614 208.304C110.469 208.401 110.485 208.546 110.614 208.659L115.177 211.238C115.261 211.276 115.352 211.296 115.443 211.296C115.535 211.296 115.626 211.276 115.71 211.238ZM120.998 208.191L124.626 206.095C124.771 206.014 124.755 205.853 124.626 205.756L120.015 203.176C119.922 203.13 119.82 203.105 119.716 203.105C119.613 203.105 119.511 203.13 119.418 203.176L115.79 205.272C115.645 205.272 115.661 205.514 115.79 205.611L120.289 208.207C120.392 208.279 120.513 208.321 120.639 208.327C120.764 208.332 120.889 208.302 120.998 208.239V208.191ZM110.421 214.302L114.049 212.206C114.194 212.206 114.178 211.964 114.049 211.867L109.55 209.255C109.458 209.207 109.356 209.182 109.252 209.182C109.148 209.182 109.046 209.207 108.953 209.255L105.326 211.335C105.18 211.432 105.197 211.593 105.326 211.69L109.824 214.286C109.913 214.34 110.012 214.373 110.115 214.384C110.218 214.395 110.323 214.384 110.421 214.35V214.302ZM131.592 202.08L135.204 199.984C135.349 199.903 135.333 199.742 135.204 199.645L130.705 197.049C130.613 197.002 130.51 196.978 130.407 196.978C130.303 196.978 130.201 197.002 130.108 197.049L126.497 199.145C126.335 199.226 126.351 199.387 126.497 199.484L130.995 202.08C131.083 202.136 131.184 202.169 131.288 202.177C131.391 202.186 131.496 202.169 131.592 202.128V202.08ZM126.287 205.127L129.915 203.047C130.06 202.951 130.044 202.805 129.915 202.693L125.416 200.097C125.324 200.049 125.222 200.023 125.118 200.023C125.014 200.023 124.912 200.049 124.82 200.097L121.192 202.177C121.047 202.273 121.063 202.418 121.192 202.531L125.69 205.127C125.779 205.183 125.879 205.216 125.983 205.225C126.087 205.233 126.191 205.216 126.287 205.176V205.127ZM136.881 199.032L140.492 196.936C140.654 196.936 140.621 196.694 140.492 196.598L135.994 193.986C135.902 193.937 135.799 193.912 135.695 193.912C135.592 193.912 135.489 193.937 135.397 193.986L131.785 196.066C131.624 196.162 131.64 196.324 131.785 196.42L136.284 199.016C136.373 199.068 136.473 199.1 136.575 199.112C136.678 199.123 136.782 199.112 136.881 199.081V199.032ZM159.035 152.675C159.127 152.723 159.23 152.748 159.333 152.748C159.437 152.748 159.54 152.723 159.632 152.675L163.26 150.595C163.405 150.499 163.389 150.353 163.26 150.241L162.067 149.547C161.972 149.499 161.867 149.474 161.76 149.474C161.654 149.474 161.549 149.499 161.454 149.547L157.842 151.643C157.681 151.724 157.713 151.885 157.842 151.982L159.035 152.675ZM133.124 169.541C133.216 169.589 133.318 169.614 133.422 169.614C133.526 169.614 133.628 169.589 133.72 169.541L137.348 167.461C137.493 167.364 137.477 167.219 137.348 167.107L132.85 164.511C132.757 164.462 132.655 164.437 132.551 164.437C132.447 164.437 132.345 164.462 132.253 164.511L128.625 166.591C128.48 166.687 128.496 166.832 128.625 166.945L133.124 169.541ZM143.701 163.43C143.795 163.474 143.896 163.496 143.999 163.496C144.102 163.496 144.204 163.474 144.298 163.43L147.926 161.334C148.071 161.334 148.055 161.092 147.926 160.995L143.427 158.383C143.335 158.335 143.233 158.31 143.129 158.31C143.025 158.31 142.922 158.335 142.83 158.383L139.202 160.463C139.057 160.56 139.073 160.721 139.202 160.818L143.701 163.43ZM126.674 173.266C126.767 173.309 126.869 173.332 126.972 173.332C127.075 173.332 127.177 173.309 127.271 173.266L130.882 171.17C131.044 171.17 131.011 170.928 130.882 170.831L126.384 168.219C126.292 168.171 126.189 168.146 126.085 168.146C125.982 168.146 125.879 168.171 125.787 168.219L122.175 170.299C122.014 170.396 122.03 170.557 122.175 170.654L126.674 173.266ZM138.412 166.478C138.504 166.528 138.606 166.555 138.711 166.555C138.815 166.555 138.918 166.528 139.009 166.478L142.589 164.478C142.734 164.398 142.718 164.236 142.589 164.14L138.09 161.544C137.997 161.497 137.895 161.473 137.792 161.473C137.688 161.473 137.586 161.497 137.493 161.544L133.865 163.64C133.72 163.72 133.736 163.882 133.865 163.978L138.412 166.478ZM116.08 179.377C116.175 179.425 116.28 179.45 116.387 179.45C116.493 179.45 116.598 179.425 116.693 179.377L120.305 177.297C120.466 177.2 120.434 177.055 120.305 176.942L115.806 174.346C115.714 174.298 115.612 174.273 115.508 174.273C115.404 174.273 115.302 174.298 115.21 174.346L111.598 176.426C111.437 176.523 111.453 176.668 111.598 176.781L116.08 179.377ZM121.369 176.33C121.464 176.378 121.569 176.403 121.675 176.403C121.782 176.403 121.887 176.378 121.982 176.33L125.594 174.233C125.755 174.153 125.723 173.992 125.594 173.895L121.095 171.299C121.002 171.252 120.9 171.228 120.797 171.228C120.693 171.228 120.591 171.252 120.498 171.299L116.887 173.395C116.725 173.395 116.741 173.637 116.887 173.734L121.369 176.33ZM148.458 158.786C148.55 158.834 148.652 158.86 148.756 158.86C148.86 158.86 148.962 158.834 149.054 158.786L152.666 156.706C152.827 156.61 152.811 156.448 152.666 156.352L151.473 155.658C151.378 155.61 151.273 155.585 151.167 155.585C151.06 155.585 150.955 155.61 150.86 155.658L147.248 157.738C147.087 157.835 147.119 157.98 147.248 158.093L148.458 158.786ZM164.324 149.612C164.415 149.663 164.518 149.689 164.622 149.689C164.727 149.689 164.829 149.663 164.921 149.612L168.548 147.516C168.694 147.435 168.677 147.274 168.548 147.177L167.355 146.484C167.26 146.436 167.155 146.41 167.049 146.41C166.942 146.41 166.837 146.436 166.743 146.484L163.131 148.564C162.969 148.66 163.002 148.806 163.131 148.918L164.324 149.612ZM173.773 155.078C173.866 155.121 173.968 155.144 174.071 155.144C174.174 155.144 174.276 155.121 174.369 155.078L177.997 152.982C178.142 152.885 178.126 152.74 177.997 152.627L173.499 150.031C173.406 149.983 173.304 149.958 173.2 149.958C173.096 149.958 172.994 149.983 172.902 150.031L169.274 152.111C169.129 152.208 169.145 152.353 169.274 152.466L173.773 155.078ZM188.381 169.316L191.993 167.219C192.154 167.123 192.122 166.978 191.993 166.865L187.494 164.269C187.402 164.221 187.3 164.196 187.196 164.196C187.092 164.196 186.99 164.221 186.898 164.269L183.286 166.349C183.125 166.445 183.141 166.591 183.286 166.703L187.736 169.316C187.837 169.364 187.947 169.389 188.059 169.389C188.17 169.389 188.281 169.364 188.381 169.316ZM153.746 155.739C153.839 155.786 153.941 155.81 154.045 155.81C154.148 155.81 154.251 155.786 154.343 155.739L157.971 153.643C158.116 153.643 158.1 153.401 157.971 153.304L156.778 152.611C156.682 152.564 156.578 152.54 156.471 152.54C156.365 152.54 156.26 152.564 156.165 152.611L152.553 154.707C152.392 154.707 152.424 154.949 152.553 155.046L153.746 155.739ZM110.792 182.441C110.887 182.488 110.992 182.512 111.098 182.512C111.204 182.512 111.309 182.488 111.404 182.441L115.016 180.344C115.177 180.344 115.145 180.103 115.016 180.006L110.518 177.41C110.425 177.363 110.323 177.339 110.219 177.339C110.116 177.339 110.013 177.363 109.921 177.41L106.309 179.506C106.148 179.506 106.164 179.748 106.309 179.845L110.792 182.441Z" fill="var(--fill-0, #A83300)" id="Vector_14"/>
<path d="M10.7402 202.789C9.64269 202.049 8.72229 201.076 8.04493 199.938C7.36756 198.801 6.94999 197.528 6.82207 196.211L0.0660316 83.18C0.0618069 81.7956 0.414139 80.4335 1.0891 79.2248C1.76405 78.0161 2.73889 77.0015 3.91971 76.2789L134.526 0.833827C135.651 0.285161 136.886 0 138.137 0C139.389 0 140.624 0.285161 141.749 0.833827C142.846 1.57883 143.765 2.55571 144.442 3.69532C145.119 4.83493 145.537 6.10942 145.667 7.42861L152.423 120.459C152.422 121.792 152.09 123.105 151.456 124.278C150.823 125.451 149.909 126.45 148.795 127.183L18.1896 202.628C17.0455 203.231 15.7768 203.559 14.4839 203.587C13.191 203.615 11.9094 203.342 10.7402 202.789Z" fill="var(--fill-0, #FF7032)" id="Vector_15"/>
<path d="M10.7402 202.789C9.64269 202.049 8.72229 201.076 8.04493 199.938C7.36756 198.801 6.94999 197.528 6.82207 196.211L0.0660316 83.18C0.0618069 81.7956 0.414139 80.4335 1.0891 79.2248C1.76405 78.0161 2.73889 77.0015 3.91971 76.2789L134.526 0.833827C135.651 0.285161 136.886 0 138.137 0C139.389 0 140.624 0.285161 141.749 0.833827C142.846 1.57883 143.765 2.55571 144.442 3.69532C145.119 4.83493 145.537 6.10942 145.667 7.42861L152.423 120.459C152.422 121.792 152.09 123.105 151.456 124.278C150.823 125.451 149.909 126.45 148.795 127.183L18.1896 202.628C17.0455 203.231 15.7768 203.559 14.4839 203.587C13.191 203.615 11.9094 203.342 10.7402 202.789Z" fill="var(--fill-0, white)" id="Vector_16" opacity="0.4"/>
<path d="M10.9661 80.6323L141.572 5.18725C141.963 4.86266 142.441 4.66227 142.947 4.6118C143.452 4.56132 143.961 4.66307 144.408 4.90398C144.856 5.14488 145.22 5.51396 145.456 5.9638C145.692 6.41364 145.788 6.9237 145.732 7.42851L152.488 120.459C152.487 121.792 152.154 123.105 151.521 124.278C150.888 125.451 149.974 126.449 148.86 127.183L18.2543 202.628C17.8632 202.947 17.3861 203.143 16.8836 203.19C16.3812 203.238 15.8759 203.135 15.4319 202.895C14.988 202.654 14.6254 202.288 14.3901 201.841C14.1548 201.395 14.0574 200.889 14.1104 200.387L7.35432 87.34C7.34515 86.0086 7.67118 84.6964 8.30237 83.5242C8.93356 82.352 9.84963 81.3575 10.9661 80.6323Z" fill="var(--fill-0, #FF7032)" id="Vector_17"/>
<path d="M14.0626 83.3575L139.493 10.9438C139.804 10.6833 140.187 10.5222 140.591 10.4812C140.995 10.4402 141.402 10.5213 141.759 10.714C142.117 10.9066 142.409 11.202 142.597 11.562C142.785 11.922 142.86 12.3301 142.814 12.7336L148.699 111.268C148.698 112.332 148.434 113.379 147.931 114.316C147.427 115.252 146.7 116.05 145.813 116.638L21.3507 188.519C21.0354 188.775 20.652 188.931 20.2483 188.97C19.8446 189.008 19.4385 188.927 19.0807 188.736C18.7229 188.545 18.4293 188.253 18.2366 187.896C18.0438 187.539 17.9604 187.134 17.9969 186.73L11.2086 88.6946C11.1969 87.6368 11.4524 86.5931 11.9513 85.6602C12.4501 84.7272 13.1763 83.9353 14.0626 83.3575Z" fill="var(--fill-0, white)" id="Vector_18"/>
</g>
</svg>