<?xml version="1.0" encoding="utf-8"?>
<svg xmlns="http://www.w3.org/2000/svg" fill="none" height="100%" overflow="visible" preserveAspectRatio="none" style="display: block;" viewBox="0 0 63 63" width="100%">
<g id="Frame 35985">
<circle cx="31.5" cy="31.5" fill="var(--fill-0, white)" id="Ellipse 787" r="31.5"/>
<g id="fluent-mdl2:health-solid">
<path d="M38.0938 20.625C39.0501 20.625 39.9473 20.8027 40.7852 21.1582C41.623 21.5137 42.3509 22.0046 42.9688 22.6309C43.5866 23.2572 44.0775 23.9893 44.4414 24.8271C44.8053 25.665 44.9873 26.5622 44.9873 27.5186C44.9873 28.0094 44.9365 28.4961 44.835 28.9785C44.7334 29.4609 44.5811 29.9264 44.3779 30.375H38.5L36.0625 27.8359L32 31.8984L26.3125 26.2109L22.25 30.375H19.6221C19.4189 29.9264 19.2666 29.4609 19.165 28.9785C19.0635 28.4961 19.0127 28.0094 19.0127 27.5186C19.0127 26.5622 19.1904 25.665 19.5459 24.8271C19.9014 23.9893 20.3923 23.2614 21.0186 22.6436C21.6449 22.0257 22.377 21.5348 23.2148 21.1709C24.0527 20.807 24.9499 20.625 25.9062 20.625C26.8288 20.625 27.709 20.7985 28.5469 21.1455C29.3848 21.4925 30.1338 21.9919 30.7939 22.6436L32 23.8623L33.2061 22.6436C33.8577 21.9919 34.6025 21.4925 35.4404 21.1455C36.2783 20.7985 37.1628 20.625 38.0938 20.625ZM36.875 32H43.3496L43.1719 32.2031C43.1126 32.2708 43.0492 32.3428 42.9814 32.4189L32 43.3877L21.0186 32.4189C20.9508 32.3512 20.8874 32.2835 20.8281 32.2158C20.7689 32.1481 20.7096 32.0762 20.6504 32H23.875L26.3125 29.6641L32 35.3516L36.0625 31.2891L36.875 32Z" fill="var(--fill-0, #FF853C)" id="Vector"/>
</g>
</g>
</svg>