<?xml version="1.0" encoding="utf-8"?>
<svg xmlns="http://www.w3.org/2000/svg" fill="none" height="100%" overflow="visible" preserveAspectRatio="none" style="display: block;" viewBox="0 0 24 24" width="100%">
<g id="gridicons:thumbs-up">
<path d="M6.7 22H2V13H4L6.7 22ZM19.999 9H14V5C14 4.20435 13.6839 3.44129 13.1213 2.87868C12.5587 2.31607 11.7956 2 11 2H10V6L7.1 9.625C6.38813 10.5149 6.00021 11.6204 6 12.76V14L8.1 21H16.437C17.3292 21.0001 18.1957 20.7019 18.8989 20.1529C19.6022 19.6039 20.1017 18.8355 20.318 17.97L21.939 11.485C22.0127 11.1902 22.0182 10.8824 21.9552 10.5851C21.8922 10.2878 21.7622 10.0088 21.5752 9.76927C21.3882 9.52972 21.149 9.33594 20.8759 9.20264C20.6028 9.06935 20.3029 9.00005 19.999 9Z" fill="var(--fill-0, #FF8237)" id="Vector"/>
</g>
</svg>