<?xml version="1.0" encoding="utf-8"?>
<svg xmlns="http://www.w3.org/2000/svg" fill="none" height="100%" overflow="visible" preserveAspectRatio="none" style="display: block;" viewBox="0 0 22 22" width="100%">
<g id="mingcute:head-ai-fill">
<g id="Group">
<g id="Vector">
</g>
<path d="M11.9158 1.83366C12.5062 1.83366 13.08 1.90516 13.6309 2.03716C13.1118 2.24798 12.6694 2.6124 12.3632 3.08161C12.0569 3.55083 11.9013 4.10242 11.9173 4.66252C11.9332 5.22262 12.12 5.76446 12.4524 6.21548C12.7849 6.6665 13.2473 7.00515 13.7776 7.18608L14.1232 7.30433C14.3918 7.39599 14.6026 7.60683 14.6943 7.87633L14.8134 8.22283C14.9595 8.65252 15.2098 9.0393 15.5419 9.34857C15.8741 9.65784 16.2777 9.87994 16.7167 9.99501C17.1557 10.1101 17.6164 10.1145 18.0576 10.0079C18.4987 9.90134 18.9065 9.68705 19.2446 9.38424C19.208 10.6343 18.8523 11.8542 18.2113 12.928C17.5703 14.0019 16.6654 14.894 15.5825 15.5195V18.792C15.5825 19.1567 15.4376 19.5064 15.1798 19.7643C14.9219 20.0221 14.5722 20.167 14.2075 20.167H10.5408C10.1762 20.167 9.82643 20.0221 9.56857 19.7643C9.31071 19.5064 9.16584 19.1567 9.16584 18.792V17.417H8.03468C7.36436 17.417 6.71712 17.1722 6.21459 16.7286C5.71207 16.285 5.38888 15.6731 5.30576 15.008L5.17743 13.9786L4.49176 13.8429C4.29229 13.803 4.10416 13.7193 3.94095 13.5978C3.77774 13.4764 3.6435 13.3203 3.54793 13.1407C3.45235 12.9611 3.39781 12.7626 3.38824 12.5593C3.37867 12.3561 3.41431 12.1533 3.49259 11.9656L4.58343 9.34483L4.58251 9.16699C4.58251 7.22207 5.35513 5.35681 6.73039 3.98154C8.10566 2.60628 9.97092 1.83366 11.9158 1.83366ZM17.4158 0.916992C17.6071 0.917068 17.7935 0.976937 17.9489 1.08822C18.1044 1.19949 18.2212 1.35661 18.283 1.53758L18.4022 1.88408C18.6772 2.68983 19.3097 3.32324 20.1163 3.59824L20.4619 3.71649C20.6427 3.77843 20.7996 3.89532 20.9107 4.0508C21.0217 4.20627 21.0814 4.39258 21.0814 4.58366C21.0814 4.77474 21.0217 4.96104 20.9107 5.11652C20.7996 5.272 20.6427 5.38888 20.4619 5.45083L20.1154 5.56999C19.3097 5.84499 18.6763 6.47749 18.4013 7.28416L18.283 7.62974C18.2211 7.8105 18.1042 7.96739 17.9487 8.07847C17.7932 8.18954 17.6069 8.24926 17.4158 8.24926C17.2248 8.24926 17.0385 8.18954 16.883 8.07847C16.7275 7.96739 16.6106 7.8105 16.5487 7.62974L16.4295 7.28324C16.2938 6.88554 16.0687 6.52424 15.7715 6.22708C15.4743 5.92993 15.113 5.70483 14.7153 5.56908L14.3698 5.45083C14.189 5.38888 14.0321 5.272 13.921 5.11652C13.81 4.96104 13.7502 4.77474 13.7502 4.58366C13.7502 4.39258 13.81 4.20627 13.921 4.0508C14.0321 3.89532 14.189 3.77843 14.3698 3.71649L14.7163 3.59733C15.522 3.32233 16.1554 2.68983 16.4304 1.88316L16.5487 1.53758C16.6104 1.35661 16.7272 1.19949 16.8827 1.08822C17.0382 0.976937 17.2246 0.917068 17.4158 0.916992Z" fill="var(--fill-0, white)" id="Vector_2"/>
</g>
</g>
</svg>