<?xml version="1.0" encoding="utf-8"?>
<svg xmlns="http://www.w3.org/2000/svg" fill="none" height="100%" overflow="visible" preserveAspectRatio="none" style="display: block;" viewBox="0 0 63 63" width="100%">
<g id="Frame 35985">
<circle cx="31.5" cy="31.5" fill="var(--fill-0, #F2F2F2)" id="Ellipse 787" r="31.5"/>
<g id="stash:light-bulb">
<path d="M32 23.0625C35.172 23.0625 37.6875 25.5271 37.6875 28.5008C37.6875 30.3533 37.2108 31.2969 36.6063 32.1549C36.4691 32.347 36.3185 32.5493 36.1546 32.7616C35.5869 33.5037 34.9044 34.3974 34.4202 35.6855C34.3213 35.9511 34.1931 36.2047 34.0377 36.4417L33.9771 36.5283C33.8444 36.7181 33.6919 36.8931 33.5221 37.0505C33.0822 37.4535 32.5536 37.6875 32 37.6875C31.4475 37.6875 30.9177 37.4535 30.4768 37.0505C30.3069 36.8928 30.1544 36.7174 30.0218 36.5273L29.9623 36.4406C29.807 36.204 29.6787 35.9507 29.5798 35.6855C29.0956 34.3963 28.4131 33.5037 27.8454 32.7605C27.6909 32.5612 27.5403 32.359 27.3937 32.1538C26.7902 31.298 26.3125 30.3533 26.3125 28.4998C26.3125 25.5271 28.8291 23.0625 32 23.0625ZM35.4309 37.2748C35.6389 36.9497 35.8101 36.6063 35.9412 36.2564C36.3333 35.2132 36.8273 34.5643 37.369 33.8547C37.5532 33.6131 37.7428 33.3639 37.9356 33.0898C38.7048 31.9978 39.3125 30.7336 39.3125 28.4998C39.3125 24.5694 36.0083 21.4375 32 21.4375C27.9917 21.4375 24.6875 24.5694 24.6875 28.5008C24.6875 30.7325 25.2952 31.9978 26.0644 33.0898C26.2572 33.3639 26.4468 33.6131 26.631 33.8547C27.1727 34.5643 27.6667 35.2132 28.0588 36.2564C28.1899 36.6063 28.3622 36.9497 28.5691 37.2748L28.8096 39.6754C28.8895 40.466 29.2601 41.1988 29.8496 41.7317C30.439 42.2646 31.2054 42.5597 32 42.5597C32.7946 42.5597 33.561 42.2646 34.1504 41.7317C34.7399 41.1988 35.1105 40.466 35.1904 39.6754L35.4309 37.2748ZM33.6326 38.9323L33.5741 39.5129C33.5357 39.9037 33.3533 40.2663 33.0623 40.53C32.7714 40.7938 32.3927 40.9399 32 40.9399C31.6073 40.9399 31.2286 40.7938 30.9377 40.53C30.6467 40.2663 30.4643 39.9037 30.4259 39.5129L30.3685 38.9323C30.856 39.1728 31.4031 39.3125 32 39.3125C32.5958 39.3125 33.144 39.1717 33.6315 38.9323M21.6249 22.2706C21.763 22.1053 21.9611 22.0016 22.1756 21.9823C22.3901 21.963 22.6035 22.0297 22.7689 22.1677L24.3939 23.5218C24.5536 23.6615 24.6523 23.858 24.6689 24.0695C24.6856 24.281 24.6189 24.4906 24.4831 24.6535C24.3473 24.8164 24.1532 24.9198 23.9422 24.9416C23.7312 24.9633 23.5201 24.9017 23.3539 24.7698L21.7289 23.4157C21.5635 23.2777 21.4596 23.0797 21.4401 22.8652C21.4206 22.6507 21.4871 22.4361 21.6249 22.2706ZM42.3729 22.2717C42.4413 22.3537 42.4929 22.4483 42.5247 22.5503C42.5565 22.6522 42.5679 22.7594 42.5583 22.8658C42.5486 22.9721 42.5181 23.0755 42.4684 23.1701C42.4188 23.2646 42.351 23.3484 42.2689 23.4168L40.6439 24.7709C40.5624 24.8423 40.4674 24.8966 40.3646 24.9306C40.2617 24.9647 40.1531 24.9779 40.0451 24.9694C39.9371 24.9609 39.8319 24.9308 39.7356 24.8811C39.6394 24.8313 39.5541 24.7628 39.4848 24.6796C39.4154 24.5963 39.3634 24.5001 39.3318 24.3964C39.3002 24.2928 39.2896 24.1839 39.3007 24.0761C39.3118 23.9684 39.3444 23.8639 39.3964 23.7689C39.4485 23.6739 39.519 23.5903 39.6039 23.5229L41.2289 22.1687C41.3944 22.0309 41.6079 21.9644 41.8224 21.9839C42.037 22.0034 42.235 22.1062 42.3729 22.2717ZM20.3542 27.9375C20.3542 27.722 20.4398 27.5153 20.5921 27.363C20.7445 27.2106 20.9512 27.125 21.1667 27.125H23.3333C23.5488 27.125 23.7555 27.2106 23.9079 27.363C24.0602 27.5153 24.1458 27.722 24.1458 27.9375C24.1458 28.153 24.0602 28.3597 23.9079 28.512C23.7555 28.6644 23.5488 28.75 23.3333 28.75H21.1667C20.9512 28.75 20.7445 28.6644 20.5921 28.512C20.4398 28.3597 20.3542 28.153 20.3542 27.9375ZM39.8542 27.9375C39.8542 27.722 39.9398 27.5153 40.0921 27.363C40.2445 27.2106 40.4512 27.125 40.6667 27.125H42.8333C43.0488 27.125 43.2555 27.2106 43.4079 27.363C43.5602 27.5153 43.6458 27.722 43.6458 27.9375C43.6458 28.153 43.5602 28.3597 43.4079 28.512C43.2555 28.6644 43.0488 28.75 42.8333 28.75H40.6667C40.4512 28.75 40.2445 28.6644 40.0921 28.512C39.9398 28.3597 39.8542 28.153 39.8542 27.9375ZM24.6008 31.9079C24.6972 32.1006 24.713 32.3236 24.645 32.528C24.5769 32.7323 24.4305 32.9013 24.2379 32.9977L22.6129 33.8102C22.5174 33.8589 22.4131 33.8881 22.3062 33.8963C22.1993 33.9045 22.0918 33.8914 21.99 33.8578C21.8881 33.8242 21.7939 33.7708 21.7128 33.7007C21.6317 33.6305 21.5653 33.545 21.5174 33.4491C21.4695 33.3531 21.4411 33.2487 21.4337 33.1417C21.4264 33.0347 21.4403 32.9273 21.4747 32.8258C21.5091 32.7242 21.5632 32.6304 21.634 32.5499C21.7048 32.4693 21.7908 32.4036 21.8871 32.3564L23.5121 31.5439C23.7049 31.4477 23.928 31.432 24.1324 31.5002C24.3368 31.5685 24.5046 31.7151 24.6008 31.9079ZM39.4002 31.9079C39.4965 31.7154 39.6652 31.569 39.8693 31.5007C40.0735 31.4325 40.2963 31.448 40.489 31.5439L42.114 32.3564C42.2103 32.4036 42.2963 32.4693 42.3671 32.5499C42.4379 32.6304 42.492 32.7242 42.5264 32.8258C42.5607 32.9273 42.5747 33.0347 42.5673 33.1417C42.56 33.2487 42.5316 33.3531 42.4837 33.4491C42.4358 33.545 42.3694 33.6305 42.2883 33.7007C42.2072 33.7708 42.113 33.8242 42.0111 33.8578C41.9093 33.8914 41.8018 33.9045 41.6949 33.8963C41.588 33.8881 41.4837 33.8589 41.3882 33.8102L39.7632 32.9977C39.5704 32.9015 39.4237 32.7326 39.3555 32.5282C39.2872 32.3238 39.304 32.1007 39.4002 31.9079Z" fill="var(--fill-0, #656565)" id="Vector"/>
</g>
</g>
</svg>