<?xml version="1.0" encoding="utf-8"?>
<svg xmlns="http://www.w3.org/2000/svg" fill="none" height="100%" overflow="visible" preserveAspectRatio="none" style="display: block;" viewBox="0 0 33 34" width="100%">
<g clip-path="url(#clip0_0_17695)" id="proicons:arrow-up">
<g id="7269995 1 [Vectorized]">
<path d="M2.76422 27.1669C2.73392 26.6033 2.98043 25.9693 3.42969 25.6337C3.63252 25.4822 3.83263 25.3758 4.04734 25.2451L5.35113 24.466C5.80771 24.1934 6.25756 23.9226 6.71956 23.6543C7.19367 23.3825 7.68244 23.0334 8.18873 22.8325C8.7153 22.6236 9.45162 22.8683 9.84025 23.2619C10.1021 23.5271 10.3032 23.9195 10.4924 24.2443L11.3479 25.6828C11.4632 25.8739 11.6175 26.1634 11.741 26.3311L11.757 26.3526C12.3479 26.251 12.9599 26.051 13.5343 25.835C16.6823 24.6508 19.8571 22.7439 22.3583 20.4426C22.563 20.2543 23.0947 19.7563 23.1937 19.5446C23.1768 19.3311 22.7379 18.5925 22.6206 18.3756L21.8072 16.8366C21.3789 16.0332 21.4413 15.1176 22.1562 14.5066C22.548 14.1717 23.1206 13.9096 23.5642 13.637C24.5643 13.0226 25.5859 12.4392 26.5913 11.8336C26.9836 11.5974 27.5037 11.5629 27.9352 11.6879C28.8716 11.9591 29.1151 12.9972 29.5156 13.7913C29.6979 14.1411 29.8424 14.5339 30.0167 14.8905C30.4515 15.7796 30.8317 16.6952 31.2706 17.5823C31.0499 18.3249 30.7191 19.2058 30.3195 19.8694C27.9559 23.7939 23.7819 26.9469 19.9204 29.156C16.3201 31.2156 10.2273 33.7365 6.10167 32.5374C5.93606 32.3563 5.78644 32.0755 5.64649 31.8733C5.42399 31.5518 5.21359 31.2217 4.99569 30.8978L3.59519 28.8107C3.38035 28.4866 3.14594 28.142 2.94692 27.8085C2.85008 27.6462 2.79281 27.3518 2.76422 27.1669Z" fill="var(--fill-0, white)" id="Vector"/>
<path d="M8.44094 1.2427C8.44033 1.19804 8.4321 1.21684 8.46209 1.18374C8.54699 1.16514 8.63394 1.16475 8.72077 1.16435C9.81323 1.15985 10.9069 1.16161 11.9993 1.16161L18.2047 1.16259L21.3901 1.1624C21.8633 1.16161 22.337 1.1577 22.8099 1.16181C23.2066 1.16533 23.5275 1.22468 23.8206 1.51395C24.308 1.99497 24.2265 2.68926 24.2257 3.32265L24.2238 5.05125L24.2314 11.4116C23.879 11.5739 23.3173 11.9458 22.9719 12.1525L22.0178 12.7173C21.7513 12.8744 21.4312 13.0538 21.1943 13.2528C20.5244 13.816 20.1023 14.6331 20.0228 15.5201C19.9182 16.6474 20.3119 17.3532 20.8248 18.2834C20.9896 18.5821 21.1516 18.9816 21.3595 19.2417C21.2827 19.2955 21.2185 19.3529 21.151 19.4186C20.1099 20.4342 18.9221 21.183 17.7289 21.9809C17.339 22.2591 16.8709 22.4895 16.4567 22.7305C15.1836 23.4713 13.8663 24.0366 12.4878 24.5359C11.9763 23.8312 11.6196 23.0191 11.0876 22.2912C11.203 22.0826 11.4107 21.7919 11.5483 21.5857C11.8234 21.1647 12.1015 20.7459 12.3828 20.3294L15.4532 15.7139C15.8118 15.1689 16.2502 14.5893 16.5304 14.0076C16.7386 13.5755 16.1396 12.8613 15.8971 12.5052L15.0047 11.1679L10.7973 4.83287L9.34091 2.65107C9.14219 2.35573 8.59575 1.57036 8.45312 1.26875L8.44094 1.2427Z" fill="var(--fill-0, white)" id="Vector_2"/>
<path d="M7.40209 21.4157C7.38639 20.3097 7.39749 19.1782 7.39742 18.0709L7.39721 12.0792L7.3973 6.25494C7.39257 5.02675 7.39605 3.79856 7.40774 2.57056C7.58677 2.78776 7.92394 3.31049 8.08319 3.55316L8.8145 4.65463C9.37934 5.51795 9.97826 6.37382 10.5329 7.24263L13.3735 11.5075L14.2683 12.8565C14.4722 13.1621 14.6834 13.4537 14.8715 13.7712C14.7437 13.9901 14.5288 14.2914 14.3826 14.5095L13.5713 15.7316L11.1931 19.3041C10.9007 19.7372 10.6112 20.1957 10.3145 20.6274C10.1993 20.7951 9.93593 21.2426 9.81739 21.3693C9.66999 21.3671 9.43665 21.2884 9.28644 21.2577C8.76492 21.1511 8.25125 21.1941 7.73688 21.3142C7.62657 21.3399 7.50877 21.4138 7.40209 21.4157Z" fill="var(--fill-0, white)" id="Vector_3"/>
</g>
</g>
<defs>
<clipPath id="clip0_0_17695">
<rect fill="white" height="34" width="33"/>
</clipPath>
</defs>
</svg>